<svg width="856" height="556" viewBox="0 0 856 556" fill="none" xmlns="http://www.w3.org/2000/svg">
<rect width="364" height="556" rx="10" fill="#F5F5F5"/>
<rect x="492" width="364" height="556" rx="10" fill="#F5F5F5"/>
<path d="M382.509 265H379.554L381.124 255.545H384.134C385.051 255.545 385.806 255.738 386.4 256.123C386.997 256.507 387.413 257.057 387.647 257.771C387.884 258.485 387.919 259.337 387.753 260.328C387.593 261.301 387.282 262.136 386.82 262.835C386.362 263.53 385.768 264.066 385.038 264.441C384.312 264.814 383.469 265 382.509 265ZM380.87 263.984H382.545C383.327 263.984 384.001 263.83 384.567 263.523C385.137 263.215 385.595 262.776 385.943 262.207C386.294 261.638 386.534 260.962 386.663 260.18C386.793 259.429 386.78 258.785 386.626 258.246C386.476 257.704 386.179 257.289 385.735 257C385.295 256.707 384.706 256.561 383.967 256.561H382.098L380.87 263.984ZM390.818 265.166C390.369 265.166 389.975 265.082 389.636 264.912C389.298 264.74 389.047 264.492 388.884 264.169C388.721 263.843 388.676 263.449 388.75 262.987C388.821 262.581 388.958 262.252 389.161 261.999C389.364 261.744 389.61 261.544 389.9 261.399C390.192 261.251 390.506 261.142 390.841 261.071C391.18 260.998 391.517 260.941 391.852 260.901C392.289 260.845 392.645 260.802 392.919 260.771C393.193 260.741 393.399 260.69 393.537 260.619C393.676 260.548 393.76 260.427 393.791 260.254V260.217C393.865 259.765 393.805 259.413 393.611 259.16C393.417 258.905 393.071 258.777 392.572 258.777C392.055 258.777 391.623 258.891 391.275 259.119C390.927 259.346 390.67 259.589 390.504 259.848L389.544 259.479C389.796 259.048 390.098 258.712 390.449 258.472C390.8 258.229 391.167 258.06 391.552 257.964C391.937 257.866 392.308 257.817 392.665 257.817C392.893 257.817 393.15 257.844 393.436 257.9C393.722 257.952 393.99 258.061 394.239 258.228C394.491 258.394 394.681 258.645 394.807 258.98C394.936 259.316 394.955 259.765 394.862 260.328L394.087 265H392.997L393.163 264.04H393.108C393.009 264.194 392.859 264.358 392.656 264.534C392.455 264.709 392.202 264.858 391.894 264.982C391.589 265.105 391.231 265.166 390.818 265.166ZM391.132 264.188C391.563 264.188 391.94 264.103 392.263 263.934C392.589 263.764 392.851 263.546 393.048 263.278C393.248 263.01 393.373 262.729 393.422 262.433L393.588 261.436C393.533 261.491 393.423 261.542 393.26 261.588C393.097 261.632 392.913 261.67 392.706 261.704C392.503 261.735 392.305 261.762 392.111 261.787C391.92 261.808 391.766 261.827 391.649 261.842C391.36 261.879 391.084 261.939 390.823 262.022C390.564 262.102 390.346 262.224 390.167 262.387C389.992 262.547 389.883 262.766 389.839 263.043C389.775 263.421 389.866 263.707 390.112 263.901C390.358 264.092 390.698 264.188 391.132 264.188ZM400.341 257.909L400.193 258.832H396.518L396.666 257.909H400.341ZM398.014 256.21H399.104L397.977 262.969C397.928 263.277 397.936 263.507 398 263.661C398.068 263.812 398.17 263.914 398.305 263.966C398.443 264.015 398.593 264.04 398.753 264.04C398.873 264.04 398.971 264.034 399.048 264.021C399.125 264.006 399.187 263.994 399.233 263.984L399.307 264.963C399.224 264.991 399.111 265.018 398.97 265.046C398.831 265.077 398.66 265.092 398.457 265.092C398.15 265.092 397.86 265.026 397.589 264.894C397.319 264.761 397.111 264.56 396.966 264.289C396.822 264.018 396.783 263.677 396.851 263.264L398.014 256.21ZM402.866 265.166C402.417 265.166 402.023 265.082 401.684 264.912C401.346 264.74 401.095 264.492 400.932 264.169C400.769 263.843 400.724 263.449 400.798 262.987C400.869 262.581 401.006 262.252 401.209 261.999C401.412 261.744 401.658 261.544 401.947 261.399C402.24 261.251 402.554 261.142 402.889 261.071C403.228 260.998 403.565 260.941 403.9 260.901C404.337 260.845 404.693 260.802 404.967 260.771C405.24 260.741 405.447 260.69 405.585 260.619C405.724 260.548 405.808 260.427 405.839 260.254V260.217C405.913 259.765 405.853 259.413 405.659 259.16C405.465 258.905 405.119 258.777 404.62 258.777C404.103 258.777 403.671 258.891 403.323 259.119C402.975 259.346 402.718 259.589 402.552 259.848L401.592 259.479C401.844 259.048 402.146 258.712 402.497 258.472C402.848 258.229 403.215 258.06 403.6 257.964C403.985 257.866 404.356 257.817 404.713 257.817C404.94 257.817 405.197 257.844 405.484 257.9C405.77 257.952 406.038 258.061 406.287 258.228C406.539 258.394 406.728 258.645 406.855 258.98C406.984 259.316 407.002 259.765 406.91 260.328L406.134 265H405.045L405.211 264.04H405.156C405.057 264.194 404.907 264.358 404.703 264.534C404.503 264.709 404.249 264.858 403.942 264.982C403.637 265.105 403.278 265.166 402.866 265.166ZM403.18 264.188C403.611 264.188 403.988 264.103 404.311 263.934C404.637 263.764 404.899 263.546 405.096 263.278C405.296 263.01 405.42 262.729 405.47 262.433L405.636 261.436C405.581 261.491 405.471 261.542 405.308 261.588C405.145 261.632 404.96 261.67 404.754 261.704C404.551 261.735 404.353 261.762 404.159 261.787C403.968 261.808 403.814 261.827 403.697 261.842C403.408 261.879 403.132 261.939 402.871 262.022C402.612 262.102 402.394 262.224 402.215 262.387C402.04 262.547 401.93 262.766 401.887 263.043C401.823 263.421 401.914 263.707 402.16 263.901C402.406 264.092 402.746 264.188 403.18 264.188ZM419.701 257.909L419.553 258.832H415.879L416.026 257.909H419.701ZM417.374 256.21H418.464L417.338 262.969C417.288 263.277 417.296 263.507 417.361 263.661C417.428 263.812 417.53 263.914 417.665 263.966C417.804 264.015 417.953 264.04 418.113 264.04C418.233 264.04 418.332 264.034 418.409 264.021C418.485 264.006 418.547 263.994 418.593 263.984L418.667 264.963C418.584 264.991 418.472 265.018 418.33 265.046C418.192 265.077 418.021 265.092 417.818 265.092C417.51 265.092 417.221 265.026 416.95 264.894C416.679 264.761 416.471 264.56 416.327 264.289C416.182 264.018 416.143 263.677 416.211 263.264L417.374 256.21ZM420.158 265L421.34 257.909H422.393L422.208 258.98H422.282C422.466 258.629 422.748 258.345 423.127 258.126C423.505 257.908 423.907 257.798 424.331 257.798C424.415 257.798 424.515 257.8 424.632 257.803C424.749 257.803 424.839 257.808 424.904 257.817L424.719 258.925C424.682 258.915 424.599 258.902 424.47 258.883C424.341 258.862 424.202 258.851 424.055 258.851C423.71 258.851 423.391 258.923 423.099 259.068C422.807 259.209 422.562 259.406 422.365 259.659C422.168 259.908 422.042 260.193 421.986 260.513L421.248 265H420.158ZM427.089 265.166C426.639 265.166 426.245 265.082 425.907 264.912C425.568 264.74 425.318 264.492 425.154 264.169C424.991 263.843 424.947 263.449 425.021 262.987C425.091 262.581 425.228 262.252 425.431 261.999C425.634 261.744 425.881 261.544 426.17 261.399C426.462 261.251 426.776 261.142 427.112 261.071C427.45 260.998 427.787 260.941 428.123 260.901C428.56 260.845 428.915 260.802 429.189 260.771C429.463 260.741 429.669 260.69 429.808 260.619C429.946 260.548 430.031 260.427 430.062 260.254V260.217C430.136 259.765 430.076 259.413 429.882 259.16C429.688 258.905 429.342 258.777 428.843 258.777C428.326 258.777 427.893 258.891 427.546 259.119C427.198 259.346 426.941 259.589 426.775 259.848L425.815 259.479C426.067 259.048 426.369 258.712 426.719 258.472C427.07 258.229 427.438 258.06 427.823 257.964C428.207 257.866 428.578 257.817 428.935 257.817C429.163 257.817 429.42 257.844 429.706 257.9C429.992 257.952 430.26 258.061 430.509 258.228C430.762 258.394 430.951 258.645 431.077 258.98C431.207 259.316 431.225 259.765 431.133 260.328L430.357 265H429.268L429.434 264.04H429.378C429.28 264.194 429.129 264.358 428.926 264.534C428.726 264.709 428.472 264.858 428.164 264.982C427.86 265.105 427.501 265.166 427.089 265.166ZM427.403 264.188C427.833 264.188 428.21 264.103 428.534 263.934C428.86 263.764 429.121 263.546 429.318 263.278C429.518 263.01 429.643 262.729 429.692 262.433L429.859 261.436C429.803 261.491 429.694 261.542 429.531 261.588C429.368 261.632 429.183 261.67 428.977 261.704C428.774 261.735 428.575 261.762 428.381 261.787C428.19 261.808 428.037 261.827 427.92 261.842C427.63 261.879 427.355 261.939 427.093 262.022C426.835 262.102 426.616 262.224 426.438 262.387C426.262 262.547 426.153 262.766 426.11 263.043C426.045 263.421 426.136 263.707 426.382 263.901C426.629 264.092 426.969 264.188 427.403 264.188ZM434.137 260.734L433.435 265H432.346L433.528 257.909H434.58L434.395 259.017H434.488C434.709 258.657 435.009 258.368 435.388 258.149C435.767 257.928 436.224 257.817 436.759 257.817C437.233 257.817 437.633 257.915 437.959 258.112C438.289 258.306 438.521 258.602 438.656 258.999C438.795 259.393 438.815 259.891 438.716 260.494L437.959 265H436.87L437.608 260.568C437.701 260.014 437.628 259.58 437.392 259.266C437.158 258.952 436.787 258.795 436.279 258.795C435.928 258.795 435.603 258.871 435.305 259.022C435.009 259.172 434.759 259.393 434.552 259.682C434.349 259.971 434.211 260.322 434.137 260.734ZM445.896 259.497L444.862 259.774C444.825 259.608 444.761 259.448 444.668 259.294C444.579 259.137 444.44 259.009 444.253 258.911C444.068 258.809 443.816 258.759 443.496 258.759C443.062 258.759 442.685 258.859 442.365 259.059C442.045 259.256 441.861 259.506 441.815 259.811C441.769 260.079 441.831 260.293 442 260.453C442.169 260.613 442.452 260.744 442.849 260.845L443.865 261.104C444.474 261.261 444.908 261.496 445.167 261.81C445.428 262.121 445.518 262.526 445.435 263.024C445.367 263.43 445.19 263.794 444.904 264.114C444.617 264.434 444.251 264.686 443.805 264.871C443.359 265.055 442.862 265.148 442.314 265.148C441.584 265.148 441.009 264.991 440.587 264.677C440.166 264.36 439.941 263.901 439.913 263.301L441.003 263.043C441.03 263.421 441.166 263.707 441.409 263.901C441.655 264.092 442 264.188 442.443 264.188C442.951 264.188 443.374 264.08 443.713 263.864C444.051 263.646 444.244 263.384 444.29 263.08C444.336 262.83 444.287 262.623 444.142 262.456C444 262.29 443.754 262.165 443.403 262.082L442.277 261.805C441.649 261.648 441.209 261.408 440.957 261.085C440.707 260.762 440.624 260.356 440.707 259.866C440.775 259.466 440.947 259.112 441.224 258.805C441.504 258.497 441.855 258.255 442.277 258.08C442.702 257.904 443.163 257.817 443.662 257.817C444.364 257.817 444.888 257.971 445.236 258.278C445.584 258.583 445.804 258.989 445.896 259.497ZM451.082 257.909L450.934 258.832H447.112L447.259 257.909H451.082ZM447.222 265L448.57 256.93C448.632 256.524 448.78 256.186 449.013 255.915C449.25 255.644 449.532 255.441 449.858 255.305C450.188 255.17 450.522 255.102 450.86 255.102C451.128 255.102 451.342 255.124 451.502 255.167C451.665 255.21 451.783 255.25 451.857 255.287L451.396 256.229C451.34 256.21 451.266 256.187 451.174 256.159C451.085 256.132 450.962 256.118 450.805 256.118C450.445 256.118 450.171 256.209 449.983 256.39C449.795 256.572 449.669 256.838 449.604 257.189L448.312 265H447.222ZM454.089 265.148C453.409 265.148 452.847 264.997 452.404 264.695C451.961 264.391 451.652 263.966 451.476 263.421C451.301 262.873 451.273 262.236 451.393 261.51C451.513 260.784 451.752 260.143 452.109 259.589C452.466 259.032 452.911 258.598 453.443 258.288C453.975 257.974 454.56 257.817 455.197 257.817C455.567 257.817 455.922 257.878 456.264 258.001C456.605 258.125 456.901 258.325 457.15 258.602C457.399 258.875 457.573 259.239 457.672 259.691C457.77 260.143 457.764 260.701 457.653 261.362L457.579 261.824H452.113L452.261 260.882H456.619C456.69 260.482 456.671 260.125 456.564 259.811C456.459 259.497 456.276 259.249 456.014 259.068C455.756 258.886 455.428 258.795 455.031 258.795C454.622 258.795 454.24 258.906 453.886 259.128C453.532 259.346 453.237 259.623 453 259.959C452.763 260.291 452.615 260.63 452.557 260.974L452.427 261.787C452.335 262.375 452.349 262.843 452.469 263.19C452.592 263.538 452.806 263.789 453.111 263.943C453.415 264.094 453.797 264.169 454.256 264.169C454.548 264.169 454.817 264.129 455.063 264.049C455.31 263.966 455.53 263.843 455.724 263.68C455.917 263.513 456.081 263.307 456.213 263.061L457.21 263.357C457.041 263.714 456.802 264.027 456.494 264.298C456.19 264.566 455.833 264.775 455.423 264.926C455.017 265.074 454.573 265.148 454.089 265.148ZM458.727 265L459.908 257.909H460.961L460.776 258.98H460.85C461.035 258.629 461.316 258.345 461.695 258.126C462.074 257.908 462.475 257.798 462.9 257.798C462.983 257.798 463.083 257.8 463.2 257.803C463.317 257.803 463.408 257.808 463.472 257.817L463.288 258.925C463.251 258.915 463.168 258.902 463.038 258.883C462.909 258.862 462.771 258.851 462.623 258.851C462.278 258.851 461.96 258.923 461.667 259.068C461.375 259.209 461.13 259.406 460.933 259.659C460.736 259.908 460.61 260.193 460.555 260.513L459.816 265H458.727Z" fill="black"/>
<path d="M512.707 303.707C513.098 303.317 513.098 302.683 512.707 302.293L506.343 295.929C505.953 295.538 505.319 295.538 504.929 295.929C504.538 296.319 504.538 296.953 504.929 297.343L510.586 303L504.929 308.657C504.538 309.047 504.538 309.681 504.929 310.071C505.319 310.462 505.953 310.462 506.343 310.071L512.707 303.707ZM349 304L512 304V302L349 302V304Z" fill="black"/>
<path d="M348.293 280.707C347.902 280.317 347.902 279.683 348.293 279.293L354.657 272.929C355.047 272.538 355.681 272.538 356.071 272.929C356.462 273.319 356.462 273.953 356.071 274.343L350.414 280L356.071 285.657C356.462 286.047 356.462 286.681 356.071 287.071C355.681 287.462 355.047 287.462 354.657 287.071L348.293 280.707ZM512 281L349 281L349 279L512 279L512 281Z" fill="black"/>
<path d="M512.257 263.966C512.791 263.824 513.108 263.276 512.966 262.742L510.649 254.046C510.507 253.512 509.959 253.195 509.425 253.337C508.891 253.479 508.574 254.027 508.716 254.561L510.776 262.291L503.046 264.351C502.512 264.493 502.195 265.041 502.337 265.575C502.479 266.109 503.027 266.426 503.561 266.284L512.257 263.966ZM271.499 124.865L511.499 263.865L512.501 262.135L272.501 123.135L271.499 124.865Z" fill="black"/>
<path d="M308.049 112.348L314.357 105.132L319.178 108.114L318.503 108.89L314.655 106.511L312.519 108.946L316.006 111.102L315.33 111.879L311.844 109.723L309.023 112.95L308.049 112.348ZM316.405 117.689C315.827 117.331 315.428 116.908 315.21 116.418C314.993 115.926 314.954 115.402 315.091 114.846C315.23 114.288 315.541 113.732 316.025 113.177C316.51 112.623 317.049 112.204 317.644 111.92C318.241 111.634 318.847 111.499 319.464 111.515C320.082 111.528 320.661 111.702 321.203 112.037C321.517 112.231 321.787 112.47 322.013 112.755C322.239 113.039 322.385 113.365 322.451 113.731C322.519 114.095 322.476 114.496 322.322 114.932C322.168 115.369 321.87 115.84 321.427 116.344L321.122 116.698L316.473 113.823L317.094 113.1L320.8 115.392C321.071 115.089 321.243 114.775 321.317 114.452C321.393 114.13 321.367 113.823 321.24 113.531C321.116 113.24 320.885 112.991 320.547 112.782C320.199 112.567 319.816 112.46 319.399 112.462C318.983 112.462 318.586 112.542 318.208 112.703C317.831 112.861 317.528 113.071 317.297 113.334L316.759 113.957C316.372 114.408 316.137 114.813 316.057 115.172C315.978 115.533 316.028 115.858 316.206 116.15C316.386 116.438 316.671 116.703 317.061 116.944C317.31 117.098 317.56 117.206 317.811 117.267C318.065 117.326 318.317 117.337 318.567 117.3C318.82 117.261 319.067 117.171 319.309 117.031L320.001 117.807C319.67 118.022 319.302 118.163 318.898 118.232C318.498 118.299 318.084 118.289 317.656 118.202C317.233 118.114 316.816 117.943 316.405 117.689ZM327.784 116.215L327.173 116.923L324.048 114.99L324.659 114.282L327.784 116.215ZM326.699 113.547L327.626 114.12L323.113 119.275C322.909 119.511 322.794 119.712 322.768 119.876C322.747 120.04 322.78 120.18 322.867 120.296C322.959 120.411 323.073 120.51 323.209 120.594C323.311 120.657 323.398 120.704 323.47 120.734C323.544 120.761 323.603 120.783 323.647 120.8L323.195 121.671C323.109 121.651 322.999 121.615 322.864 121.564C322.73 121.518 322.577 121.441 322.404 121.334C322.143 121.172 321.931 120.964 321.771 120.709C321.61 120.454 321.539 120.173 321.559 119.866C321.578 119.56 321.725 119.249 321.999 118.934L326.699 113.547ZM326.735 124.077C326.167 123.726 325.784 123.305 325.585 122.813C325.389 122.322 325.365 121.799 325.514 121.243C325.662 120.687 325.972 120.139 326.444 119.598C326.922 119.047 327.458 118.631 328.051 118.351C328.646 118.067 329.252 117.933 329.868 117.949C330.486 117.962 331.068 118.137 331.612 118.474C332.036 118.736 332.357 119.043 332.574 119.394C332.791 119.745 332.897 120.115 332.892 120.503C332.887 120.891 332.763 121.27 332.52 121.64L331.593 121.067C331.737 120.776 331.77 120.46 331.691 120.119C331.617 119.776 331.377 119.479 330.972 119.228C330.61 119.005 330.22 118.894 329.8 118.894C329.381 118.892 328.963 118.998 328.546 119.21C328.13 119.42 327.745 119.73 327.39 120.14C327.023 120.557 326.779 120.967 326.657 121.369C326.535 121.771 326.535 122.143 326.658 122.483C326.78 122.823 327.025 123.106 327.391 123.332C327.632 123.481 327.883 123.579 328.145 123.624C328.406 123.67 328.666 123.665 328.925 123.608C329.185 123.551 329.43 123.442 329.66 123.281L330.586 123.854C330.251 124.138 329.868 124.345 329.438 124.473C329.009 124.599 328.562 124.634 328.098 124.578C327.634 124.519 327.18 124.353 326.735 124.077ZM334.322 123.58L331.482 126.839L330.555 126.266L336.863 119.05L337.789 119.623L335.476 122.275L335.555 122.323C335.938 122.126 336.343 122.032 336.77 122.043C337.2 122.056 337.655 122.211 338.134 122.507C338.542 122.759 338.835 123.055 339.013 123.393C339.196 123.73 339.24 124.103 339.146 124.512C339.057 124.92 338.81 125.357 338.406 125.823L335.392 129.257L334.466 128.684L337.425 125.303C337.799 124.873 337.964 124.463 337.919 124.073C337.879 123.683 337.643 123.354 337.211 123.087C336.907 122.899 336.585 122.788 336.244 122.755C335.905 122.723 335.569 122.774 335.237 122.908C334.907 123.044 334.602 123.268 334.322 123.58ZM342.554 133.86C341.986 133.508 341.602 133.087 341.404 132.595C341.207 132.104 341.184 131.581 341.332 131.025C341.48 130.469 341.79 129.921 342.262 129.381C342.741 128.83 343.276 128.414 343.87 128.133C344.465 127.849 345.07 127.716 345.687 127.731C346.305 127.744 346.886 127.919 347.43 128.256C347.854 128.518 348.175 128.825 348.392 129.176C348.609 129.528 348.715 129.897 348.71 130.285C348.706 130.673 348.582 131.052 348.338 131.423L347.411 130.85C347.555 130.559 347.588 130.242 347.51 129.901C347.436 129.558 347.196 129.261 346.79 129.011C346.429 128.787 346.038 128.676 345.618 128.677C345.199 128.675 344.781 128.78 344.364 128.992C343.949 129.202 343.563 129.512 343.208 129.922C342.842 130.34 342.597 130.749 342.475 131.151C342.353 131.554 342.353 131.925 342.476 132.265C342.599 132.605 342.843 132.888 343.21 133.115C343.451 133.264 343.702 133.361 343.963 133.407C344.224 133.452 344.484 133.447 344.744 133.39C345.003 133.334 345.248 133.224 345.478 133.063L346.405 133.636C346.069 133.921 345.687 134.127 345.256 134.255C344.828 134.381 344.381 134.416 343.916 134.36C343.453 134.302 342.999 134.135 342.554 133.86ZM348.045 137.277C347.663 137.041 347.372 136.762 347.173 136.44C346.976 136.115 346.893 135.772 346.924 135.412C346.957 135.048 347.126 134.69 347.432 134.336C347.706 134.028 347.995 133.82 348.301 133.712C348.608 133.602 348.923 133.561 349.245 133.59C349.571 133.618 349.896 133.69 350.218 133.807C350.545 133.922 350.861 134.051 351.168 134.193C351.569 134.376 351.894 134.526 352.143 134.644C352.392 134.762 352.594 134.827 352.749 134.84C352.904 134.852 353.04 134.794 353.157 134.663L353.176 134.632C353.477 134.286 353.611 133.955 353.579 133.638C353.549 133.319 353.321 133.028 352.897 132.766C352.458 132.494 352.03 132.363 351.614 132.374C351.199 132.385 350.852 132.456 350.575 132.589L349.953 131.77C350.394 131.536 350.827 131.409 351.251 131.39C351.678 131.367 352.08 131.417 352.457 131.538C352.836 131.657 353.177 131.81 353.481 131.998C353.675 132.117 353.879 132.276 354.093 132.474C354.309 132.669 354.479 132.903 354.604 133.175C354.731 133.449 354.76 133.762 354.691 134.114C354.624 134.467 354.404 134.859 354.029 135.289L350.912 138.855L349.985 138.282L350.632 137.553L350.585 137.523C350.42 137.602 350.205 137.663 349.94 137.706C349.678 137.75 349.383 137.743 349.057 137.686C348.733 137.63 348.396 137.494 348.045 137.277ZM348.827 136.61C349.193 136.836 349.558 136.963 349.922 136.989C350.289 137.016 350.626 136.968 350.934 136.844C351.245 136.721 351.499 136.548 351.697 136.322L352.362 135.561C352.286 135.579 352.167 135.565 352.004 135.519C351.842 135.469 351.665 135.405 351.472 135.325C351.283 135.245 351.099 135.164 350.922 135.083C350.748 135.001 350.607 134.936 350.5 134.887C350.234 134.766 349.968 134.673 349.702 134.606C349.44 134.538 349.19 134.526 348.953 134.571C348.719 134.615 348.512 134.743 348.329 134.956C348.075 135.244 348.002 135.535 348.109 135.83C348.218 136.122 348.457 136.382 348.827 136.61ZM359.961 136.113L359.35 136.821L356.224 134.888L356.835 134.181L359.961 136.113ZM358.875 133.445L359.802 134.018L355.289 139.174C355.086 139.409 354.971 139.61 354.945 139.775C354.923 139.938 354.956 140.078 355.044 140.194C355.136 140.309 355.25 140.408 355.386 140.492C355.488 140.555 355.575 140.602 355.647 140.632C355.72 140.659 355.779 140.681 355.823 140.698L355.371 141.569C355.286 141.549 355.176 141.513 355.041 141.462C354.907 141.416 354.754 141.339 354.581 141.232C354.319 141.07 354.108 140.862 353.947 140.607C353.786 140.352 353.716 140.071 353.735 139.765C353.754 139.458 353.901 139.148 354.176 138.832L358.875 133.445ZM358.292 143.614C357.909 143.377 357.619 143.098 357.42 142.776C357.223 142.452 357.14 142.109 357.171 141.748C357.204 141.385 357.373 141.027 357.679 140.673C357.952 140.365 358.242 140.156 358.548 140.049C358.855 139.938 359.169 139.898 359.492 139.927C359.818 139.955 360.142 140.027 360.465 140.143C360.792 140.259 361.108 140.387 361.415 140.53C361.815 140.713 362.14 140.863 362.39 140.981C362.639 141.099 362.841 141.164 362.996 141.177C363.151 141.189 363.287 141.13 363.404 141L363.423 140.968C363.724 140.623 363.858 140.291 363.826 139.975C363.795 139.655 363.568 139.365 363.144 139.102C362.704 138.83 362.277 138.7 361.861 138.711C361.446 138.721 361.099 138.793 360.822 138.926L360.199 138.106C360.641 137.873 361.074 137.746 361.498 137.726C361.924 137.704 362.326 137.754 362.704 137.875C363.083 137.993 363.424 138.147 363.728 138.334C363.921 138.454 364.125 138.613 364.34 138.81C364.556 139.006 364.726 139.239 364.85 139.512C364.978 139.786 365.007 140.099 364.938 140.45C364.871 140.804 364.65 141.196 364.276 141.626L361.159 145.192L360.232 144.619L360.879 143.889L360.831 143.86C360.667 143.939 360.452 144 360.187 144.042C359.924 144.086 359.63 144.08 359.304 144.023C358.98 143.967 358.642 143.831 358.292 143.614ZM359.073 142.947C359.44 143.173 359.805 143.299 360.169 143.325C360.535 143.353 360.873 143.305 361.181 143.181C361.492 143.058 361.746 142.884 361.943 142.659L362.609 141.898C362.533 141.916 362.413 141.902 362.25 141.855C362.089 141.806 361.912 141.742 361.719 141.662C361.53 141.581 361.346 141.501 361.168 141.42C360.995 141.338 360.854 141.272 360.747 141.224C360.481 141.103 360.215 141.009 359.949 140.942C359.687 140.874 359.437 140.863 359.2 140.908C358.966 140.952 358.758 141.08 358.576 141.293C358.322 141.581 358.249 141.872 358.356 142.167C358.465 142.458 358.704 142.718 359.073 142.947ZM370.084 139.595L363.777 146.81L362.85 146.237L369.158 139.022L370.084 139.595ZM367.885 149.525C367.331 149.182 366.948 148.762 366.737 148.267C366.526 147.771 366.491 147.237 366.631 146.665C366.774 146.095 367.092 145.524 367.586 144.954C368.067 144.398 368.598 143.982 369.177 143.707C369.76 143.431 370.35 143.304 370.948 143.326C371.55 143.347 372.118 143.523 372.652 143.853C373.207 144.197 373.588 144.617 373.794 145.113C374.005 145.609 374.04 146.144 373.898 146.719C373.758 147.291 373.439 147.865 372.942 148.44C372.464 148.991 371.933 149.403 371.348 149.675C370.768 149.945 370.179 150.071 369.579 150.051C368.984 150.031 368.419 149.855 367.885 149.525ZM368.416 148.702C368.84 148.965 369.275 149.083 369.721 149.059C370.169 149.036 370.6 148.906 371.014 148.67C371.431 148.435 371.801 148.132 372.125 147.761C372.43 147.407 372.654 147.04 372.794 146.661C372.937 146.278 372.961 145.915 372.866 145.57C372.773 145.223 372.525 144.925 372.122 144.676C371.698 144.414 371.259 144.295 370.807 144.319C370.357 144.344 369.924 144.477 369.508 144.715C369.093 144.954 368.725 145.26 368.403 145.633C368.098 145.987 367.873 146.353 367.73 146.731C367.591 147.108 367.568 147.469 367.663 147.813C367.762 148.157 368.013 148.453 368.416 148.702ZM372.652 155.599C372.202 155.321 371.861 155.03 371.628 154.727C371.394 154.427 371.243 154.127 371.175 153.828C371.105 153.532 371.088 153.249 371.123 152.982L372.276 152.978C372.271 153.127 372.274 153.303 372.286 153.506C372.297 153.711 372.37 153.929 372.507 154.158C372.645 154.392 372.898 154.622 373.267 154.851C373.752 155.15 374.248 155.295 374.758 155.284C375.267 155.273 375.721 155.044 376.118 154.594L377.064 153.486L376.985 153.437C376.834 153.496 376.633 153.56 376.384 153.63C376.136 153.697 375.847 153.716 375.518 153.686C375.191 153.654 374.831 153.516 374.438 153.273C373.949 152.971 373.601 152.596 373.395 152.151C373.19 151.705 373.147 151.216 373.267 150.682C373.39 150.15 373.698 149.602 374.191 149.039C374.675 148.484 375.204 148.068 375.778 147.789C376.356 147.51 376.937 147.377 377.522 147.391C378.108 147.403 378.655 147.566 379.163 147.88C379.556 148.123 379.816 148.374 379.945 148.635C380.077 148.894 380.141 149.136 380.136 149.361C380.133 149.583 380.123 149.762 380.108 149.897L380.203 149.956L380.952 149.095L381.847 149.648L376.99 155.221C376.583 155.685 376.135 155.991 375.647 156.138C375.156 156.287 374.655 156.308 374.142 156.201C373.628 156.096 373.131 155.896 372.652 155.599ZM375.188 152.587C375.558 152.815 375.939 152.933 376.332 152.941C376.728 152.95 377.12 152.855 377.508 152.653C377.897 152.452 378.265 152.152 378.614 151.752C378.956 151.363 379.188 150.976 379.31 150.592C379.431 150.208 379.434 149.849 379.318 149.517C379.204 149.186 378.96 148.905 378.586 148.673C378.19 148.429 377.787 148.317 377.376 148.338C376.968 148.36 376.571 148.484 376.186 148.709C375.801 148.934 375.448 149.23 375.127 149.596C374.8 149.973 374.574 150.345 374.448 150.712C374.324 151.077 374.318 151.42 374.429 151.743C374.545 152.064 374.798 152.345 375.188 152.587Z" fill="black"/>
<path d="M289.733 468.008C289.223 467.872 288.929 467.311 289.076 466.755L291.483 457.686C291.63 457.129 292.164 456.788 292.674 456.923C293.184 457.058 293.478 457.619 293.33 458.176L291.191 466.237L298.58 468.198C299.09 468.333 299.384 468.894 299.236 469.451C299.088 470.007 298.555 470.348 298.045 470.213L289.733 468.008ZM512.464 325.727L290.464 467.886L289.536 466.114L511.536 323.955L512.464 325.727Z" fill="black"/>
<path d="M436.907 423.325L432.378 414.879L436.868 411.418L437.357 412.323L433.773 415.085L435.3 417.943L438.546 415.44L439.035 416.346L435.788 418.848L437.814 422.626L436.907 423.325ZM444.851 417.388C444.313 417.803 443.776 418.026 443.24 418.058C442.703 418.087 442.199 417.94 441.728 417.616C441.254 417.289 440.843 416.801 440.495 416.153C440.147 415.504 439.945 414.851 439.889 414.195C439.832 413.536 439.919 412.92 440.151 412.349C440.381 411.775 440.748 411.294 441.253 410.905C441.545 410.68 441.865 410.511 442.21 410.4C442.556 410.289 442.912 410.267 443.279 410.335C443.643 410.399 444.003 410.581 444.357 410.879C444.711 411.177 445.046 411.622 445.363 412.214L445.586 412.624L441.257 415.962L440.799 415.125L444.25 412.465C444.062 412.105 443.83 411.833 443.553 411.65C443.278 411.466 442.982 411.381 442.664 411.397C442.348 411.411 442.033 411.539 441.719 411.782C441.395 412.032 441.16 412.352 441.015 412.744C440.868 413.133 440.803 413.533 440.82 413.943C440.836 414.351 440.925 414.71 441.089 415.018L441.483 415.741C441.769 416.263 442.065 416.625 442.373 416.827C442.683 417.027 443.005 417.095 443.34 417.031C443.674 416.964 444.022 416.791 444.385 416.511C444.617 416.333 444.806 416.137 444.952 415.923C445.096 415.707 445.195 415.475 445.249 415.227C445.301 414.977 445.305 414.714 445.259 414.439L446.229 414.064C446.313 414.45 446.316 414.844 446.237 415.247C446.16 415.645 446.005 416.028 445.773 416.398C445.541 416.763 445.234 417.093 444.851 417.388ZM447.483 406.219L447.929 407.041L445.019 409.284L444.572 408.463L447.483 406.219ZM444.603 406.294L445.466 405.629L448.7 411.67C448.849 411.943 448.996 412.121 449.141 412.204C449.287 412.282 449.429 412.3 449.568 412.259C449.708 412.214 449.841 412.142 449.968 412.044C450.063 411.971 450.137 411.906 450.191 411.849C450.242 411.79 450.284 411.743 450.314 411.707L450.97 412.437C450.922 412.51 450.85 412.601 450.754 412.709C450.663 412.818 450.538 412.934 450.377 413.058C450.133 413.246 449.863 413.37 449.568 413.431C449.273 413.492 448.985 413.459 448.705 413.332C448.425 413.206 448.186 412.959 447.988 412.591L444.603 406.294ZM454.471 409.972C453.942 410.38 453.412 410.59 452.882 410.603C452.354 410.613 451.856 410.451 451.388 410.116C450.92 409.782 450.516 409.298 450.176 408.666C449.829 408.024 449.629 407.376 449.575 406.722C449.52 406.065 449.608 405.451 449.84 404.88C450.07 404.306 450.439 403.824 450.946 403.433C451.34 403.129 451.74 402.937 452.146 402.858C452.551 402.779 452.934 402.81 453.296 402.951C453.657 403.092 453.968 403.342 454.229 403.7L453.366 404.365C453.144 404.128 452.86 403.986 452.513 403.939C452.166 403.888 451.804 404.007 451.426 404.299C451.09 404.558 450.848 404.884 450.7 405.278C450.551 405.669 450.502 406.097 450.554 406.562C450.604 407.025 450.758 407.495 451.017 407.972C451.278 408.462 451.575 408.835 451.909 409.091C452.242 409.347 452.589 409.478 452.951 409.483C453.312 409.488 453.664 409.359 454.005 409.096C454.229 408.923 454.409 408.722 454.543 408.494C454.678 408.266 454.765 408.02 454.803 407.757C454.842 407.495 454.826 407.227 454.756 406.955L455.619 406.289C455.767 406.704 455.825 407.135 455.794 407.583C455.76 408.028 455.635 408.458 455.419 408.874C455.201 409.287 454.885 409.653 454.471 409.972ZM456.679 402.697L458.728 406.504L457.865 407.169L453.336 398.723L454.199 398.058L455.865 401.157L455.938 401.1C455.888 400.673 455.943 400.261 456.104 399.865C456.268 399.467 456.572 399.096 457.018 398.752C457.399 398.459 457.778 398.288 458.158 398.241C458.537 398.189 458.902 398.279 459.252 398.511C459.602 398.738 459.924 399.123 460.218 399.666L462.369 403.697L461.506 404.362L459.386 400.401C459.115 399.899 458.789 399.6 458.409 399.504C458.029 399.405 457.638 399.51 457.236 399.82C456.953 400.038 456.736 400.301 456.584 400.608C456.435 400.913 456.364 401.246 456.373 401.604C456.384 401.961 456.486 402.326 456.679 402.697ZM469.201 398.617C468.672 399.025 468.142 399.235 467.612 399.248C467.084 399.258 466.586 399.096 466.118 398.761C465.65 398.427 465.246 397.943 464.906 397.311C464.559 396.669 464.359 396.021 464.305 395.367C464.25 394.71 464.338 394.096 464.57 393.525C464.8 392.951 465.168 392.469 465.675 392.078C466.07 391.774 466.47 391.582 466.876 391.503C467.281 391.424 467.664 391.455 468.026 391.596C468.387 391.737 468.698 391.987 468.959 392.345L468.096 393.01C467.874 392.773 467.59 392.631 467.243 392.584C466.896 392.532 466.534 392.652 466.156 392.944C465.82 393.203 465.578 393.529 465.43 393.923C465.281 394.314 465.232 394.742 465.284 395.207C465.334 395.67 465.488 396.14 465.747 396.617C466.008 397.107 466.305 397.48 466.639 397.736C466.972 397.992 467.319 398.123 467.681 398.128C468.042 398.133 468.394 398.004 468.735 397.741C468.959 397.568 469.139 397.367 469.273 397.139C469.408 396.91 469.495 396.665 469.533 396.402C469.572 396.139 469.556 395.872 469.486 395.6L470.349 394.934C470.497 395.349 470.555 395.78 470.524 396.228C470.49 396.673 470.365 397.103 470.149 397.519C469.931 397.932 469.615 398.298 469.201 398.617ZM472.595 395.814L469.202 389.477L470.035 388.834L470.543 389.795L470.601 389.75C470.533 389.359 470.583 388.962 470.749 388.558C470.915 388.154 471.167 387.822 471.503 387.563C471.569 387.512 471.649 387.452 471.744 387.383C471.836 387.312 471.911 387.26 471.968 387.228L472.498 388.218C472.463 388.233 472.389 388.273 472.275 388.337C472.16 388.399 472.043 388.475 471.926 388.565C471.653 388.776 471.445 389.027 471.302 389.321C471.157 389.611 471.083 389.917 471.081 390.237C471.078 390.554 471.152 390.857 471.303 391.144L473.458 395.149L472.595 395.814ZM478.705 391.29C478.166 391.706 477.629 391.929 477.094 391.961C476.557 391.99 476.053 391.843 475.581 391.518C475.108 391.192 474.697 390.704 474.349 390.055C474 389.407 473.798 388.754 473.743 388.098C473.686 387.438 473.773 386.823 474.005 386.252C474.235 385.678 474.602 385.197 475.107 384.808C475.399 384.582 475.718 384.414 476.064 384.303C476.41 384.192 476.766 384.17 477.132 384.237C477.497 384.302 477.857 384.483 478.211 384.782C478.565 385.08 478.9 385.525 479.216 386.116L479.44 386.527L475.111 389.864L474.653 389.028L478.104 386.368C477.916 386.008 477.683 385.736 477.407 385.553C477.132 385.368 476.836 385.284 476.518 385.3C476.202 385.314 475.887 385.442 475.573 385.685C475.248 385.934 475.014 386.255 474.869 386.647C474.722 387.036 474.657 387.436 474.674 387.846C474.689 388.254 474.779 388.612 474.943 388.921L475.337 389.643C475.623 390.165 475.919 390.527 476.227 390.73C476.536 390.93 476.859 390.998 477.194 390.934C477.528 390.867 477.876 390.694 478.239 390.414C478.471 390.235 478.659 390.039 478.806 389.826C478.95 389.609 479.049 389.378 479.103 389.13C479.155 388.88 479.158 388.617 479.113 388.341L480.083 387.967C480.167 388.353 480.17 388.747 480.091 389.149C480.013 389.547 479.858 389.931 479.626 390.3C479.395 390.665 479.088 390.995 478.705 391.29ZM484.491 386.83C484.021 387.193 483.535 387.379 483.033 387.389C482.529 387.396 482.045 387.233 481.579 386.901C481.113 386.564 480.7 386.061 480.339 385.391C479.984 384.724 479.776 384.069 479.714 383.424C479.655 382.778 479.735 382.183 479.952 381.638C480.17 381.093 480.515 380.639 480.988 380.274C481.353 379.993 481.679 379.838 481.966 379.812C482.253 379.781 482.5 379.808 482.706 379.894C482.91 379.978 483.073 380.05 483.194 380.112L483.267 380.056L481.597 376.937L482.46 376.271L486.989 384.718L486.156 385.36L485.637 384.385L485.534 384.464C485.533 384.628 485.52 384.844 485.497 385.11C485.471 385.375 485.387 385.659 485.245 385.963C485.103 386.263 484.852 386.552 484.491 386.83ZM484.105 385.892C484.452 385.625 484.692 385.296 484.826 384.905C484.96 384.51 484.995 384.081 484.93 383.618C484.862 383.153 484.701 382.681 484.444 382.203C484.192 381.729 483.907 381.364 483.589 381.108C483.269 380.849 482.934 380.715 482.584 380.705C482.233 380.692 481.88 380.822 481.527 381.095C481.164 381.375 480.92 381.712 480.797 382.106C480.671 382.498 480.648 382.919 480.726 383.367C480.802 383.814 480.959 384.26 481.198 384.706C481.44 385.156 481.719 385.52 482.034 385.798C482.347 386.073 482.681 386.228 483.034 386.263C483.387 386.294 483.745 386.17 484.105 385.892ZM491.112 381.726C490.574 382.141 490.037 382.365 489.502 382.396C488.965 382.426 488.46 382.278 487.989 381.954C487.515 381.627 487.105 381.139 486.756 380.491C486.408 379.842 486.206 379.19 486.15 378.533C486.093 377.874 486.18 377.259 486.412 376.687C486.642 376.114 487.009 375.632 487.514 375.243C487.807 375.018 488.126 374.85 488.471 374.739C488.817 374.627 489.173 374.606 489.54 374.673C489.904 374.737 490.264 374.919 490.618 375.217C490.972 375.515 491.308 375.96 491.624 376.552L491.847 376.963L487.518 380.3L487.06 379.464L490.512 376.803C490.323 376.443 490.091 376.171 489.814 375.989C489.539 375.804 489.243 375.719 488.925 375.735C488.609 375.749 488.294 375.878 487.98 376.12C487.656 376.37 487.421 376.691 487.276 377.082C487.129 377.471 487.064 377.871 487.081 378.281C487.097 378.689 487.186 379.048 487.351 379.356L487.744 380.079C488.03 380.601 488.327 380.963 488.634 381.165C488.944 381.365 489.266 381.433 489.602 381.369C489.935 381.303 490.283 381.129 490.646 380.849C490.878 380.671 491.067 380.475 491.213 380.261C491.357 380.045 491.456 379.813 491.51 379.565C491.562 379.315 491.566 379.053 491.52 378.777L492.49 378.402C492.574 378.788 492.577 379.182 492.499 379.585C492.421 379.983 492.266 380.366 492.034 380.736C491.802 381.101 491.495 381.431 491.112 381.726ZM493.509 374.306L495.558 378.113L494.695 378.778L491.302 372.44L492.135 371.798L492.665 372.788L492.739 372.731C492.694 372.311 492.755 371.899 492.922 371.494C493.086 371.088 493.38 370.721 493.805 370.394C494.18 370.105 494.557 369.938 494.936 369.895C495.315 369.848 495.679 369.94 496.029 370.172C496.379 370.399 496.699 370.782 496.99 371.32L499.141 375.35L498.278 376.016L496.157 372.055C495.892 371.56 495.57 371.26 495.19 371.156C494.814 371.05 494.424 371.152 494.022 371.462C493.744 371.677 493.533 371.935 493.388 372.236C493.247 372.536 493.182 372.863 493.196 373.218C493.211 373.572 493.316 373.934 493.509 374.306ZM499.767 365.915L500.213 366.736L497.303 368.98L496.856 368.158L499.767 365.915ZM496.887 365.99L497.75 365.325L500.984 371.365C501.133 371.639 501.28 371.817 501.425 371.899C501.57 371.977 501.713 371.996 501.852 371.955C501.992 371.909 502.125 371.837 502.252 371.74C502.347 371.666 502.421 371.601 502.475 371.545C502.526 371.486 502.567 371.438 502.598 371.403L503.254 372.133C503.205 372.205 503.133 372.296 503.038 372.404C502.947 372.513 502.821 372.63 502.66 372.754C502.417 372.942 502.147 373.066 501.852 373.126C501.557 373.187 501.269 373.154 500.989 373.028C500.709 372.902 500.47 372.655 500.272 372.287L496.887 365.99ZM504.458 371.252L501.065 364.914L501.927 364.249L505.321 370.586L504.458 371.252ZM501.026 363.428C500.858 363.558 500.669 363.612 500.459 363.592C500.251 363.569 500.085 363.477 499.961 363.316C499.837 363.156 499.791 362.972 499.822 362.765C499.855 362.557 499.956 362.388 500.125 362.258C500.293 362.128 500.481 362.075 500.688 362.097C500.899 362.118 501.066 362.209 501.19 362.369C501.314 362.53 501.359 362.715 501.325 362.924C501.294 363.13 501.195 363.298 501.026 363.428ZM508.641 368.237C508.285 368.511 507.921 368.685 507.55 368.757C507.176 368.828 506.826 368.785 506.5 368.628C506.171 368.469 505.896 368.185 505.672 367.774C505.48 367.409 505.388 367.065 505.394 366.741C505.399 366.414 505.472 366.106 505.613 365.814C505.754 365.519 505.936 365.241 506.159 364.98C506.382 364.715 506.614 364.464 506.855 364.227C507.168 363.917 507.423 363.666 507.621 363.474C507.819 363.282 507.951 363.116 508.018 362.976C508.084 362.835 508.077 362.687 507.996 362.532L507.974 362.502C507.756 362.099 507.493 361.857 507.186 361.775C506.876 361.691 506.524 361.801 506.129 362.106C505.72 362.421 505.447 362.776 505.31 363.168C505.174 363.561 505.119 363.911 505.145 364.217L504.159 364.51C504.096 364.015 504.13 363.565 504.261 363.161C504.391 362.754 504.579 362.396 504.825 362.085C505.07 361.772 505.333 361.507 505.616 361.289C505.796 361.15 506.017 361.015 506.277 360.884C506.536 360.751 506.815 360.674 507.114 360.653C507.415 360.631 507.718 360.714 508.023 360.903C508.33 361.089 508.619 361.434 508.89 361.936L511.128 366.11L510.265 366.775L509.81 365.913L509.766 365.947C509.782 366.129 509.763 366.351 509.71 366.614C509.658 366.875 509.548 367.149 509.38 367.434C509.214 367.718 508.967 367.985 508.641 368.237ZM508.292 367.27C508.633 367.007 508.88 366.71 509.032 366.379C509.187 366.045 509.261 365.713 509.254 365.38C509.249 365.046 509.175 364.747 509.034 364.483L508.557 363.592C508.547 363.669 508.491 363.776 508.39 363.912C508.287 364.046 508.165 364.189 508.022 364.342C507.88 364.491 507.74 364.634 507.601 364.772C507.463 364.905 507.353 365.014 507.269 365.097C507.063 365.303 506.881 365.519 506.725 365.744C506.569 365.966 506.47 366.195 506.428 366.433C506.387 366.667 506.434 366.907 506.569 367.153C506.749 367.492 506.995 367.663 507.309 367.666C507.62 367.667 507.948 367.535 508.292 367.27ZM509.036 355.784L513.565 364.231L512.703 364.896L508.173 356.45L509.036 355.784ZM516.495 355.024L515.846 355.875C515.715 355.766 515.566 355.678 515.399 355.613C515.232 355.543 515.045 355.526 514.836 355.563C514.628 355.595 514.397 355.709 514.143 355.905C513.8 356.17 513.562 356.479 513.431 356.833C513.297 357.184 513.305 357.495 513.455 357.764C513.582 358.004 513.761 358.136 513.993 358.16C514.225 358.183 514.529 358.114 514.905 357.952L515.867 357.536C516.446 357.289 516.933 357.21 517.33 357.301C517.727 357.387 518.045 357.654 518.283 358.099C518.478 358.462 518.559 358.858 518.528 359.286C518.497 359.714 518.361 360.138 518.12 360.557C517.879 360.975 517.542 361.352 517.108 361.686C516.53 362.132 515.979 362.359 515.453 362.367C514.926 362.374 514.468 362.148 514.079 361.689L514.784 360.82C515.037 361.102 515.319 361.246 515.63 361.252C515.942 361.252 516.273 361.117 516.624 360.847C517.026 360.537 517.296 360.193 517.432 359.816C517.567 359.436 517.56 359.111 517.41 358.842C517.295 358.616 517.129 358.482 516.913 358.439C516.699 358.393 516.428 358.445 516.099 358.593L515.038 359.062C514.445 359.321 513.95 359.399 513.553 359.297C513.158 359.194 512.844 358.923 512.611 358.484C512.421 358.126 512.341 357.741 512.373 357.328C512.406 356.913 512.537 356.508 512.764 356.111C512.993 355.713 513.305 355.362 513.7 355.057C514.256 354.629 514.765 354.43 515.228 354.462C515.69 354.491 516.112 354.678 516.495 355.024Z" fill="black"/>
<rect x="82" y="214" width="228" height="146" rx="10" fill="#D9D9D9"/>
<path d="M165.278 285.438H162.79C162.744 285.116 162.652 284.83 162.511 284.58C162.371 284.326 162.191 284.11 161.972 283.932C161.752 283.754 161.498 283.617 161.21 283.523C160.926 283.428 160.617 283.381 160.284 283.381C159.682 283.381 159.157 283.53 158.71 283.83C158.263 284.125 157.917 284.557 157.67 285.125C157.424 285.689 157.301 286.375 157.301 287.182C157.301 288.011 157.424 288.708 157.67 289.273C157.92 289.837 158.269 290.263 158.716 290.551C159.163 290.839 159.68 290.983 160.267 290.983C160.597 290.983 160.902 290.939 161.182 290.852C161.466 290.765 161.718 290.638 161.938 290.472C162.157 290.301 162.339 290.095 162.483 289.852C162.631 289.61 162.733 289.333 162.79 289.023L165.278 289.034C165.214 289.568 165.053 290.083 164.795 290.58C164.542 291.072 164.199 291.513 163.767 291.903C163.339 292.29 162.828 292.597 162.233 292.824C161.642 293.047 160.973 293.159 160.227 293.159C159.189 293.159 158.261 292.924 157.443 292.455C156.629 291.985 155.985 291.305 155.511 290.415C155.042 289.525 154.807 288.447 154.807 287.182C154.807 285.913 155.045 284.833 155.523 283.943C156 283.053 156.648 282.375 157.466 281.909C158.284 281.439 159.205 281.205 160.227 281.205C160.902 281.205 161.527 281.299 162.102 281.489C162.682 281.678 163.195 281.955 163.642 282.318C164.089 282.678 164.453 283.119 164.733 283.642C165.017 284.165 165.199 284.763 165.278 285.438ZM170.94 293.17C170.058 293.17 169.295 292.983 168.651 292.608C168.01 292.229 167.516 291.703 167.168 291.028C166.819 290.35 166.645 289.564 166.645 288.67C166.645 287.769 166.819 286.981 167.168 286.307C167.516 285.629 168.01 285.102 168.651 284.727C169.295 284.348 170.058 284.159 170.94 284.159C171.823 284.159 172.584 284.348 173.224 284.727C173.868 285.102 174.365 285.629 174.713 286.307C175.062 286.981 175.236 287.769 175.236 288.67C175.236 289.564 175.062 290.35 174.713 291.028C174.365 291.703 173.868 292.229 173.224 292.608C172.584 292.983 171.823 293.17 170.94 293.17ZM170.952 291.295C171.353 291.295 171.688 291.182 171.957 290.955C172.226 290.723 172.429 290.409 172.565 290.011C172.705 289.614 172.776 289.161 172.776 288.653C172.776 288.146 172.705 287.693 172.565 287.295C172.429 286.898 172.226 286.583 171.957 286.352C171.688 286.121 171.353 286.006 170.952 286.006C170.546 286.006 170.205 286.121 169.929 286.352C169.656 286.583 169.45 286.898 169.31 287.295C169.173 287.693 169.105 288.146 169.105 288.653C169.105 289.161 169.173 289.614 169.31 290.011C169.45 290.409 169.656 290.723 169.929 290.955C170.205 291.182 170.546 291.295 170.952 291.295ZM179.23 287.955V293H176.81V284.273H179.116V285.812H179.219C179.412 285.305 179.736 284.903 180.19 284.608C180.645 284.309 181.196 284.159 181.844 284.159C182.45 284.159 182.978 284.292 183.429 284.557C183.88 284.822 184.23 285.201 184.48 285.693C184.73 286.182 184.855 286.765 184.855 287.443V293H182.435V287.875C182.438 287.341 182.302 286.924 182.026 286.625C181.749 286.322 181.368 286.17 180.884 286.17C180.558 286.17 180.27 286.241 180.02 286.381C179.774 286.521 179.58 286.725 179.44 286.994C179.304 287.259 179.234 287.58 179.23 287.955ZM189.183 287.955V293H186.763V284.273H189.07V285.812H189.172C189.365 285.305 189.689 284.903 190.143 284.608C190.598 284.309 191.149 284.159 191.797 284.159C192.403 284.159 192.931 284.292 193.382 284.557C193.833 284.822 194.183 285.201 194.433 285.693C194.683 286.182 194.808 286.765 194.808 287.443V293H192.388V287.875C192.392 287.341 192.255 286.924 191.979 286.625C191.702 286.322 191.321 286.17 190.837 286.17C190.511 286.17 190.223 286.241 189.973 286.381C189.727 286.521 189.534 286.725 189.393 286.994C189.257 287.259 189.187 287.58 189.183 287.955ZM200.693 293.17C199.795 293.17 199.023 292.989 198.375 292.625C197.731 292.258 197.235 291.739 196.886 291.068C196.538 290.394 196.364 289.597 196.364 288.676C196.364 287.778 196.538 286.991 196.886 286.312C197.235 285.634 197.725 285.106 198.358 284.727C198.994 284.348 199.741 284.159 200.597 284.159C201.172 284.159 201.708 284.252 202.205 284.438C202.705 284.619 203.14 284.894 203.511 285.261C203.886 285.629 204.178 286.091 204.386 286.648C204.595 287.201 204.699 287.848 204.699 288.591V289.256H197.33V287.756H202.42C202.42 287.407 202.345 287.098 202.193 286.83C202.042 286.561 201.831 286.35 201.562 286.199C201.297 286.044 200.989 285.966 200.636 285.966C200.269 285.966 199.943 286.051 199.659 286.222C199.379 286.388 199.159 286.614 199 286.898C198.841 287.178 198.759 287.491 198.756 287.835V289.261C198.756 289.693 198.835 290.066 198.994 290.381C199.157 290.695 199.386 290.938 199.682 291.108C199.977 291.278 200.328 291.364 200.733 291.364C201.002 291.364 201.248 291.326 201.472 291.25C201.695 291.174 201.886 291.061 202.045 290.909C202.205 290.758 202.326 290.572 202.409 290.352L204.648 290.5C204.534 291.038 204.301 291.508 203.949 291.909C203.6 292.307 203.15 292.617 202.597 292.841C202.047 293.061 201.413 293.17 200.693 293.17ZM210.222 293.17C209.328 293.17 208.559 292.981 207.915 292.602C207.275 292.22 206.782 291.689 206.438 291.011C206.097 290.333 205.926 289.553 205.926 288.67C205.926 287.777 206.098 286.992 206.443 286.318C206.792 285.64 207.286 285.112 207.926 284.733C208.566 284.35 209.328 284.159 210.21 284.159C210.972 284.159 211.638 284.297 212.21 284.574C212.782 284.85 213.235 285.239 213.568 285.739C213.902 286.239 214.085 286.826 214.119 287.5H211.835C211.771 287.064 211.6 286.714 211.324 286.449C211.051 286.18 210.693 286.045 210.25 286.045C209.875 286.045 209.547 286.148 209.267 286.352C208.991 286.553 208.775 286.847 208.619 287.233C208.464 287.619 208.386 288.087 208.386 288.636C208.386 289.193 208.462 289.667 208.614 290.057C208.769 290.447 208.987 290.744 209.267 290.949C209.547 291.153 209.875 291.256 210.25 291.256C210.527 291.256 210.775 291.199 210.994 291.085C211.218 290.972 211.402 290.807 211.545 290.591C211.693 290.371 211.79 290.108 211.835 289.801H214.119C214.081 290.468 213.9 291.055 213.574 291.562C213.252 292.066 212.807 292.46 212.239 292.744C211.67 293.028 210.998 293.17 210.222 293.17ZM220.311 284.273V286.091H215.055V284.273H220.311ZM216.249 282.182H218.669V290.318C218.669 290.542 218.703 290.716 218.771 290.841C218.839 290.962 218.934 291.047 219.055 291.097C219.18 291.146 219.324 291.17 219.487 291.17C219.601 291.17 219.714 291.161 219.828 291.142C219.942 291.119 220.029 291.102 220.089 291.091L220.47 292.892C220.349 292.93 220.179 292.973 219.959 293.023C219.739 293.076 219.472 293.108 219.158 293.119C218.574 293.142 218.063 293.064 217.624 292.886C217.188 292.708 216.849 292.432 216.607 292.057C216.364 291.682 216.245 291.208 216.249 290.636V282.182ZM225.737 293.17C224.855 293.17 224.091 292.983 223.447 292.608C222.807 292.229 222.313 291.703 221.964 291.028C221.616 290.35 221.442 289.564 221.442 288.67C221.442 287.769 221.616 286.981 221.964 286.307C222.313 285.629 222.807 285.102 223.447 284.727C224.091 284.348 224.855 284.159 225.737 284.159C226.62 284.159 227.381 284.348 228.021 284.727C228.665 285.102 229.161 285.629 229.51 286.307C229.858 286.981 230.033 287.769 230.033 288.67C230.033 289.564 229.858 290.35 229.51 291.028C229.161 291.703 228.665 292.229 228.021 292.608C227.381 292.983 226.62 293.17 225.737 293.17ZM225.749 291.295C226.15 291.295 226.485 291.182 226.754 290.955C227.023 290.723 227.226 290.409 227.362 290.011C227.502 289.614 227.572 289.161 227.572 288.653C227.572 288.146 227.502 287.693 227.362 287.295C227.226 286.898 227.023 286.583 226.754 286.352C226.485 286.121 226.15 286.006 225.749 286.006C225.343 286.006 225.002 286.121 224.726 286.352C224.453 286.583 224.247 286.898 224.107 287.295C223.97 287.693 223.902 288.146 223.902 288.653C223.902 289.161 223.97 289.614 224.107 290.011C224.247 290.409 224.453 290.723 224.726 290.955C225.002 291.182 225.343 291.295 225.749 291.295ZM231.607 293V284.273H233.953V285.795H234.044C234.203 285.254 234.47 284.845 234.845 284.568C235.22 284.288 235.652 284.148 236.141 284.148C236.262 284.148 236.393 284.155 236.533 284.17C236.673 284.186 236.796 284.206 236.902 284.233V286.381C236.788 286.347 236.631 286.316 236.43 286.29C236.23 286.263 236.046 286.25 235.879 286.25C235.523 286.25 235.205 286.328 234.925 286.483C234.648 286.634 234.429 286.847 234.266 287.119C234.107 287.392 234.027 287.706 234.027 288.062V293H231.607Z" fill="black"/>
<rect x="560" y="215" width="228" height="146" rx="10" fill="#D9D9D9"/>
<path d="M643.278 285.438H640.79C640.744 285.116 640.652 284.83 640.511 284.58C640.371 284.326 640.191 284.11 639.972 283.932C639.752 283.754 639.498 283.617 639.21 283.523C638.926 283.428 638.617 283.381 638.284 283.381C637.682 283.381 637.157 283.53 636.71 283.83C636.263 284.125 635.917 284.557 635.67 285.125C635.424 285.689 635.301 286.375 635.301 287.182C635.301 288.011 635.424 288.708 635.67 289.273C635.92 289.837 636.269 290.263 636.716 290.551C637.163 290.839 637.68 290.983 638.267 290.983C638.597 290.983 638.902 290.939 639.182 290.852C639.466 290.765 639.718 290.638 639.938 290.472C640.157 290.301 640.339 290.095 640.483 289.852C640.631 289.61 640.733 289.333 640.79 289.023L643.278 289.034C643.214 289.568 643.053 290.083 642.795 290.58C642.542 291.072 642.199 291.513 641.767 291.903C641.339 292.29 640.828 292.597 640.233 292.824C639.642 293.047 638.973 293.159 638.227 293.159C637.189 293.159 636.261 292.924 635.443 292.455C634.629 291.985 633.985 291.305 633.511 290.415C633.042 289.525 632.807 288.447 632.807 287.182C632.807 285.913 633.045 284.833 633.523 283.943C634 283.053 634.648 282.375 635.466 281.909C636.284 281.439 637.205 281.205 638.227 281.205C638.902 281.205 639.527 281.299 640.102 281.489C640.682 281.678 641.195 281.955 641.642 282.318C642.089 282.678 642.453 283.119 642.733 283.642C643.017 284.165 643.199 284.763 643.278 285.438ZM648.94 293.17C648.058 293.17 647.295 292.983 646.651 292.608C646.01 292.229 645.516 291.703 645.168 291.028C644.819 290.35 644.645 289.564 644.645 288.67C644.645 287.769 644.819 286.981 645.168 286.307C645.516 285.629 646.01 285.102 646.651 284.727C647.295 284.348 648.058 284.159 648.94 284.159C649.823 284.159 650.584 284.348 651.224 284.727C651.868 285.102 652.365 285.629 652.713 286.307C653.062 286.981 653.236 287.769 653.236 288.67C653.236 289.564 653.062 290.35 652.713 291.028C652.365 291.703 651.868 292.229 651.224 292.608C650.584 292.983 649.823 293.17 648.94 293.17ZM648.952 291.295C649.353 291.295 649.688 291.182 649.957 290.955C650.226 290.723 650.429 290.409 650.565 290.011C650.705 289.614 650.776 289.161 650.776 288.653C650.776 288.146 650.705 287.693 650.565 287.295C650.429 286.898 650.226 286.583 649.957 286.352C649.688 286.121 649.353 286.006 648.952 286.006C648.546 286.006 648.205 286.121 647.929 286.352C647.656 286.583 647.45 286.898 647.31 287.295C647.173 287.693 647.105 288.146 647.105 288.653C647.105 289.161 647.173 289.614 647.31 290.011C647.45 290.409 647.656 290.723 647.929 290.955C648.205 291.182 648.546 291.295 648.952 291.295ZM657.23 287.955V293H654.81V284.273H657.116V285.812H657.219C657.412 285.305 657.736 284.903 658.19 284.608C658.645 284.309 659.196 284.159 659.844 284.159C660.45 284.159 660.978 284.292 661.429 284.557C661.88 284.822 662.23 285.201 662.48 285.693C662.73 286.182 662.855 286.765 662.855 287.443V293H660.435V287.875C660.438 287.341 660.302 286.924 660.026 286.625C659.749 286.322 659.368 286.17 658.884 286.17C658.558 286.17 658.27 286.241 658.02 286.381C657.774 286.521 657.58 286.725 657.44 286.994C657.304 287.259 657.234 287.58 657.23 287.955ZM667.183 287.955V293H664.763V284.273H667.07V285.812H667.172C667.365 285.305 667.689 284.903 668.143 284.608C668.598 284.309 669.149 284.159 669.797 284.159C670.403 284.159 670.931 284.292 671.382 284.557C671.833 284.822 672.183 285.201 672.433 285.693C672.683 286.182 672.808 286.765 672.808 287.443V293H670.388V287.875C670.392 287.341 670.255 286.924 669.979 286.625C669.702 286.322 669.321 286.17 668.837 286.17C668.511 286.17 668.223 286.241 667.973 286.381C667.727 286.521 667.534 286.725 667.393 286.994C667.257 287.259 667.187 287.58 667.183 287.955ZM678.693 293.17C677.795 293.17 677.023 292.989 676.375 292.625C675.731 292.258 675.235 291.739 674.886 291.068C674.538 290.394 674.364 289.597 674.364 288.676C674.364 287.778 674.538 286.991 674.886 286.312C675.235 285.634 675.725 285.106 676.358 284.727C676.994 284.348 677.741 284.159 678.597 284.159C679.172 284.159 679.708 284.252 680.205 284.438C680.705 284.619 681.14 284.894 681.511 285.261C681.886 285.629 682.178 286.091 682.386 286.648C682.595 287.201 682.699 287.848 682.699 288.591V289.256H675.33V287.756H680.42C680.42 287.407 680.345 287.098 680.193 286.83C680.042 286.561 679.831 286.35 679.562 286.199C679.297 286.044 678.989 285.966 678.636 285.966C678.269 285.966 677.943 286.051 677.659 286.222C677.379 286.388 677.159 286.614 677 286.898C676.841 287.178 676.759 287.491 676.756 287.835V289.261C676.756 289.693 676.835 290.066 676.994 290.381C677.157 290.695 677.386 290.938 677.682 291.108C677.977 291.278 678.328 291.364 678.733 291.364C679.002 291.364 679.248 291.326 679.472 291.25C679.695 291.174 679.886 291.061 680.045 290.909C680.205 290.758 680.326 290.572 680.409 290.352L682.648 290.5C682.534 291.038 682.301 291.508 681.949 291.909C681.6 292.307 681.15 292.617 680.597 292.841C680.047 293.061 679.413 293.17 678.693 293.17ZM688.222 293.17C687.328 293.17 686.559 292.981 685.915 292.602C685.275 292.22 684.782 291.689 684.438 291.011C684.097 290.333 683.926 289.553 683.926 288.67C683.926 287.777 684.098 286.992 684.443 286.318C684.792 285.64 685.286 285.112 685.926 284.733C686.566 284.35 687.328 284.159 688.21 284.159C688.972 284.159 689.638 284.297 690.21 284.574C690.782 284.85 691.235 285.239 691.568 285.739C691.902 286.239 692.085 286.826 692.119 287.5H689.835C689.771 287.064 689.6 286.714 689.324 286.449C689.051 286.18 688.693 286.045 688.25 286.045C687.875 286.045 687.547 286.148 687.267 286.352C686.991 286.553 686.775 286.847 686.619 287.233C686.464 287.619 686.386 288.087 686.386 288.636C686.386 289.193 686.462 289.667 686.614 290.057C686.769 290.447 686.987 290.744 687.267 290.949C687.547 291.153 687.875 291.256 688.25 291.256C688.527 291.256 688.775 291.199 688.994 291.085C689.218 290.972 689.402 290.807 689.545 290.591C689.693 290.371 689.79 290.108 689.835 289.801H692.119C692.081 290.468 691.9 291.055 691.574 291.562C691.252 292.066 690.807 292.46 690.239 292.744C689.67 293.028 688.998 293.17 688.222 293.17ZM698.311 284.273V286.091H693.055V284.273H698.311ZM694.249 282.182H696.669V290.318C696.669 290.542 696.703 290.716 696.771 290.841C696.839 290.962 696.934 291.047 697.055 291.097C697.18 291.146 697.324 291.17 697.487 291.17C697.601 291.17 697.714 291.161 697.828 291.142C697.942 291.119 698.029 291.102 698.089 291.091L698.47 292.892C698.349 292.93 698.179 292.973 697.959 293.023C697.739 293.076 697.472 293.108 697.158 293.119C696.574 293.142 696.063 293.064 695.624 292.886C695.188 292.708 694.849 292.432 694.607 292.057C694.364 291.682 694.245 291.208 694.249 290.636V282.182ZM703.737 293.17C702.855 293.17 702.091 292.983 701.447 292.608C700.807 292.229 700.313 291.703 699.964 291.028C699.616 290.35 699.442 289.564 699.442 288.67C699.442 287.769 699.616 286.981 699.964 286.307C700.313 285.629 700.807 285.102 701.447 284.727C702.091 284.348 702.855 284.159 703.737 284.159C704.62 284.159 705.381 284.348 706.021 284.727C706.665 285.102 707.161 285.629 707.51 286.307C707.858 286.981 708.033 287.769 708.033 288.67C708.033 289.564 707.858 290.35 707.51 291.028C707.161 291.703 706.665 292.229 706.021 292.608C705.381 292.983 704.62 293.17 703.737 293.17ZM703.749 291.295C704.15 291.295 704.485 291.182 704.754 290.955C705.023 290.723 705.226 290.409 705.362 290.011C705.502 289.614 705.572 289.161 705.572 288.653C705.572 288.146 705.502 287.693 705.362 287.295C705.226 286.898 705.023 286.583 704.754 286.352C704.485 286.121 704.15 286.006 703.749 286.006C703.343 286.006 703.002 286.121 702.726 286.352C702.453 286.583 702.247 286.898 702.107 287.295C701.97 287.693 701.902 288.146 701.902 288.653C701.902 289.161 701.97 289.614 702.107 290.011C702.247 290.409 702.453 290.723 702.726 290.955C703.002 291.182 703.343 291.295 703.749 291.295ZM709.607 293V284.273H711.953V285.795H712.044C712.203 285.254 712.47 284.845 712.845 284.568C713.22 284.288 713.652 284.148 714.141 284.148C714.262 284.148 714.393 284.155 714.533 284.17C714.673 284.186 714.796 284.206 714.902 284.233V286.381C714.788 286.347 714.631 286.316 714.43 286.29C714.23 286.263 714.046 286.25 713.879 286.25C713.523 286.25 713.205 286.328 712.925 286.483C712.648 286.634 712.429 286.847 712.266 287.119C712.107 287.392 712.027 287.706 712.027 288.062V293H709.607Z" fill="black"/>
<path d="M179.624 517.627C165.071 516.207 152.181 513.049 143.506 508.778C140.175 507.138 136.172 504.123 134.961 502.34L134 500.926V457.349V413.772L134.922 412.484C139.091 406.654 153.211 401.677 172.29 399.312C181.412 398.181 184.945 397.989 196.433 398C207.753 398.018 211.906 398.257 220.606 399.432C239.68 402.009 253.784 407.141 257.687 412.927L258.706 414.436L258.706 458.27L258.705 502.104L257.788 503.517C253.479 510.156 236.004 515.695 213.242 517.635C207.496 518.124 184.667 518.119 179.624 517.635V517.627ZM210.658 423.431C223.732 422.444 233.943 420.187 238.106 417.363C239.902 416.145 240.456 415.37 240.456 414.074C240.456 410.056 229.195 406.537 211.481 405.019C205.552 404.51 188.507 404.435 182.826 404.892C167.196 406.149 156.258 408.784 153.019 412.074C151.963 413.146 151.77 414.636 152.545 415.739C154.846 419.012 165.175 421.903 179.144 423.184C188.724 424.062 201.015 424.159 210.658 423.431Z" fill="#CBCBCB"/>
<path d="M169.8 451.364V463H167.339V451.364H169.8ZM174.994 463.142C174.331 463.142 173.731 462.972 173.193 462.631C172.659 462.286 172.235 461.78 171.92 461.114C171.61 460.443 171.455 459.621 171.455 458.648C171.455 457.648 171.616 456.816 171.938 456.153C172.259 455.487 172.688 454.989 173.222 454.659C173.759 454.326 174.348 454.159 174.989 454.159C175.477 454.159 175.884 454.242 176.21 454.409C176.54 454.572 176.805 454.777 177.006 455.023C177.21 455.265 177.366 455.504 177.472 455.739H177.545V451.364H179.96V463H177.574V461.602H177.472C177.358 461.845 177.197 462.085 176.989 462.324C176.784 462.559 176.517 462.754 176.188 462.909C175.862 463.064 175.464 463.142 174.994 463.142ZM175.761 461.216C176.152 461.216 176.481 461.11 176.75 460.898C177.023 460.682 177.231 460.381 177.375 459.994C177.523 459.608 177.597 459.155 177.597 458.636C177.597 458.117 177.525 457.667 177.381 457.284C177.237 456.902 177.028 456.606 176.756 456.398C176.483 456.189 176.152 456.085 175.761 456.085C175.364 456.085 175.028 456.193 174.756 456.409C174.483 456.625 174.277 456.924 174.136 457.307C173.996 457.689 173.926 458.133 173.926 458.636C173.926 459.144 173.996 459.593 174.136 459.983C174.28 460.369 174.487 460.672 174.756 460.892C175.028 461.108 175.364 461.216 175.761 461.216ZM185.928 463.17C185.03 463.17 184.257 462.989 183.609 462.625C182.965 462.258 182.469 461.739 182.121 461.068C181.772 460.394 181.598 459.597 181.598 458.676C181.598 457.778 181.772 456.991 182.121 456.312C182.469 455.634 182.96 455.106 183.592 454.727C184.229 454.348 184.975 454.159 185.831 454.159C186.407 454.159 186.943 454.252 187.439 454.438C187.939 454.619 188.375 454.894 188.746 455.261C189.121 455.629 189.412 456.091 189.621 456.648C189.829 457.201 189.933 457.848 189.933 458.591V459.256H182.564V457.756H187.655C187.655 457.407 187.579 457.098 187.428 456.83C187.276 456.561 187.066 456.35 186.797 456.199C186.532 456.044 186.223 455.966 185.871 455.966C185.503 455.966 185.178 456.051 184.893 456.222C184.613 456.388 184.393 456.614 184.234 456.898C184.075 457.178 183.994 457.491 183.99 457.835V459.261C183.99 459.693 184.07 460.066 184.229 460.381C184.392 460.695 184.621 460.938 184.916 461.108C185.212 461.278 185.562 461.364 185.967 461.364C186.236 461.364 186.482 461.326 186.706 461.25C186.929 461.174 187.121 461.061 187.28 460.909C187.439 460.758 187.56 460.572 187.643 460.352L189.882 460.5C189.768 461.038 189.536 461.508 189.183 461.909C188.835 462.307 188.384 462.617 187.831 462.841C187.282 463.061 186.647 463.17 185.928 463.17ZM193.933 457.955V463H191.513V454.273H193.82V455.812H193.922C194.115 455.305 194.439 454.903 194.893 454.608C195.348 454.309 195.899 454.159 196.547 454.159C197.153 454.159 197.681 454.292 198.132 454.557C198.583 454.822 198.933 455.201 199.183 455.693C199.433 456.182 199.558 456.765 199.558 457.443V463H197.138V457.875C197.142 457.341 197.005 456.924 196.729 456.625C196.452 456.322 196.071 456.17 195.587 456.17C195.261 456.17 194.973 456.241 194.723 456.381C194.477 456.521 194.284 456.725 194.143 456.994C194.007 457.259 193.937 457.58 193.933 457.955ZM206.108 454.273V456.091H200.852V454.273H206.108ZM202.045 452.182H204.466V460.318C204.466 460.542 204.5 460.716 204.568 460.841C204.636 460.962 204.731 461.047 204.852 461.097C204.977 461.146 205.121 461.17 205.284 461.17C205.398 461.17 205.511 461.161 205.625 461.142C205.739 461.119 205.826 461.102 205.886 461.091L206.267 462.892C206.146 462.93 205.975 462.973 205.756 463.023C205.536 463.076 205.269 463.108 204.955 463.119C204.371 463.142 203.86 463.064 203.42 462.886C202.985 462.708 202.646 462.432 202.403 462.057C202.161 461.682 202.042 461.208 202.045 460.636V452.182ZM207.685 463V454.273H210.105V463H207.685ZM208.901 453.148C208.541 453.148 208.232 453.028 207.974 452.79C207.721 452.547 207.594 452.258 207.594 451.92C207.594 451.587 207.721 451.301 207.974 451.062C208.232 450.82 208.541 450.699 208.901 450.699C209.26 450.699 209.567 450.82 209.821 451.062C210.079 451.301 210.207 451.587 210.207 451.92C210.207 452.258 210.079 452.547 209.821 452.79C209.567 453.028 209.26 453.148 208.901 453.148ZM216.686 454.273V456.091H211.43V454.273H216.686ZM212.624 452.182H215.044V460.318C215.044 460.542 215.078 460.716 215.146 460.841C215.214 460.962 215.309 461.047 215.43 461.097C215.555 461.146 215.699 461.17 215.862 461.17C215.976 461.17 216.089 461.161 216.203 461.142C216.317 461.119 216.404 461.102 216.464 461.091L216.845 462.892C216.724 462.93 216.554 462.973 216.334 463.023C216.114 463.076 215.847 463.108 215.533 463.119C214.949 463.142 214.438 463.064 213.999 462.886C213.563 462.708 213.224 462.432 212.982 462.057C212.739 461.682 212.62 461.208 212.624 460.636V452.182ZM219.757 466.273C219.45 466.273 219.162 466.248 218.893 466.199C218.628 466.153 218.409 466.095 218.234 466.023L218.78 464.216C219.064 464.303 219.32 464.35 219.547 464.358C219.778 464.366 219.977 464.313 220.143 464.199C220.314 464.085 220.452 463.892 220.558 463.619L220.7 463.25L217.57 454.273H220.115L221.922 460.682H222.013L223.837 454.273H226.399L223.007 463.943C222.844 464.413 222.623 464.822 222.342 465.17C222.066 465.523 221.715 465.794 221.291 465.983C220.867 466.176 220.356 466.273 219.757 466.273ZM181.48 482V470.364H183.94V475.165H188.935V470.364H191.389V482H188.935V477.193H183.94V482H181.48ZM198.969 478.284V473.273H201.389V482H199.065V480.415H198.974C198.777 480.926 198.45 481.337 197.991 481.648C197.537 481.958 196.982 482.114 196.327 482.114C195.743 482.114 195.23 481.981 194.787 481.716C194.344 481.451 193.997 481.074 193.747 480.585C193.501 480.097 193.376 479.511 193.372 478.83V473.273H195.793V478.398C195.796 478.913 195.935 479.32 196.207 479.619C196.48 479.919 196.846 480.068 197.304 480.068C197.596 480.068 197.868 480.002 198.122 479.869C198.376 479.733 198.58 479.532 198.736 479.267C198.895 479.002 198.973 478.674 198.969 478.284ZM203.371 482V470.364H205.791V474.739H205.865C205.971 474.504 206.125 474.265 206.325 474.023C206.53 473.777 206.795 473.572 207.121 473.409C207.45 473.242 207.859 473.159 208.348 473.159C208.984 473.159 209.571 473.326 210.109 473.659C210.647 473.989 211.077 474.487 211.399 475.153C211.721 475.816 211.882 476.648 211.882 477.648C211.882 478.621 211.725 479.443 211.411 480.114C211.1 480.78 210.676 481.286 210.138 481.631C209.604 481.972 209.005 482.142 208.342 482.142C207.873 482.142 207.473 482.064 207.143 481.909C206.818 481.754 206.551 481.559 206.342 481.324C206.134 481.085 205.975 480.845 205.865 480.602H205.757V482H203.371ZM205.74 477.636C205.74 478.155 205.812 478.608 205.956 478.994C206.1 479.381 206.308 479.682 206.581 479.898C206.854 480.11 207.185 480.216 207.575 480.216C207.969 480.216 208.303 480.108 208.575 479.892C208.848 479.672 209.054 479.369 209.195 478.983C209.339 478.593 209.411 478.144 209.411 477.636C209.411 477.133 209.34 476.689 209.2 476.307C209.06 475.924 208.854 475.625 208.581 475.409C208.308 475.193 207.973 475.085 207.575 475.085C207.181 475.085 206.848 475.189 206.575 475.398C206.306 475.606 206.1 475.902 205.956 476.284C205.812 476.667 205.74 477.117 205.74 477.636Z" fill="black"/>
<rect x="121" y="40.9079" width="117" height="135.092" rx="10" fill="#CBCBCB"/>
<path d="M128.814 70.8381H230.415V166.82H128.814V70.8381Z" fill="#CBCBCB"/>
<path fill-rule="evenodd" clip-rule="evenodd" d="M164.459 75.021L161.203 81.8867C160.557 81.8147 159.914 81.7735 159.274 81.7697C157.176 81.7574 155.136 82.1087 153.228 82.7596L148.614 76.6555L139.877 82.6836L144.652 88.9932C143.221 90.945 142.211 93.2111 141.775 95.695L133.297 96.5737L134.358 106.744L143.381 105.806C144.389 107.719 145.777 109.438 147.467 110.862L143.616 118.994L153.414 123.135L157.284 114.969C159.597 115.202 161.864 114.993 163.981 114.406L169.562 121.629L175.857 117.283L178.169 121.061C175.252 123.167 172.644 125.634 170.412 128.39L160.644 123.076L155.541 131.835L165.091 137.072C163.688 140.247 162.716 143.629 162.245 147.16H151.138V157.231H162.295C162.624 159.49 163.162 161.683 163.888 163.803H197.486C192.741 161.786 189.437 157.282 189.437 152.046C189.437 144.929 195.54 139.158 203.074 139.158C210.607 139.158 216.717 144.929 216.717 152.046C216.717 157.282 213.409 161.787 208.661 163.803H226.818V108.401L224.499 107.201L219.023 116.205C215.681 114.854 212.116 113.911 208.388 113.445V103.035H197.728V113.434C194.096 113.88 190.618 114.781 187.348 116.064L181.965 107.201L174.821 110.997L172.985 108.565C174.39 106.836 175.452 104.829 176.061 102.619L184.879 101.711L183.819 91.5412L175.435 92.3205C174.459 89.955 172.925 87.8301 170.958 86.1165L174.257 79.1627L164.459 75.021ZM159.033 90.8149C163.656 90.77 167.553 94.1569 167.838 98.5653C168.132 103.116 164.464 107.028 159.647 107.306C154.829 107.584 150.688 104.124 150.394 99.573C150.101 95.0224 153.763 91.1104 158.58 90.8326C158.731 90.8239 158.884 90.8164 159.033 90.8149Z" fill="white"/>
<path d="M172.316 63.4655V51.8291H180.021V53.8575H174.776V56.6302H179.509V58.6587H174.776V63.4655H172.316ZM191.942 55.903H189.454C189.408 55.581 189.316 55.295 189.175 55.045C189.035 54.7912 188.855 54.5753 188.636 54.3973C188.416 54.2193 188.162 54.0829 187.874 53.9882C187.59 53.8935 187.281 53.8462 186.948 53.8462C186.346 53.8462 185.821 53.9958 185.374 54.295C184.927 54.5905 184.581 55.0223 184.335 55.5905C184.088 56.1549 183.965 56.8405 183.965 57.6473C183.965 58.4768 184.088 59.1738 184.335 59.7382C184.585 60.3026 184.933 60.7287 185.38 61.0166C185.827 61.3045 186.344 61.4484 186.931 61.4484C187.261 61.4484 187.566 61.4049 187.846 61.3177C188.13 61.2306 188.382 61.1037 188.602 60.9371C188.821 60.7666 189.003 60.5602 189.147 60.3177C189.295 60.0753 189.397 59.7988 189.454 59.4882L191.942 59.4996C191.878 60.0337 191.717 60.5488 191.46 61.045C191.206 61.5374 190.863 61.9787 190.431 62.3689C190.003 62.7552 189.492 63.0621 188.897 63.2893C188.306 63.5128 187.638 63.6246 186.891 63.6246C185.853 63.6246 184.925 63.3897 184.107 62.92C183.293 62.4503 182.649 61.7704 182.175 60.8802C181.706 59.9901 181.471 58.9124 181.471 57.6473C181.471 56.3783 181.71 55.2988 182.187 54.4087C182.664 53.5185 183.312 52.8405 184.13 52.3746C184.948 51.9049 185.869 51.67 186.891 51.67C187.566 51.67 188.191 51.7647 188.766 51.9541C189.346 52.1435 189.859 52.42 190.306 52.7837C190.753 53.1435 191.117 53.5848 191.397 54.1075C191.681 54.6302 191.863 55.2287 191.942 55.903Z" fill="black"/>
<path d="M633.011 29V17.3636H637.602C638.485 17.3636 639.237 17.5322 639.858 17.8693C640.479 18.2027 640.953 18.6667 641.278 19.2614C641.608 19.8523 641.773 20.5341 641.773 21.3068C641.773 22.0795 641.606 22.7614 641.273 23.3523C640.939 23.9432 640.456 24.4034 639.824 24.733C639.195 25.0625 638.434 25.2273 637.54 25.2273H634.614V23.2557H637.142C637.616 23.2557 638.006 23.1742 638.312 23.0114C638.623 22.8447 638.854 22.6155 639.006 22.3239C639.161 22.0284 639.239 21.6894 639.239 21.3068C639.239 20.9205 639.161 20.5833 639.006 20.2955C638.854 20.0038 638.623 19.7784 638.312 19.6193C638.002 19.4564 637.608 19.375 637.131 19.375H635.472V29H633.011ZM645.58 29.1648C645.023 29.1648 644.527 29.0682 644.091 28.875C643.655 28.678 643.311 28.3883 643.057 28.0057C642.807 27.6193 642.682 27.1383 642.682 26.5625C642.682 26.0777 642.771 25.6705 642.949 25.3409C643.127 25.0114 643.369 24.7462 643.676 24.5455C643.983 24.3447 644.331 24.1932 644.722 24.0909C645.116 23.9886 645.528 23.9167 645.96 23.875C646.468 23.822 646.877 23.7727 647.188 23.7273C647.498 23.678 647.723 23.6061 647.864 23.5114C648.004 23.4167 648.074 23.2765 648.074 23.0909V23.0568C648.074 22.697 647.96 22.4186 647.733 22.2216C647.509 22.0246 647.191 21.9261 646.778 21.9261C646.343 21.9261 645.996 22.0227 645.739 22.2159C645.481 22.4053 645.311 22.6439 645.227 22.9318L642.989 22.75C643.102 22.2197 643.326 21.7614 643.659 21.375C643.992 20.9848 644.422 20.6856 644.949 20.4773C645.479 20.2652 646.093 20.1591 646.79 20.1591C647.275 20.1591 647.739 20.2159 648.182 20.3295C648.629 20.4432 649.025 20.6193 649.369 20.858C649.718 21.0966 649.992 21.4034 650.193 21.7784C650.394 22.1496 650.494 22.5947 650.494 23.1136V29H648.199V27.7898H648.131C647.991 28.0625 647.803 28.303 647.568 28.5114C647.333 28.7159 647.051 28.8769 646.722 28.9943C646.392 29.108 646.011 29.1648 645.58 29.1648ZM646.273 27.4943C646.629 27.4943 646.943 27.4242 647.216 27.2841C647.489 27.1402 647.703 26.947 647.858 26.7045C648.013 26.4621 648.091 26.1875 648.091 25.8807V24.9545C648.015 25.0038 647.911 25.0492 647.778 25.0909C647.65 25.1288 647.504 25.1648 647.341 25.1989C647.178 25.2292 647.015 25.2576 646.852 25.2841C646.689 25.3068 646.542 25.3277 646.409 25.3466C646.125 25.3883 645.877 25.4545 645.665 25.5455C645.453 25.6364 645.288 25.7595 645.17 25.9148C645.053 26.0663 644.994 26.2557 644.994 26.483C644.994 26.8125 645.114 27.0644 645.352 27.2386C645.595 27.4091 645.902 27.4943 646.273 27.4943ZM652.372 29V20.2727H654.719V21.7955H654.81C654.969 21.2538 655.236 20.8447 655.611 20.5682C655.986 20.2879 656.418 20.1477 656.906 20.1477C657.027 20.1477 657.158 20.1553 657.298 20.1705C657.438 20.1856 657.562 20.2064 657.668 20.233V22.3807C657.554 22.3466 657.397 22.3163 657.196 22.2898C656.995 22.2633 656.812 22.25 656.645 22.25C656.289 22.25 655.971 22.3277 655.69 22.483C655.414 22.6345 655.194 22.8466 655.031 23.1193C654.872 23.392 654.793 23.7064 654.793 24.0625V29H652.372ZM663.999 20.2727V22.0909H658.743V20.2727H663.999ZM659.936 18.1818H662.357V26.3182C662.357 26.5417 662.391 26.7159 662.459 26.8409C662.527 26.9621 662.622 27.0473 662.743 27.0966C662.868 27.1458 663.012 27.1705 663.175 27.1705C663.288 27.1705 663.402 27.161 663.516 27.142C663.629 27.1193 663.716 27.1023 663.777 27.0909L664.158 28.892C664.036 28.9299 663.866 28.9735 663.646 29.0227C663.427 29.0758 663.16 29.108 662.845 29.1193C662.262 29.142 661.75 29.0644 661.311 28.8864C660.875 28.7083 660.536 28.4318 660.294 28.0568C660.052 27.6818 659.932 27.2083 659.936 26.6364V18.1818ZM665.575 29V20.2727H667.996V29H665.575ZM666.791 19.1477C666.431 19.1477 666.123 19.0284 665.865 18.7898C665.611 18.5473 665.484 18.2576 665.484 17.9205C665.484 17.5871 665.611 17.3011 665.865 17.0625C666.123 16.8201 666.431 16.6989 666.791 16.6989C667.151 16.6989 667.458 16.8201 667.712 17.0625C667.969 17.3011 668.098 17.5871 668.098 17.9205C668.098 18.2576 667.969 18.5473 667.712 18.7898C667.458 19.0284 667.151 19.1477 666.791 19.1477ZM673.878 29.1705C672.984 29.1705 672.215 28.9811 671.571 28.6023C670.931 28.2197 670.438 27.6894 670.094 27.0114C669.753 26.3333 669.582 25.553 669.582 24.6705C669.582 23.7765 669.755 22.9924 670.099 22.3182C670.448 21.6402 670.942 21.1117 671.582 20.733C672.223 20.3504 672.984 20.1591 673.866 20.1591C674.628 20.1591 675.295 20.2973 675.866 20.5739C676.438 20.8504 676.891 21.2386 677.224 21.7386C677.558 22.2386 677.741 22.8258 677.776 23.5H675.491C675.427 23.0644 675.257 22.714 674.98 22.4489C674.707 22.1799 674.349 22.0455 673.906 22.0455C673.531 22.0455 673.204 22.1477 672.923 22.3523C672.647 22.553 672.431 22.8466 672.276 23.233C672.12 23.6193 672.043 24.0871 672.043 24.6364C672.043 25.1932 672.118 25.6667 672.27 26.0568C672.425 26.447 672.643 26.7443 672.923 26.9489C673.204 27.1534 673.531 27.2557 673.906 27.2557C674.183 27.2557 674.431 27.1989 674.651 27.0852C674.874 26.9716 675.058 26.8068 675.202 26.5909C675.349 26.3712 675.446 26.108 675.491 25.8011H677.776C677.738 26.4678 677.556 27.0549 677.23 27.5625C676.908 28.0663 676.463 28.4602 675.895 28.7443C675.327 29.0284 674.654 29.1705 673.878 29.1705ZM679.325 29V20.2727H681.746V29H679.325ZM680.541 19.1477C680.181 19.1477 679.873 19.0284 679.615 18.7898C679.361 18.5473 679.234 18.2576 679.234 17.9205C679.234 17.5871 679.361 17.3011 679.615 17.0625C679.873 16.8201 680.181 16.6989 680.541 16.6989C680.901 16.6989 681.208 16.8201 681.462 17.0625C681.719 17.3011 681.848 17.5871 681.848 17.9205C681.848 18.2576 681.719 18.5473 681.462 18.7898C681.208 19.0284 680.901 19.1477 680.541 19.1477ZM683.685 32.2727V20.2727H686.071V21.7386H686.179C686.285 21.5038 686.438 21.2652 686.639 21.0227C686.844 20.7765 687.109 20.572 687.435 20.4091C687.764 20.2424 688.173 20.1591 688.662 20.1591C689.298 20.1591 689.885 20.3258 690.423 20.6591C690.961 20.9886 691.391 21.4867 691.713 22.1534C692.035 22.8163 692.196 23.6477 692.196 24.6477C692.196 25.6212 692.039 26.4432 691.724 27.1136C691.414 27.7803 690.99 28.286 690.452 28.6307C689.918 28.9716 689.319 29.142 688.656 29.142C688.187 29.142 687.787 29.0644 687.457 28.9091C687.132 28.7538 686.865 28.5587 686.656 28.3239C686.448 28.0852 686.289 27.8447 686.179 27.6023H686.105V32.2727H683.685ZM686.054 24.6364C686.054 25.1553 686.126 25.608 686.27 25.9943C686.414 26.3807 686.622 26.6818 686.895 26.8977C687.168 27.1098 687.499 27.2159 687.889 27.2159C688.283 27.2159 688.616 27.108 688.889 26.892C689.162 26.6723 689.368 26.3693 689.509 25.983C689.652 25.5928 689.724 25.1439 689.724 24.6364C689.724 24.1326 689.654 23.6894 689.514 23.3068C689.374 22.9242 689.168 22.625 688.895 22.4091C688.622 22.1932 688.287 22.0852 687.889 22.0852C687.495 22.0852 687.162 22.1894 686.889 22.3977C686.62 22.6061 686.414 22.9015 686.27 23.2841C686.126 23.6667 686.054 24.1174 686.054 24.6364ZM696.298 29.1648C695.741 29.1648 695.245 29.0682 694.81 28.875C694.374 28.678 694.029 28.3883 693.776 28.0057C693.526 27.6193 693.401 27.1383 693.401 26.5625C693.401 26.0777 693.49 25.6705 693.668 25.3409C693.846 25.0114 694.088 24.7462 694.395 24.5455C694.702 24.3447 695.05 24.1932 695.44 24.0909C695.834 23.9886 696.247 23.9167 696.679 23.875C697.187 23.822 697.596 23.7727 697.906 23.7273C698.217 23.678 698.442 23.6061 698.582 23.5114C698.723 23.4167 698.793 23.2765 698.793 23.0909V23.0568C698.793 22.697 698.679 22.4186 698.452 22.2216C698.228 22.0246 697.91 21.9261 697.497 21.9261C697.062 21.9261 696.715 22.0227 696.457 22.2159C696.2 22.4053 696.029 22.6439 695.946 22.9318L693.707 22.75C693.821 22.2197 694.045 21.7614 694.378 21.375C694.711 20.9848 695.141 20.6856 695.668 20.4773C696.198 20.2652 696.812 20.1591 697.509 20.1591C697.993 20.1591 698.457 20.2159 698.901 20.3295C699.348 20.4432 699.743 20.6193 700.088 20.858C700.437 21.0966 700.711 21.4034 700.912 21.7784C701.113 22.1496 701.213 22.5947 701.213 23.1136V29H698.918V27.7898H698.849C698.709 28.0625 698.522 28.303 698.287 28.5114C698.052 28.7159 697.77 28.8769 697.44 28.9943C697.111 29.108 696.73 29.1648 696.298 29.1648ZM696.991 27.4943C697.348 27.4943 697.662 27.4242 697.935 27.2841C698.207 27.1402 698.421 26.947 698.577 26.7045C698.732 26.4621 698.81 26.1875 698.81 25.8807V24.9545C698.734 25.0038 698.63 25.0492 698.497 25.0909C698.368 25.1288 698.223 25.1648 698.06 25.1989C697.897 25.2292 697.734 25.2576 697.571 25.2841C697.408 25.3068 697.26 25.3277 697.128 25.3466C696.844 25.3883 696.596 25.4545 696.384 25.5455C696.171 25.6364 696.007 25.7595 695.889 25.9148C695.772 26.0663 695.713 26.2557 695.713 26.483C695.713 26.8125 695.832 27.0644 696.071 27.2386C696.313 27.4091 696.62 27.4943 696.991 27.4943ZM705.511 23.9545V29H703.091V20.2727H705.398V21.8125H705.5C705.693 21.3049 706.017 20.9034 706.472 20.608C706.926 20.3087 707.477 20.1591 708.125 20.1591C708.731 20.1591 709.259 20.2917 709.71 20.5568C710.161 20.822 710.511 21.2008 710.761 21.6932C711.011 22.1818 711.136 22.7652 711.136 23.4432V29H708.716V23.875C708.72 23.3409 708.583 22.9242 708.307 22.625C708.03 22.322 707.65 22.1705 707.165 22.1705C706.839 22.1705 706.551 22.2405 706.301 22.3807C706.055 22.5208 705.862 22.7254 705.722 22.9943C705.585 23.2595 705.515 23.5795 705.511 23.9545ZM717.686 20.2727V22.0909H712.43V20.2727H717.686ZM713.624 18.1818H716.044V26.3182C716.044 26.5417 716.078 26.7159 716.146 26.8409C716.214 26.9621 716.309 27.0473 716.43 27.0966C716.555 27.1458 716.699 27.1705 716.862 27.1705C716.976 27.1705 717.089 27.161 717.203 27.142C717.317 27.1193 717.404 27.1023 717.464 27.0909L717.845 28.892C717.724 28.9299 717.554 28.9735 717.334 29.0227C717.114 29.0758 716.847 29.108 716.533 29.1193C715.949 29.142 715.438 29.0644 714.999 28.8864C714.563 28.7083 714.224 28.4318 713.982 28.0568C713.739 27.6818 713.62 27.2083 713.624 26.6364V18.1818Z" fill="black"/>
<path d="M137.011 24V12.3636H141.602C142.485 12.3636 143.237 12.5322 143.858 12.8693C144.479 13.2027 144.953 13.6667 145.278 14.2614C145.608 14.8523 145.773 15.5341 145.773 16.3068C145.773 17.0795 145.606 17.7614 145.273 18.3523C144.939 18.9432 144.456 19.4034 143.824 19.733C143.195 20.0625 142.434 20.2273 141.54 20.2273H138.614V18.2557H141.142C141.616 18.2557 142.006 18.1742 142.312 18.0114C142.623 17.8447 142.854 17.6155 143.006 17.3239C143.161 17.0284 143.239 16.6894 143.239 16.3068C143.239 15.9205 143.161 15.5833 143.006 15.2955C142.854 15.0038 142.623 14.7784 142.312 14.6193C142.002 14.4564 141.608 14.375 141.131 14.375H139.472V24H137.011ZM149.58 24.1648C149.023 24.1648 148.527 24.0682 148.091 23.875C147.655 23.678 147.311 23.3883 147.057 23.0057C146.807 22.6193 146.682 22.1383 146.682 21.5625C146.682 21.0777 146.771 20.6705 146.949 20.3409C147.127 20.0114 147.369 19.7462 147.676 19.5455C147.983 19.3447 148.331 19.1932 148.722 19.0909C149.116 18.9886 149.528 18.9167 149.96 18.875C150.468 18.822 150.877 18.7727 151.188 18.7273C151.498 18.678 151.723 18.6061 151.864 18.5114C152.004 18.4167 152.074 18.2765 152.074 18.0909V18.0568C152.074 17.697 151.96 17.4186 151.733 17.2216C151.509 17.0246 151.191 16.9261 150.778 16.9261C150.343 16.9261 149.996 17.0227 149.739 17.2159C149.481 17.4053 149.311 17.6439 149.227 17.9318L146.989 17.75C147.102 17.2197 147.326 16.7614 147.659 16.375C147.992 15.9848 148.422 15.6856 148.949 15.4773C149.479 15.2652 150.093 15.1591 150.79 15.1591C151.275 15.1591 151.739 15.2159 152.182 15.3295C152.629 15.4432 153.025 15.6193 153.369 15.858C153.718 16.0966 153.992 16.4034 154.193 16.7784C154.394 17.1496 154.494 17.5947 154.494 18.1136V24H152.199V22.7898H152.131C151.991 23.0625 151.803 23.303 151.568 23.5114C151.333 23.7159 151.051 23.8769 150.722 23.9943C150.392 24.108 150.011 24.1648 149.58 24.1648ZM150.273 22.4943C150.629 22.4943 150.943 22.4242 151.216 22.2841C151.489 22.1402 151.703 21.947 151.858 21.7045C152.013 21.4621 152.091 21.1875 152.091 20.8807V19.9545C152.015 20.0038 151.911 20.0492 151.778 20.0909C151.65 20.1288 151.504 20.1648 151.341 20.1989C151.178 20.2292 151.015 20.2576 150.852 20.2841C150.689 20.3068 150.542 20.3277 150.409 20.3466C150.125 20.3883 149.877 20.4545 149.665 20.5455C149.453 20.6364 149.288 20.7595 149.17 20.9148C149.053 21.0663 148.994 21.2557 148.994 21.483C148.994 21.8125 149.114 22.0644 149.352 22.2386C149.595 22.4091 149.902 22.4943 150.273 22.4943ZM156.372 24V15.2727H158.719V16.7955H158.81C158.969 16.2538 159.236 15.8447 159.611 15.5682C159.986 15.2879 160.418 15.1477 160.906 15.1477C161.027 15.1477 161.158 15.1553 161.298 15.1705C161.438 15.1856 161.562 15.2064 161.668 15.233V17.3807C161.554 17.3466 161.397 17.3163 161.196 17.2898C160.995 17.2633 160.812 17.25 160.645 17.25C160.289 17.25 159.971 17.3277 159.69 17.483C159.414 17.6345 159.194 17.8466 159.031 18.1193C158.872 18.392 158.793 18.7064 158.793 19.0625V24H156.372ZM167.999 15.2727V17.0909H162.743V15.2727H167.999ZM163.936 13.1818H166.357V21.3182C166.357 21.5417 166.391 21.7159 166.459 21.8409C166.527 21.9621 166.622 22.0473 166.743 22.0966C166.868 22.1458 167.012 22.1705 167.175 22.1705C167.288 22.1705 167.402 22.161 167.516 22.142C167.629 22.1193 167.716 22.1023 167.777 22.0909L168.158 23.892C168.036 23.9299 167.866 23.9735 167.646 24.0227C167.427 24.0758 167.16 24.108 166.845 24.1193C166.262 24.142 165.75 24.0644 165.311 23.8864C164.875 23.7083 164.536 23.4318 164.294 23.0568C164.052 22.6818 163.932 22.2083 163.936 21.6364V13.1818ZM169.575 24V15.2727H171.996V24H169.575ZM170.791 14.1477C170.431 14.1477 170.123 14.0284 169.865 13.7898C169.611 13.5473 169.484 13.2576 169.484 12.9205C169.484 12.5871 169.611 12.3011 169.865 12.0625C170.123 11.8201 170.431 11.6989 170.791 11.6989C171.151 11.6989 171.458 11.8201 171.712 12.0625C171.969 12.3011 172.098 12.5871 172.098 12.9205C172.098 13.2576 171.969 13.5473 171.712 13.7898C171.458 14.0284 171.151 14.1477 170.791 14.1477ZM177.878 24.1705C176.984 24.1705 176.215 23.9811 175.571 23.6023C174.931 23.2197 174.438 22.6894 174.094 22.0114C173.753 21.3333 173.582 20.553 173.582 19.6705C173.582 18.7765 173.755 17.9924 174.099 17.3182C174.448 16.6402 174.942 16.1117 175.582 15.733C176.223 15.3504 176.984 15.1591 177.866 15.1591C178.628 15.1591 179.295 15.2973 179.866 15.5739C180.438 15.8504 180.891 16.2386 181.224 16.7386C181.558 17.2386 181.741 17.8258 181.776 18.5H179.491C179.427 18.0644 179.257 17.714 178.98 17.4489C178.707 17.1799 178.349 17.0455 177.906 17.0455C177.531 17.0455 177.204 17.1477 176.923 17.3523C176.647 17.553 176.431 17.8466 176.276 18.233C176.12 18.6193 176.043 19.0871 176.043 19.6364C176.043 20.1932 176.118 20.6667 176.27 21.0568C176.425 21.447 176.643 21.7443 176.923 21.9489C177.204 22.1534 177.531 22.2557 177.906 22.2557C178.183 22.2557 178.431 22.1989 178.651 22.0852C178.874 21.9716 179.058 21.8068 179.202 21.5909C179.349 21.3712 179.446 21.108 179.491 20.8011H181.776C181.738 21.4678 181.556 22.0549 181.23 22.5625C180.908 23.0663 180.463 23.4602 179.895 23.7443C179.327 24.0284 178.654 24.1705 177.878 24.1705ZM183.325 24V15.2727H185.746V24H183.325ZM184.541 14.1477C184.181 14.1477 183.873 14.0284 183.615 13.7898C183.361 13.5473 183.234 13.2576 183.234 12.9205C183.234 12.5871 183.361 12.3011 183.615 12.0625C183.873 11.8201 184.181 11.6989 184.541 11.6989C184.901 11.6989 185.208 11.8201 185.462 12.0625C185.719 12.3011 185.848 12.5871 185.848 12.9205C185.848 13.2576 185.719 13.5473 185.462 13.7898C185.208 14.0284 184.901 14.1477 184.541 14.1477ZM187.685 27.2727V15.2727H190.071V16.7386H190.179C190.285 16.5038 190.438 16.2652 190.639 16.0227C190.844 15.7765 191.109 15.572 191.435 15.4091C191.764 15.2424 192.173 15.1591 192.662 15.1591C193.298 15.1591 193.885 15.3258 194.423 15.6591C194.961 15.9886 195.391 16.4867 195.713 17.1534C196.035 17.8163 196.196 18.6477 196.196 19.6477C196.196 20.6212 196.039 21.4432 195.724 22.1136C195.414 22.7803 194.99 23.286 194.452 23.6307C193.918 23.9716 193.319 24.142 192.656 24.142C192.187 24.142 191.787 24.0644 191.457 23.9091C191.132 23.7538 190.865 23.5587 190.656 23.3239C190.448 23.0852 190.289 22.8447 190.179 22.6023H190.105V27.2727H187.685ZM190.054 19.6364C190.054 20.1553 190.126 20.608 190.27 20.9943C190.414 21.3807 190.622 21.6818 190.895 21.8977C191.168 22.1098 191.499 22.2159 191.889 22.2159C192.283 22.2159 192.616 22.108 192.889 21.892C193.162 21.6723 193.368 21.3693 193.509 20.983C193.652 20.5928 193.724 20.1439 193.724 19.6364C193.724 19.1326 193.654 18.6894 193.514 18.3068C193.374 17.9242 193.168 17.625 192.895 17.4091C192.622 17.1932 192.287 17.0852 191.889 17.0852C191.495 17.0852 191.162 17.1894 190.889 17.3977C190.62 17.6061 190.414 17.9015 190.27 18.2841C190.126 18.6667 190.054 19.1174 190.054 19.6364ZM200.298 24.1648C199.741 24.1648 199.245 24.0682 198.81 23.875C198.374 23.678 198.029 23.3883 197.776 23.0057C197.526 22.6193 197.401 22.1383 197.401 21.5625C197.401 21.0777 197.49 20.6705 197.668 20.3409C197.846 20.0114 198.088 19.7462 198.395 19.5455C198.702 19.3447 199.05 19.1932 199.44 19.0909C199.834 18.9886 200.247 18.9167 200.679 18.875C201.187 18.822 201.596 18.7727 201.906 18.7273C202.217 18.678 202.442 18.6061 202.582 18.5114C202.723 18.4167 202.793 18.2765 202.793 18.0909V18.0568C202.793 17.697 202.679 17.4186 202.452 17.2216C202.228 17.0246 201.91 16.9261 201.497 16.9261C201.062 16.9261 200.715 17.0227 200.457 17.2159C200.2 17.4053 200.029 17.6439 199.946 17.9318L197.707 17.75C197.821 17.2197 198.045 16.7614 198.378 16.375C198.711 15.9848 199.141 15.6856 199.668 15.4773C200.198 15.2652 200.812 15.1591 201.509 15.1591C201.993 15.1591 202.457 15.2159 202.901 15.3295C203.348 15.4432 203.743 15.6193 204.088 15.858C204.437 16.0966 204.711 16.4034 204.912 16.7784C205.113 17.1496 205.213 17.5947 205.213 18.1136V24H202.918V22.7898H202.849C202.709 23.0625 202.522 23.303 202.287 23.5114C202.052 23.7159 201.77 23.8769 201.44 23.9943C201.111 24.108 200.73 24.1648 200.298 24.1648ZM200.991 22.4943C201.348 22.4943 201.662 22.4242 201.935 22.2841C202.207 22.1402 202.421 21.947 202.577 21.7045C202.732 21.4621 202.81 21.1875 202.81 20.8807V19.9545C202.734 20.0038 202.63 20.0492 202.497 20.0909C202.368 20.1288 202.223 20.1648 202.06 20.1989C201.897 20.2292 201.734 20.2576 201.571 20.2841C201.408 20.3068 201.26 20.3277 201.128 20.3466C200.844 20.3883 200.596 20.4545 200.384 20.5455C200.171 20.6364 200.007 20.7595 199.889 20.9148C199.772 21.0663 199.713 21.2557 199.713 21.483C199.713 21.8125 199.832 22.0644 200.071 22.2386C200.313 22.4091 200.62 22.4943 200.991 22.4943ZM209.511 18.9545V24H207.091V15.2727H209.398V16.8125H209.5C209.693 16.3049 210.017 15.9034 210.472 15.608C210.926 15.3087 211.477 15.1591 212.125 15.1591C212.731 15.1591 213.259 15.2917 213.71 15.5568C214.161 15.822 214.511 16.2008 214.761 16.6932C215.011 17.1818 215.136 17.7652 215.136 18.4432V24H212.716V18.875C212.72 18.3409 212.583 17.9242 212.307 17.625C212.03 17.322 211.65 17.1705 211.165 17.1705C210.839 17.1705 210.551 17.2405 210.301 17.3807C210.055 17.5208 209.862 17.7254 209.722 17.9943C209.585 18.2595 209.515 18.5795 209.511 18.9545ZM221.686 15.2727V17.0909H216.43V15.2727H221.686ZM217.624 13.1818H220.044V21.3182C220.044 21.5417 220.078 21.7159 220.146 21.8409C220.214 21.9621 220.309 22.0473 220.43 22.0966C220.555 22.1458 220.699 22.1705 220.862 22.1705C220.976 22.1705 221.089 22.161 221.203 22.142C221.317 22.1193 221.404 22.1023 221.464 22.0909L221.845 23.892C221.724 23.9299 221.554 23.9735 221.334 24.0227C221.114 24.0758 220.847 24.108 220.533 24.1193C219.949 24.142 219.438 24.0644 218.999 23.8864C218.563 23.7083 218.224 23.4318 217.982 23.0568C217.739 22.6818 217.62 22.2083 217.624 21.6364V13.1818Z" fill="black"/>
</svg>
