<svg width="681" height="347" viewBox="0 0 681 347" fill="none" xmlns="http://www.w3.org/2000/svg">
<path d="M282.44 252.561L282.607 251.545H289.697L289.531 252.561H286.558L285.155 261H284.01L285.413 252.561H282.44ZM291.646 261.148C290.993 261.148 290.447 260.992 290.007 260.681C289.567 260.371 289.256 259.935 289.074 259.375C288.896 258.815 288.866 258.162 288.987 257.418C289.103 256.691 289.336 256.059 289.684 255.52C290.034 254.979 290.47 254.56 290.99 254.265C291.513 253.966 292.089 253.817 292.717 253.817C293.369 253.817 293.914 253.974 294.351 254.288C294.791 254.598 295.102 255.036 295.283 255.599C295.465 256.159 295.496 256.814 295.376 257.565C295.259 258.286 295.023 258.915 294.669 259.453C294.319 259.989 293.883 260.406 293.363 260.705C292.846 261 292.273 261.148 291.646 261.148ZM291.664 260.169C292.163 260.169 292.595 260.041 292.961 259.786C293.331 259.53 293.629 259.193 293.857 258.775C294.088 258.356 294.243 257.904 294.323 257.418C294.397 256.956 294.394 256.527 294.314 256.13C294.234 255.73 294.063 255.408 293.801 255.165C293.54 254.919 293.172 254.795 292.698 254.795C292.2 254.795 291.764 254.925 291.392 255.183C291.022 255.442 290.724 255.782 290.496 256.203C290.268 256.625 290.116 257.079 290.039 257.565C289.965 258.027 289.967 258.456 290.044 258.853C290.124 259.247 290.295 259.566 290.556 259.809C290.821 260.049 291.19 260.169 291.664 260.169ZM297.916 258.415L298.119 257.067H298.341L301.978 253.909H303.326L299.467 257.251H299.375L297.916 258.415ZM296.476 261L298.045 251.545H299.135L297.565 261H296.476ZM300.981 261L298.802 257.491L299.689 256.734L302.366 261H300.981ZM306.209 261.148C305.529 261.148 304.968 260.997 304.524 260.695C304.081 260.391 303.772 259.966 303.597 259.421C303.421 258.873 303.393 258.236 303.513 257.51C303.633 256.784 303.872 256.143 304.229 255.589C304.586 255.032 305.031 254.598 305.563 254.288C306.096 253.974 306.68 253.817 307.317 253.817C307.687 253.817 308.042 253.878 308.384 254.001C308.725 254.125 309.021 254.325 309.27 254.602C309.519 254.875 309.693 255.239 309.792 255.691C309.89 256.143 309.884 256.701 309.773 257.362L309.699 257.824H304.234L304.381 256.882H308.739C308.81 256.482 308.792 256.125 308.684 255.811C308.579 255.497 308.396 255.249 308.134 255.068C307.876 254.886 307.548 254.795 307.151 254.795C306.742 254.795 306.36 254.906 306.006 255.128C305.652 255.346 305.357 255.623 305.12 255.959C304.883 256.291 304.735 256.63 304.677 256.974L304.547 257.787C304.455 258.375 304.469 258.843 304.589 259.19C304.712 259.538 304.926 259.789 305.231 259.943C305.535 260.094 305.917 260.169 306.376 260.169C306.668 260.169 306.937 260.129 307.184 260.049C307.43 259.966 307.65 259.843 307.844 259.68C308.038 259.513 308.201 259.307 308.333 259.061L309.33 259.357C309.161 259.714 308.922 260.027 308.615 260.298C308.31 260.566 307.953 260.775 307.544 260.926C307.137 261.074 306.693 261.148 306.209 261.148ZM312.638 256.734L311.936 261H310.847L312.028 253.909H313.081L312.896 255.017H312.989C313.21 254.657 313.51 254.368 313.889 254.149C314.267 253.928 314.725 253.817 315.26 253.817C315.734 253.817 316.134 253.915 316.46 254.112C316.79 254.306 317.022 254.602 317.157 254.999C317.296 255.393 317.316 255.891 317.217 256.494L316.46 261H315.371L316.109 256.568C316.202 256.014 316.129 255.58 315.892 255.266C315.659 254.952 315.288 254.795 314.78 254.795C314.429 254.795 314.104 254.871 313.806 255.022C313.51 255.172 313.26 255.393 313.053 255.682C312.85 255.971 312.712 256.322 312.638 256.734ZM323.714 261L322.735 253.909H323.88L324.508 259.338H324.582L327.001 253.909H328.164L328.755 259.32H328.829L331.267 253.909H332.411L329.069 261H327.998L327.352 255.553H327.241L324.785 261H323.714ZM332.67 261L333.852 253.909H334.941L333.759 261H332.67ZM334.729 252.709C334.517 252.709 334.333 252.636 334.18 252.492C334.029 252.347 333.953 252.173 333.953 251.97C333.953 251.767 334.029 251.593 334.18 251.449C334.333 251.304 334.517 251.232 334.729 251.232C334.941 251.232 335.123 251.304 335.274 251.449C335.427 251.593 335.504 251.767 335.504 251.97C335.504 252.173 335.427 252.347 335.274 252.492C335.123 252.636 334.941 252.709 334.729 252.709ZM340.021 253.909L339.873 254.832H336.198L336.346 253.909H340.021ZM337.694 252.21H338.783L337.657 258.969C337.608 259.277 337.615 259.507 337.68 259.661C337.748 259.812 337.849 259.914 337.985 259.966C338.123 260.015 338.272 260.04 338.432 260.04C338.552 260.04 338.651 260.034 338.728 260.021C338.805 260.006 338.866 259.994 338.913 259.984L338.986 260.963C338.903 260.991 338.791 261.018 338.649 261.046C338.511 261.077 338.34 261.092 338.137 261.092C337.829 261.092 337.54 261.026 337.269 260.894C336.998 260.761 336.791 260.56 336.646 260.289C336.501 260.018 336.463 259.677 336.53 259.264L337.694 252.21ZM342.421 256.734L341.719 261H340.63L342.199 251.545H343.289L342.717 255.017H342.809C343.03 254.648 343.326 254.355 343.695 254.14C344.068 253.924 344.535 253.817 345.099 253.817C345.579 253.817 345.983 253.914 346.313 254.108C346.645 254.298 346.879 254.592 347.014 254.989C347.153 255.383 347.173 255.885 347.074 256.494L346.317 261H345.228L345.967 256.568C346.059 256.005 345.983 255.569 345.74 255.262C345.5 254.951 345.126 254.795 344.619 254.795C344.262 254.795 343.929 254.871 343.621 255.022C343.317 255.172 343.058 255.393 342.846 255.682C342.637 255.971 342.495 256.322 342.421 256.734ZM351.967 261L353.149 253.909H354.201L354.017 254.98H354.09C354.275 254.629 354.557 254.345 354.935 254.126C355.314 253.908 355.715 253.798 356.14 253.798C356.223 253.798 356.323 253.8 356.44 253.803C356.557 253.803 356.648 253.808 356.713 253.817L356.528 254.925C356.491 254.915 356.408 254.902 356.279 254.883C356.149 254.862 356.011 254.851 355.863 254.851C355.518 254.851 355.2 254.923 354.907 255.068C354.615 255.209 354.37 255.406 354.173 255.659C353.977 255.908 353.85 256.193 353.795 256.513L353.056 261H351.967ZM359.568 261.148C358.888 261.148 358.326 260.997 357.883 260.695C357.44 260.391 357.13 259.966 356.955 259.421C356.779 258.873 356.752 258.236 356.872 257.51C356.992 256.784 357.23 256.143 357.587 255.589C357.944 255.032 358.389 254.598 358.922 254.288C359.454 253.974 360.039 253.817 360.676 253.817C361.045 253.817 361.401 253.878 361.742 254.001C362.084 254.125 362.379 254.325 362.629 254.602C362.878 254.875 363.052 255.239 363.15 255.691C363.249 256.143 363.243 256.701 363.132 257.362L363.058 257.824H357.592L357.74 256.882H362.098C362.168 256.482 362.15 256.125 362.042 255.811C361.938 255.497 361.754 255.249 361.493 255.068C361.234 254.886 360.907 254.795 360.51 254.795C360.1 254.795 359.719 254.906 359.365 255.128C359.011 255.346 358.715 255.623 358.478 255.959C358.241 256.291 358.094 256.63 358.035 256.974L357.906 257.787C357.814 258.375 357.827 258.843 357.947 259.19C358.071 259.538 358.284 259.789 358.589 259.943C358.894 260.094 359.275 260.169 359.734 260.169C360.026 260.169 360.296 260.129 360.542 260.049C360.788 259.966 361.008 259.843 361.202 259.68C361.396 259.513 361.559 259.307 361.691 259.061L362.689 259.357C362.519 259.714 362.281 260.027 361.973 260.298C361.668 260.566 361.311 260.775 360.902 260.926C360.496 261.074 360.051 261.148 359.568 261.148ZM368.6 263.659L369.219 259.911H369.126C369.025 260.04 368.883 260.203 368.702 260.4C368.523 260.594 368.285 260.768 367.986 260.922C367.687 261.072 367.31 261.148 366.855 261.148C366.264 261.148 365.767 260.998 365.364 260.7C364.961 260.398 364.677 259.974 364.514 259.426C364.351 258.875 364.331 258.224 364.454 257.473C364.577 256.728 364.811 256.082 365.156 255.534C365.501 254.986 365.925 254.563 366.43 254.265C366.935 253.966 367.486 253.817 368.083 253.817C368.545 253.817 368.897 253.894 369.14 254.048C369.386 254.198 369.565 254.371 369.676 254.565C369.786 254.755 369.871 254.912 369.93 255.036H370.059L370.253 253.909H371.305L369.689 263.659H368.6ZM367.16 260.169C367.6 260.169 367.989 260.055 368.328 259.827C368.669 259.597 368.951 259.278 369.172 258.872C369.397 258.462 369.554 257.99 369.643 257.455C369.733 256.925 369.733 256.462 369.643 256.065C369.554 255.665 369.377 255.354 369.112 255.132C368.851 254.908 368.498 254.795 368.055 254.795C367.594 254.795 367.189 254.914 366.841 255.151C366.496 255.385 366.215 255.703 365.996 256.107C365.778 256.507 365.627 256.956 365.544 257.455C365.461 257.959 365.462 258.418 365.548 258.83C365.638 259.24 365.815 259.566 366.079 259.809C366.347 260.049 366.707 260.169 367.16 260.169ZM377.063 258.101L377.765 253.909H378.854L377.672 261H376.583L376.786 259.8H376.712C376.491 260.16 376.181 260.466 375.784 260.718C375.387 260.968 374.921 261.092 374.386 261.092C373.942 261.092 373.564 260.995 373.25 260.801C372.939 260.605 372.717 260.309 372.585 259.915C372.456 259.518 372.44 259.018 372.539 258.415L373.296 253.909H374.386L373.647 258.341C373.564 258.858 373.642 259.27 373.882 259.578C374.122 259.886 374.469 260.04 374.921 260.04C375.192 260.04 375.478 259.971 375.78 259.832C376.084 259.694 376.355 259.481 376.592 259.195C376.832 258.909 376.989 258.544 377.063 258.101ZM382.623 261.148C381.942 261.148 381.381 260.997 380.938 260.695C380.494 260.391 380.185 259.966 380.01 259.421C379.834 258.873 379.806 258.236 379.926 257.51C380.047 256.784 380.285 256.143 380.642 255.589C380.999 255.032 381.444 254.598 381.976 254.288C382.509 253.974 383.093 253.817 383.73 253.817C384.1 253.817 384.455 253.878 384.797 254.001C385.138 254.125 385.434 254.325 385.683 254.602C385.933 254.875 386.106 255.239 386.205 255.691C386.303 256.143 386.297 256.701 386.186 257.362L386.113 257.824H380.647L380.794 256.882H385.152C385.223 256.482 385.205 256.125 385.097 255.811C384.992 255.497 384.809 255.249 384.548 255.068C384.289 254.886 383.961 254.795 383.564 254.795C383.155 254.795 382.773 254.906 382.419 255.128C382.065 255.346 381.77 255.623 381.533 255.959C381.296 256.291 381.148 256.63 381.09 256.974L380.961 257.787C380.868 258.375 380.882 258.843 381.002 259.19C381.125 259.538 381.339 259.789 381.644 259.943C381.949 260.094 382.33 260.169 382.789 260.169C383.081 260.169 383.35 260.129 383.597 260.049C383.843 259.966 384.063 259.843 384.257 259.68C384.451 259.513 384.614 259.307 384.746 259.061L385.743 259.357C385.574 259.714 385.335 260.027 385.028 260.298C384.723 260.566 384.366 260.775 383.957 260.926C383.55 261.074 383.106 261.148 382.623 261.148ZM393.206 255.497L392.172 255.774C392.135 255.608 392.07 255.448 391.978 255.294C391.889 255.137 391.75 255.009 391.562 254.911C391.378 254.809 391.125 254.759 390.805 254.759C390.371 254.759 389.994 254.859 389.674 255.059C389.354 255.256 389.171 255.506 389.125 255.811C389.079 256.079 389.14 256.293 389.309 256.453C389.479 256.613 389.762 256.744 390.159 256.845L391.175 257.104C391.784 257.261 392.218 257.496 392.476 257.81C392.738 258.121 392.827 258.526 392.744 259.024C392.676 259.43 392.499 259.794 392.213 260.114C391.927 260.434 391.561 260.686 391.115 260.871C390.668 261.055 390.171 261.148 389.623 261.148C388.894 261.148 388.318 260.991 387.897 260.677C387.475 260.36 387.251 259.901 387.223 259.301L388.312 259.043C388.34 259.421 388.475 259.707 388.719 259.901C388.965 260.092 389.309 260.188 389.753 260.188C390.26 260.188 390.684 260.08 391.022 259.864C391.361 259.646 391.553 259.384 391.599 259.08C391.645 258.83 391.596 258.623 391.452 258.456C391.31 258.29 391.064 258.165 390.713 258.082L389.586 257.805C388.959 257.648 388.519 257.408 388.266 257.085C388.017 256.762 387.934 256.356 388.017 255.866C388.085 255.466 388.257 255.112 388.534 254.805C388.814 254.497 389.165 254.255 389.586 254.08C390.011 253.904 390.473 253.817 390.971 253.817C391.673 253.817 392.198 253.971 392.546 254.278C392.893 254.583 393.113 254.989 393.206 255.497ZM398.317 253.909L398.17 254.832H394.495L394.643 253.909H398.317ZM395.991 252.21H397.08L395.954 258.969C395.905 259.277 395.912 259.507 395.977 259.661C396.045 259.812 396.146 259.914 396.282 259.966C396.42 260.015 396.569 260.04 396.729 260.04C396.849 260.04 396.948 260.034 397.025 260.021C397.102 260.006 397.163 259.994 397.209 259.984L397.283 260.963C397.2 260.991 397.088 261.018 396.946 261.046C396.808 261.077 396.637 261.092 396.434 261.092C396.126 261.092 395.837 261.026 395.566 260.894C395.295 260.761 395.087 260.56 394.943 260.289C394.798 260.018 394.76 259.677 394.827 259.264L395.991 252.21Z" fill="black"/>
<path d="M62.554 101L64.1236 91.5455H67.3182C68.0568 91.5455 68.6416 91.6701 69.0724 91.9194C69.5064 92.1687 69.8003 92.5118 69.9542 92.9489C70.1112 93.3859 70.1435 93.8845 70.0511 94.4446C69.9588 94.9986 69.7618 95.491 69.4602 95.9219C69.1617 96.3527 68.7554 96.6913 68.2415 96.9375C67.7306 97.1837 67.1089 97.3068 66.3764 97.3068H63.7912L63.9759 96.2727H66.5241C67.0289 96.2727 67.4474 96.1989 67.7798 96.0511C68.1122 95.9034 68.3707 95.6926 68.5554 95.4187C68.7401 95.1448 68.8632 94.8201 68.9247 94.4446C68.9863 94.063 68.9693 93.7321 68.8739 93.4521C68.7816 93.1689 68.5923 92.9504 68.3061 92.7965C68.023 92.6396 67.6259 92.5611 67.1151 92.5611H65.1023L63.6989 101H62.554ZM67.706 96.7528L69.331 101H68.0014L66.4134 96.7528H67.706ZM73.6001 101.148C72.9199 101.148 72.3582 100.997 71.915 100.695C71.4719 100.391 71.1626 99.9659 70.9871 99.4212C70.8117 98.8733 70.784 98.2363 70.904 97.5099C71.0241 96.7836 71.2626 96.1435 71.6196 95.5895C71.9766 95.0324 72.4213 94.5985 72.9537 94.2876C73.4862 93.9737 74.0709 93.8168 74.708 93.8168C75.0773 93.8168 75.4328 93.8783 75.7744 94.0014C76.116 94.1245 76.4115 94.3246 76.6608 94.6016C76.9101 94.8755 77.084 95.2386 77.1824 95.6911C77.2809 96.1435 77.2748 96.7005 77.164 97.3622L77.0901 97.8239H71.6242L71.7719 96.8821H76.1299C76.2007 96.482 76.1822 96.125 76.0745 95.8111C75.9698 95.4972 75.7867 95.2494 75.5251 95.0678C75.2666 94.8862 74.9388 94.7955 74.5418 94.7955C74.1325 94.7955 73.7509 94.9062 73.3969 95.1278C73.043 95.3464 72.7475 95.6233 72.5106 95.9588C72.2736 96.2912 72.1259 96.6297 72.0674 96.9744L71.9381 97.7869C71.8458 98.3748 71.8596 98.8426 71.9797 99.1903C72.1028 99.5381 72.3167 99.7889 72.6214 99.9428C72.926 100.094 73.3077 100.169 73.7662 100.169C74.0586 100.169 74.3279 100.129 74.5741 100.049C74.8203 99.9659 75.0404 99.8428 75.2343 99.6797C75.4282 99.5135 75.5913 99.3073 75.7236 99.0611L76.7208 99.3565C76.5515 99.7135 76.313 100.027 76.0052 100.298C75.7006 100.566 75.3435 100.775 74.9342 100.926C74.528 101.074 74.0832 101.148 73.6001 101.148ZM82.6322 103.659L83.2508 99.9105H83.1585C83.0569 100.04 82.9153 100.203 82.7338 100.4C82.5552 100.594 82.3167 100.768 82.0182 100.922C81.7197 101.072 81.3427 101.148 80.8872 101.148C80.2963 101.148 79.7992 100.998 79.396 100.7C78.9929 100.398 78.7097 99.9736 78.5466 99.4258C78.3835 98.8749 78.3635 98.224 78.4866 97.473C78.6097 96.7282 78.8436 96.0819 79.1883 95.5341C79.533 94.9863 79.9577 94.5631 80.4624 94.2646C80.9672 93.966 81.5181 93.8168 82.1151 93.8168C82.5768 93.8168 82.9292 93.8937 83.1723 94.0476C83.4185 94.1984 83.597 94.3707 83.7078 94.5646C83.8186 94.7554 83.9033 94.9124 83.9617 95.0355H84.091L84.2849 93.9091H85.3374L83.7217 103.659H82.6322ZM81.1919 100.169C81.632 100.169 82.0213 100.055 82.3598 99.8274C82.7014 99.5966 82.983 99.2781 83.2046 98.8718C83.4293 98.4625 83.5863 97.9901 83.6755 97.4545C83.7648 96.9252 83.7648 96.462 83.6755 96.065C83.5863 95.6649 83.4093 95.354 83.1446 95.1325C82.883 94.9078 82.5306 94.7955 82.0874 94.7955C81.6258 94.7955 81.2211 94.9139 80.8733 95.1509C80.5286 95.3848 80.247 95.7034 80.0285 96.1065C79.81 96.5066 79.6592 96.956 79.5761 97.4545C79.493 97.9593 79.4945 98.4179 79.5807 98.8303C79.67 99.2396 79.8469 99.5658 80.1116 99.8089C80.3794 100.049 80.7394 100.169 81.1919 100.169ZM91.0953 98.1009L91.7971 93.9091H92.8865L91.7047 101H90.6152L90.8184 99.7997H90.7445C90.5229 100.16 90.2136 100.466 89.8166 100.718C89.4196 100.968 88.9533 101.092 88.4178 101.092C87.9746 101.092 87.5961 100.995 87.2821 100.801C86.9713 100.605 86.7497 100.309 86.6174 99.9151C86.4881 99.5181 86.4727 99.018 86.5712 98.4148L87.3283 93.9091H88.4178L87.6792 98.3409C87.5961 98.858 87.6745 99.2704 87.9146 99.5781C88.1547 99.8859 88.5009 100.04 88.9533 100.04C89.2241 100.04 89.5104 99.9705 89.812 99.832C90.1167 99.6935 90.3875 99.4812 90.6245 99.195C90.8645 98.9087 91.0215 98.544 91.0953 98.1009ZM96.6547 101.148C95.9746 101.148 95.4129 100.997 94.9697 100.695C94.5265 100.391 94.2172 99.9659 94.0418 99.4212C93.8664 98.8733 93.8387 98.2363 93.9587 97.5099C94.0787 96.7836 94.3173 96.1435 94.6743 95.5895C95.0313 95.0324 95.476 94.5985 96.0084 94.2876C96.5409 93.9737 97.1256 93.8168 97.7627 93.8168C98.132 93.8168 98.4875 93.8783 98.8291 94.0014C99.1707 94.1245 99.4662 94.3246 99.7155 94.6016C99.9648 94.8755 100.139 95.2386 100.237 95.6911C100.336 96.1435 100.329 96.7005 100.219 97.3622L100.145 97.8239H94.6789L94.8266 96.8821H99.1846C99.2554 96.482 99.2369 96.125 99.1292 95.8111C99.0245 95.4972 98.8414 95.2494 98.5798 95.0678C98.3213 94.8862 97.9935 94.7955 97.5965 94.7955C97.1872 94.7955 96.8055 94.9062 96.4516 95.1278C96.0977 95.3464 95.8022 95.6233 95.5653 95.9588C95.3283 96.2912 95.1805 96.6297 95.1221 96.9744L94.9928 97.7869C94.9005 98.3748 94.9143 98.8426 95.0344 99.1903C95.1575 99.5381 95.3714 99.7889 95.676 99.9428C95.9807 100.094 96.3624 100.169 96.8209 100.169C97.1133 100.169 97.3826 100.129 97.6288 100.049C97.875 99.9659 98.0951 99.8428 98.289 99.6797C98.4829 99.5135 98.646 99.3073 98.7783 99.0611L99.7755 99.3565C99.6062 99.7135 99.3677 100.027 99.0599 100.298C98.7552 100.566 98.3982 100.775 97.9889 100.926C97.5827 101.074 97.1379 101.148 96.6547 101.148ZM107.238 95.4972L106.204 95.7741C106.167 95.608 106.102 95.4479 106.01 95.294C105.921 95.1371 105.782 95.0094 105.595 94.9109C105.41 94.8093 105.158 94.7585 104.837 94.7585C104.403 94.7585 104.026 94.8585 103.706 95.0586C103.386 95.2556 103.203 95.5064 103.157 95.8111C103.111 96.0788 103.172 96.2927 103.342 96.4528C103.511 96.6128 103.794 96.7436 104.191 96.8452L105.207 97.1037C105.816 97.2607 106.25 97.4961 106.509 97.81C106.77 98.1209 106.859 98.5256 106.776 99.0241C106.709 99.4304 106.532 99.7936 106.245 100.114C105.959 100.434 105.593 100.686 105.147 100.871C104.7 101.055 104.203 101.148 103.656 101.148C102.926 101.148 102.351 100.991 101.929 100.677C101.507 100.36 101.283 99.9013 101.255 99.3011L102.345 99.0426C102.372 99.4212 102.508 99.7074 102.751 99.9013C102.997 100.092 103.342 100.188 103.785 100.188C104.293 100.188 104.716 100.08 105.054 99.8643C105.393 99.6458 105.585 99.3842 105.631 99.0795C105.678 98.8303 105.628 98.6225 105.484 98.4563C105.342 98.2901 105.096 98.1655 104.745 98.0824L103.619 97.8054C102.991 97.6484 102.551 97.4084 102.298 97.0852C102.049 96.7621 101.966 96.3558 102.049 95.8665C102.117 95.4664 102.289 95.1125 102.566 94.8047C102.846 94.4969 103.197 94.2553 103.619 94.0799C104.043 93.9045 104.505 93.8168 105.004 93.8168C105.705 93.8168 106.23 93.9706 106.578 94.2784C106.926 94.5831 107.146 94.9893 107.238 95.4972ZM112.35 93.9091L112.202 94.8324H108.527L108.675 93.9091H112.35ZM110.023 92.2102H111.112L109.986 98.9688C109.937 99.2765 109.944 99.5073 110.009 99.6612C110.077 99.812 110.178 99.9136 110.314 99.9659C110.452 100.015 110.602 100.04 110.762 100.04C110.882 100.04 110.98 100.034 111.057 100.021C111.134 100.006 111.195 99.9936 111.242 99.9844L111.316 100.963C111.232 100.991 111.12 101.018 110.979 101.046C110.84 101.077 110.669 101.092 110.466 101.092C110.158 101.092 109.869 101.026 109.598 100.894C109.327 100.761 109.12 100.56 108.975 100.289C108.83 100.018 108.792 99.6766 108.86 99.2642L110.023 92.2102ZM116.463 101L117.645 93.9091H118.734L117.552 101H116.463ZM118.522 92.7088C118.309 92.7088 118.126 92.6365 117.972 92.4918C117.822 92.3472 117.746 92.1733 117.746 91.9702C117.746 91.767 117.822 91.5932 117.972 91.4485C118.126 91.3039 118.309 91.2315 118.522 91.2315C118.734 91.2315 118.916 91.3039 119.067 91.4485C119.22 91.5932 119.297 91.767 119.297 91.9702C119.297 92.1733 119.22 92.3472 119.067 92.4918C118.916 92.6365 118.734 92.7088 118.522 92.7088ZM122.216 101.148C121.622 101.148 121.124 100.998 120.72 100.7C120.317 100.398 120.033 99.9736 119.866 99.4258C119.703 98.8749 119.683 98.224 119.806 97.473C119.933 96.7282 120.168 96.0819 120.513 95.5341C120.86 94.9863 121.287 94.5631 121.791 94.2646C122.296 93.966 122.847 93.8168 123.444 93.8168C123.906 93.8168 124.258 93.8937 124.501 94.0476C124.748 94.1984 124.926 94.3707 125.037 94.5646C125.148 94.7554 125.232 94.9124 125.291 95.0355H125.383L125.965 91.5455H127.054L125.485 101H124.432L124.617 99.9105H124.487C124.386 100.04 124.244 100.203 124.063 100.4C123.881 100.594 123.641 100.768 123.343 100.922C123.047 101.072 122.672 101.148 122.216 101.148ZM122.484 100.169C122.921 100.169 123.312 100.055 123.657 99.8274C124.004 99.5966 124.294 99.2781 124.524 98.8718C124.755 98.4625 124.915 97.9901 125.005 97.4545C125.094 96.9252 125.091 96.462 124.995 96.065C124.9 95.6649 124.717 95.354 124.446 95.1325C124.175 94.9078 123.817 94.7955 123.37 94.7955C122.912 94.7955 122.513 94.9139 122.175 95.1509C121.836 95.3848 121.561 95.7034 121.348 96.1065C121.136 96.5066 120.988 96.956 120.905 97.4545C120.822 97.9593 120.82 98.4179 120.9 98.8303C120.98 99.2396 121.15 99.5658 121.408 99.8089C121.67 100.049 122.028 100.169 122.484 100.169ZM130.577 101.148C129.896 101.148 129.335 100.997 128.892 100.695C128.448 100.391 128.139 99.9659 127.964 99.4212C127.788 98.8733 127.761 98.2363 127.881 97.5099C128.001 96.7836 128.239 96.1435 128.596 95.5895C128.953 95.0324 129.398 94.5985 129.93 94.2876C130.463 93.9737 131.047 93.8168 131.685 93.8168C132.054 93.8168 132.409 93.8783 132.751 94.0014C133.093 94.1245 133.388 94.3246 133.637 94.6016C133.887 94.8755 134.061 95.2386 134.159 95.6911C134.257 96.1435 134.251 96.7005 134.141 97.3622L134.067 97.8239H128.601L128.748 96.8821H133.106C133.177 96.482 133.159 96.125 133.051 95.8111C132.946 95.4972 132.763 95.2494 132.502 95.0678C132.243 94.8862 131.915 94.7955 131.518 94.7955C131.109 94.7955 130.727 94.9062 130.373 95.1278C130.02 95.3464 129.724 95.6233 129.487 95.9588C129.25 96.2912 129.102 96.6297 129.044 96.9744L128.915 97.7869C128.822 98.3748 128.836 98.8426 128.956 99.1903C129.079 99.5381 129.293 99.7889 129.598 99.9428C129.903 100.094 130.284 100.169 130.743 100.169C131.035 100.169 131.304 100.129 131.551 100.049C131.797 99.9659 132.017 99.8428 132.211 99.6797C132.405 99.5135 132.568 99.3073 132.7 99.0611L133.697 99.3565C133.528 99.7135 133.29 100.027 132.982 100.298C132.677 100.566 132.32 100.775 131.911 100.926C131.505 101.074 131.06 101.148 130.577 101.148ZM137.005 96.7344L136.303 101H135.214L136.396 93.9091H137.448L137.264 95.017H137.356C137.578 94.657 137.878 94.3677 138.256 94.1491C138.635 93.9276 139.092 93.8168 139.627 93.8168C140.101 93.8168 140.501 93.9152 140.828 94.1122C141.157 94.3061 141.389 94.6016 141.525 94.9986C141.663 95.3925 141.683 95.8911 141.585 96.4943L140.828 101H139.738L140.477 96.5682C140.569 96.0142 140.497 95.5803 140.26 95.2663C140.026 94.9524 139.655 94.7955 139.147 94.7955C138.796 94.7955 138.472 94.8709 138.173 95.0217C137.878 95.1725 137.627 95.3925 137.421 95.6818C137.217 95.9711 137.079 96.322 137.005 96.7344ZM147.084 93.9091L146.936 94.8324H143.262L143.409 93.9091H147.084ZM144.757 92.2102H145.847L144.72 98.9688C144.671 99.2765 144.679 99.5073 144.743 99.6612C144.811 99.812 144.913 99.9136 145.048 99.9659C145.187 100.015 145.336 100.04 145.496 100.04C145.616 100.04 145.714 100.034 145.791 100.021C145.868 100.006 145.93 99.9936 145.976 99.9844L146.05 100.963C145.967 100.991 145.854 101.018 145.713 101.046C145.574 101.077 145.404 101.092 145.2 101.092C144.893 101.092 144.603 101.026 144.333 100.894C144.062 100.761 143.854 100.56 143.709 100.289C143.565 100.018 143.526 99.6766 143.594 99.2642L144.757 92.2102ZM147.541 101L148.723 93.9091H149.812L148.631 101H147.541ZM149.6 92.7088C149.388 92.7088 149.204 92.6365 149.051 92.4918C148.9 92.3472 148.824 92.1733 148.824 91.9702C148.824 91.767 148.9 91.5932 149.051 91.4485C149.204 91.3039 149.388 91.2315 149.6 91.2315C149.812 91.2315 149.994 91.3039 150.145 91.4485C150.299 91.5932 150.376 91.767 150.376 91.9702C150.376 92.1733 150.299 92.3472 150.145 92.4918C149.994 92.6365 149.812 92.7088 149.6 92.7088ZM154.892 93.9091L154.744 94.8324H151.069L151.217 93.9091H154.892ZM152.565 92.2102H153.654L152.528 98.9688C152.479 99.2765 152.486 99.5073 152.551 99.6612C152.619 99.812 152.72 99.9136 152.856 99.9659C152.994 100.015 153.143 100.04 153.304 100.04C153.424 100.04 153.522 100.034 153.599 100.021C153.676 100.006 153.737 99.9936 153.784 99.9844L153.858 100.963C153.774 100.991 153.662 101.018 153.521 101.046C153.382 101.077 153.211 101.092 153.008 101.092C152.7 101.092 152.411 101.026 152.14 100.894C151.869 100.761 151.662 100.56 151.517 100.289C151.372 100.018 151.334 99.6766 151.402 99.2642L152.565 92.2102ZM155.616 103.659C155.432 103.659 155.269 103.644 155.127 103.613C154.989 103.585 154.893 103.558 154.841 103.53L155.284 102.57C155.536 102.637 155.761 102.657 155.958 102.63C156.158 102.605 156.347 102.508 156.526 102.339C156.707 102.173 156.897 101.911 157.094 101.554L157.398 101L155.976 93.9091H157.112L158.128 99.5781H158.202L161.101 93.9091H162.329L157.98 102.025C157.777 102.403 157.554 102.713 157.311 102.953C157.068 103.193 156.804 103.37 156.521 103.484C156.238 103.601 155.936 103.659 155.616 103.659ZM170.507 93.9091L170.359 94.8324H166.684L166.832 93.9091H170.507ZM168.18 92.2102H169.27L168.143 98.9688C168.094 99.2765 168.102 99.5073 168.166 99.6612C168.234 99.812 168.336 99.9136 168.471 99.9659C168.609 100.015 168.759 100.04 168.919 100.04C169.039 100.04 169.137 100.034 169.214 100.021C169.291 100.006 169.353 99.9936 169.399 99.9844L169.473 100.963C169.39 100.991 169.277 101.018 169.136 101.046C168.997 101.077 168.826 101.092 168.623 101.092C168.316 101.092 168.026 101.026 167.755 100.894C167.485 100.761 167.277 100.56 167.132 100.289C166.988 100.018 166.949 99.6766 167.017 99.2642L168.18 92.2102ZM173.815 101.148C173.162 101.148 172.616 100.992 172.176 100.681C171.736 100.371 171.425 99.9351 171.243 99.375C171.065 98.8149 171.035 98.1624 171.155 97.4176C171.272 96.6913 171.505 96.0588 171.853 95.5202C172.203 94.9786 172.639 94.56 173.159 94.2646C173.682 93.966 174.258 93.8168 174.886 93.8168C175.538 93.8168 176.083 93.9737 176.52 94.2876C176.96 94.5985 177.271 95.0355 177.452 95.5987C177.634 96.1589 177.665 96.8144 177.545 97.5653C177.428 98.2855 177.192 98.9149 176.838 99.4535C176.487 99.989 176.052 100.406 175.532 100.705C175.015 101 174.442 101.148 173.815 101.148ZM173.833 100.169C174.332 100.169 174.764 100.041 175.13 99.7859C175.5 99.5304 175.798 99.1934 176.026 98.7749C176.257 98.3563 176.412 97.9039 176.492 97.4176C176.566 96.956 176.563 96.5266 176.483 96.1296C176.403 95.7295 176.232 95.4079 175.97 95.1648C175.709 94.9186 175.341 94.7955 174.867 94.7955C174.369 94.7955 173.933 94.9247 173.561 95.1832C173.191 95.4418 172.893 95.7818 172.665 96.2035C172.437 96.6251 172.285 97.0791 172.208 97.5653C172.134 98.027 172.136 98.4563 172.213 98.8533C172.293 99.2473 172.463 99.5658 172.725 99.8089C172.99 100.049 173.359 100.169 173.833 100.169ZM180.085 98.4148L180.288 97.0668H180.51L184.147 93.9091H185.495L181.636 97.2514H181.544L180.085 98.4148ZM178.645 101L180.214 91.5455H181.304L179.734 101H178.645ZM183.15 101L180.971 97.4915L181.858 96.7344L184.535 101H183.15ZM188.378 101.148C187.698 101.148 187.137 100.997 186.693 100.695C186.25 100.391 185.941 99.9659 185.765 99.4212C185.59 98.8733 185.562 98.2363 185.682 97.5099C185.802 96.7836 186.041 96.1435 186.398 95.5895C186.755 95.0324 187.2 94.5985 187.732 94.2876C188.265 93.9737 188.849 93.8168 189.486 93.8168C189.856 93.8168 190.211 93.8783 190.553 94.0014C190.894 94.1245 191.19 94.3246 191.439 94.6016C191.688 94.8755 191.862 95.2386 191.961 95.6911C192.059 96.1435 192.053 96.7005 191.942 97.3622L191.868 97.8239H186.403L186.55 96.8821H190.908C190.979 96.482 190.961 96.125 190.853 95.8111C190.748 95.4972 190.565 95.2494 190.303 95.0678C190.045 94.8862 189.717 94.7955 189.32 94.7955C188.911 94.7955 188.529 94.9062 188.175 95.1278C187.821 95.3464 187.526 95.6233 187.289 95.9588C187.052 96.2912 186.904 96.6297 186.846 96.9744L186.716 97.7869C186.624 98.3748 186.638 98.8426 186.758 99.1903C186.881 99.5381 187.095 99.7889 187.4 99.9428C187.704 100.094 188.086 100.169 188.545 100.169C188.837 100.169 189.106 100.129 189.352 100.049C189.599 99.9659 189.819 99.8428 190.013 99.6797C190.206 99.5135 190.37 99.3073 190.502 99.0611L191.499 99.3565C191.33 99.7135 191.091 100.027 190.784 100.298C190.479 100.566 190.122 100.775 189.713 100.926C189.306 101.074 188.862 101.148 188.378 101.148ZM194.807 96.7344L194.105 101H193.016L194.197 93.9091H195.25L195.065 95.017H195.158C195.379 94.657 195.679 94.3677 196.058 94.1491C196.436 93.9276 196.893 93.8168 197.429 93.8168C197.903 93.8168 198.303 93.9152 198.629 94.1122C198.959 94.3061 199.191 94.6016 199.326 94.9986C199.465 95.3925 199.485 95.8911 199.386 96.4943L198.629 101H197.54L198.278 96.5682C198.371 96.0142 198.298 95.5803 198.061 95.2663C197.828 94.9524 197.457 94.7955 196.949 94.7955C196.598 94.7955 196.273 94.8709 195.975 95.0217C195.679 95.1725 195.429 95.3925 195.222 95.6818C195.019 95.9711 194.881 96.322 194.807 96.7344Z" fill="black"/>
<path d="M482.511 91.5455L484.007 99.5043H484.118L488.236 91.5455H489.436L484.395 101H483.213L481.311 91.5455H482.511ZM491.486 101.148C490.806 101.148 490.244 100.997 489.801 100.695C489.358 100.391 489.048 99.9659 488.873 99.4212C488.697 98.8733 488.67 98.2363 488.79 97.5099C488.91 96.7836 489.148 96.1435 489.505 95.5895C489.862 95.0324 490.307 94.5985 490.839 94.2876C491.372 93.9737 491.957 93.8168 492.594 93.8168C492.963 93.8168 493.319 93.8783 493.66 94.0014C494.002 94.1245 494.297 94.3246 494.547 94.6016C494.796 94.8755 494.97 95.2386 495.068 95.6911C495.167 96.1435 495.161 96.7005 495.05 97.3622L494.976 97.8239H489.51L489.658 96.8821H494.016C494.086 96.482 494.068 96.125 493.96 95.8111C493.856 95.4972 493.672 95.2494 493.411 95.0678C493.152 94.8862 492.825 94.7955 492.428 94.7955C492.018 94.7955 491.637 94.9062 491.283 95.1278C490.929 95.3464 490.633 95.6233 490.396 95.9588C490.159 96.2912 490.012 96.6297 489.953 96.9744L489.824 97.7869C489.732 98.3748 489.745 98.8426 489.865 99.1903C489.989 99.5381 490.202 99.7889 490.507 99.9428C490.812 100.094 491.193 100.169 491.652 100.169C491.944 100.169 492.214 100.129 492.46 100.049C492.706 99.9659 492.926 99.8428 493.12 99.6797C493.314 99.5135 493.477 99.3073 493.609 99.0611L494.607 99.3565C494.437 99.7135 494.199 100.027 493.891 100.298C493.586 100.566 493.229 100.775 492.82 100.926C492.414 101.074 491.969 101.148 491.486 101.148ZM496.123 101L497.305 93.9091H498.357L498.173 94.9801H498.247C498.431 94.6293 498.713 94.3446 499.091 94.1261C499.47 93.9076 499.872 93.7983 500.296 93.7983C500.379 93.7983 500.479 93.7998 500.596 93.8029C500.713 93.8029 500.804 93.8075 500.869 93.8168L500.684 94.9247C500.647 94.9155 500.564 94.9016 500.435 94.8832C500.306 94.8616 500.167 94.8509 500.019 94.8509C499.675 94.8509 499.356 94.9232 499.064 95.0678C498.771 95.2094 498.527 95.4064 498.33 95.6587C498.133 95.908 498.007 96.1927 497.951 96.5128L497.213 101H496.123ZM500.985 101L502.167 93.9091H503.257L502.075 101H500.985ZM503.044 92.7088C502.832 92.7088 502.649 92.6365 502.495 92.4918C502.344 92.3472 502.269 92.1733 502.269 91.9702C502.269 91.767 502.344 91.5932 502.495 91.4485C502.649 91.3039 502.832 91.2315 503.044 91.2315C503.257 91.2315 503.438 91.3039 503.589 91.4485C503.743 91.5932 503.82 91.767 503.82 91.9702C503.82 92.1733 503.743 92.3472 503.589 92.4918C503.438 92.6365 503.257 92.7088 503.044 92.7088ZM508.41 93.9091L508.262 94.8324H504.44L504.587 93.9091H508.41ZM504.55 101L505.898 92.9304C505.96 92.5241 506.108 92.1856 506.342 91.9148C506.579 91.6439 506.86 91.4408 507.186 91.3054C507.516 91.17 507.85 91.1023 508.188 91.1023C508.456 91.1023 508.67 91.1238 508.83 91.1669C508.993 91.21 509.112 91.25 509.185 91.2869L508.724 92.2287C508.668 92.2102 508.594 92.1871 508.502 92.1594C508.413 92.1317 508.29 92.1179 508.133 92.1179C507.773 92.1179 507.499 92.2087 507.311 92.3903C507.123 92.5719 506.997 92.8381 506.933 93.1889L505.64 101H504.55ZM509.023 103.659C508.838 103.659 508.675 103.644 508.533 103.613C508.395 103.585 508.299 103.558 508.247 103.53L508.69 102.57C508.943 102.637 509.167 102.657 509.364 102.63C509.564 102.605 509.754 102.508 509.932 102.339C510.114 102.173 510.303 101.911 510.5 101.554L510.805 101L509.383 93.9091H510.518L511.534 99.5781H511.608L514.507 93.9091H515.735L511.386 102.025C511.183 102.403 510.96 102.713 510.717 102.953C510.474 103.193 510.211 103.37 509.927 103.484C509.644 103.601 509.343 103.659 509.023 103.659ZM519.647 101L520.829 93.9091H521.919L520.737 101H519.647ZM521.706 92.7088C521.494 92.7088 521.311 92.6365 521.157 92.4918C521.006 92.3472 520.931 92.1733 520.931 91.9702C520.931 91.767 521.006 91.5932 521.157 91.4485C521.311 91.3039 521.494 91.2315 521.706 91.2315C521.919 91.2315 522.1 91.3039 522.251 91.4485C522.405 91.5932 522.482 91.767 522.482 91.9702C522.482 92.1733 522.405 92.3472 522.251 92.4918C522.1 92.6365 521.919 92.7088 521.706 92.7088ZM525.401 101.148C524.807 101.148 524.308 100.998 523.905 100.7C523.502 100.398 523.217 99.9736 523.051 99.4258C522.888 98.8749 522.868 98.224 522.991 97.473C523.117 96.7282 523.353 96.0819 523.697 95.5341C524.045 94.9863 524.471 94.5631 524.976 94.2646C525.481 93.966 526.032 93.8168 526.629 93.8168C527.09 93.8168 527.443 93.8937 527.686 94.0476C527.932 94.1984 528.111 94.3707 528.221 94.5646C528.332 94.7554 528.417 94.9124 528.475 95.0355H528.568L529.149 91.5455H530.239L528.669 101H527.617L527.801 99.9105H527.672C527.57 100.04 527.429 100.203 527.247 100.4C527.066 100.594 526.826 100.768 526.527 100.922C526.232 101.072 525.856 101.148 525.401 101.148ZM525.669 100.169C526.106 100.169 526.496 100.055 526.841 99.8274C527.189 99.5966 527.478 99.2781 527.709 98.8718C527.94 98.4625 528.1 97.9901 528.189 97.4545C528.278 96.9252 528.275 96.462 528.18 96.065C528.084 95.6649 527.901 95.354 527.631 95.1325C527.36 94.9078 527.001 94.7955 526.555 94.7955C526.096 94.7955 525.698 94.9139 525.359 95.1509C525.021 95.3848 524.745 95.7034 524.533 96.1065C524.32 96.5066 524.173 96.956 524.09 97.4545C524.007 97.9593 524.005 98.4179 524.085 98.8303C524.165 99.2396 524.334 99.5658 524.593 99.8089C524.854 100.049 525.213 100.169 525.669 100.169ZM533.761 101.148C533.081 101.148 532.519 100.997 532.076 100.695C531.633 100.391 531.324 99.9659 531.148 99.4212C530.973 98.8733 530.945 98.2363 531.065 97.5099C531.185 96.7836 531.424 96.1435 531.781 95.5895C532.138 95.0324 532.582 94.5985 533.115 94.2876C533.647 93.9737 534.232 93.8168 534.869 93.8168C535.238 93.8168 535.594 93.8783 535.936 94.0014C536.277 94.1245 536.573 94.3246 536.822 94.6016C537.071 94.8755 537.245 95.2386 537.344 95.6911C537.442 96.1435 537.436 96.7005 537.325 97.3622L537.251 97.8239H531.785L531.933 96.8821H536.291C536.362 96.482 536.343 96.125 536.236 95.8111C536.131 95.4972 535.948 95.2494 535.686 95.0678C535.428 94.8862 535.1 94.7955 534.703 94.7955C534.294 94.7955 533.912 94.9062 533.558 95.1278C533.204 95.3464 532.909 95.6233 532.672 95.9588C532.435 96.2912 532.287 96.6297 532.229 96.9744L532.099 97.7869C532.007 98.3748 532.021 98.8426 532.141 99.1903C532.264 99.5381 532.478 99.7889 532.782 99.9428C533.087 100.094 533.469 100.169 533.927 100.169C534.22 100.169 534.489 100.129 534.735 100.049C534.981 99.9659 535.202 99.8428 535.395 99.6797C535.589 99.5135 535.752 99.3073 535.885 99.0611L536.882 99.3565C536.713 99.7135 536.474 100.027 536.166 100.298C535.862 100.566 535.505 100.775 535.095 100.926C534.689 101.074 534.244 101.148 533.761 101.148ZM540.19 96.7344L539.488 101H538.398L539.58 93.9091H540.633L540.448 95.017H540.54C540.762 94.657 541.062 94.3677 541.441 94.1491C541.819 93.9276 542.276 93.8168 542.812 93.8168C543.286 93.8168 543.686 93.9152 544.012 94.1122C544.341 94.3061 544.574 94.6016 544.709 94.9986C544.848 95.3925 544.868 95.8911 544.769 96.4943L544.012 101H542.923L543.661 96.5682C543.754 96.0142 543.681 95.5803 543.444 95.2663C543.21 94.9524 542.839 94.7955 542.332 94.7955C541.981 94.7955 541.656 94.8709 541.358 95.0217C541.062 95.1725 540.811 95.3925 540.605 95.6818C540.402 95.9711 540.263 96.322 540.19 96.7344ZM550.269 93.9091L550.121 94.8324H546.446L546.594 93.9091H550.269ZM547.942 92.2102H549.031L547.905 98.9688C547.856 99.2765 547.863 99.5073 547.928 99.6612C547.996 99.812 548.097 99.9136 548.233 99.9659C548.371 100.015 548.52 100.04 548.68 100.04C548.801 100.04 548.899 100.034 548.976 100.021C549.053 100.006 549.114 99.9936 549.161 99.9844L549.234 100.963C549.151 100.991 549.039 101.018 548.897 101.046C548.759 101.077 548.588 101.092 548.385 101.092C548.077 101.092 547.788 101.026 547.517 100.894C547.246 100.761 547.039 100.56 546.894 100.289C546.749 100.018 546.711 99.6766 546.778 99.2642L547.942 92.2102ZM550.726 101L551.907 93.9091H552.997L551.815 101H550.726ZM552.785 92.7088C552.572 92.7088 552.389 92.6365 552.235 92.4918C552.084 92.3472 552.009 92.1733 552.009 91.9702C552.009 91.767 552.084 91.5932 552.235 91.4485C552.389 91.3039 552.572 91.2315 552.785 91.2315C552.997 91.2315 553.178 91.3039 553.329 91.4485C553.483 91.5932 553.56 91.767 553.56 91.9702C553.56 92.1733 553.483 92.3472 553.329 92.4918C553.178 92.6365 552.997 92.7088 552.785 92.7088ZM558.076 93.9091L557.928 94.8324H554.254L554.401 93.9091H558.076ZM555.749 92.2102H556.839L555.713 98.9688C555.663 99.2765 555.671 99.5073 555.736 99.6612C555.803 99.812 555.905 99.9136 556.04 99.9659C556.179 100.015 556.328 100.04 556.488 100.04C556.608 100.04 556.707 100.034 556.784 100.021C556.86 100.006 556.922 99.9936 556.968 99.9844L557.042 100.963C556.959 100.991 556.847 101.018 556.705 101.046C556.567 101.077 556.396 101.092 556.193 101.092C555.885 101.092 555.596 101.026 555.325 100.894C555.054 100.761 554.846 100.56 554.702 100.289C554.557 100.018 554.518 99.6766 554.586 99.2642L555.749 92.2102ZM558.801 103.659C558.616 103.659 558.453 103.644 558.312 103.613C558.173 103.585 558.078 103.558 558.025 103.53L558.469 102.57C558.721 102.637 558.946 102.657 559.143 102.63C559.343 102.605 559.532 102.508 559.71 102.339C559.892 102.173 560.081 101.911 560.278 101.554L560.583 101L559.161 93.9091H560.297L561.312 99.5781H561.386L564.285 93.9091H565.513L561.165 102.025C560.961 102.403 560.738 102.713 560.495 102.953C560.252 103.193 559.989 103.37 559.706 103.484C559.423 103.601 559.121 103.659 558.801 103.659ZM573.691 93.9091L573.544 94.8324H569.869L570.017 93.9091H573.691ZM571.365 92.2102H572.454L571.328 98.9688C571.279 99.2765 571.286 99.5073 571.351 99.6612C571.419 99.812 571.52 99.9136 571.656 99.9659C571.794 100.015 571.943 100.04 572.103 100.04C572.223 100.04 572.322 100.034 572.399 100.021C572.476 100.006 572.537 99.9936 572.583 99.9844L572.657 100.963C572.574 100.991 572.462 101.018 572.32 101.046C572.182 101.077 572.011 101.092 571.808 101.092C571.5 101.092 571.211 101.026 570.94 100.894C570.669 100.761 570.461 100.56 570.317 100.289C570.172 100.018 570.134 99.6766 570.201 99.2642L571.365 92.2102ZM576.999 101.148C576.347 101.148 575.8 100.992 575.36 100.681C574.92 100.371 574.609 99.9351 574.428 99.375C574.249 98.8149 574.22 98.1624 574.34 97.4176C574.457 96.6913 574.689 96.0588 575.037 95.5202C575.388 94.9786 575.823 94.56 576.344 94.2646C576.867 93.966 577.442 93.8168 578.07 93.8168C578.723 93.8168 579.267 93.9737 579.704 94.2876C580.144 94.5985 580.455 95.0355 580.637 95.5987C580.818 96.1589 580.849 96.8144 580.729 97.5653C580.612 98.2855 580.377 98.9149 580.023 99.4535C579.672 99.989 579.237 100.406 578.716 100.705C578.199 101 577.627 101.148 576.999 101.148ZM577.018 100.169C577.516 100.169 577.949 100.041 578.315 99.7859C578.684 99.5304 578.983 99.1934 579.21 98.7749C579.441 98.3563 579.597 97.9039 579.677 97.4176C579.751 96.956 579.747 96.5266 579.667 96.1296C579.587 95.7295 579.417 95.4079 579.155 95.1648C578.893 94.9186 578.526 94.7955 578.052 94.7955C577.553 94.7955 577.118 94.9247 576.745 95.1832C576.376 95.4418 576.077 95.7818 575.85 96.2035C575.622 96.6251 575.47 97.0791 575.393 97.5653C575.319 98.027 575.32 98.4563 575.397 98.8533C575.477 99.2473 575.648 99.5658 575.91 99.8089C576.174 100.049 576.544 100.169 577.018 100.169ZM583.269 98.4148L583.473 97.0668H583.694L587.332 93.9091H588.68L584.821 97.2514H584.728L583.269 98.4148ZM581.829 101L583.399 91.5455H584.488L582.919 101H581.829ZM586.335 101L584.156 97.4915L585.042 96.7344L587.72 101H586.335ZM591.563 101.148C590.883 101.148 590.321 100.997 589.878 100.695C589.435 100.391 589.125 99.9659 588.95 99.4212C588.775 98.8733 588.747 98.2363 588.867 97.5099C588.987 96.7836 589.225 96.1435 589.582 95.5895C589.939 95.0324 590.384 94.5985 590.917 94.2876C591.449 93.9737 592.034 93.8168 592.671 93.8168C593.04 93.8168 593.396 93.8783 593.737 94.0014C594.079 94.1245 594.374 94.3246 594.624 94.6016C594.873 94.8755 595.047 95.2386 595.145 95.6911C595.244 96.1435 595.238 96.7005 595.127 97.3622L595.053 97.8239H589.587L589.735 96.8821H594.093C594.164 96.482 594.145 96.125 594.037 95.8111C593.933 95.4972 593.75 95.2494 593.488 95.0678C593.229 94.8862 592.902 94.7955 592.505 94.7955C592.095 94.7955 591.714 94.9062 591.36 95.1278C591.006 95.3464 590.71 95.6233 590.473 95.9588C590.236 96.2912 590.089 96.6297 590.03 96.9744L589.901 97.7869C589.809 98.3748 589.823 98.8426 589.943 99.1903C590.066 99.5381 590.28 99.7889 590.584 99.9428C590.889 100.094 591.271 100.169 591.729 100.169C592.022 100.169 592.291 100.129 592.537 100.049C592.783 99.9659 593.003 99.8428 593.197 99.6797C593.391 99.5135 593.554 99.3073 593.687 99.0611L594.684 99.3565C594.514 99.7135 594.276 100.027 593.968 100.298C593.663 100.566 593.306 100.775 592.897 100.926C592.491 101.074 592.046 101.148 591.563 101.148ZM597.991 96.7344L597.29 101H596.2L597.382 93.9091H598.435L598.25 95.017H598.342C598.564 94.657 598.864 94.3677 599.242 94.1491C599.621 93.9276 600.078 93.8168 600.614 93.8168C601.088 93.8168 601.488 93.9152 601.814 94.1122C602.143 94.3061 602.376 94.6016 602.511 94.9986C602.649 95.3925 602.669 95.8911 602.571 96.4943L601.814 101H600.724L601.463 96.5682C601.555 96.0142 601.483 95.5803 601.246 95.2663C601.012 94.9524 600.641 94.7955 600.133 94.7955C599.783 94.7955 599.458 94.8709 599.159 95.0217C598.864 95.1725 598.613 95.3925 598.407 95.6818C598.204 95.9711 598.065 96.322 597.991 96.7344Z" fill="black"/>
<path d="M422 283L412 277.226V288.774L422 283ZM259 284L413 284V282L259 282V284Z" fill="black"/>
<path d="M114 166.096L125.547 166.047L119.731 156.072L114 166.096ZM254.816 84L243.269 84.0488L249.085 94.0243L254.816 84ZM122.279 162.427L247.545 89.3968L246.538 87.669L121.272 160.699L122.279 162.427Z" fill="black"/>
<path d="M566.816 166.456L555.269 166.407L561.085 156.432L566.816 166.456ZM426 84.3601L437.547 84.4089L431.731 94.3844L426 84.3601ZM558.537 162.787L433.272 89.7569L434.279 88.0291L559.545 161.059L558.537 162.787Z" fill="black"/>
<rect y="201" width="228" height="146" rx="10" fill="#D9D9D9"/>
<path d="M83.2784 272.438H80.7898C80.7443 272.116 80.6515 271.83 80.5114 271.58C80.3712 271.326 80.1913 271.11 79.9716 270.932C79.7519 270.754 79.4981 270.617 79.2102 270.523C78.9261 270.428 78.6174 270.381 78.2841 270.381C77.6818 270.381 77.1572 270.53 76.7102 270.83C76.2633 271.125 75.9167 271.557 75.6705 272.125C75.4242 272.689 75.3011 273.375 75.3011 274.182C75.3011 275.011 75.4242 275.708 75.6705 276.273C75.9205 276.837 76.2689 277.263 76.7159 277.551C77.1629 277.839 77.6799 277.983 78.267 277.983C78.5966 277.983 78.9015 277.939 79.1818 277.852C79.4659 277.765 79.7178 277.638 79.9375 277.472C80.1572 277.301 80.339 277.095 80.483 276.852C80.6307 276.61 80.733 276.333 80.7898 276.023L83.2784 276.034C83.214 276.568 83.053 277.083 82.7955 277.58C82.5417 278.072 82.1989 278.513 81.767 278.903C81.339 279.29 80.8277 279.597 80.233 279.824C79.642 280.047 78.9735 280.159 78.2273 280.159C77.1894 280.159 76.2614 279.924 75.4432 279.455C74.6288 278.985 73.9848 278.305 73.5114 277.415C73.0417 276.525 72.8068 275.447 72.8068 274.182C72.8068 272.913 73.0455 271.833 73.5227 270.943C74 270.053 74.6477 269.375 75.4659 268.909C76.2841 268.439 77.2045 268.205 78.2273 268.205C78.9015 268.205 79.5265 268.299 80.1023 268.489C80.6818 268.678 81.1951 268.955 81.642 269.318C82.089 269.678 82.4527 270.119 82.733 270.642C83.017 271.165 83.1989 271.763 83.2784 272.438ZM88.9403 280.17C88.0578 280.17 87.2945 279.983 86.6506 279.608C86.0104 279.229 85.5161 278.703 85.1676 278.028C84.8191 277.35 84.6449 276.564 84.6449 275.67C84.6449 274.769 84.8191 273.981 85.1676 273.307C85.5161 272.629 86.0104 272.102 86.6506 271.727C87.2945 271.348 88.0578 271.159 88.9403 271.159C89.8229 271.159 90.5843 271.348 91.2244 271.727C91.8684 272.102 92.3646 272.629 92.7131 273.307C93.0616 273.981 93.2358 274.769 93.2358 275.67C93.2358 276.564 93.0616 277.35 92.7131 278.028C92.3646 278.703 91.8684 279.229 91.2244 279.608C90.5843 279.983 89.8229 280.17 88.9403 280.17ZM88.9517 278.295C89.3532 278.295 89.6884 278.182 89.9574 277.955C90.2263 277.723 90.429 277.409 90.5653 277.011C90.7055 276.614 90.7756 276.161 90.7756 275.653C90.7756 275.146 90.7055 274.693 90.5653 274.295C90.429 273.898 90.2263 273.583 89.9574 273.352C89.6884 273.121 89.3532 273.006 88.9517 273.006C88.5464 273.006 88.2055 273.121 87.929 273.352C87.6563 273.583 87.4498 273.898 87.3097 274.295C87.1733 274.693 87.1051 275.146 87.1051 275.653C87.1051 276.161 87.1733 276.614 87.3097 277.011C87.4498 277.409 87.6563 277.723 87.929 277.955C88.2055 278.182 88.5464 278.295 88.9517 278.295ZM97.2301 274.955V280H94.8097V271.273H97.1165V272.812H97.2188C97.4119 272.305 97.7358 271.903 98.1903 271.608C98.6449 271.309 99.196 271.159 99.8438 271.159C100.45 271.159 100.978 271.292 101.429 271.557C101.88 271.822 102.23 272.201 102.48 272.693C102.73 273.182 102.855 273.765 102.855 274.443V280H100.435V274.875C100.438 274.341 100.302 273.924 100.026 273.625C99.7491 273.322 99.3684 273.17 98.8835 273.17C98.5578 273.17 98.2699 273.241 98.0199 273.381C97.7737 273.521 97.5805 273.725 97.4403 273.994C97.304 274.259 97.2339 274.58 97.2301 274.955ZM107.183 274.955V280H104.763V271.273H107.07V272.812H107.172C107.365 272.305 107.689 271.903 108.143 271.608C108.598 271.309 109.149 271.159 109.797 271.159C110.403 271.159 110.931 271.292 111.382 271.557C111.833 271.822 112.183 272.201 112.433 272.693C112.683 273.182 112.808 273.765 112.808 274.443V280H110.388V274.875C110.392 274.341 110.255 273.924 109.979 273.625C109.702 273.322 109.321 273.17 108.837 273.17C108.511 273.17 108.223 273.241 107.973 273.381C107.727 273.521 107.534 273.725 107.393 273.994C107.257 274.259 107.187 274.58 107.183 274.955ZM118.693 280.17C117.795 280.17 117.023 279.989 116.375 279.625C115.731 279.258 115.235 278.739 114.886 278.068C114.538 277.394 114.364 276.597 114.364 275.676C114.364 274.778 114.538 273.991 114.886 273.312C115.235 272.634 115.725 272.106 116.358 271.727C116.994 271.348 117.741 271.159 118.597 271.159C119.172 271.159 119.708 271.252 120.205 271.438C120.705 271.619 121.14 271.894 121.511 272.261C121.886 272.629 122.178 273.091 122.386 273.648C122.595 274.201 122.699 274.848 122.699 275.591V276.256H115.33V274.756H120.42C120.42 274.407 120.345 274.098 120.193 273.83C120.042 273.561 119.831 273.35 119.562 273.199C119.297 273.044 118.989 272.966 118.636 272.966C118.269 272.966 117.943 273.051 117.659 273.222C117.379 273.388 117.159 273.614 117 273.898C116.841 274.178 116.759 274.491 116.756 274.835V276.261C116.756 276.693 116.835 277.066 116.994 277.381C117.157 277.695 117.386 277.938 117.682 278.108C117.977 278.278 118.328 278.364 118.733 278.364C119.002 278.364 119.248 278.326 119.472 278.25C119.695 278.174 119.886 278.061 120.045 277.909C120.205 277.758 120.326 277.572 120.409 277.352L122.648 277.5C122.534 278.038 122.301 278.508 121.949 278.909C121.6 279.307 121.15 279.617 120.597 279.841C120.047 280.061 119.413 280.17 118.693 280.17ZM128.222 280.17C127.328 280.17 126.559 279.981 125.915 279.602C125.275 279.22 124.782 278.689 124.438 278.011C124.097 277.333 123.926 276.553 123.926 275.67C123.926 274.777 124.098 273.992 124.443 273.318C124.792 272.64 125.286 272.112 125.926 271.733C126.566 271.35 127.328 271.159 128.21 271.159C128.972 271.159 129.638 271.297 130.21 271.574C130.782 271.85 131.235 272.239 131.568 272.739C131.902 273.239 132.085 273.826 132.119 274.5H129.835C129.771 274.064 129.6 273.714 129.324 273.449C129.051 273.18 128.693 273.045 128.25 273.045C127.875 273.045 127.547 273.148 127.267 273.352C126.991 273.553 126.775 273.847 126.619 274.233C126.464 274.619 126.386 275.087 126.386 275.636C126.386 276.193 126.462 276.667 126.614 277.057C126.769 277.447 126.987 277.744 127.267 277.949C127.547 278.153 127.875 278.256 128.25 278.256C128.527 278.256 128.775 278.199 128.994 278.085C129.218 277.972 129.402 277.807 129.545 277.591C129.693 277.371 129.79 277.108 129.835 276.801H132.119C132.081 277.468 131.9 278.055 131.574 278.562C131.252 279.066 130.807 279.46 130.239 279.744C129.67 280.028 128.998 280.17 128.222 280.17ZM138.311 271.273V273.091H133.055V271.273H138.311ZM134.249 269.182H136.669V277.318C136.669 277.542 136.703 277.716 136.771 277.841C136.839 277.962 136.934 278.047 137.055 278.097C137.18 278.146 137.324 278.17 137.487 278.17C137.601 278.17 137.714 278.161 137.828 278.142C137.942 278.119 138.029 278.102 138.089 278.091L138.47 279.892C138.349 279.93 138.179 279.973 137.959 280.023C137.739 280.076 137.472 280.108 137.158 280.119C136.574 280.142 136.063 280.064 135.624 279.886C135.188 279.708 134.849 279.432 134.607 279.057C134.364 278.682 134.245 278.208 134.249 277.636V269.182ZM143.737 280.17C142.855 280.17 142.091 279.983 141.447 279.608C140.807 279.229 140.313 278.703 139.964 278.028C139.616 277.35 139.442 276.564 139.442 275.67C139.442 274.769 139.616 273.981 139.964 273.307C140.313 272.629 140.807 272.102 141.447 271.727C142.091 271.348 142.855 271.159 143.737 271.159C144.62 271.159 145.381 271.348 146.021 271.727C146.665 272.102 147.161 272.629 147.51 273.307C147.858 273.981 148.033 274.769 148.033 275.67C148.033 276.564 147.858 277.35 147.51 278.028C147.161 278.703 146.665 279.229 146.021 279.608C145.381 279.983 144.62 280.17 143.737 280.17ZM143.749 278.295C144.15 278.295 144.485 278.182 144.754 277.955C145.023 277.723 145.226 277.409 145.362 277.011C145.502 276.614 145.572 276.161 145.572 275.653C145.572 275.146 145.502 274.693 145.362 274.295C145.226 273.898 145.023 273.583 144.754 273.352C144.485 273.121 144.15 273.006 143.749 273.006C143.343 273.006 143.002 273.121 142.726 273.352C142.453 273.583 142.247 273.898 142.107 274.295C141.97 274.693 141.902 275.146 141.902 275.653C141.902 276.161 141.97 276.614 142.107 277.011C142.247 277.409 142.453 277.723 142.726 277.955C143.002 278.182 143.343 278.295 143.749 278.295ZM149.607 280V271.273H151.953V272.795H152.044C152.203 272.254 152.47 271.845 152.845 271.568C153.22 271.288 153.652 271.148 154.141 271.148C154.262 271.148 154.393 271.155 154.533 271.17C154.673 271.186 154.796 271.206 154.902 271.233V273.381C154.788 273.347 154.631 273.316 154.43 273.29C154.23 273.263 154.046 273.25 153.879 273.25C153.523 273.25 153.205 273.328 152.925 273.483C152.648 273.634 152.429 273.847 152.266 274.119C152.107 274.392 152.027 274.706 152.027 275.062V280H149.607Z" fill="black"/>
<rect x="453" y="201" width="228" height="146" rx="10" fill="#D9D9D9"/>
<path d="M536.278 271.438H533.79C533.744 271.116 533.652 270.83 533.511 270.58C533.371 270.326 533.191 270.11 532.972 269.932C532.752 269.754 532.498 269.617 532.21 269.523C531.926 269.428 531.617 269.381 531.284 269.381C530.682 269.381 530.157 269.53 529.71 269.83C529.263 270.125 528.917 270.557 528.67 271.125C528.424 271.689 528.301 272.375 528.301 273.182C528.301 274.011 528.424 274.708 528.67 275.273C528.92 275.837 529.269 276.263 529.716 276.551C530.163 276.839 530.68 276.983 531.267 276.983C531.597 276.983 531.902 276.939 532.182 276.852C532.466 276.765 532.718 276.638 532.938 276.472C533.157 276.301 533.339 276.095 533.483 275.852C533.631 275.61 533.733 275.333 533.79 275.023L536.278 275.034C536.214 275.568 536.053 276.083 535.795 276.58C535.542 277.072 535.199 277.513 534.767 277.903C534.339 278.29 533.828 278.597 533.233 278.824C532.642 279.047 531.973 279.159 531.227 279.159C530.189 279.159 529.261 278.924 528.443 278.455C527.629 277.985 526.985 277.305 526.511 276.415C526.042 275.525 525.807 274.447 525.807 273.182C525.807 271.913 526.045 270.833 526.523 269.943C527 269.053 527.648 268.375 528.466 267.909C529.284 267.439 530.205 267.205 531.227 267.205C531.902 267.205 532.527 267.299 533.102 267.489C533.682 267.678 534.195 267.955 534.642 268.318C535.089 268.678 535.453 269.119 535.733 269.642C536.017 270.165 536.199 270.763 536.278 271.438ZM541.94 279.17C541.058 279.17 540.295 278.983 539.651 278.608C539.01 278.229 538.516 277.703 538.168 277.028C537.819 276.35 537.645 275.564 537.645 274.67C537.645 273.769 537.819 272.981 538.168 272.307C538.516 271.629 539.01 271.102 539.651 270.727C540.295 270.348 541.058 270.159 541.94 270.159C542.823 270.159 543.584 270.348 544.224 270.727C544.868 271.102 545.365 271.629 545.713 272.307C546.062 272.981 546.236 273.769 546.236 274.67C546.236 275.564 546.062 276.35 545.713 277.028C545.365 277.703 544.868 278.229 544.224 278.608C543.584 278.983 542.823 279.17 541.94 279.17ZM541.952 277.295C542.353 277.295 542.688 277.182 542.957 276.955C543.226 276.723 543.429 276.409 543.565 276.011C543.705 275.614 543.776 275.161 543.776 274.653C543.776 274.146 543.705 273.693 543.565 273.295C543.429 272.898 543.226 272.583 542.957 272.352C542.688 272.121 542.353 272.006 541.952 272.006C541.546 272.006 541.205 272.121 540.929 272.352C540.656 272.583 540.45 272.898 540.31 273.295C540.173 273.693 540.105 274.146 540.105 274.653C540.105 275.161 540.173 275.614 540.31 276.011C540.45 276.409 540.656 276.723 540.929 276.955C541.205 277.182 541.546 277.295 541.952 277.295ZM550.23 273.955V279H547.81V270.273H550.116V271.812H550.219C550.412 271.305 550.736 270.903 551.19 270.608C551.645 270.309 552.196 270.159 552.844 270.159C553.45 270.159 553.978 270.292 554.429 270.557C554.88 270.822 555.23 271.201 555.48 271.693C555.73 272.182 555.855 272.765 555.855 273.443V279H553.435V273.875C553.438 273.341 553.302 272.924 553.026 272.625C552.749 272.322 552.368 272.17 551.884 272.17C551.558 272.17 551.27 272.241 551.02 272.381C550.774 272.521 550.58 272.725 550.44 272.994C550.304 273.259 550.234 273.58 550.23 273.955ZM560.183 273.955V279H557.763V270.273H560.07V271.812H560.172C560.365 271.305 560.689 270.903 561.143 270.608C561.598 270.309 562.149 270.159 562.797 270.159C563.403 270.159 563.931 270.292 564.382 270.557C564.833 270.822 565.183 271.201 565.433 271.693C565.683 272.182 565.808 272.765 565.808 273.443V279H563.388V273.875C563.392 273.341 563.255 272.924 562.979 272.625C562.702 272.322 562.321 272.17 561.837 272.17C561.511 272.17 561.223 272.241 560.973 272.381C560.727 272.521 560.534 272.725 560.393 272.994C560.257 273.259 560.187 273.58 560.183 273.955ZM571.693 279.17C570.795 279.17 570.023 278.989 569.375 278.625C568.731 278.258 568.235 277.739 567.886 277.068C567.538 276.394 567.364 275.597 567.364 274.676C567.364 273.778 567.538 272.991 567.886 272.312C568.235 271.634 568.725 271.106 569.358 270.727C569.994 270.348 570.741 270.159 571.597 270.159C572.172 270.159 572.708 270.252 573.205 270.438C573.705 270.619 574.14 270.894 574.511 271.261C574.886 271.629 575.178 272.091 575.386 272.648C575.595 273.201 575.699 273.848 575.699 274.591V275.256H568.33V273.756H573.42C573.42 273.407 573.345 273.098 573.193 272.83C573.042 272.561 572.831 272.35 572.562 272.199C572.297 272.044 571.989 271.966 571.636 271.966C571.269 271.966 570.943 272.051 570.659 272.222C570.379 272.388 570.159 272.614 570 272.898C569.841 273.178 569.759 273.491 569.756 273.835V275.261C569.756 275.693 569.835 276.066 569.994 276.381C570.157 276.695 570.386 276.938 570.682 277.108C570.977 277.278 571.328 277.364 571.733 277.364C572.002 277.364 572.248 277.326 572.472 277.25C572.695 277.174 572.886 277.061 573.045 276.909C573.205 276.758 573.326 276.572 573.409 276.352L575.648 276.5C575.534 277.038 575.301 277.508 574.949 277.909C574.6 278.307 574.15 278.617 573.597 278.841C573.047 279.061 572.413 279.17 571.693 279.17ZM581.222 279.17C580.328 279.17 579.559 278.981 578.915 278.602C578.275 278.22 577.782 277.689 577.438 277.011C577.097 276.333 576.926 275.553 576.926 274.67C576.926 273.777 577.098 272.992 577.443 272.318C577.792 271.64 578.286 271.112 578.926 270.733C579.566 270.35 580.328 270.159 581.21 270.159C581.972 270.159 582.638 270.297 583.21 270.574C583.782 270.85 584.235 271.239 584.568 271.739C584.902 272.239 585.085 272.826 585.119 273.5H582.835C582.771 273.064 582.6 272.714 582.324 272.449C582.051 272.18 581.693 272.045 581.25 272.045C580.875 272.045 580.547 272.148 580.267 272.352C579.991 272.553 579.775 272.847 579.619 273.233C579.464 273.619 579.386 274.087 579.386 274.636C579.386 275.193 579.462 275.667 579.614 276.057C579.769 276.447 579.987 276.744 580.267 276.949C580.547 277.153 580.875 277.256 581.25 277.256C581.527 277.256 581.775 277.199 581.994 277.085C582.218 276.972 582.402 276.807 582.545 276.591C582.693 276.371 582.79 276.108 582.835 275.801H585.119C585.081 276.468 584.9 277.055 584.574 277.562C584.252 278.066 583.807 278.46 583.239 278.744C582.67 279.028 581.998 279.17 581.222 279.17ZM591.311 270.273V272.091H586.055V270.273H591.311ZM587.249 268.182H589.669V276.318C589.669 276.542 589.703 276.716 589.771 276.841C589.839 276.962 589.934 277.047 590.055 277.097C590.18 277.146 590.324 277.17 590.487 277.17C590.601 277.17 590.714 277.161 590.828 277.142C590.942 277.119 591.029 277.102 591.089 277.091L591.47 278.892C591.349 278.93 591.179 278.973 590.959 279.023C590.739 279.076 590.472 279.108 590.158 279.119C589.574 279.142 589.063 279.064 588.624 278.886C588.188 278.708 587.849 278.432 587.607 278.057C587.364 277.682 587.245 277.208 587.249 276.636V268.182ZM596.737 279.17C595.855 279.17 595.091 278.983 594.447 278.608C593.807 278.229 593.313 277.703 592.964 277.028C592.616 276.35 592.442 275.564 592.442 274.67C592.442 273.769 592.616 272.981 592.964 272.307C593.313 271.629 593.807 271.102 594.447 270.727C595.091 270.348 595.855 270.159 596.737 270.159C597.62 270.159 598.381 270.348 599.021 270.727C599.665 271.102 600.161 271.629 600.51 272.307C600.858 272.981 601.033 273.769 601.033 274.67C601.033 275.564 600.858 276.35 600.51 277.028C600.161 277.703 599.665 278.229 599.021 278.608C598.381 278.983 597.62 279.17 596.737 279.17ZM596.749 277.295C597.15 277.295 597.485 277.182 597.754 276.955C598.023 276.723 598.226 276.409 598.362 276.011C598.502 275.614 598.572 275.161 598.572 274.653C598.572 274.146 598.502 273.693 598.362 273.295C598.226 272.898 598.023 272.583 597.754 272.352C597.485 272.121 597.15 272.006 596.749 272.006C596.343 272.006 596.002 272.121 595.726 272.352C595.453 272.583 595.247 272.898 595.107 273.295C594.97 273.693 594.902 274.146 594.902 274.653C594.902 275.161 594.97 275.614 595.107 276.011C595.247 276.409 595.453 276.723 595.726 276.955C596.002 277.182 596.343 277.295 596.749 277.295ZM602.607 279V270.273H604.953V271.795H605.044C605.203 271.254 605.47 270.845 605.845 270.568C606.22 270.288 606.652 270.148 607.141 270.148C607.262 270.148 607.393 270.155 607.533 270.17C607.673 270.186 607.796 270.206 607.902 270.233V272.381C607.788 272.347 607.631 272.316 607.43 272.29C607.23 272.263 607.046 272.25 606.879 272.25C606.523 272.25 606.205 272.328 605.925 272.483C605.648 272.634 605.429 272.847 605.266 273.119C605.107 273.392 605.027 273.706 605.027 274.062V279H602.607Z" fill="black"/>
<path d="M323.624 119.627C309.071 118.207 296.181 115.049 287.506 110.778C284.175 109.138 280.172 106.123 278.961 104.34L278 102.926V59.3493V15.7723L278.922 14.4837C283.091 8.65393 297.211 3.67727 316.29 1.31208C325.412 0.18135 328.945 -0.0105399 340.433 0.000431446C351.753 0.0175742 355.906 0.257276 364.606 1.43241C383.68 4.00862 397.784 9.14133 401.687 14.9267L402.706 16.4364L402.706 60.2703L402.705 104.104L401.788 105.517C397.479 112.156 380.004 117.695 357.242 119.635C351.496 120.124 328.667 120.119 323.624 119.635V119.627ZM354.658 25.4312C367.732 24.4441 377.943 22.1871 382.106 19.3632C383.902 18.1454 384.456 17.3701 384.456 16.0741C384.456 12.0564 373.195 8.53705 355.481 7.01855C349.552 6.51044 332.507 6.43512 326.826 6.89163C311.196 8.14888 300.258 10.7843 297.019 14.0735C295.963 15.1465 295.77 16.6361 296.545 17.7387C298.846 21.0118 309.175 23.9029 323.144 25.1836C332.724 26.062 345.015 26.1591 354.658 25.4312Z" fill="#CBCBCB"/>
<path d="M313.8 53.3636V65H311.339V53.3636H313.8ZM318.994 65.142C318.331 65.142 317.731 64.9716 317.193 64.6307C316.659 64.286 316.235 63.7803 315.92 63.1136C315.61 62.4432 315.455 61.6212 315.455 60.6477C315.455 59.6477 315.616 58.8163 315.938 58.1534C316.259 57.4867 316.688 56.9886 317.222 56.6591C317.759 56.3258 318.348 56.1591 318.989 56.1591C319.477 56.1591 319.884 56.2424 320.21 56.4091C320.54 56.572 320.805 56.7765 321.006 57.0227C321.21 57.2652 321.366 57.5038 321.472 57.7386H321.545V53.3636H323.96V65H321.574V63.6023H321.472C321.358 63.8447 321.197 64.0852 320.989 64.3239C320.784 64.5587 320.517 64.7538 320.188 64.9091C319.862 65.0644 319.464 65.142 318.994 65.142ZM319.761 63.2159C320.152 63.2159 320.481 63.1098 320.75 62.8977C321.023 62.6818 321.231 62.3807 321.375 61.9943C321.523 61.608 321.597 61.1553 321.597 60.6364C321.597 60.1174 321.525 59.6667 321.381 59.2841C321.237 58.9015 321.028 58.6061 320.756 58.3977C320.483 58.1894 320.152 58.0852 319.761 58.0852C319.364 58.0852 319.028 58.1932 318.756 58.4091C318.483 58.625 318.277 58.9242 318.136 59.3068C317.996 59.6894 317.926 60.1326 317.926 60.6364C317.926 61.1439 317.996 61.5928 318.136 61.983C318.28 62.3693 318.487 62.6723 318.756 62.892C319.028 63.108 319.364 63.2159 319.761 63.2159ZM329.928 65.1705C329.03 65.1705 328.257 64.9886 327.609 64.625C326.965 64.2576 326.469 63.7386 326.121 63.0682C325.772 62.3939 325.598 61.5966 325.598 60.6761C325.598 59.7784 325.772 58.9905 326.121 58.3125C326.469 57.6345 326.96 57.1061 327.592 56.7273C328.229 56.3485 328.975 56.1591 329.831 56.1591C330.407 56.1591 330.943 56.2519 331.439 56.4375C331.939 56.6193 332.375 56.8939 332.746 57.2614C333.121 57.6288 333.412 58.0909 333.621 58.6477C333.829 59.2008 333.933 59.8485 333.933 60.5909V61.2557H326.564V59.7557H331.655C331.655 59.4072 331.579 59.0985 331.428 58.8295C331.276 58.5606 331.066 58.3504 330.797 58.1989C330.532 58.0436 330.223 57.9659 329.871 57.9659C329.503 57.9659 329.178 58.0511 328.893 58.2216C328.613 58.3883 328.393 58.6136 328.234 58.8977C328.075 59.178 327.994 59.4905 327.99 59.8352V61.2614C327.99 61.6932 328.07 62.0663 328.229 62.3807C328.392 62.6951 328.621 62.9375 328.916 63.108C329.212 63.2784 329.562 63.3636 329.967 63.3636C330.236 63.3636 330.482 63.3258 330.706 63.25C330.929 63.1742 331.121 63.0606 331.28 62.9091C331.439 62.7576 331.56 62.572 331.643 62.3523L333.882 62.5C333.768 63.0379 333.536 63.5076 333.183 63.9091C332.835 64.3068 332.384 64.6174 331.831 64.8409C331.282 65.0606 330.647 65.1705 329.928 65.1705ZM337.933 59.9545V65H335.513V56.2727H337.82V57.8125H337.922C338.115 57.3049 338.439 56.9034 338.893 56.608C339.348 56.3087 339.899 56.1591 340.547 56.1591C341.153 56.1591 341.681 56.2917 342.132 56.5568C342.583 56.822 342.933 57.2008 343.183 57.6932C343.433 58.1818 343.558 58.7652 343.558 59.4432V65H341.138V59.875C341.142 59.3409 341.005 58.9242 340.729 58.625C340.452 58.322 340.071 58.1705 339.587 58.1705C339.261 58.1705 338.973 58.2405 338.723 58.3807C338.477 58.5208 338.284 58.7254 338.143 58.9943C338.007 59.2595 337.937 59.5795 337.933 59.9545ZM350.108 56.2727V58.0909H344.852V56.2727H350.108ZM346.045 54.1818H348.466V62.3182C348.466 62.5417 348.5 62.7159 348.568 62.8409C348.636 62.9621 348.731 63.0473 348.852 63.0966C348.977 63.1458 349.121 63.1705 349.284 63.1705C349.398 63.1705 349.511 63.161 349.625 63.142C349.739 63.1193 349.826 63.1023 349.886 63.0909L350.267 64.892C350.146 64.9299 349.975 64.9735 349.756 65.0227C349.536 65.0758 349.269 65.108 348.955 65.1193C348.371 65.142 347.86 65.0644 347.42 64.8864C346.985 64.7083 346.646 64.4318 346.403 64.0568C346.161 63.6818 346.042 63.2083 346.045 62.6364V54.1818ZM351.685 65V56.2727H354.105V65H351.685ZM352.901 55.1477C352.541 55.1477 352.232 55.0284 351.974 54.7898C351.721 54.5473 351.594 54.2576 351.594 53.9205C351.594 53.5871 351.721 53.3011 351.974 53.0625C352.232 52.8201 352.541 52.6989 352.901 52.6989C353.26 52.6989 353.567 52.8201 353.821 53.0625C354.079 53.3011 354.207 53.5871 354.207 53.9205C354.207 54.2576 354.079 54.5473 353.821 54.7898C353.567 55.0284 353.26 55.1477 352.901 55.1477ZM360.686 56.2727V58.0909H355.43V56.2727H360.686ZM356.624 54.1818H359.044V62.3182C359.044 62.5417 359.078 62.7159 359.146 62.8409C359.214 62.9621 359.309 63.0473 359.43 63.0966C359.555 63.1458 359.699 63.1705 359.862 63.1705C359.976 63.1705 360.089 63.161 360.203 63.142C360.317 63.1193 360.404 63.1023 360.464 63.0909L360.845 64.892C360.724 64.9299 360.554 64.9735 360.334 65.0227C360.114 65.0758 359.847 65.108 359.533 65.1193C358.949 65.142 358.438 65.0644 357.999 64.8864C357.563 64.7083 357.224 64.4318 356.982 64.0568C356.739 63.6818 356.62 63.2083 356.624 62.6364V54.1818ZM363.757 68.2727C363.45 68.2727 363.162 68.2481 362.893 68.1989C362.628 68.1534 362.409 68.0947 362.234 68.0227L362.78 66.2159C363.064 66.303 363.32 66.3504 363.547 66.358C363.778 66.3655 363.977 66.3125 364.143 66.1989C364.314 66.0852 364.452 65.892 364.558 65.6193L364.7 65.25L361.57 56.2727H364.115L365.922 62.6818H366.013L367.837 56.2727H370.399L367.007 65.9432C366.844 66.4129 366.623 66.822 366.342 67.1705C366.066 67.5227 365.715 67.7936 365.291 67.983C364.867 68.1761 364.356 68.2727 363.757 68.2727ZM308.488 84V72.3636H313.079C313.961 72.3636 314.713 72.5322 315.335 72.8693C315.956 73.2027 316.429 73.6667 316.755 74.2614C317.085 74.8523 317.249 75.5341 317.249 76.3068C317.249 77.0795 317.083 77.7614 316.749 78.3523C316.416 78.9432 315.933 79.4034 315.3 79.733C314.672 80.0625 313.91 80.2273 313.016 80.2273H310.09V78.2557H312.619C313.092 78.2557 313.482 78.1742 313.789 78.0114C314.1 77.8447 314.331 77.6155 314.482 77.3239C314.638 77.0284 314.715 76.6894 314.715 76.3068C314.715 75.9205 314.638 75.5833 314.482 75.2955C314.331 75.0038 314.1 74.7784 313.789 74.6193C313.478 74.4564 313.085 74.375 312.607 74.375H310.948V84H308.488ZM318.802 84V75.2727H321.148V76.7955H321.239C321.398 76.2538 321.665 75.8447 322.04 75.5682C322.415 75.2879 322.847 75.1477 323.336 75.1477C323.457 75.1477 323.588 75.1553 323.728 75.1705C323.868 75.1856 323.991 75.2064 324.097 75.233V77.3807C323.984 77.3466 323.826 77.3163 323.626 77.2898C323.425 77.2633 323.241 77.25 323.075 77.25C322.719 77.25 322.4 77.3277 322.12 77.483C321.844 77.6345 321.624 77.8466 321.461 78.1193C321.302 78.392 321.222 78.7064 321.222 79.0625V84H318.802ZM328.886 84.1705C328.003 84.1705 327.24 83.983 326.596 83.608C325.956 83.2292 325.461 82.7027 325.113 82.0284C324.764 81.3504 324.59 80.5644 324.59 79.6705C324.59 78.7689 324.764 77.9811 325.113 77.3068C325.461 76.6288 325.956 76.1023 326.596 75.7273C327.24 75.3485 328.003 75.1591 328.886 75.1591C329.768 75.1591 330.53 75.3485 331.17 75.7273C331.814 76.1023 332.31 76.6288 332.658 77.3068C333.007 77.9811 333.181 78.7689 333.181 79.6705C333.181 80.5644 333.007 81.3504 332.658 82.0284C332.31 82.7027 331.814 83.2292 331.17 83.608C330.53 83.983 329.768 84.1705 328.886 84.1705ZM328.897 82.2955C329.299 82.2955 329.634 82.1818 329.903 81.9545C330.172 81.7235 330.374 81.4091 330.511 81.0114C330.651 80.6136 330.721 80.161 330.721 79.6534C330.721 79.1458 330.651 78.6932 330.511 78.2955C330.374 77.8977 330.172 77.5833 329.903 77.3523C329.634 77.1212 329.299 77.0057 328.897 77.0057C328.492 77.0057 328.151 77.1212 327.874 77.3523C327.602 77.5833 327.395 77.8977 327.255 78.2955C327.119 78.6932 327.05 79.1458 327.05 79.6534C327.05 80.161 327.119 80.6136 327.255 81.0114C327.395 81.4091 327.602 81.7235 327.874 81.9545C328.151 82.1818 328.492 82.2955 328.897 82.2955ZM342.61 75.2727L339.559 84H336.832L333.781 75.2727H336.337L338.15 81.517H338.241L340.048 75.2727H342.61ZM343.849 84V75.2727H346.269V84H343.849ZM345.065 74.1477C344.705 74.1477 344.396 74.0284 344.138 73.7898C343.885 73.5473 343.758 73.2576 343.758 72.9205C343.758 72.5871 343.885 72.3011 344.138 72.0625C344.396 71.8201 344.705 71.6989 345.065 71.6989C345.424 71.6989 345.731 71.8201 345.985 72.0625C346.243 72.3011 346.371 72.5871 346.371 72.9205C346.371 73.2576 346.243 73.5473 345.985 73.7898C345.731 74.0284 345.424 74.1477 345.065 74.1477ZM351.424 84.142C350.761 84.142 350.161 83.9716 349.623 83.6307C349.089 83.286 348.665 82.7803 348.35 82.1136C348.04 81.4432 347.884 80.6212 347.884 79.6477C347.884 78.6477 348.045 77.8163 348.367 77.1534C348.689 76.4867 349.117 75.9886 349.651 75.6591C350.189 75.3258 350.778 75.1591 351.418 75.1591C351.907 75.1591 352.314 75.2424 352.64 75.4091C352.969 75.572 353.235 75.7765 353.435 76.0227C353.64 76.2652 353.795 76.5038 353.901 76.7386H353.975V72.3636H356.39V84H354.004V82.6023H353.901C353.788 82.8447 353.627 83.0852 353.418 83.3239C353.214 83.5587 352.947 83.7538 352.617 83.9091C352.291 84.0644 351.894 84.142 351.424 84.142ZM352.191 82.2159C352.581 82.2159 352.911 82.1098 353.18 81.8977C353.452 81.6818 353.661 81.3807 353.805 80.9943C353.952 80.608 354.026 80.1553 354.026 79.6364C354.026 79.1174 353.954 78.6667 353.81 78.2841C353.666 77.9015 353.458 77.6061 353.185 77.3977C352.913 77.1894 352.581 77.0852 352.191 77.0852C351.793 77.0852 351.458 77.1932 351.185 77.4091C350.913 77.625 350.706 77.9242 350.566 78.3068C350.426 78.6894 350.356 79.1326 350.356 79.6364C350.356 80.1439 350.426 80.5928 350.566 80.983C350.71 81.3693 350.916 81.6723 351.185 81.892C351.458 82.108 351.793 82.2159 352.191 82.2159ZM362.357 84.1705C361.46 84.1705 360.687 83.9886 360.039 83.625C359.395 83.2576 358.899 82.7386 358.55 82.0682C358.202 81.3939 358.028 80.5966 358.028 79.6761C358.028 78.7784 358.202 77.9905 358.55 77.3125C358.899 76.6345 359.389 76.1061 360.022 75.7273C360.658 75.3485 361.405 75.1591 362.261 75.1591C362.836 75.1591 363.372 75.2519 363.869 75.4375C364.369 75.6193 364.804 75.8939 365.175 76.2614C365.55 76.6288 365.842 77.0909 366.05 77.6477C366.259 78.2008 366.363 78.8485 366.363 79.5909V80.2557H358.994V78.7557H364.085C364.085 78.4072 364.009 78.0985 363.857 77.8295C363.706 77.5606 363.496 77.3504 363.227 77.1989C362.961 77.0436 362.653 76.9659 362.3 76.9659C361.933 76.9659 361.607 77.0511 361.323 77.2216C361.043 77.3883 360.823 77.6136 360.664 77.8977C360.505 78.178 360.424 78.4905 360.42 78.8352V80.2614C360.42 80.6932 360.499 81.0663 360.658 81.3807C360.821 81.6951 361.05 81.9375 361.346 82.108C361.641 82.2784 361.992 82.3636 362.397 82.3636C362.666 82.3636 362.912 82.3258 363.136 82.25C363.359 82.1742 363.55 82.0606 363.71 81.9091C363.869 81.7576 363.99 81.572 364.073 81.3523L366.312 81.5C366.198 82.0379 365.965 82.5076 365.613 82.9091C365.264 83.3068 364.814 83.6174 364.261 83.8409C363.711 84.0606 363.077 84.1705 362.357 84.1705ZM367.942 84V75.2727H370.289V76.7955H370.38C370.539 76.2538 370.806 75.8447 371.181 75.5682C371.556 75.2879 371.988 75.1477 372.477 75.1477C372.598 75.1477 372.728 75.1553 372.869 75.1705C373.009 75.1856 373.132 75.2064 373.238 75.233V77.3807C373.124 77.3466 372.967 77.3163 372.766 77.2898C372.566 77.2633 372.382 77.25 372.215 77.25C371.859 77.25 371.541 77.3277 371.261 77.483C370.984 77.6345 370.764 77.8466 370.602 78.1193C370.442 78.392 370.363 78.7064 370.363 79.0625V84H367.942Z" fill="black"/>
</svg>
