<svg width="695" height="359" viewBox="0 0 695 359" fill="none" xmlns="http://www.w3.org/2000/svg">
<path d="M496 86L507.217 88.7408L499.235 97.0846L496 86ZM583.487 171.078L501.812 92.944L503.195 91.4988L584.87 169.632L583.487 171.078Z" fill="black"/>
<path d="M567.554 103L569.124 93.5455H572.318C573.057 93.5455 573.64 93.6778 574.068 93.9425C574.499 94.2071 574.79 94.5657 574.94 95.0181C575.094 95.4705 575.125 95.9768 575.033 96.5369C574.94 97.0909 574.742 97.5956 574.437 98.0511C574.136 98.5066 573.726 98.8698 573.209 99.1406C572.695 99.4115 572.072 99.5469 571.339 99.5469H569.05L569.216 98.5312H571.469C571.973 98.5312 572.395 98.4435 572.734 98.2681C573.072 98.0927 573.337 97.8542 573.528 97.5526C573.719 97.2509 573.845 96.9124 573.906 96.5369C573.968 96.1553 573.952 95.8168 573.86 95.5213C573.771 95.2228 573.585 94.9889 573.301 94.8196C573.021 94.6473 572.626 94.5611 572.115 94.5611H570.102L568.699 103H567.554ZM575.646 103L576.827 95.9091H577.88L577.695 96.9801H577.769C577.954 96.6293 578.235 96.3446 578.614 96.1261C578.992 95.9076 579.394 95.7983 579.819 95.7983C579.902 95.7983 580.002 95.7998 580.119 95.8029C580.236 95.8029 580.327 95.8075 580.391 95.8168L580.207 96.9247C580.17 96.9155 580.087 96.9016 579.957 96.8832C579.828 96.8616 579.69 96.8509 579.542 96.8509C579.197 96.8509 578.879 96.9232 578.586 97.0678C578.294 97.2094 578.049 97.4064 577.852 97.6587C577.655 97.908 577.529 98.1927 577.474 98.5128L576.735 103H575.646ZM583.219 103.148C582.566 103.148 582.02 102.992 581.58 102.681C581.14 102.371 580.829 101.935 580.647 101.375C580.469 100.815 580.44 100.162 580.56 99.4176C580.677 98.6913 580.909 98.0588 581.257 97.5202C581.608 96.9786 582.043 96.56 582.563 96.2646C583.086 95.966 583.662 95.8168 584.29 95.8168C584.942 95.8168 585.487 95.9737 585.924 96.2876C586.364 96.5985 586.675 97.0355 586.857 97.5987C587.038 98.1589 587.069 98.8144 586.949 99.5653C586.832 100.286 586.597 100.915 586.243 101.453C585.892 101.989 585.456 102.406 584.936 102.705C584.419 103 583.847 103.148 583.219 103.148ZM583.237 102.169C583.736 102.169 584.168 102.041 584.535 101.786C584.904 101.53 585.202 101.193 585.43 100.775C585.661 100.356 585.816 99.9039 585.896 99.4176C585.97 98.956 585.967 98.5266 585.887 98.1296C585.807 97.7295 585.636 97.4079 585.375 97.1648C585.113 96.9186 584.745 96.7955 584.271 96.7955C583.773 96.7955 583.337 96.9247 582.965 97.1832C582.596 97.4418 582.297 97.7818 582.069 98.2035C581.842 98.6251 581.689 99.0791 581.612 99.5653C581.538 100.027 581.54 100.456 581.617 100.853C581.697 101.247 581.868 101.566 582.129 101.809C582.394 102.049 582.763 102.169 583.237 102.169ZM594.775 95.9091L590.971 103H589.863L588.423 95.9091H589.558L590.574 101.56H590.648L593.547 95.9091H594.775ZM595.031 103L596.213 95.9091H597.303L596.121 103H595.031ZM597.09 94.7088C596.878 94.7088 596.695 94.6365 596.541 94.4918C596.39 94.3472 596.315 94.1733 596.315 93.9702C596.315 93.767 596.39 93.5932 596.541 93.4485C596.695 93.3039 596.878 93.2315 597.09 93.2315C597.303 93.2315 597.484 93.3039 597.635 93.4485C597.789 93.5932 597.866 93.767 597.866 93.9702C597.866 94.1733 597.789 94.3472 597.635 94.4918C597.484 94.6365 597.303 94.7088 597.09 94.7088ZM600.785 103.148C600.191 103.148 599.692 102.998 599.289 102.7C598.886 102.398 598.601 101.974 598.435 101.426C598.272 100.875 598.252 100.224 598.375 99.473C598.501 98.7282 598.736 98.0819 599.081 97.5341C599.429 96.9863 599.855 96.5631 600.36 96.2646C600.865 95.966 601.415 95.8168 602.013 95.8168C602.474 95.8168 602.827 95.8937 603.07 96.0476C603.316 96.1984 603.494 96.3707 603.605 96.5646C603.716 96.7554 603.801 96.9124 603.859 97.0355H603.951L604.533 93.5455H605.623L604.053 103H603L603.185 101.911H603.056C602.954 102.04 602.813 102.203 602.631 102.4C602.45 102.594 602.209 102.768 601.911 102.922C601.615 103.072 601.24 103.148 600.785 103.148ZM601.052 102.169C601.489 102.169 601.88 102.055 602.225 101.827C602.573 101.597 602.862 101.278 603.093 100.872C603.324 100.462 603.484 99.9901 603.573 99.4545C603.662 98.9252 603.659 98.462 603.564 98.065C603.468 97.6649 603.285 97.354 603.014 97.1325C602.743 96.9078 602.385 96.7955 601.939 96.7955C601.48 96.7955 601.082 96.9139 600.743 97.1509C600.404 97.3848 600.129 97.7034 599.917 98.1065C599.704 98.5066 599.557 98.956 599.473 99.4545C599.39 99.9593 599.389 100.418 599.469 100.83C599.549 101.24 599.718 101.566 599.977 101.809C600.238 102.049 600.597 102.169 601.052 102.169ZM609.145 103.148C608.465 103.148 607.903 102.997 607.46 102.695C607.017 102.391 606.707 101.966 606.532 101.421C606.357 100.873 606.329 100.236 606.449 99.5099C606.569 98.7836 606.807 98.1435 607.165 97.5895C607.522 97.0324 607.966 96.5985 608.499 96.2876C609.031 95.9737 609.616 95.8168 610.253 95.8168C610.622 95.8168 610.978 95.8783 611.319 96.0014C611.661 96.1245 611.956 96.3246 612.206 96.6016C612.455 96.8755 612.629 97.2386 612.727 97.6911C612.826 98.1435 612.82 98.7005 612.709 99.3622L612.635 99.8239H607.169L607.317 98.8821H611.675C611.746 98.482 611.727 98.125 611.619 97.8111C611.515 97.4972 611.332 97.2494 611.07 97.0678C610.812 96.8862 610.484 96.7955 610.087 96.7955C609.677 96.7955 609.296 96.9062 608.942 97.1278C608.588 97.3464 608.292 97.6233 608.055 97.9588C607.819 98.2912 607.671 98.6297 607.612 98.9744L607.483 99.7869C607.391 100.375 607.405 100.843 607.525 101.19C607.648 101.538 607.862 101.789 608.166 101.943C608.471 102.094 608.853 102.169 609.311 102.169C609.604 102.169 609.873 102.129 610.119 102.049C610.365 101.966 610.585 101.843 610.779 101.68C610.973 101.513 611.136 101.307 611.269 101.061L612.266 101.357C612.096 101.714 611.858 102.027 611.55 102.298C611.245 102.566 610.888 102.775 610.479 102.926C610.073 103.074 609.628 103.148 609.145 103.148ZM619.728 97.4972L618.694 97.7741C618.657 97.608 618.593 97.4479 618.5 97.294C618.411 97.1371 618.273 97.0094 618.085 96.9109C617.9 96.8093 617.648 96.7585 617.328 96.7585C616.894 96.7585 616.517 96.8585 616.197 97.0586C615.877 97.2556 615.693 97.5064 615.647 97.8111C615.601 98.0788 615.663 98.2927 615.832 98.4528C616.001 98.6128 616.284 98.7436 616.681 98.8452L617.697 99.1037C618.306 99.2607 618.74 99.4961 618.999 99.81C619.26 100.121 619.35 100.526 619.267 101.024C619.199 101.43 619.022 101.794 618.736 102.114C618.449 102.434 618.083 102.686 617.637 102.871C617.191 103.055 616.694 103.148 616.146 103.148C615.416 103.148 614.841 102.991 614.419 102.677C613.998 102.36 613.773 101.901 613.745 101.301L614.835 101.043C614.862 101.421 614.998 101.707 615.241 101.901C615.487 102.092 615.832 102.187 616.275 102.187C616.783 102.187 617.206 102.08 617.545 101.864C617.883 101.646 618.076 101.384 618.122 101.08C618.168 100.83 618.119 100.623 617.974 100.456C617.832 100.29 617.586 100.165 617.235 100.082L616.109 99.8054C615.481 99.6484 615.041 99.4084 614.789 99.0852C614.539 98.7621 614.456 98.3558 614.539 97.8665C614.607 97.4664 614.779 97.1125 615.056 96.8047C615.336 96.4969 615.687 96.2553 616.109 96.0799C616.534 95.9045 616.995 95.8168 617.494 95.8168C618.196 95.8168 618.72 95.9706 619.068 96.2784C619.416 96.5831 619.636 96.9893 619.728 97.4972ZM573.352 113.497L572.318 113.774C572.281 113.608 572.217 113.448 572.124 113.294C572.035 113.137 571.897 113.009 571.709 112.911C571.524 112.809 571.272 112.759 570.952 112.759C570.518 112.759 570.141 112.859 569.821 113.059C569.501 113.256 569.317 113.506 569.271 113.811C569.225 114.079 569.287 114.293 569.456 114.453C569.625 114.613 569.908 114.744 570.305 114.845L571.321 115.104C571.93 115.261 572.364 115.496 572.623 115.81C572.884 116.121 572.974 116.526 572.891 117.024C572.823 117.43 572.646 117.794 572.36 118.114C572.074 118.434 571.707 118.686 571.261 118.871C570.815 119.055 570.318 119.148 569.77 119.148C569.04 119.148 568.465 118.991 568.043 118.677C567.622 118.36 567.397 117.901 567.369 117.301L568.459 117.043C568.487 117.421 568.622 117.707 568.865 117.901C569.111 118.092 569.456 118.187 569.899 118.187C570.407 118.187 570.83 118.08 571.169 117.864C571.507 117.646 571.7 117.384 571.746 117.08C571.792 116.83 571.743 116.623 571.598 116.456C571.456 116.29 571.21 116.165 570.859 116.082L569.733 115.805C569.105 115.648 568.665 115.408 568.413 115.085C568.163 114.762 568.08 114.356 568.163 113.866C568.231 113.466 568.403 113.112 568.68 112.805C568.96 112.497 569.311 112.255 569.733 112.08C570.158 111.904 570.619 111.817 571.118 111.817C571.82 111.817 572.344 111.971 572.692 112.278C573.04 112.583 573.26 112.989 573.352 113.497ZM577.153 119.148C576.473 119.148 575.911 118.997 575.468 118.695C575.025 118.391 574.715 117.966 574.54 117.421C574.364 116.873 574.337 116.236 574.457 115.51C574.577 114.784 574.815 114.143 575.172 113.589C575.529 113.032 575.974 112.598 576.506 112.288C577.039 111.974 577.624 111.817 578.261 111.817C578.63 111.817 578.986 111.878 579.327 112.001C579.669 112.125 579.964 112.325 580.214 112.602C580.463 112.875 580.637 113.239 580.735 113.691C580.834 114.143 580.828 114.701 580.717 115.362L580.643 115.824H575.177L575.325 114.882H579.683C579.753 114.482 579.735 114.125 579.627 113.811C579.523 113.497 579.339 113.249 579.078 113.068C578.819 112.886 578.492 112.795 578.095 112.795C577.685 112.795 577.304 112.906 576.95 113.128C576.596 113.346 576.3 113.623 576.063 113.959C575.826 114.291 575.679 114.63 575.62 114.974L575.491 115.787C575.399 116.375 575.412 116.843 575.532 117.19C575.656 117.538 575.869 117.789 576.174 117.943C576.479 118.094 576.86 118.169 577.319 118.169C577.611 118.169 577.881 118.129 578.127 118.049C578.373 117.966 578.593 117.843 578.787 117.68C578.981 117.513 579.144 117.307 579.276 117.061L580.274 117.357C580.104 117.714 579.866 118.027 579.558 118.298C579.253 118.566 578.896 118.775 578.487 118.926C578.081 119.074 577.636 119.148 577.153 119.148ZM581.79 119L582.972 111.909H584.024L583.84 112.98H583.914C584.098 112.629 584.38 112.345 584.758 112.126C585.137 111.908 585.539 111.798 585.963 111.798C586.046 111.798 586.146 111.8 586.263 111.803C586.38 111.803 586.471 111.808 586.536 111.817L586.351 112.925C586.314 112.915 586.231 112.902 586.102 112.883C585.973 112.862 585.834 112.851 585.686 112.851C585.342 112.851 585.023 112.923 584.731 113.068C584.438 113.209 584.194 113.406 583.997 113.659C583.8 113.908 583.674 114.193 583.618 114.513L582.88 119H581.79ZM593.848 111.909L590.044 119H588.936L587.496 111.909H588.632L589.647 117.56H589.721L592.62 111.909H593.848ZM594.104 119L595.286 111.909H596.376L595.194 119H594.104ZM596.163 110.709C595.951 110.709 595.768 110.636 595.614 110.492C595.463 110.347 595.388 110.173 595.388 109.97C595.388 109.767 595.463 109.593 595.614 109.449C595.768 109.304 595.951 109.232 596.163 109.232C596.376 109.232 596.557 109.304 596.708 109.449C596.862 109.593 596.939 109.767 596.939 109.97C596.939 110.173 596.862 110.347 596.708 110.492C596.557 110.636 596.376 110.709 596.163 110.709ZM600.052 119.148C599.384 119.148 598.836 118.991 598.408 118.677C597.983 118.363 597.688 117.931 597.522 117.38C597.356 116.829 597.331 116.199 597.448 115.491C597.565 114.771 597.802 114.136 598.159 113.585C598.516 113.031 598.961 112.598 599.493 112.288C600.026 111.974 600.612 111.817 601.252 111.817C601.751 111.817 602.184 111.909 602.554 112.094C602.923 112.278 603.208 112.537 603.408 112.869C603.608 113.202 603.702 113.589 603.689 114.033H602.6C602.569 113.71 602.431 113.423 602.184 113.174C601.941 112.922 601.581 112.795 601.104 112.795C600.68 112.795 600.289 112.906 599.932 113.128C599.575 113.346 599.275 113.656 599.031 114.056C598.788 114.453 598.624 114.919 598.537 115.455C598.445 116.002 598.453 116.479 598.561 116.886C598.668 117.292 598.864 117.607 599.147 117.832C599.43 118.057 599.787 118.169 600.218 118.169C600.501 118.169 600.766 118.12 601.012 118.021C601.258 117.923 601.477 117.781 601.667 117.597C601.858 117.412 602.009 117.19 602.12 116.932H603.209C603.074 117.35 602.857 117.727 602.558 118.063C602.26 118.395 601.898 118.66 601.474 118.857C601.049 119.051 600.575 119.148 600.052 119.148ZM607.406 119.148C606.726 119.148 606.164 118.997 605.721 118.695C605.278 118.391 604.968 117.966 604.793 117.421C604.617 116.873 604.59 116.236 604.71 115.51C604.83 114.784 605.068 114.143 605.425 113.589C605.782 113.032 606.227 112.598 606.759 112.288C607.292 111.974 607.877 111.817 608.514 111.817C608.883 111.817 609.238 111.878 609.58 112.001C609.922 112.125 610.217 112.325 610.466 112.602C610.716 112.875 610.89 113.239 610.988 113.691C611.087 114.143 611.08 114.701 610.97 115.362L610.896 115.824H605.43L605.578 114.882H609.936C610.006 114.482 609.988 114.125 609.88 113.811C609.776 113.497 609.592 113.249 609.331 113.068C609.072 112.886 608.744 112.795 608.347 112.795C607.938 112.795 607.557 112.906 607.203 113.128C606.849 113.346 606.553 113.623 606.316 113.959C606.079 114.291 605.932 114.63 605.873 114.974L605.744 115.787C605.651 116.375 605.665 116.843 605.785 117.19C605.908 117.538 606.122 117.789 606.427 117.943C606.732 118.094 607.113 118.169 607.572 118.169C607.864 118.169 608.134 118.129 608.38 118.049C608.626 117.966 608.846 117.843 609.04 117.68C609.234 117.513 609.397 117.307 609.529 117.061L610.526 117.357C610.357 117.714 610.119 118.027 609.811 118.298C609.506 118.566 609.149 118.775 608.74 118.926C608.334 119.074 607.889 119.148 607.406 119.148ZM615.699 119L616.881 111.909H617.971L616.789 119H615.699ZM617.758 110.709C617.546 110.709 617.363 110.636 617.209 110.492C617.058 110.347 616.983 110.173 616.983 109.97C616.983 109.767 617.058 109.593 617.209 109.449C617.363 109.304 617.546 109.232 617.758 109.232C617.971 109.232 618.152 109.304 618.303 109.449C618.457 109.593 618.534 109.767 618.534 109.97C618.534 110.173 618.457 110.347 618.303 110.492C618.152 110.636 617.971 110.709 617.758 110.709ZM620.575 114.734L619.874 119H618.784L619.966 111.909H621.019L620.834 113.017H620.926C621.148 112.657 621.448 112.368 621.826 112.149C622.205 111.928 622.662 111.817 623.198 111.817C623.671 111.817 624.072 111.915 624.398 112.112C624.727 112.306 624.959 112.602 625.095 112.999C625.233 113.393 625.253 113.891 625.155 114.494L624.398 119H623.308L624.047 114.568C624.139 114.014 624.067 113.58 623.83 113.266C623.596 112.952 623.225 112.795 622.717 112.795C622.367 112.795 622.042 112.871 621.743 113.022C621.448 113.172 621.197 113.393 620.991 113.682C620.788 113.971 620.649 114.322 620.575 114.734ZM630.654 111.909L630.507 112.832H626.832L626.98 111.909H630.654ZM628.328 110.21H629.417L628.291 116.969C628.241 117.277 628.249 117.507 628.314 117.661C628.381 117.812 628.483 117.914 628.618 117.966C628.757 118.015 628.906 118.04 629.066 118.04C629.186 118.04 629.285 118.034 629.362 118.021C629.439 118.006 629.5 117.994 629.546 117.984L629.62 118.963C629.537 118.991 629.425 119.018 629.283 119.046C629.145 119.077 628.974 119.092 628.771 119.092C628.463 119.092 628.174 119.026 627.903 118.894C627.632 118.761 627.424 118.56 627.28 118.289C627.135 118.018 627.097 117.677 627.164 117.264L628.328 110.21ZM633.99 119.148C633.31 119.148 632.748 118.997 632.305 118.695C631.862 118.391 631.552 117.966 631.377 117.421C631.201 116.873 631.174 116.236 631.294 115.51C631.414 114.784 631.652 114.143 632.009 113.589C632.366 113.032 632.811 112.598 633.343 112.288C633.876 111.974 634.461 111.817 635.098 111.817C635.467 111.817 635.822 111.878 636.164 112.001C636.506 112.125 636.801 112.325 637.05 112.602C637.3 112.875 637.474 113.239 637.572 113.691C637.671 114.143 637.664 114.701 637.554 115.362L637.48 115.824H632.014L632.162 114.882H636.52C636.59 114.482 636.572 114.125 636.464 113.811C636.359 113.497 636.176 113.249 635.915 113.068C635.656 112.886 635.328 112.795 634.931 112.795C634.522 112.795 634.141 112.906 633.787 113.128C633.433 113.346 633.137 113.623 632.9 113.959C632.663 114.291 632.516 114.63 632.457 114.974L632.328 115.787C632.235 116.375 632.249 116.843 632.369 117.19C632.492 117.538 632.706 117.789 633.011 117.943C633.316 118.094 633.697 118.169 634.156 118.169C634.448 118.169 634.718 118.129 634.964 118.049C635.21 117.966 635.43 117.843 635.624 117.68C635.818 117.513 635.981 117.307 636.113 117.061L637.11 117.357C636.941 117.714 636.703 118.027 636.395 118.298C636.09 118.566 635.733 118.775 635.324 118.926C634.918 119.074 634.473 119.148 633.99 119.148ZM638.627 119L639.809 111.909H640.861L640.677 112.98H640.751C640.935 112.629 641.217 112.345 641.595 112.126C641.974 111.908 642.376 111.798 642.8 111.798C642.883 111.798 642.983 111.8 643.1 111.803C643.217 111.803 643.308 111.808 643.373 111.817L643.188 112.925C643.151 112.915 643.068 112.902 642.939 112.883C642.809 112.862 642.671 112.851 642.523 112.851C642.179 112.851 641.86 112.923 641.568 113.068C641.275 113.209 641.031 113.406 640.834 113.659C640.637 113.908 640.51 114.193 640.455 114.513L639.716 119H638.627ZM648.273 111.909L648.125 112.832H644.303L644.451 111.909H648.273ZM644.414 119L645.762 110.93C645.823 110.524 645.971 110.186 646.205 109.915C646.442 109.644 646.723 109.441 647.05 109.305C647.379 109.17 647.713 109.102 648.051 109.102C648.319 109.102 648.533 109.124 648.693 109.167C648.856 109.21 648.975 109.25 649.049 109.287L648.587 110.229C648.532 110.21 648.458 110.187 648.365 110.159C648.276 110.132 648.153 110.118 647.996 110.118C647.636 110.118 647.362 110.209 647.174 110.39C646.987 110.572 646.86 110.838 646.796 111.189L645.503 119H644.414ZM650.483 119.166C650.034 119.166 649.64 119.082 649.301 118.912C648.963 118.74 648.712 118.492 648.549 118.169C648.386 117.843 648.341 117.449 648.415 116.987C648.486 116.581 648.623 116.252 648.826 115.999C649.029 115.744 649.275 115.544 649.565 115.399C649.857 115.251 650.171 115.142 650.506 115.071C650.845 114.998 651.182 114.941 651.517 114.901C651.954 114.845 652.31 114.802 652.584 114.771C652.858 114.741 653.064 114.69 653.202 114.619C653.341 114.548 653.425 114.427 653.456 114.254V114.217C653.53 113.765 653.47 113.413 653.276 113.16C653.082 112.905 652.736 112.777 652.237 112.777C651.72 112.777 651.288 112.891 650.94 113.119C650.592 113.346 650.335 113.589 650.169 113.848L649.209 113.479C649.461 113.048 649.763 112.712 650.114 112.472C650.465 112.229 650.833 112.06 651.217 111.964C651.602 111.866 651.973 111.817 652.33 111.817C652.558 111.817 652.815 111.844 653.101 111.9C653.387 111.952 653.655 112.061 653.904 112.228C654.156 112.394 654.346 112.645 654.472 112.98C654.601 113.316 654.62 113.765 654.527 114.328L653.752 119H652.662L652.828 118.04H652.773C652.675 118.194 652.524 118.358 652.321 118.534C652.121 118.709 651.867 118.858 651.559 118.982C651.254 119.105 650.896 119.166 650.483 119.166ZM650.797 118.187C651.228 118.187 651.605 118.103 651.928 117.934C652.254 117.764 652.516 117.546 652.713 117.278C652.913 117.01 653.038 116.729 653.087 116.433L653.253 115.436C653.198 115.491 653.088 115.542 652.925 115.588C652.762 115.632 652.578 115.67 652.371 115.704C652.168 115.735 651.97 115.762 651.776 115.787C651.585 115.808 651.431 115.827 651.314 115.842C651.025 115.879 650.749 115.939 650.488 116.022C650.229 116.102 650.011 116.224 649.832 116.387C649.657 116.547 649.548 116.766 649.505 117.043C649.44 117.421 649.531 117.707 649.777 117.901C650.023 118.092 650.363 118.187 650.797 118.187ZM658.602 119.148C657.935 119.148 657.387 118.991 656.959 118.677C656.534 118.363 656.239 117.931 656.073 117.38C655.906 116.829 655.882 116.199 655.999 115.491C656.116 114.771 656.353 114.136 656.71 113.585C657.067 113.031 657.511 112.598 658.044 112.288C658.576 111.974 659.163 111.817 659.803 111.817C660.301 111.817 660.735 111.909 661.105 112.094C661.474 112.278 661.759 112.537 661.959 112.869C662.159 113.202 662.253 113.589 662.24 114.033H661.151C661.12 113.71 660.981 113.423 660.735 113.174C660.492 112.922 660.132 112.795 659.655 112.795C659.23 112.795 658.839 112.906 658.482 113.128C658.125 113.346 657.825 113.656 657.582 114.056C657.339 114.453 657.174 114.919 657.088 115.455C656.996 116.002 657.004 116.479 657.111 116.886C657.219 117.292 657.414 117.607 657.698 117.832C657.981 118.057 658.338 118.169 658.769 118.169C659.052 118.169 659.316 118.12 659.563 118.021C659.809 117.923 660.027 117.781 660.218 117.597C660.409 117.412 660.56 117.19 660.671 116.932H661.76C661.625 117.35 661.408 117.727 661.109 118.063C660.811 118.395 660.449 118.66 660.024 118.857C659.6 119.051 659.126 119.148 658.602 119.148ZM665.956 119.148C665.276 119.148 664.715 118.997 664.271 118.695C663.828 118.391 663.519 117.966 663.344 117.421C663.168 116.873 663.14 116.236 663.26 115.51C663.38 114.784 663.619 114.143 663.976 113.589C664.333 113.032 664.778 112.598 665.31 112.288C665.843 111.974 666.427 111.817 667.064 111.817C667.434 111.817 667.789 111.878 668.131 112.001C668.472 112.125 668.768 112.325 669.017 112.602C669.267 112.875 669.44 113.239 669.539 113.691C669.637 114.143 669.631 114.701 669.52 115.362L669.447 115.824H663.981L664.128 114.882H668.486C668.557 114.482 668.539 114.125 668.431 113.811C668.326 113.497 668.143 113.249 667.882 113.068C667.623 112.886 667.295 112.795 666.898 112.795C666.489 112.795 666.107 112.906 665.753 113.128C665.399 113.346 665.104 113.623 664.867 113.959C664.63 114.291 664.482 114.63 664.424 114.974L664.295 115.787C664.202 116.375 664.216 116.843 664.336 117.19C664.459 117.538 664.673 117.789 664.978 117.943C665.282 118.094 665.664 118.169 666.123 118.169C666.415 118.169 666.684 118.129 666.931 118.049C667.177 117.966 667.397 117.843 667.591 117.68C667.785 117.513 667.948 117.307 668.08 117.061L669.077 117.357C668.908 117.714 668.669 118.027 668.362 118.298C668.057 118.566 667.7 118.775 667.291 118.926C666.884 119.074 666.44 119.148 665.956 119.148ZM567.406 135L568.588 127.909H569.678L568.496 135H567.406ZM569.465 126.709C569.253 126.709 569.07 126.636 568.916 126.492C568.765 126.347 568.69 126.173 568.69 125.97C568.69 125.767 568.765 125.593 568.916 125.449C569.07 125.304 569.253 125.232 569.465 125.232C569.678 125.232 569.859 125.304 570.01 125.449C570.164 125.593 570.241 125.767 570.241 125.97C570.241 126.173 570.164 126.347 570.01 126.492C569.859 126.636 569.678 126.709 569.465 126.709ZM570.491 135L571.673 127.909H572.726L572.541 129.017H572.633C572.846 128.638 573.133 128.345 573.497 128.135C573.863 127.923 574.277 127.817 574.738 127.817C575.2 127.817 575.571 127.923 575.851 128.135C576.131 128.345 576.326 128.638 576.437 129.017H576.511C576.751 128.648 577.071 128.355 577.471 128.14C577.874 127.924 578.33 127.817 578.838 127.817C579.466 127.817 579.949 128.015 580.287 128.412C580.629 128.809 580.731 129.423 580.592 130.254L579.798 135H578.709L579.503 130.254C579.586 129.728 579.503 129.354 579.253 129.132C579.007 128.908 578.69 128.795 578.302 128.795C577.804 128.795 577.393 128.945 577.07 129.243C576.747 129.542 576.548 129.922 576.474 130.384L575.699 135H574.591L575.403 130.143C575.468 129.737 575.391 129.411 575.172 129.165C574.954 128.919 574.637 128.795 574.221 128.795C573.938 128.795 573.661 128.872 573.39 129.026C573.12 129.177 572.887 129.386 572.693 129.654C572.499 129.919 572.375 130.223 572.319 130.568L571.581 135H570.491ZM581.347 137.659L582.981 127.909H584.034L583.849 129.036H583.978C584.077 128.912 584.212 128.755 584.384 128.565C584.56 128.371 584.795 128.198 585.091 128.048C585.389 127.894 585.769 127.817 586.231 127.817C586.828 127.817 587.328 127.966 587.731 128.265C588.135 128.563 588.419 128.986 588.585 129.534C588.752 130.082 588.773 130.728 588.65 131.473C588.527 132.224 588.292 132.875 587.944 133.426C587.596 133.974 587.171 134.398 586.67 134.7C586.168 134.998 585.622 135.148 585.031 135.148C584.575 135.148 584.223 135.072 583.974 134.922C583.724 134.768 583.543 134.594 583.429 134.4C583.315 134.203 583.227 134.04 583.166 133.911H583.073L582.446 137.659H581.347ZM583.461 131.455C583.375 131.99 583.375 132.462 583.461 132.872C583.55 133.278 583.727 133.597 583.992 133.827C584.26 134.055 584.612 134.169 585.049 134.169C585.505 134.169 585.903 134.049 586.245 133.809C586.59 133.566 586.873 133.24 587.094 132.83C587.319 132.418 587.474 131.959 587.561 131.455C587.641 130.956 587.638 130.507 587.551 130.107C587.465 129.703 587.29 129.385 587.025 129.151C586.76 128.914 586.397 128.795 585.936 128.795C585.492 128.795 585.1 128.908 584.758 129.132C584.42 129.354 584.14 129.665 583.918 130.065C583.7 130.462 583.547 130.925 583.461 131.455ZM592.384 125.545L590.814 135H589.725L591.294 125.545H592.384ZM595.764 135.148C595.084 135.148 594.522 134.997 594.079 134.695C593.636 134.391 593.327 133.966 593.151 133.421C592.976 132.873 592.948 132.236 593.068 131.51C593.188 130.784 593.427 130.143 593.784 129.589C594.141 129.032 594.585 128.598 595.118 128.288C595.65 127.974 596.235 127.817 596.872 127.817C597.241 127.817 597.597 127.878 597.938 128.001C598.28 128.125 598.576 128.325 598.825 128.602C599.074 128.875 599.248 129.239 599.347 129.691C599.445 130.143 599.439 130.701 599.328 131.362L599.254 131.824H593.788L593.936 130.882H598.294C598.365 130.482 598.346 130.125 598.239 129.811C598.134 129.497 597.951 129.249 597.689 129.068C597.431 128.886 597.103 128.795 596.706 128.795C596.297 128.795 595.915 128.906 595.561 129.128C595.207 129.346 594.912 129.623 594.675 129.959C594.438 130.291 594.29 130.63 594.231 130.974L594.102 131.787C594.01 132.375 594.024 132.843 594.144 133.19C594.267 133.538 594.481 133.789 594.785 133.943C595.09 134.094 595.472 134.169 595.93 134.169C596.223 134.169 596.492 134.129 596.738 134.049C596.984 133.966 597.204 133.843 597.398 133.68C597.592 133.513 597.755 133.307 597.888 133.061L598.885 133.357C598.716 133.714 598.477 134.027 598.169 134.298C597.865 134.566 597.508 134.775 597.098 134.926C596.692 135.074 596.247 135.148 595.764 135.148ZM600.401 135L601.583 127.909H602.636L602.451 129.017H602.543C602.756 128.638 603.044 128.345 603.407 128.135C603.773 127.923 604.187 127.817 604.649 127.817C605.11 127.817 605.481 127.923 605.761 128.135C606.041 128.345 606.237 128.638 606.347 129.017H606.421C606.661 128.648 606.981 128.355 607.381 128.14C607.785 127.924 608.24 127.817 608.748 127.817C609.376 127.817 609.859 128.015 610.198 128.412C610.539 128.809 610.641 129.423 610.502 130.254L609.708 135H608.619L609.413 130.254C609.496 129.728 609.413 129.354 609.163 129.132C608.917 128.908 608.6 128.795 608.212 128.795C607.714 128.795 607.303 128.945 606.98 129.243C606.657 129.542 606.458 129.922 606.384 130.384L605.609 135H604.501L605.313 130.143C605.378 129.737 605.301 129.411 605.082 129.165C604.864 128.919 604.547 128.795 604.131 128.795C603.848 128.795 603.571 128.872 603.301 129.026C603.03 129.177 602.797 129.386 602.603 129.654C602.41 129.919 602.285 130.223 602.229 130.568L601.491 135H600.401ZM614.655 135.148C613.975 135.148 613.413 134.997 612.97 134.695C612.527 134.391 612.217 133.966 612.042 133.421C611.866 132.873 611.839 132.236 611.959 131.51C612.079 130.784 612.317 130.143 612.674 129.589C613.031 129.032 613.476 128.598 614.008 128.288C614.541 127.974 615.126 127.817 615.763 127.817C616.132 127.817 616.487 127.878 616.829 128.001C617.171 128.125 617.466 128.325 617.715 128.602C617.965 128.875 618.139 129.239 618.237 129.691C618.336 130.143 618.329 130.701 618.219 131.362L618.145 131.824H612.679L612.827 130.882H617.185C617.255 130.482 617.237 130.125 617.129 129.811C617.025 129.497 616.841 129.249 616.58 129.068C616.321 128.886 615.994 128.795 615.596 128.795C615.187 128.795 614.806 128.906 614.452 129.128C614.098 129.346 613.802 129.623 613.565 129.959C613.328 130.291 613.181 130.63 613.122 130.974L612.993 131.787C612.9 132.375 612.914 132.843 613.034 133.19C613.157 133.538 613.371 133.789 613.676 133.943C613.981 134.094 614.362 134.169 614.821 134.169C615.113 134.169 615.383 134.129 615.629 134.049C615.875 133.966 616.095 133.843 616.289 133.68C616.483 133.513 616.646 133.307 616.778 133.061L617.775 133.357C617.606 133.714 617.368 134.027 617.06 134.298C616.755 134.566 616.398 134.775 615.989 134.926C615.583 135.074 615.138 135.148 614.655 135.148ZM621.083 130.734L620.381 135H619.292L620.474 127.909H621.526L621.342 129.017H621.434C621.656 128.657 621.956 128.368 622.334 128.149C622.713 127.928 623.17 127.817 623.705 127.817C624.179 127.817 624.579 127.915 624.906 128.112C625.235 128.306 625.467 128.602 625.603 128.999C625.741 129.393 625.761 129.891 625.663 130.494L624.906 135H623.816L624.555 130.568C624.647 130.014 624.575 129.58 624.338 129.266C624.104 128.952 623.733 128.795 623.225 128.795C622.874 128.795 622.55 128.871 622.251 129.022C621.956 129.172 621.705 129.393 621.499 129.682C621.296 129.971 621.157 130.322 621.083 130.734ZM631.162 127.909L631.014 128.832H627.34L627.487 127.909H631.162ZM628.835 126.21H629.925L628.798 132.969C628.749 133.277 628.757 133.507 628.822 133.661C628.889 133.812 628.991 133.914 629.126 133.966C629.265 134.015 629.414 134.04 629.574 134.04C629.694 134.04 629.793 134.034 629.869 134.021C629.946 134.006 630.008 133.994 630.054 133.984L630.128 134.963C630.045 134.991 629.933 135.018 629.791 135.046C629.653 135.077 629.482 135.092 629.279 135.092C628.971 135.092 628.682 135.026 628.411 134.894C628.14 134.761 627.932 134.56 627.787 134.289C627.643 134.018 627.604 133.677 627.672 133.264L628.835 126.21ZM633.687 135.166C633.238 135.166 632.844 135.082 632.506 134.912C632.167 134.74 631.916 134.492 631.753 134.169C631.59 133.843 631.545 133.449 631.619 132.987C631.69 132.581 631.827 132.252 632.03 131.999C632.233 131.744 632.479 131.544 632.769 131.399C633.061 131.251 633.375 131.142 633.71 131.071C634.049 130.998 634.386 130.941 634.721 130.901C635.158 130.845 635.514 130.802 635.788 130.771C636.062 130.741 636.268 130.69 636.406 130.619C636.545 130.548 636.63 130.427 636.66 130.254V130.217C636.734 129.765 636.674 129.413 636.48 129.16C636.286 128.905 635.94 128.777 635.442 128.777C634.925 128.777 634.492 128.891 634.144 129.119C633.797 129.346 633.54 129.589 633.373 129.848L632.413 129.479C632.666 129.048 632.967 128.712 633.318 128.472C633.669 128.229 634.037 128.06 634.421 127.964C634.806 127.866 635.177 127.817 635.534 127.817C635.762 127.817 636.019 127.844 636.305 127.9C636.591 127.952 636.859 128.061 637.108 128.228C637.36 128.394 637.55 128.645 637.676 128.98C637.805 129.316 637.824 129.765 637.731 130.328L636.956 135H635.866L636.032 134.04H635.977C635.879 134.194 635.728 134.358 635.525 134.534C635.325 134.709 635.071 134.858 634.763 134.982C634.458 135.105 634.1 135.166 633.687 135.166ZM634.001 134.187C634.432 134.187 634.809 134.103 635.132 133.934C635.459 133.764 635.72 133.546 635.917 133.278C636.117 133.01 636.242 132.729 636.291 132.433L636.457 131.436C636.402 131.491 636.293 131.542 636.129 131.588C635.966 131.632 635.782 131.67 635.575 131.704C635.372 131.735 635.174 131.762 634.98 131.787C634.789 131.808 634.635 131.827 634.518 131.842C634.229 131.879 633.954 131.939 633.692 132.022C633.433 132.102 633.215 132.224 633.036 132.387C632.861 132.547 632.752 132.766 632.709 133.043C632.644 133.421 632.735 133.707 632.981 133.901C633.227 134.092 633.567 134.187 634.001 134.187ZM643.21 127.909L643.062 128.832H639.388L639.535 127.909H643.21ZM640.883 126.21H641.973L640.846 132.969C640.797 133.277 640.805 133.507 640.869 133.661C640.937 133.812 641.039 133.914 641.174 133.966C641.313 134.015 641.462 134.04 641.622 134.04C641.742 134.04 641.84 134.034 641.917 134.021C641.994 134.006 642.056 133.994 642.102 133.984L642.176 134.963C642.093 134.991 641.98 135.018 641.839 135.046C641.7 135.077 641.53 135.092 641.326 135.092C641.019 135.092 640.729 135.026 640.459 134.894C640.188 134.761 639.98 134.56 639.835 134.289C639.691 134.018 639.652 133.677 639.72 133.264L640.883 126.21ZM643.667 135L644.849 127.909H645.938L644.756 135H643.667ZM645.726 126.709C645.514 126.709 645.33 126.636 645.177 126.492C645.026 126.347 644.95 126.173 644.95 125.97C644.95 125.767 645.026 125.593 645.177 125.449C645.33 125.304 645.514 125.232 645.726 125.232C645.938 125.232 646.12 125.304 646.271 125.449C646.425 125.593 646.502 125.767 646.502 125.97C646.502 126.173 646.425 126.347 646.271 126.492C646.12 126.636 645.938 126.709 645.726 126.709ZM649.679 135.148C649.026 135.148 648.48 134.992 648.04 134.681C647.6 134.371 647.289 133.935 647.107 133.375C646.929 132.815 646.9 132.162 647.02 131.418C647.137 130.691 647.369 130.059 647.717 129.52C648.068 128.979 648.503 128.56 649.023 128.265C649.546 127.966 650.122 127.817 650.75 127.817C651.402 127.817 651.947 127.974 652.384 128.288C652.824 128.598 653.135 129.036 653.317 129.599C653.498 130.159 653.529 130.814 653.409 131.565C653.292 132.286 653.057 132.915 652.703 133.453C652.352 133.989 651.916 134.406 651.396 134.705C650.879 135 650.307 135.148 649.679 135.148ZM649.697 134.169C650.196 134.169 650.628 134.041 650.994 133.786C651.364 133.53 651.662 133.193 651.89 132.775C652.121 132.356 652.276 131.904 652.356 131.418C652.43 130.956 652.427 130.527 652.347 130.13C652.267 129.73 652.096 129.408 651.835 129.165C651.573 128.919 651.205 128.795 650.731 128.795C650.233 128.795 649.797 128.925 649.425 129.183C649.056 129.442 648.757 129.782 648.529 130.203C648.302 130.625 648.149 131.079 648.072 131.565C647.998 132.027 648 132.456 648.077 132.853C648.157 133.247 648.328 133.566 648.589 133.809C648.854 134.049 649.223 134.169 649.697 134.169ZM656.3 130.734L655.598 135H654.509L655.691 127.909H656.743L656.558 129.017H656.651C656.872 128.657 657.172 128.368 657.551 128.149C657.93 127.928 658.387 127.817 658.922 127.817C659.396 127.817 659.796 127.915 660.122 128.112C660.452 128.306 660.684 128.602 660.82 128.999C660.958 129.393 660.978 129.891 660.88 130.494L660.122 135H659.033L659.772 130.568C659.864 130.014 659.792 129.58 659.555 129.266C659.321 128.952 658.95 128.795 658.442 128.795C658.091 128.795 657.766 128.871 657.468 129.022C657.172 129.172 656.922 129.393 656.715 129.682C656.512 129.971 656.374 130.322 656.3 130.734Z" fill="black"/>
<path d="M104 181.4L115.217 178.659L107.235 170.316L104 181.4ZM111.195 175.901L192.87 97.7678L191.487 96.3226L109.812 174.456L111.195 175.901Z" fill="black"/>
<path d="M32.554 103L34.1236 93.5455H37.3182C38.0568 93.5455 38.6416 93.6701 39.0724 93.9194C39.5064 94.1687 39.8003 94.5118 39.9542 94.9489C40.1112 95.3859 40.1435 95.8845 40.0511 96.4446C39.9588 96.9986 39.7618 97.491 39.4602 97.9219C39.1617 98.3527 38.7554 98.6913 38.2415 98.9375C37.7306 99.1837 37.1089 99.3068 36.3764 99.3068H33.7912L33.9759 98.2727H36.5241C37.0289 98.2727 37.4474 98.1989 37.7798 98.0511C38.1122 97.9034 38.3707 97.6926 38.5554 97.4187C38.7401 97.1448 38.8632 96.8201 38.9247 96.4446C38.9863 96.063 38.9693 95.7321 38.8739 95.4521C38.7816 95.1689 38.5923 94.9504 38.3061 94.7965C38.023 94.6396 37.6259 94.5611 37.1151 94.5611H35.1023L33.6989 103H32.554ZM37.706 98.7528L39.331 103H38.0014L36.4134 98.7528H37.706ZM43.6001 103.148C42.9199 103.148 42.3582 102.997 41.915 102.695C41.4719 102.391 41.1626 101.966 40.9871 101.421C40.8117 100.873 40.784 100.236 40.904 99.5099C41.0241 98.7836 41.2626 98.1435 41.6196 97.5895C41.9766 97.0324 42.4213 96.5985 42.9537 96.2876C43.4862 95.9737 44.0709 95.8168 44.708 95.8168C45.0773 95.8168 45.4328 95.8783 45.7744 96.0014C46.116 96.1245 46.4115 96.3246 46.6608 96.6016C46.9101 96.8755 47.084 97.2386 47.1824 97.6911C47.2809 98.1435 47.2748 98.7005 47.164 99.3622L47.0901 99.8239H41.6242L41.7719 98.8821H46.1299C46.2007 98.482 46.1822 98.125 46.0745 97.8111C45.9698 97.4972 45.7867 97.2494 45.5251 97.0678C45.2666 96.8862 44.9388 96.7955 44.5418 96.7955C44.1325 96.7955 43.7509 96.9062 43.3969 97.1278C43.043 97.3464 42.7475 97.6233 42.5106 97.9588C42.2736 98.2912 42.1259 98.6297 42.0674 98.9744L41.9381 99.7869C41.8458 100.375 41.8596 100.843 41.9797 101.19C42.1028 101.538 42.3167 101.789 42.6214 101.943C42.926 102.094 43.3077 102.169 43.7662 102.169C44.0586 102.169 44.3279 102.129 44.5741 102.049C44.8203 101.966 45.0404 101.843 45.2343 101.68C45.4282 101.513 45.5913 101.307 45.7236 101.061L46.7208 101.357C46.5515 101.714 46.313 102.027 46.0052 102.298C45.7005 102.566 45.3435 102.775 44.9342 102.926C44.528 103.074 44.0832 103.148 43.6001 103.148ZM52.6322 105.659L53.2508 101.911H53.1585C53.0569 102.04 52.9153 102.203 52.7338 102.4C52.5552 102.594 52.3167 102.768 52.0182 102.922C51.7197 103.072 51.3427 103.148 50.8872 103.148C50.2963 103.148 49.7992 102.998 49.396 102.7C48.9929 102.398 48.7097 101.974 48.5466 101.426C48.3835 100.875 48.3635 100.224 48.4866 99.473C48.6097 98.7282 48.8436 98.0819 49.1883 97.5341C49.533 96.9863 49.9577 96.5631 50.4624 96.2646C50.9672 95.966 51.5181 95.8168 52.1151 95.8168C52.5768 95.8168 52.9292 95.8937 53.1723 96.0476C53.4185 96.1984 53.597 96.3707 53.7078 96.5646C53.8186 96.7554 53.9033 96.9124 53.9617 97.0355H54.091L54.2849 95.9091H55.3374L53.7217 105.659H52.6322ZM51.1918 102.169C51.632 102.169 52.0213 102.055 52.3598 101.827C52.7014 101.597 52.983 101.278 53.2046 100.872C53.4293 100.462 53.5863 99.9901 53.6755 99.4545C53.7648 98.9252 53.7648 98.462 53.6755 98.065C53.5863 97.6649 53.4093 97.354 53.1446 97.1325C52.883 96.9078 52.5306 96.7955 52.0874 96.7955C51.6258 96.7955 51.2211 96.9139 50.8733 97.1509C50.5286 97.3848 50.247 97.7034 50.0285 98.1065C49.81 98.5066 49.6592 98.956 49.5761 99.4545C49.493 99.9593 49.4945 100.418 49.5807 100.83C49.67 101.24 49.8469 101.566 50.1116 101.809C50.3793 102.049 50.7394 102.169 51.1918 102.169ZM61.0953 100.101L61.7971 95.9091H62.8865L61.7047 103H60.6152L60.8184 101.8H60.7445C60.5229 102.16 60.2136 102.466 59.8166 102.718C59.4196 102.968 58.9533 103.092 58.4178 103.092C57.9746 103.092 57.5961 102.995 57.2821 102.801C56.9713 102.605 56.7497 102.309 56.6174 101.915C56.4881 101.518 56.4727 101.018 56.5712 100.415L57.3283 95.9091H58.4178L57.6792 100.341C57.5961 100.858 57.6745 101.27 57.9146 101.578C58.1547 101.886 58.5009 102.04 58.9533 102.04C59.2241 102.04 59.5104 101.971 59.812 101.832C60.1167 101.694 60.3875 101.481 60.6245 101.195C60.8645 100.909 61.0215 100.544 61.0953 100.101ZM63.7002 103L64.882 95.9091H65.9715L64.7897 103H63.7002ZM65.7591 94.7088C65.5468 94.7088 65.3637 94.6365 65.2098 94.4918C65.059 94.3472 64.9836 94.1733 64.9836 93.9702C64.9836 93.767 65.059 93.5932 65.2098 93.4485C65.3637 93.3039 65.5468 93.2315 65.7591 93.2315C65.9715 93.2315 66.1531 93.3039 66.3039 93.4485C66.4578 93.5932 66.5347 93.767 66.5347 93.9702C66.5347 94.1733 66.4578 94.3472 66.3039 94.4918C66.1531 94.6365 65.9715 94.7088 65.7591 94.7088ZM66.7852 103L67.967 95.9091H69.0195L68.8349 96.9801H68.9087C69.0934 96.6293 69.375 96.3446 69.7535 96.1261C70.1321 95.9076 70.5337 95.7983 70.9584 95.7983C71.0415 95.7983 71.1416 95.7998 71.2585 95.8029C71.3755 95.8029 71.4663 95.8075 71.5309 95.8168L71.3462 96.9247C71.3093 96.9155 71.2262 96.9016 71.0969 96.8832C70.9677 96.8616 70.8292 96.8509 70.6815 96.8509C70.3368 96.8509 70.0182 96.9232 69.7259 97.0678C69.4335 97.2094 69.1888 97.4064 68.9918 97.6587C68.7949 97.908 68.6687 98.1927 68.6133 98.5128L67.8746 103H66.7852ZM74.3862 103.148C73.706 103.148 73.1444 102.997 72.7012 102.695C72.258 102.391 71.9487 101.966 71.7733 101.421C71.5978 100.873 71.5701 100.236 71.6902 99.5099C71.8102 98.7836 72.0487 98.1435 72.4057 97.5895C72.7627 97.0324 73.2074 96.5985 73.7399 96.2876C74.2723 95.9737 74.8571 95.8168 75.4941 95.8168C75.8635 95.8168 76.2189 95.8783 76.5605 96.0014C76.9022 96.1245 77.1976 96.3246 77.4469 96.6016C77.6962 96.8755 77.8701 97.2386 77.9686 97.6911C78.0671 98.1435 78.0609 98.7005 77.9501 99.3622L77.8762 99.8239H72.4103L72.5581 98.8821H76.916C76.9868 98.482 76.9683 98.125 76.8606 97.8111C76.756 97.4972 76.5729 97.2494 76.3113 97.0678C76.0527 96.8862 75.725 96.7955 75.3279 96.7955C74.9186 96.7955 74.537 96.9062 74.1831 97.1278C73.8291 97.3464 73.5337 97.6233 73.2967 97.9588C73.0597 98.2912 72.912 98.6297 72.8535 98.9744L72.7243 99.7869C72.6319 100.375 72.6458 100.843 72.7658 101.19C72.8889 101.538 73.1028 101.789 73.4075 101.943C73.7122 102.094 74.0938 102.169 74.5524 102.169C74.8448 102.169 75.114 102.129 75.3603 102.049C75.6065 101.966 75.8265 101.843 76.0204 101.68C76.2143 101.513 76.3774 101.307 76.5098 101.061L77.5069 101.357C77.3377 101.714 77.0991 102.027 76.7914 102.298C76.4867 102.566 76.1297 102.775 75.7203 102.926C75.3141 103.074 74.8694 103.148 74.3862 103.148ZM84.9695 97.4972L83.9354 97.7741C83.8984 97.608 83.8338 97.4479 83.7415 97.294C83.6522 97.1371 83.5137 97.0094 83.326 96.9109C83.1413 96.8093 82.889 96.7585 82.5689 96.7585C82.1349 96.7585 81.7579 96.8585 81.4379 97.0586C81.1178 97.2556 80.9347 97.5064 80.8885 97.8111C80.8423 98.0788 80.9039 98.2927 81.0732 98.4528C81.2424 98.6128 81.5256 98.7436 81.9226 98.8452L82.9382 99.1037C83.5476 99.2607 83.9815 99.4961 84.2401 99.81C84.5017 100.121 84.5909 100.526 84.5078 101.024C84.4401 101.43 84.2631 101.794 83.9769 102.114C83.6907 102.434 83.3245 102.686 82.8782 102.871C82.4319 103.055 81.9349 103.148 81.3871 103.148C80.6577 103.148 80.0821 102.991 79.6605 102.677C79.2389 102.36 79.0142 101.901 78.9865 101.301L80.076 101.043C80.1037 101.421 80.2391 101.707 80.4822 101.901C80.7285 102.092 81.0732 102.187 81.5163 102.187C82.0241 102.187 82.4473 102.08 82.7859 101.864C83.1244 101.646 83.3168 101.384 83.3629 101.08C83.4091 100.83 83.3598 100.623 83.2152 100.456C83.0736 100.29 82.8274 100.165 82.4766 100.082L81.3501 99.8054C80.7223 99.6484 80.2822 99.4084 80.0298 99.0852C79.7805 98.7621 79.6974 98.3558 79.7805 97.8665C79.8482 97.4664 80.0206 97.1125 80.2976 96.8047C80.5776 96.4969 80.9285 96.2553 81.3501 96.0799C81.7749 95.9045 82.2365 95.8168 82.7351 95.8168C83.4368 95.8168 83.9615 95.9706 84.3093 96.2784C84.6571 96.5831 84.8771 96.9893 84.9695 97.4972ZM38.3523 113.497L37.3182 113.774C37.2812 113.608 37.2166 113.448 37.1243 113.294C37.035 113.137 36.8965 113.009 36.7088 112.911C36.5241 112.809 36.2718 112.759 35.9517 112.759C35.5178 112.759 35.1407 112.859 34.8207 113.059C34.5006 113.256 34.3175 113.506 34.2713 113.811C34.2251 114.079 34.2867 114.293 34.456 114.453C34.6252 114.613 34.9084 114.744 35.3054 114.845L36.321 115.104C36.9304 115.261 37.3643 115.496 37.6229 115.81C37.8845 116.121 37.9737 116.526 37.8906 117.024C37.8229 117.43 37.646 117.794 37.3597 118.114C37.0735 118.434 36.7073 118.686 36.261 118.871C35.8147 119.055 35.3177 119.148 34.7699 119.148C34.0405 119.148 33.465 118.991 33.0433 118.677C32.6217 118.36 32.397 117.901 32.3693 117.301L33.4588 117.043C33.4865 117.421 33.6219 117.707 33.8651 117.901C34.1113 118.092 34.456 118.187 34.8991 118.187C35.407 118.187 35.8301 118.08 36.1687 117.864C36.5072 117.646 36.6996 117.384 36.7457 117.08C36.7919 116.83 36.7427 116.623 36.598 116.456C36.4564 116.29 36.2102 116.165 35.8594 116.082L34.733 115.805C34.1051 115.648 33.665 115.408 33.4126 115.085C33.1634 114.762 33.0803 114.356 33.1634 113.866C33.2311 113.466 33.4034 113.112 33.6804 112.805C33.9605 112.497 34.3113 112.255 34.733 112.08C35.1577 111.904 35.6193 111.817 36.1179 111.817C36.8196 111.817 37.3443 111.971 37.6921 112.278C38.0399 112.583 38.2599 112.989 38.3523 113.497ZM42.1528 119.148C41.4726 119.148 40.911 118.997 40.4678 118.695C40.0246 118.391 39.7153 117.966 39.5399 117.421C39.3644 116.873 39.3367 116.236 39.4568 115.51C39.5768 114.784 39.8153 114.143 40.1723 113.589C40.5293 113.032 40.974 112.598 41.5065 112.288C42.0389 111.974 42.6237 111.817 43.2607 111.817C43.6301 111.817 43.9855 111.878 44.3271 112.001C44.6688 112.125 44.9642 112.325 45.2135 112.602C45.4628 112.875 45.6367 113.239 45.7352 113.691C45.8337 114.143 45.8275 114.701 45.7167 115.362L45.6428 115.824H40.1769L40.3247 114.882H44.6826C44.7534 114.482 44.7349 114.125 44.6272 113.811C44.5226 113.497 44.3395 113.249 44.0779 113.068C43.8193 112.886 43.4916 112.795 43.0945 112.795C42.6852 112.795 42.3036 112.906 41.9497 113.128C41.5957 113.346 41.3003 113.623 41.0633 113.959C40.8263 114.291 40.6786 114.63 40.6201 114.974L40.4909 115.787C40.3985 116.375 40.4124 116.843 40.5324 117.19C40.6555 117.538 40.8694 117.789 41.1741 117.943C41.4788 118.094 41.8604 118.169 42.319 118.169C42.6114 118.169 42.8807 118.129 43.1269 118.049C43.3731 117.966 43.5931 117.843 43.787 117.68C43.9809 117.513 44.144 117.307 44.2764 117.061L45.2735 117.357C45.1043 117.714 44.8657 118.027 44.558 118.298C44.2533 118.566 43.8963 118.775 43.4869 118.926C43.0807 119.074 42.636 119.148 42.1528 119.148ZM46.79 119L47.9719 111.909H49.0244L48.8398 112.98H48.9136C49.0983 112.629 49.3799 112.345 49.7584 112.126C50.137 111.908 50.5386 111.798 50.9633 111.798C51.0464 111.798 51.1465 111.8 51.2634 111.803C51.3804 111.803 51.4711 111.808 51.5358 111.817L51.3511 112.925C51.3142 112.915 51.2311 112.902 51.1018 112.883C50.9726 112.862 50.8341 112.851 50.6863 112.851C50.3416 112.851 50.0231 112.923 49.7307 113.068C49.4384 113.209 49.1937 113.406 48.9967 113.659C48.7997 113.908 48.6736 114.193 48.6182 114.513L47.8795 119H46.79ZM58.8483 111.909L55.0443 119H53.9363L52.496 111.909H53.6317L54.6473 117.56H54.7211L57.6203 111.909H58.8483ZM59.1045 119L60.2863 111.909H61.3758L60.194 119H59.1045ZM61.1634 110.709C60.9511 110.709 60.768 110.636 60.6141 110.492C60.4633 110.347 60.3879 110.173 60.3879 109.97C60.3879 109.767 60.4633 109.593 60.6141 109.449C60.768 109.304 60.9511 109.232 61.1634 109.232C61.3758 109.232 61.5574 109.304 61.7082 109.449C61.8621 109.593 61.939 109.767 61.939 109.97C61.939 110.173 61.8621 110.347 61.7082 110.492C61.5574 110.636 61.3758 110.709 61.1634 110.709ZM65.0517 119.148C64.3838 119.148 63.836 118.991 63.4082 118.677C62.9835 118.363 62.688 117.931 62.5218 117.38C62.3556 116.829 62.331 116.199 62.448 115.491C62.5649 114.771 62.8019 114.136 63.1589 113.585C63.5159 113.031 63.9606 112.598 64.4931 112.288C65.0255 111.974 65.6118 111.817 66.252 111.817C66.7505 111.817 67.1845 111.909 67.5538 112.094C67.9231 112.278 68.2078 112.537 68.4078 112.869C68.6079 113.202 68.7018 113.589 68.6895 114.033H67.6C67.5692 113.71 67.4307 113.423 67.1845 113.174C66.9413 112.922 66.5813 112.795 66.1042 112.795C65.6795 112.795 65.2886 112.906 64.9316 113.128C64.5746 113.346 64.2746 113.656 64.0314 114.056C63.7883 114.453 63.6236 114.919 63.5375 115.455C63.4451 116.002 63.4528 116.479 63.5605 116.886C63.6683 117.292 63.8637 117.607 64.1468 117.832C64.43 118.057 64.787 118.169 65.2179 118.169C65.501 118.169 65.7657 118.12 66.0119 118.021C66.2581 117.923 66.4766 117.781 66.6674 117.597C66.8582 117.412 67.0091 117.19 67.1198 116.932H68.2093C68.0739 117.35 67.8569 117.727 67.5584 118.063C67.2599 118.395 66.8983 118.66 66.4735 118.857C66.0488 119.051 65.5749 119.148 65.0517 119.148ZM72.4057 119.148C71.7256 119.148 71.1639 118.997 70.7207 118.695C70.2775 118.391 69.9682 117.966 69.7928 117.421C69.6174 116.873 69.5897 116.236 69.7097 115.51C69.8297 114.784 70.0682 114.143 70.4252 113.589C70.7823 113.032 71.227 112.598 71.7594 112.288C72.2918 111.974 72.8766 111.817 73.5137 111.817C73.883 111.817 74.2385 111.878 74.5801 112.001C74.9217 112.125 75.2171 112.325 75.4664 112.602C75.7157 112.875 75.8896 113.239 75.9881 113.691C76.0866 114.143 76.0804 114.701 75.9696 115.362L75.8958 115.824H70.4299L70.5776 114.882H74.9355C75.0063 114.482 74.9879 114.125 74.8801 113.811C74.7755 113.497 74.5924 113.249 74.3308 113.068C74.0723 112.886 73.7445 112.795 73.3475 112.795C72.9381 112.795 72.5565 112.906 72.2026 113.128C71.8487 113.346 71.5532 113.623 71.3162 113.959C71.0792 114.291 70.9315 114.63 70.873 114.974L70.7438 115.787C70.6515 116.375 70.6653 116.843 70.7853 117.19C70.9084 117.538 71.1223 117.789 71.427 117.943C71.7317 118.094 72.1133 118.169 72.5719 118.169C72.8643 118.169 73.1336 118.129 73.3798 118.049C73.626 117.966 73.8461 117.843 74.0399 117.68C74.2338 117.513 74.397 117.307 74.5293 117.061L75.5265 117.357C75.3572 117.714 75.1187 118.027 74.8109 118.298C74.5062 118.566 74.1492 118.775 73.7399 118.926C73.3336 119.074 72.8889 119.148 72.4057 119.148ZM80.6992 119L81.881 111.909H82.9705L81.7887 119H80.6992ZM82.7582 110.709C82.5458 110.709 82.3627 110.636 82.2088 110.492C82.058 110.347 81.9826 110.173 81.9826 109.97C81.9826 109.767 82.058 109.593 82.2088 109.449C82.3627 109.304 82.5458 109.232 82.7582 109.232C82.9705 109.232 83.1521 109.304 83.3029 109.449C83.4568 109.593 83.5337 109.767 83.5337 109.97C83.5337 110.173 83.4568 110.347 83.3029 110.492C83.1521 110.636 82.9705 110.709 82.7582 110.709ZM85.5754 114.734L84.8737 119H83.7842L84.966 111.909H86.0186L85.8339 113.017H85.9262C86.1478 112.657 86.4479 112.368 86.8264 112.149C87.205 111.928 87.662 111.817 88.1975 111.817C88.6715 111.817 89.0716 111.915 89.3978 112.112C89.7271 112.306 89.9595 112.602 90.0949 112.999C90.2334 113.393 90.2534 113.891 90.1549 114.494L89.3978 119H88.3083L89.047 114.568C89.1393 114.014 89.067 113.58 88.83 113.266C88.5961 112.952 88.2252 112.795 87.7174 112.795C87.3666 112.795 87.0419 112.871 86.7433 113.022C86.4479 113.172 86.1971 113.393 85.9909 113.682C85.7877 113.971 85.6492 114.322 85.5754 114.734ZM95.6543 111.909L95.5066 112.832H91.8319L91.9796 111.909H95.6543ZM93.3276 110.21H94.4171L93.2907 116.969C93.2414 117.277 93.2491 117.507 93.3137 117.661C93.3814 117.812 93.483 117.914 93.6184 117.966C93.7569 118.015 93.9062 118.04 94.0662 118.04C94.1863 118.04 94.2847 118.034 94.3617 118.021C94.4386 118.006 94.5002 117.994 94.5463 117.984L94.6202 118.963C94.5371 118.991 94.4248 119.018 94.2832 119.046C94.1447 119.077 93.9739 119.092 93.7708 119.092C93.463 119.092 93.1737 119.026 92.9029 118.894C92.632 118.761 92.4243 118.56 92.2796 118.289C92.135 118.018 92.0965 117.677 92.1642 117.264L93.3276 110.21ZM98.9897 119.148C98.3095 119.148 97.7479 118.997 97.3047 118.695C96.8615 118.391 96.5522 117.966 96.3768 117.421C96.2013 116.873 96.1736 116.236 96.2937 115.51C96.4137 114.784 96.6522 114.143 97.0092 113.589C97.3662 113.032 97.811 112.598 98.3434 112.288C98.8758 111.974 99.4606 111.817 100.098 111.817C100.467 111.817 100.822 111.878 101.164 112.001C101.506 112.125 101.801 112.325 102.05 112.602C102.3 112.875 102.474 113.239 102.572 113.691C102.671 114.143 102.664 114.701 102.554 115.362L102.48 115.824H97.0138L97.1616 114.882H101.52C101.59 114.482 101.572 114.125 101.464 113.811C101.359 113.497 101.176 113.249 100.915 113.068C100.656 112.886 100.328 112.795 99.9315 112.795C99.5221 112.795 99.1405 112.906 98.7866 113.128C98.4326 113.346 98.1372 113.623 97.9002 113.959C97.6632 114.291 97.5155 114.63 97.457 114.974L97.3278 115.787C97.2354 116.375 97.2493 116.843 97.3693 117.19C97.4924 117.538 97.7063 117.789 98.011 117.943C98.3157 118.094 98.6973 118.169 99.1559 118.169C99.4483 118.169 99.7176 118.129 99.9638 118.049C100.21 117.966 100.43 117.843 100.624 117.68C100.818 117.513 100.981 117.307 101.113 117.061L102.11 117.357C101.941 117.714 101.703 118.027 101.395 118.298C101.09 118.566 100.733 118.775 100.324 118.926C99.9176 119.074 99.4729 119.148 98.9897 119.148ZM103.627 119L104.809 111.909H105.861L105.677 112.98H105.751C105.935 112.629 106.217 112.345 106.595 112.126C106.974 111.908 107.376 111.798 107.8 111.798C107.883 111.798 107.983 111.8 108.1 111.803C108.217 111.803 108.308 111.808 108.373 111.817L108.188 112.925C108.151 112.915 108.068 112.902 107.939 112.883C107.809 112.862 107.671 112.851 107.523 112.851C107.179 112.851 106.86 112.923 106.568 113.068C106.275 113.209 106.031 113.406 105.834 113.659C105.637 113.908 105.51 114.193 105.455 114.513L104.716 119H103.627ZM113.273 111.909L113.125 112.832H109.303L109.451 111.909H113.273ZM109.414 119L110.762 110.93C110.823 110.524 110.971 110.186 111.205 109.915C111.442 109.644 111.723 109.441 112.05 109.305C112.379 109.17 112.713 109.102 113.051 109.102C113.319 109.102 113.533 109.124 113.693 109.167C113.856 109.21 113.975 109.25 114.049 109.287L113.587 110.229C113.532 110.21 113.458 110.187 113.365 110.159C113.276 110.132 113.153 110.118 112.996 110.118C112.636 110.118 112.362 110.209 112.174 110.39C111.987 110.572 111.86 110.838 111.796 111.189L110.503 119H109.414ZM115.483 119.166C115.034 119.166 114.64 119.082 114.301 118.912C113.963 118.74 113.712 118.492 113.549 118.169C113.386 117.843 113.341 117.449 113.415 116.987C113.486 116.581 113.623 116.252 113.826 115.999C114.029 115.744 114.275 115.544 114.565 115.399C114.857 115.251 115.171 115.142 115.506 115.071C115.845 114.998 116.182 114.941 116.517 114.901C116.954 114.845 117.31 114.802 117.584 114.771C117.858 114.741 118.064 114.69 118.202 114.619C118.341 114.548 118.425 114.427 118.456 114.254V114.217C118.53 113.765 118.47 113.413 118.276 113.16C118.082 112.905 117.736 112.777 117.237 112.777C116.72 112.777 116.288 112.891 115.94 113.119C115.592 113.346 115.335 113.589 115.169 113.848L114.209 113.479C114.461 113.048 114.763 112.712 115.114 112.472C115.465 112.229 115.833 112.06 116.217 111.964C116.602 111.866 116.973 111.817 117.33 111.817C117.558 111.817 117.815 111.844 118.101 111.9C118.387 111.952 118.655 112.061 118.904 112.228C119.156 112.394 119.346 112.645 119.472 112.98C119.601 113.316 119.62 113.765 119.527 114.328L118.752 119H117.662L117.828 118.04H117.773C117.675 118.194 117.524 118.358 117.321 118.534C117.121 118.709 116.867 118.858 116.559 118.982C116.254 119.105 115.896 119.166 115.483 119.166ZM115.797 118.187C116.228 118.187 116.605 118.103 116.928 117.934C117.254 117.764 117.516 117.546 117.713 117.278C117.913 117.01 118.038 116.729 118.087 116.433L118.253 115.436C118.198 115.491 118.088 115.542 117.925 115.588C117.762 115.632 117.578 115.67 117.371 115.704C117.168 115.735 116.97 115.762 116.776 115.787C116.585 115.808 116.431 115.827 116.314 115.842C116.025 115.879 115.749 115.939 115.488 116.022C115.229 116.102 115.011 116.224 114.832 116.387C114.657 116.547 114.548 116.766 114.505 117.043C114.44 117.421 114.531 117.707 114.777 117.901C115.023 118.092 115.363 118.187 115.797 118.187ZM123.602 119.148C122.935 119.148 122.387 118.991 121.959 118.677C121.534 118.363 121.239 117.931 121.073 117.38C120.906 116.829 120.882 116.199 120.999 115.491C121.116 114.771 121.353 114.136 121.71 113.585C122.067 113.031 122.511 112.598 123.044 112.288C123.576 111.974 124.163 111.817 124.803 111.817C125.301 111.817 125.735 111.909 126.105 112.094C126.474 112.278 126.759 112.537 126.959 112.869C127.159 113.202 127.253 113.589 127.24 114.033H126.151C126.12 113.71 125.981 113.423 125.735 113.174C125.492 112.922 125.132 112.795 124.655 112.795C124.23 112.795 123.839 112.906 123.482 113.128C123.125 113.346 122.825 113.656 122.582 114.056C122.339 114.453 122.174 114.919 122.088 115.455C121.996 116.002 122.004 116.479 122.111 116.886C122.219 117.292 122.414 117.607 122.698 117.832C122.981 118.057 123.338 118.169 123.769 118.169C124.052 118.169 124.316 118.12 124.563 118.021C124.809 117.923 125.027 117.781 125.218 117.597C125.409 117.412 125.56 117.19 125.671 116.932H126.76C126.625 117.35 126.408 117.727 126.109 118.063C125.811 118.395 125.449 118.66 125.024 118.857C124.6 119.051 124.126 119.148 123.602 119.148ZM130.956 119.148C130.276 119.148 129.715 118.997 129.271 118.695C128.828 118.391 128.519 117.966 128.344 117.421C128.168 116.873 128.14 116.236 128.26 115.51C128.38 114.784 128.619 114.143 128.976 113.589C129.333 113.032 129.778 112.598 130.31 112.288C130.843 111.974 131.427 111.817 132.064 111.817C132.434 111.817 132.789 111.878 133.131 112.001C133.472 112.125 133.768 112.325 134.017 112.602C134.267 112.875 134.44 113.239 134.539 113.691C134.637 114.143 134.631 114.701 134.52 115.362L134.447 115.824H128.981L129.128 114.882H133.486C133.557 114.482 133.539 114.125 133.431 113.811C133.326 113.497 133.143 113.249 132.882 113.068C132.623 112.886 132.295 112.795 131.898 112.795C131.489 112.795 131.107 112.906 130.753 113.128C130.399 113.346 130.104 113.623 129.867 113.959C129.63 114.291 129.482 114.63 129.424 114.974L129.295 115.787C129.202 116.375 129.216 116.843 129.336 117.19C129.459 117.538 129.673 117.789 129.978 117.943C130.282 118.094 130.664 118.169 131.123 118.169C131.415 118.169 131.684 118.129 131.931 118.049C132.177 117.966 132.397 117.843 132.591 117.68C132.785 117.513 132.948 117.307 133.08 117.061L134.077 117.357C133.908 117.714 133.669 118.027 133.362 118.298C133.057 118.566 132.7 118.775 132.291 118.926C131.884 119.074 131.44 119.148 130.956 119.148Z" fill="black"/>
<rect y="213" width="228" height="146" rx="10" fill="#D9D9D9"/>
<path d="M70.0114 292V280.364H77.8523V282.392H72.4716V285.165H77.4489V287.193H72.4716V289.972H77.875V292H70.0114ZM81.7855 283.273L83.3878 286.324L85.0298 283.273H87.5128L84.9844 287.636L87.581 292H85.1094L83.3878 288.983L81.6946 292H79.1946L81.7855 287.636L79.2855 283.273H81.7855ZM93.5923 283.273V285.091H88.3366V283.273H93.5923ZM89.5298 281.182H91.9503V289.318C91.9503 289.542 91.9844 289.716 92.0526 289.841C92.1207 289.962 92.2154 290.047 92.3366 290.097C92.4616 290.146 92.6056 290.17 92.7685 290.17C92.8821 290.17 92.9957 290.161 93.1094 290.142C93.223 290.119 93.3101 290.102 93.3707 290.091L93.7514 291.892C93.6302 291.93 93.4598 291.973 93.2401 292.023C93.0204 292.076 92.7533 292.108 92.4389 292.119C91.8556 292.142 91.3442 292.064 90.9048 291.886C90.4692 291.708 90.1302 291.432 89.8878 291.057C89.6454 290.682 89.526 290.208 89.5298 289.636V281.182ZM99.0526 292.17C98.1548 292.17 97.3821 291.989 96.7344 291.625C96.0904 291.258 95.5942 290.739 95.2457 290.068C94.8973 289.394 94.723 288.597 94.723 287.676C94.723 286.778 94.8973 285.991 95.2457 285.312C95.5942 284.634 96.0848 284.106 96.7173 283.727C97.3537 283.348 98.0999 283.159 98.956 283.159C99.5317 283.159 100.068 283.252 100.564 283.438C101.064 283.619 101.5 283.894 101.871 284.261C102.246 284.629 102.537 285.091 102.746 285.648C102.954 286.201 103.058 286.848 103.058 287.591V288.256H95.6889V286.756H100.78C100.78 286.407 100.704 286.098 100.553 285.83C100.401 285.561 100.191 285.35 99.9219 285.199C99.6567 285.044 99.348 284.966 98.9957 284.966C98.6283 284.966 98.3026 285.051 98.0185 285.222C97.7382 285.388 97.5185 285.614 97.3594 285.898C97.2003 286.178 97.1188 286.491 97.1151 286.835V288.261C97.1151 288.693 97.1946 289.066 97.3537 289.381C97.5166 289.695 97.7457 289.938 98.0412 290.108C98.3366 290.278 98.687 290.364 99.0923 290.364C99.3613 290.364 99.6075 290.326 99.831 290.25C100.054 290.174 100.246 290.061 100.405 289.909C100.564 289.758 100.685 289.572 100.768 289.352L103.007 289.5C102.893 290.038 102.661 290.508 102.308 290.909C101.96 291.307 101.509 291.617 100.956 291.841C100.407 292.061 99.7723 292.17 99.0526 292.17ZM107.058 286.955V292H104.638V283.273H106.945V284.812H107.047C107.24 284.305 107.564 283.903 108.018 283.608C108.473 283.309 109.024 283.159 109.672 283.159C110.278 283.159 110.806 283.292 111.257 283.557C111.708 283.822 112.058 284.201 112.308 284.693C112.558 285.182 112.683 285.765 112.683 286.443V292H110.263V286.875C110.267 286.341 110.13 285.924 109.854 285.625C109.577 285.322 109.196 285.17 108.712 285.17C108.386 285.17 108.098 285.241 107.848 285.381C107.602 285.521 107.409 285.725 107.268 285.994C107.132 286.259 107.062 286.58 107.058 286.955ZM121.852 285.761L119.636 285.898C119.598 285.708 119.517 285.538 119.392 285.386C119.267 285.231 119.102 285.108 118.898 285.017C118.697 284.922 118.456 284.875 118.176 284.875C117.801 284.875 117.485 284.955 117.227 285.114C116.97 285.269 116.841 285.477 116.841 285.739C116.841 285.947 116.924 286.123 117.091 286.267C117.258 286.411 117.544 286.527 117.949 286.614L119.528 286.932C120.377 287.106 121.009 287.386 121.426 287.773C121.843 288.159 122.051 288.667 122.051 289.295C122.051 289.867 121.883 290.369 121.545 290.801C121.212 291.233 120.754 291.57 120.17 291.812C119.591 292.051 118.922 292.17 118.165 292.17C117.009 292.17 116.089 291.93 115.403 291.449C114.722 290.964 114.322 290.305 114.205 289.472L116.585 289.347C116.657 289.699 116.831 289.968 117.108 290.153C117.384 290.335 117.739 290.426 118.17 290.426C118.595 290.426 118.936 290.345 119.193 290.182C119.455 290.015 119.587 289.801 119.591 289.54C119.587 289.32 119.494 289.14 119.312 289C119.131 288.856 118.85 288.746 118.472 288.67L116.96 288.369C116.108 288.199 115.473 287.903 115.057 287.483C114.644 287.062 114.438 286.527 114.438 285.875C114.438 285.314 114.589 284.831 114.892 284.426C115.199 284.021 115.629 283.708 116.182 283.489C116.739 283.269 117.39 283.159 118.136 283.159C119.239 283.159 120.106 283.392 120.739 283.858C121.375 284.324 121.746 284.958 121.852 285.761ZM123.575 292V283.273H125.996V292H123.575ZM124.791 282.148C124.431 282.148 124.123 282.028 123.865 281.79C123.611 281.547 123.484 281.258 123.484 280.92C123.484 280.587 123.611 280.301 123.865 280.062C124.123 279.82 124.431 279.699 124.791 279.699C125.151 279.699 125.458 279.82 125.712 280.062C125.969 280.301 126.098 280.587 126.098 280.92C126.098 281.258 125.969 281.547 125.712 281.79C125.458 282.028 125.151 282.148 124.791 282.148ZM131.878 292.17C130.995 292.17 130.232 291.983 129.588 291.608C128.948 291.229 128.454 290.703 128.105 290.028C127.757 289.35 127.582 288.564 127.582 287.67C127.582 286.769 127.757 285.981 128.105 285.307C128.454 284.629 128.948 284.102 129.588 283.727C130.232 283.348 130.995 283.159 131.878 283.159C132.76 283.159 133.522 283.348 134.162 283.727C134.806 284.102 135.302 284.629 135.651 285.307C135.999 285.981 136.173 286.769 136.173 287.67C136.173 288.564 135.999 289.35 135.651 290.028C135.302 290.703 134.806 291.229 134.162 291.608C133.522 291.983 132.76 292.17 131.878 292.17ZM131.889 290.295C132.291 290.295 132.626 290.182 132.895 289.955C133.164 289.723 133.366 289.409 133.503 289.011C133.643 288.614 133.713 288.161 133.713 287.653C133.713 287.146 133.643 286.693 133.503 286.295C133.366 285.898 133.164 285.583 132.895 285.352C132.626 285.121 132.291 285.006 131.889 285.006C131.484 285.006 131.143 285.121 130.866 285.352C130.594 285.583 130.387 285.898 130.247 286.295C130.111 286.693 130.043 287.146 130.043 287.653C130.043 288.161 130.111 288.614 130.247 289.011C130.387 289.409 130.594 289.723 130.866 289.955C131.143 290.182 131.484 290.295 131.889 290.295ZM140.168 286.955V292H137.747V283.273H140.054V284.812H140.156C140.349 284.305 140.673 283.903 141.128 283.608C141.582 283.309 142.134 283.159 142.781 283.159C143.387 283.159 143.916 283.292 144.366 283.557C144.817 283.822 145.168 284.201 145.418 284.693C145.668 285.182 145.793 285.765 145.793 286.443V292H143.372V286.875C143.376 286.341 143.24 285.924 142.963 285.625C142.687 285.322 142.306 285.17 141.821 285.17C141.495 285.17 141.207 285.241 140.957 285.381C140.711 285.521 140.518 285.725 140.378 285.994C140.241 286.259 140.171 286.58 140.168 286.955Z" fill="black"/>
<rect x="453" y="213" width="228" height="146" rx="10" fill="#D9D9D9"/>
<path d="M529.011 291V279.364H536.852V281.392H531.472V284.165H536.449V286.193H531.472V288.972H536.875V291H529.011ZM540.786 282.273L542.388 285.324L544.03 282.273H546.513L543.984 286.636L546.581 291H544.109L542.388 287.983L540.695 291H538.195L540.786 286.636L538.286 282.273H540.786ZM552.592 282.273V284.091H547.337V282.273H552.592ZM548.53 280.182H550.95V288.318C550.95 288.542 550.984 288.716 551.053 288.841C551.121 288.962 551.215 289.047 551.337 289.097C551.462 289.146 551.606 289.17 551.768 289.17C551.882 289.17 551.996 289.161 552.109 289.142C552.223 289.119 552.31 289.102 552.371 289.091L552.751 290.892C552.63 290.93 552.46 290.973 552.24 291.023C552.02 291.076 551.753 291.108 551.439 291.119C550.856 291.142 550.344 291.064 549.905 290.886C549.469 290.708 549.13 290.432 548.888 290.057C548.645 289.682 548.526 289.208 548.53 288.636V280.182ZM558.053 291.17C557.155 291.17 556.382 290.989 555.734 290.625C555.09 290.258 554.594 289.739 554.246 289.068C553.897 288.394 553.723 287.597 553.723 286.676C553.723 285.778 553.897 284.991 554.246 284.312C554.594 283.634 555.085 283.106 555.717 282.727C556.354 282.348 557.1 282.159 557.956 282.159C558.532 282.159 559.068 282.252 559.564 282.438C560.064 282.619 560.5 282.894 560.871 283.261C561.246 283.629 561.537 284.091 561.746 284.648C561.954 285.201 562.058 285.848 562.058 286.591V287.256H554.689V285.756H559.78C559.78 285.407 559.704 285.098 559.553 284.83C559.401 284.561 559.191 284.35 558.922 284.199C558.657 284.044 558.348 283.966 557.996 283.966C557.628 283.966 557.303 284.051 557.018 284.222C556.738 284.388 556.518 284.614 556.359 284.898C556.2 285.178 556.119 285.491 556.115 285.835V287.261C556.115 287.693 556.195 288.066 556.354 288.381C556.517 288.695 556.746 288.938 557.041 289.108C557.337 289.278 557.687 289.364 558.092 289.364C558.361 289.364 558.607 289.326 558.831 289.25C559.054 289.174 559.246 289.061 559.405 288.909C559.564 288.758 559.685 288.572 559.768 288.352L562.007 288.5C561.893 289.038 561.661 289.508 561.308 289.909C560.96 290.307 560.509 290.617 559.956 290.841C559.407 291.061 558.772 291.17 558.053 291.17ZM566.058 285.955V291H563.638V282.273H565.945V283.812H566.047C566.24 283.305 566.564 282.903 567.018 282.608C567.473 282.309 568.024 282.159 568.672 282.159C569.278 282.159 569.806 282.292 570.257 282.557C570.708 282.822 571.058 283.201 571.308 283.693C571.558 284.182 571.683 284.765 571.683 285.443V291H569.263V285.875C569.267 285.341 569.13 284.924 568.854 284.625C568.577 284.322 568.196 284.17 567.712 284.17C567.386 284.17 567.098 284.241 566.848 284.381C566.602 284.521 566.409 284.725 566.268 284.994C566.132 285.259 566.062 285.58 566.058 285.955ZM580.852 284.761L578.636 284.898C578.598 284.708 578.517 284.538 578.392 284.386C578.267 284.231 578.102 284.108 577.898 284.017C577.697 283.922 577.456 283.875 577.176 283.875C576.801 283.875 576.485 283.955 576.227 284.114C575.97 284.269 575.841 284.477 575.841 284.739C575.841 284.947 575.924 285.123 576.091 285.267C576.258 285.411 576.544 285.527 576.949 285.614L578.528 285.932C579.377 286.106 580.009 286.386 580.426 286.773C580.843 287.159 581.051 287.667 581.051 288.295C581.051 288.867 580.883 289.369 580.545 289.801C580.212 290.233 579.754 290.57 579.17 290.812C578.591 291.051 577.922 291.17 577.165 291.17C576.009 291.17 575.089 290.93 574.403 290.449C573.722 289.964 573.322 289.305 573.205 288.472L575.585 288.347C575.657 288.699 575.831 288.968 576.108 289.153C576.384 289.335 576.739 289.426 577.17 289.426C577.595 289.426 577.936 289.345 578.193 289.182C578.455 289.015 578.587 288.801 578.591 288.54C578.587 288.32 578.494 288.14 578.312 288C578.131 287.856 577.85 287.746 577.472 287.67L575.96 287.369C575.108 287.199 574.473 286.903 574.057 286.483C573.644 286.062 573.438 285.527 573.438 284.875C573.438 284.314 573.589 283.831 573.892 283.426C574.199 283.021 574.629 282.708 575.182 282.489C575.739 282.269 576.39 282.159 577.136 282.159C578.239 282.159 579.106 282.392 579.739 282.858C580.375 283.324 580.746 283.958 580.852 284.761ZM582.575 291V282.273H584.996V291H582.575ZM583.791 281.148C583.431 281.148 583.123 281.028 582.865 280.79C582.611 280.547 582.484 280.258 582.484 279.92C582.484 279.587 582.611 279.301 582.865 279.062C583.123 278.82 583.431 278.699 583.791 278.699C584.151 278.699 584.458 278.82 584.712 279.062C584.969 279.301 585.098 279.587 585.098 279.92C585.098 280.258 584.969 280.547 584.712 280.79C584.458 281.028 584.151 281.148 583.791 281.148ZM590.878 291.17C589.995 291.17 589.232 290.983 588.588 290.608C587.948 290.229 587.454 289.703 587.105 289.028C586.757 288.35 586.582 287.564 586.582 286.67C586.582 285.769 586.757 284.981 587.105 284.307C587.454 283.629 587.948 283.102 588.588 282.727C589.232 282.348 589.995 282.159 590.878 282.159C591.76 282.159 592.522 282.348 593.162 282.727C593.806 283.102 594.302 283.629 594.651 284.307C594.999 284.981 595.173 285.769 595.173 286.67C595.173 287.564 594.999 288.35 594.651 289.028C594.302 289.703 593.806 290.229 593.162 290.608C592.522 290.983 591.76 291.17 590.878 291.17ZM590.889 289.295C591.291 289.295 591.626 289.182 591.895 288.955C592.164 288.723 592.366 288.409 592.503 288.011C592.643 287.614 592.713 287.161 592.713 286.653C592.713 286.146 592.643 285.693 592.503 285.295C592.366 284.898 592.164 284.583 591.895 284.352C591.626 284.121 591.291 284.006 590.889 284.006C590.484 284.006 590.143 284.121 589.866 284.352C589.594 284.583 589.387 284.898 589.247 285.295C589.111 285.693 589.043 286.146 589.043 286.653C589.043 287.161 589.111 287.614 589.247 288.011C589.387 288.409 589.594 288.723 589.866 288.955C590.143 289.182 590.484 289.295 590.889 289.295ZM599.168 285.955V291H596.747V282.273H599.054V283.812H599.156C599.349 283.305 599.673 282.903 600.128 282.608C600.582 282.309 601.134 282.159 601.781 282.159C602.387 282.159 602.916 282.292 603.366 282.557C603.817 282.822 604.168 283.201 604.418 283.693C604.668 284.182 604.793 284.765 604.793 285.443V291H602.372V285.875C602.376 285.341 602.24 284.924 601.963 284.625C601.687 284.322 601.306 284.17 600.821 284.17C600.495 284.17 600.207 284.241 599.957 284.381C599.711 284.521 599.518 284.725 599.378 284.994C599.241 285.259 599.171 285.58 599.168 285.955Z" fill="black"/>
<rect x="225" y="8" width="228" height="146" rx="10" fill="#D9D9D9"/>
<path d="M333.324 77.7102C333.278 77.2519 333.083 76.8958 332.739 76.642C332.394 76.3883 331.926 76.2614 331.335 76.2614C330.934 76.2614 330.595 76.3182 330.318 76.4318C330.042 76.5417 329.83 76.6951 329.682 76.892C329.538 77.089 329.466 77.3125 329.466 77.5625C329.458 77.7708 329.502 77.9527 329.597 78.108C329.695 78.2633 329.83 78.3977 330 78.5114C330.17 78.6212 330.367 78.7178 330.591 78.8011C330.814 78.8807 331.053 78.9489 331.307 79.0057L332.352 79.2557C332.86 79.3693 333.326 79.5208 333.75 79.7102C334.174 79.8996 334.542 80.1326 334.852 80.4091C335.163 80.6856 335.403 81.0114 335.574 81.3864C335.748 81.7614 335.837 82.1913 335.841 82.6761C335.837 83.3883 335.655 84.0057 335.295 84.5284C334.939 85.0473 334.424 85.4508 333.75 85.7386C333.08 86.0227 332.271 86.1648 331.324 86.1648C330.384 86.1648 329.566 86.0208 328.869 85.733C328.176 85.4451 327.634 85.0189 327.244 84.4545C326.858 83.8864 326.655 83.1837 326.636 82.3466H329.017C329.044 82.7367 329.155 83.0625 329.352 83.3239C329.553 83.5814 329.82 83.7765 330.153 83.9091C330.491 84.0379 330.871 84.1023 331.295 84.1023C331.712 84.1023 332.074 84.0417 332.381 83.9205C332.691 83.7992 332.932 83.6307 333.102 83.4148C333.273 83.1989 333.358 82.9508 333.358 82.6705C333.358 82.4091 333.28 82.1894 333.125 82.0114C332.973 81.8333 332.75 81.6818 332.455 81.5568C332.163 81.4318 331.805 81.3182 331.381 81.2159L330.114 80.8977C329.133 80.6591 328.358 80.286 327.79 79.7784C327.222 79.2708 326.939 78.5871 326.943 77.7273C326.939 77.0227 327.127 76.4072 327.506 75.8807C327.888 75.3542 328.413 74.9432 329.08 74.6477C329.746 74.3523 330.504 74.2045 331.352 74.2045C332.216 74.2045 332.97 74.3523 333.614 74.6477C334.261 74.9432 334.765 75.3542 335.125 75.8807C335.485 76.4072 335.67 77.017 335.682 77.7102H333.324ZM337.496 86V74.3636H342.087C342.969 74.3636 343.721 74.5322 344.342 74.8693C344.964 75.2027 345.437 75.6667 345.763 76.2614C346.092 76.8523 346.257 77.5341 346.257 78.3068C346.257 79.0795 346.09 79.7614 345.757 80.3523C345.424 80.9432 344.941 81.4034 344.308 81.733C343.679 82.0625 342.918 82.2273 342.024 82.2273H339.098V80.2557H341.626C342.1 80.2557 342.49 80.1742 342.797 80.0114C343.107 79.8447 343.339 79.6155 343.49 79.3239C343.645 79.0284 343.723 78.6894 343.723 78.3068C343.723 77.9205 343.645 77.5833 343.49 77.2955C343.339 77.0038 343.107 76.7784 342.797 76.6193C342.486 76.4564 342.092 76.375 341.615 76.375H339.956V86H337.496ZM350.315 74.3636V86H347.855V74.3636H350.315Z" fill="black"/>
<path d="M270.509 46H267.554L269.124 36.5455H272.134C273.051 36.5455 273.806 36.7378 274.4 37.1225C274.997 37.5072 275.413 38.0566 275.647 38.7706C275.884 39.4846 275.919 40.3371 275.753 41.3281C275.593 42.3007 275.282 43.1362 274.82 43.8349C274.362 44.5304 273.768 45.0659 273.038 45.4414C272.312 45.8138 271.469 46 270.509 46ZM268.87 44.9844H270.545C271.327 44.9844 272.001 44.8305 272.567 44.5227C273.137 44.215 273.595 43.7764 273.943 43.207C274.294 42.6377 274.534 41.9621 274.663 41.1804C274.793 40.4295 274.78 39.7847 274.626 39.2461C274.476 38.7044 274.179 38.2889 273.735 37.9996C273.295 37.7073 272.706 37.5611 271.967 37.5611H270.098L268.87 44.9844ZM279.705 46.1477C279.024 46.1477 278.463 45.9969 278.02 45.6953C277.576 45.3906 277.267 44.9659 277.092 44.4212C276.916 43.8733 276.888 43.2363 277.009 42.5099C277.129 41.7836 277.367 41.1435 277.724 40.5895C278.081 40.0324 278.526 39.5985 279.058 39.2876C279.591 38.9737 280.175 38.8168 280.812 38.8168C281.182 38.8168 281.537 38.8783 281.879 39.0014C282.221 39.1245 282.516 39.3246 282.765 39.6016C283.015 39.8755 283.188 40.2386 283.287 40.6911C283.385 41.1435 283.379 41.7005 283.268 42.3622L283.195 42.8239H277.729L277.876 41.8821H282.234C282.305 41.482 282.287 41.125 282.179 40.8111C282.074 40.4972 281.891 40.2494 281.63 40.0678C281.371 39.8862 281.043 39.7955 280.646 39.7955C280.237 39.7955 279.855 39.9062 279.501 40.1278C279.147 40.3464 278.852 40.6233 278.615 40.9588C278.378 41.2912 278.23 41.6297 278.172 41.9744L278.043 42.7869C277.95 43.3748 277.964 43.8426 278.084 44.1903C278.207 44.5381 278.421 44.7889 278.726 44.9428C279.031 45.0936 279.412 45.169 279.871 45.169C280.163 45.169 280.432 45.129 280.679 45.049C280.925 44.9659 281.145 44.8428 281.339 44.6797C281.533 44.5135 281.696 44.3073 281.828 44.0611L282.825 44.3565C282.656 44.7135 282.417 45.0275 282.11 45.2983C281.805 45.5661 281.448 45.7753 281.039 45.9261C280.632 46.0739 280.188 46.1477 279.705 46.1477ZM288.681 38.9091L288.534 39.8324H284.711L284.859 38.9091H288.681ZM284.822 46L286.17 37.9304C286.231 37.5241 286.379 37.1856 286.613 36.9148C286.85 36.6439 287.132 36.4408 287.458 36.3054C287.787 36.17 288.121 36.1023 288.46 36.1023C288.727 36.1023 288.941 36.1238 289.101 36.1669C289.264 36.21 289.383 36.25 289.457 36.2869L288.995 37.2287C288.94 37.2102 288.866 37.1871 288.774 37.1594C288.684 37.1317 288.561 37.1179 288.404 37.1179C288.044 37.1179 287.77 37.2087 287.583 37.3903C287.395 37.5719 287.269 37.8381 287.204 38.1889L285.911 46H284.822ZM289.026 46L290.208 38.9091H291.298L290.116 46H289.026ZM291.085 37.7088C290.873 37.7088 290.69 37.6365 290.536 37.4918C290.385 37.3472 290.31 37.1733 290.31 36.9702C290.31 36.767 290.385 36.5932 290.536 36.4485C290.69 36.3039 290.873 36.2315 291.085 36.2315C291.298 36.2315 291.479 36.3039 291.63 36.4485C291.784 36.5932 291.861 36.767 291.861 36.9702C291.861 37.1733 291.784 37.3472 291.63 37.4918C291.479 37.6365 291.298 37.7088 291.085 37.7088ZM293.903 41.7344L293.201 46H292.111L293.293 38.9091H294.346L294.161 40.017H294.253C294.475 39.657 294.775 39.3677 295.154 39.1491C295.532 38.9276 295.989 38.8168 296.525 38.8168C296.999 38.8168 297.399 38.9152 297.725 39.1122C298.054 39.3061 298.287 39.6016 298.422 39.9986C298.561 40.3925 298.581 40.8911 298.482 41.4943L297.725 46H296.635L297.374 41.5682C297.466 41.0142 297.394 40.5803 297.157 40.2663C296.923 39.9524 296.552 39.7955 296.045 39.7955C295.694 39.7955 295.369 39.8709 295.07 40.0217C294.775 40.1725 294.524 40.3925 294.318 40.6818C294.115 40.9711 293.976 41.322 293.903 41.7344ZM302.67 46.1477C301.99 46.1477 301.429 45.9969 300.985 45.6953C300.542 45.3906 300.233 44.9659 300.057 44.4212C299.882 43.8733 299.854 43.2363 299.974 42.5099C300.094 41.7836 300.333 41.1435 300.69 40.5895C301.047 40.0324 301.492 39.5985 302.024 39.2876C302.556 38.9737 303.141 38.8168 303.778 38.8168C304.148 38.8168 304.503 38.8783 304.845 39.0014C305.186 39.1245 305.482 39.3246 305.731 39.6016C305.98 39.8755 306.154 40.2386 306.253 40.6911C306.351 41.1435 306.345 41.7005 306.234 42.3622L306.16 42.8239H300.695L300.842 41.8821H305.2C305.271 41.482 305.253 41.125 305.145 40.8111C305.04 40.4972 304.857 40.2494 304.595 40.0678C304.337 39.8862 304.009 39.7955 303.612 39.7955C303.203 39.7955 302.821 39.9062 302.467 40.1278C302.113 40.3464 301.818 40.6233 301.581 40.9588C301.344 41.2912 301.196 41.6297 301.138 41.9744L301.008 42.7869C300.916 43.3748 300.93 43.8426 301.05 44.1903C301.173 44.5381 301.387 44.7889 301.692 44.9428C301.996 45.0936 302.378 45.169 302.837 45.169C303.129 45.169 303.398 45.129 303.644 45.049C303.891 44.9659 304.111 44.8428 304.305 44.6797C304.498 44.5135 304.662 44.3073 304.794 44.0611L305.791 44.3565C305.622 44.7135 305.383 45.0275 305.076 45.2983C304.771 45.5661 304.414 45.7753 304.005 45.9261C303.598 46.0739 303.154 46.1477 302.67 46.1477ZM313.254 40.4972L312.22 40.7741C312.183 40.608 312.118 40.4479 312.026 40.294C311.936 40.1371 311.798 40.0094 311.61 39.9109C311.426 39.8093 311.173 39.7585 310.853 39.7585C310.419 39.7585 310.042 39.8585 309.722 40.0586C309.402 40.2556 309.219 40.5064 309.173 40.8111C309.127 41.0788 309.188 41.2927 309.357 41.4528C309.527 41.6128 309.81 41.7436 310.207 41.8452L311.222 42.1037C311.832 42.2607 312.266 42.4961 312.524 42.81C312.786 43.1209 312.875 43.5256 312.792 44.0241C312.724 44.4304 312.547 44.7936 312.261 45.1136C311.975 45.4337 311.609 45.6861 311.162 45.8707C310.716 46.0554 310.219 46.1477 309.671 46.1477C308.942 46.1477 308.366 45.9908 307.945 45.6768C307.523 45.3598 307.298 44.9013 307.271 44.3011L308.36 44.0426C308.388 44.4212 308.523 44.7074 308.766 44.9013C309.013 45.0921 309.357 45.1875 309.801 45.1875C310.308 45.1875 310.732 45.0798 311.07 44.8643C311.409 44.6458 311.601 44.3842 311.647 44.0795C311.693 43.8303 311.644 43.6225 311.499 43.4563C311.358 43.2901 311.112 43.1655 310.761 43.0824L309.634 42.8054C309.006 42.6484 308.566 42.4084 308.314 42.0852C308.065 41.7621 307.982 41.3558 308.065 40.8665C308.132 40.4664 308.305 40.1125 308.582 39.8047C308.862 39.4969 309.213 39.2553 309.634 39.0799C310.059 38.9045 310.521 38.8168 311.019 38.8168C311.721 38.8168 312.246 38.9706 312.593 39.2784C312.941 39.5831 313.161 39.9893 313.254 40.4972ZM323.702 40.4972L322.668 40.7741C322.631 40.608 322.566 40.4479 322.474 40.294C322.385 40.1371 322.246 40.0094 322.058 39.9109C321.874 39.8093 321.621 39.7585 321.301 39.7585C320.867 39.7585 320.49 39.8585 320.17 40.0586C319.85 40.2556 319.667 40.5064 319.621 40.8111C319.575 41.0788 319.636 41.2927 319.806 41.4528C319.975 41.6128 320.258 41.7436 320.655 41.8452L321.671 42.1037C322.28 42.2607 322.714 42.4961 322.972 42.81C323.234 43.1209 323.323 43.5256 323.24 44.0241C323.173 44.4304 322.996 44.7936 322.709 45.1136C322.423 45.4337 322.057 45.6861 321.611 45.8707C321.164 46.0554 320.667 46.1477 320.119 46.1477C319.39 46.1477 318.815 45.9908 318.393 45.6768C317.971 45.3598 317.747 44.9013 317.719 44.3011L318.808 44.0426C318.836 44.4212 318.972 44.7074 319.215 44.9013C319.461 45.0921 319.806 45.1875 320.249 45.1875C320.757 45.1875 321.18 45.0798 321.518 44.8643C321.857 44.6458 322.049 44.3842 322.095 44.0795C322.142 43.8303 322.092 43.6225 321.948 43.4563C321.806 43.2901 321.56 43.1655 321.209 43.0824L320.083 42.8054C319.455 42.6484 319.015 42.4084 318.762 42.0852C318.513 41.7621 318.43 41.3558 318.513 40.8665C318.581 40.4664 318.753 40.1125 319.03 39.8047C319.31 39.4969 319.661 39.2553 320.083 39.0799C320.507 38.9045 320.969 38.8168 321.468 38.8168C322.169 38.8168 322.694 38.9706 323.042 39.2784C323.389 39.5831 323.61 39.9893 323.702 40.4972ZM327.502 46.1477C326.822 46.1477 326.261 45.9969 325.817 45.6953C325.374 45.3906 325.065 44.9659 324.889 44.4212C324.714 43.8733 324.686 43.2363 324.806 42.5099C324.926 41.7836 325.165 41.1435 325.522 40.5895C325.879 40.0324 326.324 39.5985 326.856 39.2876C327.389 38.9737 327.973 38.8168 328.61 38.8168C328.98 38.8168 329.335 38.8783 329.677 39.0014C330.018 39.1245 330.314 39.3246 330.563 39.6016C330.812 39.8755 330.986 40.2386 331.085 40.6911C331.183 41.1435 331.177 41.7005 331.066 42.3622L330.992 42.8239H325.527L325.674 41.8821H330.032C330.103 41.482 330.085 41.125 329.977 40.8111C329.872 40.4972 329.689 40.2494 329.427 40.0678C329.169 39.8862 328.841 39.7955 328.444 39.7955C328.035 39.7955 327.653 39.9062 327.299 40.1278C326.945 40.3464 326.65 40.6233 326.413 40.9588C326.176 41.2912 326.028 41.6297 325.97 41.9744L325.84 42.7869C325.748 43.3748 325.762 43.8426 325.882 44.1903C326.005 44.5381 326.219 44.7889 326.524 44.9428C326.828 45.0936 327.21 45.169 327.669 45.169C327.961 45.169 328.23 45.129 328.476 45.049C328.723 44.9659 328.943 44.8428 329.137 44.6797C329.331 44.5135 329.494 44.3073 329.626 44.0611L330.623 44.3565C330.454 44.7135 330.215 45.0275 329.908 45.2983C329.603 45.5661 329.246 45.7753 328.837 45.9261C328.43 46.0739 327.986 46.1477 327.502 46.1477ZM332.14 46L333.321 38.9091H334.374L334.189 39.9801H334.263C334.448 39.6293 334.729 39.3446 335.108 39.1261C335.487 38.9076 335.888 38.7983 336.313 38.7983C336.396 38.7983 336.496 38.7998 336.613 38.8029C336.73 38.8029 336.821 38.8075 336.885 38.8168L336.701 39.9247C336.664 39.9155 336.581 39.9016 336.451 39.8832C336.322 39.8616 336.184 39.8509 336.036 39.8509C335.691 39.8509 335.373 39.9232 335.08 40.0678C334.788 40.2094 334.543 40.4064 334.346 40.6587C334.149 40.908 334.023 41.1927 333.968 41.5128L333.229 46H332.14ZM344.198 38.9091L340.394 46H339.286L337.846 38.9091H338.981L339.997 44.5597H340.071L342.97 38.9091H344.198ZM344.454 46L345.636 38.9091H346.725L345.544 46H344.454ZM346.513 37.7088C346.301 37.7088 346.118 37.6365 345.964 37.4918C345.813 37.3472 345.737 37.1733 345.737 36.9702C345.737 36.767 345.813 36.5932 345.964 36.4485C346.118 36.3039 346.301 36.2315 346.513 36.2315C346.725 36.2315 346.907 36.3039 347.058 36.4485C347.212 36.5932 347.289 36.767 347.289 36.9702C347.289 37.1733 347.212 37.3472 347.058 37.4918C346.907 37.6365 346.725 37.7088 346.513 37.7088ZM350.401 46.1477C349.733 46.1477 349.186 45.9908 348.758 45.6768C348.333 45.3629 348.038 44.9305 347.871 44.3796C347.705 43.8287 347.681 43.1993 347.798 42.4915C347.915 41.7713 348.152 41.1358 348.509 40.5849C348.866 40.0309 349.31 39.5985 349.843 39.2876C350.375 38.9737 350.961 38.8168 351.602 38.8168C352.1 38.8168 352.534 38.9091 352.903 39.0937C353.273 39.2784 353.557 39.5369 353.757 39.8693C353.957 40.2017 354.051 40.5895 354.039 41.0327H352.95C352.919 40.7095 352.78 40.4233 352.534 40.174C352.291 39.9216 351.931 39.7955 351.454 39.7955C351.029 39.7955 350.638 39.9062 350.281 40.1278C349.924 40.3464 349.624 40.6557 349.381 41.0558C349.138 41.4528 348.973 41.919 348.887 42.4545C348.795 43.0024 348.802 43.4794 348.91 43.8857C349.018 44.2919 349.213 44.6074 349.496 44.832C349.78 45.0567 350.137 45.169 350.567 45.169C350.851 45.169 351.115 45.1198 351.362 45.0213C351.608 44.9228 351.826 44.7812 352.017 44.5966C352.208 44.4119 352.359 44.1903 352.469 43.9318H353.559C353.424 44.3504 353.207 44.7274 352.908 45.0629C352.609 45.3952 352.248 45.6599 351.823 45.8569C351.398 46.0508 350.924 46.1477 350.401 46.1477ZM357.755 46.1477C357.075 46.1477 356.513 45.9969 356.07 45.6953C355.627 45.3906 355.318 44.9659 355.142 44.4212C354.967 43.8733 354.939 43.2363 355.059 42.5099C355.179 41.7836 355.418 41.1435 355.775 40.5895C356.132 40.0324 356.577 39.5985 357.109 39.2876C357.641 38.9737 358.226 38.8168 358.863 38.8168C359.233 38.8168 359.588 38.8783 359.93 39.0014C360.271 39.1245 360.567 39.3246 360.816 39.6016C361.065 39.8755 361.239 40.2386 361.338 40.6911C361.436 41.1435 361.43 41.7005 361.319 42.3622L361.245 42.8239H355.779L355.927 41.8821H360.285C360.356 41.482 360.337 41.125 360.23 40.8111C360.125 40.4972 359.942 40.2494 359.68 40.0678C359.422 39.8862 359.094 39.7955 358.697 39.7955C358.288 39.7955 357.906 39.9062 357.552 40.1278C357.198 40.3464 356.903 40.6233 356.666 40.9588C356.429 41.2912 356.281 41.6297 356.223 41.9744L356.093 42.7869C356.001 43.3748 356.015 43.8426 356.135 44.1903C356.258 44.5381 356.472 44.7889 356.777 44.9428C357.081 45.0936 357.463 45.169 357.922 45.169C358.214 45.169 358.483 45.129 358.729 45.049C358.976 44.9659 359.196 44.8428 359.39 44.6797C359.583 44.5135 359.747 44.3073 359.879 44.0611L360.876 44.3565C360.707 44.7135 360.468 45.0275 360.161 45.2983C359.856 45.5661 359.499 45.7753 359.089 45.9261C358.683 46.0739 358.239 46.1477 357.755 46.1477ZM366.049 46L367.231 38.9091H368.32L367.138 46H366.049ZM368.108 37.7088C367.895 37.7088 367.712 37.6365 367.558 37.4918C367.408 37.3472 367.332 37.1733 367.332 36.9702C367.332 36.767 367.408 36.5932 367.558 36.4485C367.712 36.3039 367.895 36.2315 368.108 36.2315C368.32 36.2315 368.502 36.3039 368.653 36.4485C368.806 36.5932 368.883 36.767 368.883 36.9702C368.883 37.1733 368.806 37.3472 368.653 37.4918C368.502 37.6365 368.32 37.7088 368.108 37.7088ZM370.925 41.7344L370.223 46H369.134L370.316 38.9091H371.368L371.183 40.017H371.276C371.497 39.657 371.797 39.3677 372.176 39.1491C372.555 38.9276 373.012 38.8168 373.547 38.8168C374.021 38.8168 374.421 38.9152 374.747 39.1122C375.077 39.3061 375.309 39.6016 375.445 39.9986C375.583 40.3925 375.603 40.8911 375.505 41.4943L374.747 46H373.658L374.397 41.5682C374.489 41.0142 374.417 40.5803 374.18 40.2663C373.946 39.9524 373.575 39.7955 373.067 39.7955C372.716 39.7955 372.391 39.8709 372.093 40.0217C371.797 40.1725 371.547 40.3925 371.34 40.6818C371.137 40.9711 370.999 41.322 370.925 41.7344ZM381.004 38.9091L380.856 39.8324H377.181L377.329 38.9091H381.004ZM378.677 37.2102H379.767L378.64 43.9687C378.591 44.2765 378.599 44.5073 378.663 44.6612C378.731 44.812 378.833 44.9136 378.968 44.9659C379.107 45.0152 379.256 45.0398 379.416 45.0398C379.536 45.0398 379.634 45.0336 379.711 45.0213C379.788 45.0059 379.85 44.9936 379.896 44.9844L379.97 45.9631C379.887 45.9908 379.774 46.0185 379.633 46.0462C379.494 46.0769 379.324 46.0923 379.12 46.0923C378.813 46.0923 378.523 46.0262 378.252 45.8938C377.982 45.7615 377.774 45.5599 377.629 45.2891C377.485 45.0182 377.446 44.6766 377.514 44.2642L378.677 37.2102ZM384.339 46.1477C383.659 46.1477 383.097 45.9969 382.654 45.6953C382.211 45.3906 381.902 44.9659 381.726 44.4212C381.551 43.8733 381.523 43.2363 381.643 42.5099C381.763 41.7836 382.002 41.1435 382.359 40.5895C382.716 40.0324 383.161 39.5985 383.693 39.2876C384.225 38.9737 384.81 38.8168 385.447 38.8168C385.817 38.8168 386.172 38.8783 386.514 39.0014C386.855 39.1245 387.151 39.3246 387.4 39.6016C387.649 39.8755 387.823 40.2386 387.922 40.6911C388.02 41.1435 388.014 41.7005 387.903 42.3622L387.829 42.8239H382.363L382.511 41.8821H386.869C386.94 41.482 386.921 41.125 386.814 40.8111C386.709 40.4972 386.526 40.2494 386.264 40.0678C386.006 39.8862 385.678 39.7955 385.281 39.7955C384.872 39.7955 384.49 39.9062 384.136 40.1278C383.782 40.3464 383.487 40.6233 383.25 40.9588C383.013 41.2912 382.865 41.6297 382.807 41.9744L382.677 42.7869C382.585 43.3748 382.599 43.8426 382.719 44.1903C382.842 44.5381 383.056 44.7889 383.361 44.9428C383.665 45.0936 384.047 45.169 384.505 45.169C384.798 45.169 385.067 45.129 385.313 45.049C385.56 44.9659 385.78 44.8428 385.974 44.6797C386.167 44.5135 386.331 44.3073 386.463 44.0611L387.46 44.3565C387.291 44.7135 387.052 45.0275 386.744 45.2983C386.44 45.5661 386.083 45.7753 385.673 45.9261C385.267 46.0739 384.822 46.1477 384.339 46.1477ZM388.977 46L390.158 38.9091H391.211L391.026 39.9801H391.1C391.285 39.6293 391.566 39.3446 391.945 39.1261C392.324 38.9076 392.725 38.7983 393.15 38.7983C393.233 38.7983 393.333 38.7998 393.45 38.8029C393.567 38.8029 393.658 38.8075 393.722 38.8168L393.538 39.9247C393.501 39.9155 393.418 39.9016 393.288 39.8832C393.159 39.8616 393.021 39.8509 392.873 39.8509C392.528 39.8509 392.21 39.9232 391.917 40.0678C391.625 40.2094 391.38 40.4064 391.183 40.6587C390.986 40.908 390.86 41.1927 390.805 41.5128L390.066 46H388.977ZM398.623 38.9091L398.475 39.8324H394.653L394.8 38.9091H398.623ZM394.763 46L396.111 37.9304C396.173 37.5241 396.321 37.1856 396.555 36.9148C396.791 36.6439 397.073 36.4408 397.399 36.3054C397.729 36.17 398.063 36.1023 398.401 36.1023C398.669 36.1023 398.883 36.1238 399.043 36.1669C399.206 36.21 399.324 36.25 399.398 36.2869L398.937 37.2287C398.881 37.2102 398.807 37.1871 398.715 37.1594C398.626 37.1317 398.503 37.1179 398.346 37.1179C397.986 37.1179 397.712 37.2087 397.524 37.3903C397.336 37.5719 397.21 37.8381 397.145 38.1889L395.853 46H394.763ZM400.833 46.1662C400.383 46.1662 399.99 46.0816 399.651 45.9123C399.312 45.7399 399.062 45.4922 398.899 45.169C398.735 44.8428 398.691 44.4489 398.765 43.9872C398.835 43.581 398.972 43.2517 399.176 42.9993C399.379 42.7438 399.625 42.5438 399.914 42.3991C400.207 42.2514 400.52 42.1422 400.856 42.0714C401.194 41.9975 401.531 41.9406 401.867 41.9006C402.304 41.8452 402.659 41.8021 402.933 41.7713C403.207 41.7405 403.413 41.6897 403.552 41.619C403.69 41.5482 403.775 41.4266 403.806 41.2543V41.2173C403.88 40.7649 403.82 40.4125 403.626 40.1602C403.432 39.9047 403.086 39.777 402.587 39.777C402.07 39.777 401.638 39.8909 401.29 40.1186C400.942 40.3464 400.685 40.5895 400.519 40.848L399.559 40.4787C399.811 40.0478 400.113 39.7124 400.464 39.4723C400.814 39.2292 401.182 39.0599 401.567 38.9645C401.952 38.866 402.322 38.8168 402.679 38.8168C402.907 38.8168 403.164 38.8445 403.45 38.8999C403.737 38.9522 404.004 39.0614 404.254 39.2276C404.506 39.3938 404.695 39.6446 404.821 39.9801C404.951 40.3156 404.969 40.7649 404.877 41.3281L404.101 46H403.012L403.178 45.0398H403.123C403.024 45.1937 402.873 45.3583 402.67 45.5337C402.47 45.7092 402.216 45.8584 401.908 45.9815C401.604 46.1046 401.245 46.1662 400.833 46.1662ZM401.147 45.1875C401.578 45.1875 401.955 45.1029 402.278 44.9336C402.604 44.7643 402.866 44.5458 403.063 44.2781C403.263 44.0103 403.387 43.7287 403.437 43.4332L403.603 42.4361C403.547 42.4915 403.438 42.5423 403.275 42.5884C403.112 42.6315 402.927 42.67 402.721 42.7038C402.518 42.7346 402.319 42.7623 402.125 42.7869C401.935 42.8085 401.781 42.8269 401.664 42.8423C401.374 42.8793 401.099 42.9393 400.837 43.0224C400.579 43.1024 400.36 43.224 400.182 43.3871C400.006 43.5471 399.897 43.7656 399.854 44.0426C399.789 44.4212 399.88 44.7074 400.127 44.9013C400.373 45.0921 400.713 45.1875 401.147 45.1875ZM408.952 46.1477C408.284 46.1477 407.736 45.9908 407.309 45.6768C406.884 45.3629 406.588 44.9305 406.422 44.3796C406.256 43.8287 406.231 43.1993 406.348 42.4915C406.465 41.7713 406.702 41.1358 407.059 40.5849C407.416 40.0309 407.861 39.5985 408.393 39.2876C408.926 38.9737 409.512 38.8168 410.152 38.8168C410.651 38.8168 411.085 38.9091 411.454 39.0937C411.824 39.2784 412.108 39.5369 412.308 39.8693C412.508 40.2017 412.602 40.5895 412.59 41.0327H411.5C411.47 40.7095 411.331 40.4233 411.085 40.174C410.842 39.9216 410.482 39.7955 410.005 39.7955C409.58 39.7955 409.189 39.9062 408.832 40.1278C408.475 40.3464 408.175 40.6557 407.932 41.0558C407.689 41.4528 407.524 41.919 407.438 42.4545C407.346 43.0024 407.353 43.4794 407.461 43.8857C407.569 44.2919 407.764 44.6074 408.047 44.832C408.33 45.0567 408.687 45.169 409.118 45.169C409.401 45.169 409.666 45.1198 409.912 45.0213C410.158 44.9228 410.377 44.7812 410.568 44.5966C410.759 44.4119 410.909 44.1903 411.02 43.9318H412.11C411.974 44.3504 411.757 44.7274 411.459 45.0629C411.16 45.3952 410.799 45.6599 410.374 45.8569C409.949 46.0508 409.475 46.1477 408.952 46.1477ZM416.306 46.1477C415.626 46.1477 415.064 45.9969 414.621 45.6953C414.178 45.3906 413.869 44.9659 413.693 44.4212C413.518 43.8733 413.49 43.2363 413.61 42.5099C413.73 41.7836 413.969 41.1435 414.326 40.5895C414.683 40.0324 415.127 39.5985 415.66 39.2876C416.192 38.9737 416.777 38.8168 417.414 38.8168C417.783 38.8168 418.139 38.8783 418.48 39.0014C418.822 39.1245 419.118 39.3246 419.367 39.6016C419.616 39.8755 419.79 40.2386 419.888 40.6911C419.987 41.1435 419.981 41.7005 419.87 42.3622L419.796 42.8239H414.33L414.478 41.8821H418.836C418.907 41.482 418.888 41.125 418.781 40.8111C418.676 40.4972 418.493 40.2494 418.231 40.0678C417.973 39.8862 417.645 39.7955 417.248 39.7955C416.839 39.7955 416.457 39.9062 416.103 40.1278C415.749 40.3464 415.454 40.6233 415.217 40.9588C414.98 41.2912 414.832 41.6297 414.773 41.9744L414.644 42.7869C414.552 43.3748 414.566 43.8426 414.686 44.1903C414.809 44.5381 415.023 44.7889 415.327 44.9428C415.632 45.0936 416.014 45.169 416.472 45.169C416.765 45.169 417.034 45.129 417.28 45.049C417.526 44.9659 417.746 44.8428 417.94 44.6797C418.134 44.5135 418.297 44.3073 418.43 44.0611L419.427 44.3565C419.258 44.7135 419.019 45.0275 418.711 45.2983C418.407 45.5661 418.05 45.7753 417.64 45.9261C417.234 46.0739 416.789 46.1477 416.306 46.1477Z" fill="black"/>
</svg>
