<svg width="1027" height="316" viewBox="0 0 1027 316" fill="none" xmlns="http://www.w3.org/2000/svg">
<rect x="734.5" y="0.5" width="292" height="315" rx="9.5" stroke="black" stroke-dasharray="2 2"/>
<rect x="767.5" y="71.5" width="227" height="204" rx="9.5" stroke="black"/>
<rect x="792.5" y="138.5" width="35" height="87" rx="4.5" stroke="black"/>
<rect x="839.5" y="138.5" width="35" height="87" rx="4.5" stroke="black"/>
<rect x="886.5" y="138.5" width="35" height="87" rx="4.5" stroke="black"/>
<rect x="933.5" y="138.5" width="35" height="87" rx="4.5" stroke="black"/>
<path d="M840.278 260V248.364H844.426C845.328 248.364 846.076 248.519 846.67 248.83C847.269 249.14 847.716 249.57 848.011 250.119C848.307 250.665 848.455 251.295 848.455 252.011C848.455 252.723 848.305 253.35 848.006 253.892C847.71 254.43 847.263 254.848 846.665 255.148C846.07 255.447 845.322 255.597 844.42 255.597H841.278V254.085H844.261C844.83 254.085 845.292 254.004 845.648 253.841C846.008 253.678 846.271 253.441 846.438 253.131C846.604 252.82 846.688 252.447 846.688 252.011C846.688 251.572 846.602 251.191 846.432 250.869C846.265 250.547 846.002 250.301 845.642 250.131C845.286 249.956 844.818 249.869 844.239 249.869H842.034V260H840.278ZM846.023 254.75L848.898 260H846.898L844.08 254.75H846.023ZM855.983 256.381V251.273H857.688V260H856.017V258.489H855.926C855.725 258.955 855.403 259.343 854.96 259.653C854.521 259.96 853.973 260.114 853.318 260.114C852.758 260.114 852.261 259.991 851.83 259.744C851.402 259.494 851.064 259.125 850.818 258.636C850.576 258.148 850.455 257.544 850.455 256.824V251.273H852.153V256.619C852.153 257.214 852.318 257.687 852.648 258.04C852.977 258.392 853.405 258.568 853.932 258.568C854.25 258.568 854.566 258.489 854.881 258.33C855.199 258.17 855.462 257.93 855.67 257.608C855.883 257.286 855.987 256.877 855.983 256.381ZM861.669 254.818V260H859.97V251.273H861.601V252.693H861.709C861.91 252.231 862.224 251.86 862.652 251.58C863.084 251.299 863.627 251.159 864.283 251.159C864.877 251.159 865.398 251.284 865.845 251.534C866.292 251.78 866.639 252.148 866.885 252.636C867.131 253.125 867.254 253.729 867.254 254.449V260H865.555V254.653C865.555 254.021 865.391 253.527 865.061 253.17C864.732 252.811 864.279 252.631 863.703 252.631C863.309 252.631 862.959 252.716 862.652 252.886C862.349 253.057 862.108 253.307 861.93 253.636C861.756 253.962 861.669 254.356 861.669 254.818ZM873.607 251.273V252.636H868.839V251.273H873.607ZM870.118 249.182H871.817V257.438C871.817 257.767 871.866 258.015 871.964 258.182C872.063 258.345 872.19 258.456 872.345 258.517C872.504 258.574 872.677 258.602 872.862 258.602C872.999 258.602 873.118 258.593 873.22 258.574C873.322 258.555 873.402 258.54 873.459 258.528L873.766 259.932C873.667 259.97 873.527 260.008 873.345 260.045C873.163 260.087 872.936 260.11 872.663 260.114C872.216 260.121 871.8 260.042 871.413 259.875C871.027 259.708 870.714 259.451 870.476 259.102C870.237 258.754 870.118 258.316 870.118 257.79V249.182ZM875.486 260V251.273H877.185V260H875.486ZM876.344 249.926C876.048 249.926 875.795 249.828 875.582 249.631C875.374 249.43 875.27 249.191 875.27 248.915C875.27 248.634 875.374 248.396 875.582 248.199C875.795 247.998 876.048 247.898 876.344 247.898C876.639 247.898 876.891 247.998 877.099 248.199C877.312 248.396 877.418 248.634 877.418 248.915C877.418 249.191 877.312 249.43 877.099 249.631C876.891 249.828 876.639 249.926 876.344 249.926ZM879.47 260V251.273H881.101V252.693H881.209C881.391 252.212 881.688 251.837 882.101 251.568C882.514 251.295 883.008 251.159 883.584 251.159C884.167 251.159 884.656 251.295 885.05 251.568C885.447 251.841 885.741 252.216 885.93 252.693H886.021C886.23 252.227 886.561 251.856 887.016 251.58C887.47 251.299 888.012 251.159 888.641 251.159C889.432 251.159 890.078 251.407 890.578 251.903C891.082 252.4 891.334 253.148 891.334 254.148V260H889.635V254.307C889.635 253.716 889.474 253.288 889.152 253.023C888.83 252.758 888.446 252.625 887.999 252.625C887.446 252.625 887.016 252.795 886.709 253.136C886.402 253.473 886.249 253.907 886.249 254.438V260H884.555V254.199C884.555 253.725 884.408 253.345 884.112 253.057C883.817 252.769 883.432 252.625 882.959 252.625C882.637 252.625 882.339 252.71 882.067 252.881C881.798 253.047 881.58 253.28 881.413 253.58C881.25 253.879 881.169 254.225 881.169 254.619V260H879.47ZM897.372 260.176C896.512 260.176 895.772 259.992 895.151 259.625C894.533 259.254 894.056 258.733 893.719 258.062C893.385 257.388 893.219 256.598 893.219 255.693C893.219 254.799 893.385 254.011 893.719 253.33C894.056 252.648 894.526 252.116 895.128 251.733C895.734 251.35 896.442 251.159 897.253 251.159C897.745 251.159 898.223 251.241 898.685 251.403C899.147 251.566 899.562 251.822 899.929 252.17C900.296 252.519 900.586 252.972 900.798 253.528C901.01 254.081 901.116 254.754 901.116 255.545V256.148H894.179V254.875H899.452C899.452 254.428 899.361 254.032 899.179 253.688C898.997 253.339 898.741 253.064 898.412 252.864C898.086 252.663 897.704 252.562 897.264 252.562C896.787 252.562 896.37 252.68 896.014 252.915C895.662 253.146 895.389 253.449 895.196 253.824C895.007 254.195 894.912 254.598 894.912 255.034V256.028C894.912 256.612 895.014 257.108 895.219 257.517C895.427 257.926 895.717 258.239 896.088 258.455C896.459 258.667 896.893 258.773 897.389 258.773C897.711 258.773 898.005 258.727 898.27 258.636C898.535 258.542 898.764 258.402 898.957 258.216C899.151 258.03 899.298 257.801 899.401 257.528L901.009 257.818C900.88 258.292 900.649 258.706 900.315 259.062C899.986 259.415 899.571 259.689 899.071 259.886C898.575 260.08 898.009 260.176 897.372 260.176ZM909.541 253.403L908.001 253.676C907.937 253.479 907.835 253.292 907.695 253.114C907.558 252.936 907.373 252.79 907.138 252.676C906.903 252.562 906.609 252.506 906.257 252.506C905.776 252.506 905.375 252.614 905.053 252.83C904.731 253.042 904.57 253.316 904.57 253.653C904.57 253.945 904.678 254.18 904.893 254.358C905.109 254.536 905.458 254.682 905.939 254.795L907.325 255.114C908.128 255.299 908.727 255.585 909.121 255.972C909.515 256.358 909.712 256.86 909.712 257.477C909.712 258 909.56 258.466 909.257 258.875C908.958 259.28 908.539 259.598 908.001 259.83C907.467 260.061 906.848 260.176 906.143 260.176C905.166 260.176 904.369 259.968 903.751 259.551C903.134 259.131 902.755 258.534 902.615 257.761L904.257 257.511C904.359 257.939 904.57 258.263 904.888 258.483C905.206 258.699 905.621 258.807 906.132 258.807C906.689 258.807 907.134 258.691 907.467 258.46C907.801 258.225 907.967 257.939 907.967 257.602C907.967 257.33 907.865 257.1 907.661 256.915C907.46 256.729 907.151 256.589 906.734 256.494L905.257 256.17C904.443 255.985 903.84 255.689 903.45 255.284C903.064 254.879 902.871 254.366 902.871 253.744C902.871 253.229 903.015 252.778 903.303 252.392C903.59 252.006 903.988 251.705 904.496 251.489C905.003 251.269 905.585 251.159 906.24 251.159C907.183 251.159 907.926 251.364 908.467 251.773C909.009 252.178 909.367 252.722 909.541 253.403Z" fill="black"/>
<path d="M850.278 88.4375H847.79C847.744 88.1155 847.652 87.8295 847.511 87.5795C847.371 87.3258 847.191 87.1098 846.972 86.9318C846.752 86.7538 846.498 86.6174 846.21 86.5227C845.926 86.428 845.617 86.3807 845.284 86.3807C844.682 86.3807 844.157 86.5303 843.71 86.8295C843.263 87.125 842.917 87.5568 842.67 88.125C842.424 88.6894 842.301 89.375 842.301 90.1818C842.301 91.0114 842.424 91.7083 842.67 92.2727C842.92 92.8371 843.269 93.2633 843.716 93.5511C844.163 93.839 844.68 93.983 845.267 93.983C845.597 93.983 845.902 93.9394 846.182 93.8523C846.466 93.7652 846.718 93.6383 846.938 93.4716C847.157 93.3011 847.339 93.0947 847.483 92.8523C847.631 92.6098 847.733 92.3333 847.79 92.0227L850.278 92.0341C850.214 92.5682 850.053 93.0833 849.795 93.5795C849.542 94.072 849.199 94.5133 848.767 94.9034C848.339 95.2898 847.828 95.5966 847.233 95.8239C846.642 96.0473 845.973 96.1591 845.227 96.1591C844.189 96.1591 843.261 95.9242 842.443 95.4545C841.629 94.9848 840.985 94.3049 840.511 93.4148C840.042 92.5246 839.807 91.447 839.807 90.1818C839.807 88.9129 840.045 87.8333 840.523 86.9432C841 86.053 841.648 85.375 842.466 84.9091C843.284 84.4394 844.205 84.2045 845.227 84.2045C845.902 84.2045 846.527 84.2992 847.102 84.4886C847.682 84.678 848.195 84.9545 848.642 85.3182C849.089 85.678 849.453 86.1193 849.733 86.642C850.017 87.1648 850.199 87.7633 850.278 88.4375ZM855.94 96.1705C855.058 96.1705 854.295 95.983 853.651 95.608C853.01 95.2292 852.516 94.7027 852.168 94.0284C851.819 93.3504 851.645 92.5644 851.645 91.6705C851.645 90.7689 851.819 89.9811 852.168 89.3068C852.516 88.6288 853.01 88.1023 853.651 87.7273C854.295 87.3485 855.058 87.1591 855.94 87.1591C856.823 87.1591 857.584 87.3485 858.224 87.7273C858.868 88.1023 859.365 88.6288 859.713 89.3068C860.062 89.9811 860.236 90.7689 860.236 91.6705C860.236 92.5644 860.062 93.3504 859.713 94.0284C859.365 94.7027 858.868 95.2292 858.224 95.608C857.584 95.983 856.823 96.1705 855.94 96.1705ZM855.952 94.2955C856.353 94.2955 856.688 94.1818 856.957 93.9545C857.226 93.7235 857.429 93.4091 857.565 93.0114C857.705 92.6136 857.776 92.161 857.776 91.6534C857.776 91.1458 857.705 90.6932 857.565 90.2955C857.429 89.8977 857.226 89.5833 856.957 89.3523C856.688 89.1212 856.353 89.0057 855.952 89.0057C855.546 89.0057 855.205 89.1212 854.929 89.3523C854.656 89.5833 854.45 89.8977 854.31 90.2955C854.173 90.6932 854.105 91.1458 854.105 91.6534C854.105 92.161 854.173 92.6136 854.31 93.0114C854.45 93.4091 854.656 93.7235 854.929 93.9545C855.205 94.1818 855.546 94.2955 855.952 94.2955ZM861.81 96V87.2727H864.116V88.8125H864.219C864.401 88.3011 864.704 87.8977 865.128 87.6023C865.552 87.3068 866.06 87.1591 866.651 87.1591C867.249 87.1591 867.759 87.3087 868.179 87.608C868.599 87.9034 868.88 88.3049 869.02 88.8125H869.111C869.289 88.3125 869.611 87.9129 870.077 87.6136C870.546 87.3106 871.101 87.1591 871.741 87.1591C872.556 87.1591 873.217 87.4186 873.724 87.9375C874.236 88.4527 874.491 89.1837 874.491 90.1307V96H872.077V90.608C872.077 90.1231 871.948 89.7595 871.69 89.517C871.433 89.2746 871.111 89.1534 870.724 89.1534C870.285 89.1534 869.942 89.2936 869.696 89.5739C869.45 89.8504 869.327 90.2159 869.327 90.6705V96H866.98V90.5568C866.98 90.1288 866.857 89.7879 866.611 89.5341C866.368 89.2803 866.048 89.1534 865.651 89.1534C865.382 89.1534 865.139 89.2216 864.923 89.358C864.711 89.4905 864.543 89.678 864.418 89.9205C864.293 90.1591 864.23 90.4394 864.23 90.7614V96H861.81ZM876.403 99.2727V87.2727H878.79V88.7386H878.898C879.004 88.5038 879.157 88.2652 879.358 88.0227C879.563 87.7765 879.828 87.572 880.153 87.4091C880.483 87.2424 880.892 87.1591 881.381 87.1591C882.017 87.1591 882.604 87.3258 883.142 87.6591C883.68 87.9886 884.11 88.4867 884.432 89.1534C884.754 89.8163 884.915 90.6477 884.915 91.6477C884.915 92.6212 884.758 93.4432 884.443 94.1136C884.133 94.7803 883.708 95.286 883.17 95.6307C882.636 95.9716 882.038 96.142 881.375 96.142C880.905 96.142 880.506 96.0644 880.176 95.9091C879.85 95.7538 879.583 95.5587 879.375 95.3239C879.167 95.0852 879.008 94.8447 878.898 94.6023H878.824V99.2727H876.403ZM878.773 91.6364C878.773 92.1553 878.845 92.608 878.989 92.9943C879.133 93.3807 879.341 93.6818 879.614 93.8977C879.886 94.1098 880.218 94.2159 880.608 94.2159C881.002 94.2159 881.335 94.108 881.608 93.892C881.881 93.6723 882.087 93.3693 882.227 92.983C882.371 92.5928 882.443 92.1439 882.443 91.6364C882.443 91.1326 882.373 90.6894 882.233 90.3068C882.093 89.9242 881.886 89.625 881.614 89.4091C881.341 89.1932 881.006 89.0852 880.608 89.0852C880.214 89.0852 879.881 89.1894 879.608 89.3977C879.339 89.6061 879.133 89.9015 878.989 90.2841C878.845 90.6667 878.773 91.1174 878.773 91.6364ZM890.472 96.1705C889.589 96.1705 888.826 95.983 888.182 95.608C887.542 95.2292 887.047 94.7027 886.699 94.0284C886.35 93.3504 886.176 92.5644 886.176 91.6705C886.176 90.7689 886.35 89.9811 886.699 89.3068C887.047 88.6288 887.542 88.1023 888.182 87.7273C888.826 87.3485 889.589 87.1591 890.472 87.1591C891.354 87.1591 892.116 87.3485 892.756 87.7273C893.4 88.1023 893.896 88.6288 894.244 89.3068C894.593 89.9811 894.767 90.7689 894.767 91.6705C894.767 92.5644 894.593 93.3504 894.244 94.0284C893.896 94.7027 893.4 95.2292 892.756 95.608C892.116 95.983 891.354 96.1705 890.472 96.1705ZM890.483 94.2955C890.884 94.2955 891.22 94.1818 891.489 93.9545C891.758 93.7235 891.96 93.4091 892.097 93.0114C892.237 92.6136 892.307 92.161 892.307 91.6534C892.307 91.1458 892.237 90.6932 892.097 90.2955C891.96 89.8977 891.758 89.5833 891.489 89.3523C891.22 89.1212 890.884 89.0057 890.483 89.0057C890.078 89.0057 889.737 89.1212 889.46 89.3523C889.188 89.5833 888.981 89.8977 888.841 90.2955C888.705 90.6932 888.636 91.1458 888.636 91.6534C888.636 92.161 888.705 92.6136 888.841 93.0114C888.981 93.4091 889.188 93.7235 889.46 93.9545C889.737 94.1818 890.078 94.2955 890.483 94.2955ZM898.761 90.9545V96H896.341V87.2727H898.648V88.8125H898.75C898.943 88.3049 899.267 87.9034 899.722 87.608C900.176 87.3087 900.727 87.1591 901.375 87.1591C901.981 87.1591 902.509 87.2917 902.96 87.5568C903.411 87.822 903.761 88.2008 904.011 88.6932C904.261 89.1818 904.386 89.7652 904.386 90.4432V96H901.966V90.875C901.97 90.3409 901.833 89.9242 901.557 89.625C901.28 89.322 900.9 89.1705 900.415 89.1705C900.089 89.1705 899.801 89.2405 899.551 89.3807C899.305 89.5208 899.112 89.7254 898.972 89.9943C898.835 90.2595 898.765 90.5795 898.761 90.9545ZM910.271 96.1705C909.374 96.1705 908.601 95.9886 907.953 95.625C907.309 95.2576 906.813 94.7386 906.464 94.0682C906.116 93.3939 905.942 92.5966 905.942 91.6761C905.942 90.7784 906.116 89.9905 906.464 89.3125C906.813 88.6345 907.304 88.1061 907.936 87.7273C908.572 87.3485 909.319 87.1591 910.175 87.1591C910.75 87.1591 911.286 87.2519 911.783 87.4375C912.283 87.6193 912.718 87.8939 913.089 88.2614C913.464 88.6288 913.756 89.0909 913.964 89.6477C914.173 90.2008 914.277 90.8485 914.277 91.5909V92.2557H906.908V90.7557H911.999C911.999 90.4072 911.923 90.0985 911.771 89.8295C911.62 89.5606 911.41 89.3504 911.141 89.1989C910.875 89.0436 910.567 88.9659 910.214 88.9659C909.847 88.9659 909.521 89.0511 909.237 89.2216C908.957 89.3883 908.737 89.6136 908.578 89.8977C908.419 90.178 908.338 90.4905 908.334 90.8352V92.2614C908.334 92.6932 908.413 93.0663 908.572 93.3807C908.735 93.6951 908.964 93.9375 909.26 94.108C909.555 94.2784 909.906 94.3636 910.311 94.3636C910.58 94.3636 910.826 94.3258 911.05 94.25C911.273 94.1742 911.464 94.0606 911.624 93.9091C911.783 93.7576 911.904 93.572 911.987 93.3523L914.226 93.5C914.112 94.0379 913.879 94.5076 913.527 94.9091C913.179 95.3068 912.728 95.6174 912.175 95.8409C911.625 96.0606 910.991 96.1705 910.271 96.1705ZM918.277 90.9545V96H915.857V87.2727H918.163V88.8125H918.266C918.459 88.3049 918.783 87.9034 919.237 87.608C919.692 87.3087 920.243 87.1591 920.891 87.1591C921.497 87.1591 922.025 87.2917 922.476 87.5568C922.927 87.822 923.277 88.2008 923.527 88.6932C923.777 89.1818 923.902 89.7652 923.902 90.4432V96H921.482V90.875C921.485 90.3409 921.349 89.9242 921.072 89.625C920.796 89.322 920.415 89.1705 919.93 89.1705C919.605 89.1705 919.317 89.2405 919.067 89.3807C918.821 89.5208 918.627 89.7254 918.487 89.9943C918.351 90.2595 918.281 90.5795 918.277 90.9545ZM930.452 87.2727V89.0909H925.196V87.2727H930.452ZM926.389 85.1818H928.81V93.3182C928.81 93.5417 928.844 93.7159 928.912 93.8409C928.98 93.9621 929.075 94.0473 929.196 94.0966C929.321 94.1458 929.465 94.1705 929.628 94.1705C929.741 94.1705 929.855 94.161 929.969 94.142C930.082 94.1193 930.17 94.1023 930.23 94.0909L930.611 95.892C930.49 95.9299 930.319 95.9735 930.099 96.0227C929.88 96.0758 929.613 96.108 929.298 96.1193C928.715 96.142 928.204 96.0644 927.764 95.8864C927.329 95.7083 926.99 95.4318 926.747 95.0568C926.505 94.6818 926.385 94.2083 926.389 93.6364V85.1818Z" fill="black"/>
<path d="M863.278 19.4375H860.79C860.744 19.1155 860.652 18.8295 860.511 18.5795C860.371 18.3258 860.191 18.1098 859.972 17.9318C859.752 17.7538 859.498 17.6174 859.21 17.5227C858.926 17.428 858.617 17.3807 858.284 17.3807C857.682 17.3807 857.157 17.5303 856.71 17.8295C856.263 18.125 855.917 18.5568 855.67 19.125C855.424 19.6894 855.301 20.375 855.301 21.1818C855.301 22.0114 855.424 22.7083 855.67 23.2727C855.92 23.8371 856.269 24.2633 856.716 24.5511C857.163 24.839 857.68 24.983 858.267 24.983C858.597 24.983 858.902 24.9394 859.182 24.8523C859.466 24.7652 859.718 24.6383 859.938 24.4716C860.157 24.3011 860.339 24.0947 860.483 23.8523C860.631 23.6098 860.733 23.3333 860.79 23.0227L863.278 23.0341C863.214 23.5682 863.053 24.0833 862.795 24.5795C862.542 25.072 862.199 25.5133 861.767 25.9034C861.339 26.2898 860.828 26.5966 860.233 26.8239C859.642 27.0473 858.973 27.1591 858.227 27.1591C857.189 27.1591 856.261 26.9242 855.443 26.4545C854.629 25.9848 853.985 25.3049 853.511 24.4148C853.042 23.5246 852.807 22.447 852.807 21.1818C852.807 19.9129 853.045 18.8333 853.523 17.9432C854 17.053 854.648 16.375 855.466 15.9091C856.284 15.4394 857.205 15.2045 858.227 15.2045C858.902 15.2045 859.527 15.2992 860.102 15.4886C860.682 15.678 861.195 15.9545 861.642 16.3182C862.089 16.678 862.453 17.1193 862.733 17.642C863.017 18.1648 863.199 18.7633 863.278 19.4375ZM867.418 15.3636V27H864.997V15.3636H867.418ZM874.953 23.2841V18.2727H877.374V27H875.05V25.4148H874.959C874.762 25.9261 874.434 26.3371 873.976 26.6477C873.521 26.9583 872.966 27.1136 872.311 27.1136C871.728 27.1136 871.214 26.9811 870.771 26.7159C870.328 26.4508 869.982 26.0739 869.732 25.5852C869.485 25.0966 869.36 24.5114 869.357 23.8295V18.2727H871.777V23.3977C871.781 23.9129 871.919 24.3201 872.192 24.6193C872.464 24.9186 872.83 25.0682 873.288 25.0682C873.58 25.0682 873.853 25.0019 874.107 24.8693C874.36 24.733 874.565 24.5322 874.72 24.267C874.879 24.0019 874.957 23.6742 874.953 23.2841ZM886.571 20.7614L884.355 20.8977C884.317 20.7083 884.236 20.5379 884.111 20.3864C883.986 20.2311 883.821 20.108 883.616 20.017C883.416 19.9223 883.175 19.875 882.895 19.875C882.52 19.875 882.204 19.9545 881.946 20.1136C881.688 20.2689 881.56 20.4773 881.56 20.7386C881.56 20.947 881.643 21.1231 881.81 21.267C881.976 21.411 882.262 21.5265 882.668 21.6136L884.247 21.9318C885.096 22.1061 885.728 22.3864 886.145 22.7727C886.562 23.1591 886.77 23.6667 886.77 24.2955C886.77 24.8674 886.601 25.3693 886.264 25.8011C885.931 26.233 885.473 26.5701 884.889 26.8125C884.31 27.0511 883.641 27.1705 882.884 27.1705C881.728 27.1705 880.808 26.9299 880.122 26.4489C879.44 25.964 879.041 25.3049 878.923 24.4716L881.304 24.3466C881.376 24.6989 881.55 24.9678 881.827 25.1534C882.103 25.3352 882.457 25.4261 882.889 25.4261C883.313 25.4261 883.654 25.3447 883.912 25.1818C884.173 25.0152 884.306 24.8011 884.31 24.5398C884.306 24.3201 884.213 24.1402 884.031 24C883.849 23.8561 883.569 23.7462 883.19 23.6705L881.679 23.3693C880.827 23.1989 880.192 22.9034 879.776 22.483C879.363 22.0625 879.156 21.5265 879.156 20.875C879.156 20.3144 879.308 19.8314 879.611 19.4261C879.918 19.0208 880.348 18.7083 880.901 18.4886C881.457 18.2689 882.109 18.1591 882.855 18.1591C883.957 18.1591 884.825 18.392 885.457 18.858C886.094 19.3239 886.465 19.9583 886.571 20.7614ZM892.936 18.2727V20.0909H887.68V18.2727H892.936ZM888.874 16.1818H891.294V24.3182C891.294 24.5417 891.328 24.7159 891.396 24.8409C891.464 24.9621 891.559 25.0473 891.68 25.0966C891.805 25.1458 891.949 25.1705 892.112 25.1705C892.226 25.1705 892.339 25.161 892.453 25.142C892.567 25.1193 892.654 25.1023 892.714 25.0909L893.095 26.892C892.974 26.9299 892.804 26.9735 892.584 27.0227C892.364 27.0758 892.097 27.108 891.783 27.1193C891.199 27.142 890.688 27.0644 890.249 26.8864C889.813 26.7083 889.474 26.4318 889.232 26.0568C888.989 25.6818 888.87 25.2083 888.874 24.6364V16.1818ZM898.396 27.1705C897.499 27.1705 896.726 26.9886 896.078 26.625C895.434 26.2576 894.938 25.7386 894.589 25.0682C894.241 24.3939 894.067 23.5966 894.067 22.6761C894.067 21.7784 894.241 20.9905 894.589 20.3125C894.938 19.6345 895.429 19.1061 896.061 18.7273C896.697 18.3485 897.444 18.1591 898.3 18.1591C898.875 18.1591 899.411 18.2519 899.908 18.4375C900.408 18.6193 900.843 18.8939 901.214 19.2614C901.589 19.6288 901.881 20.0909 902.089 20.6477C902.298 21.2008 902.402 21.8485 902.402 22.5909V23.2557H895.033V21.7557H900.124C900.124 21.4072 900.048 21.0985 899.896 20.8295C899.745 20.5606 899.535 20.3504 899.266 20.1989C899 20.0436 898.692 19.9659 898.339 19.9659C897.972 19.9659 897.646 20.0511 897.362 20.2216C897.082 20.3883 896.862 20.6136 896.703 20.8977C896.544 21.178 896.463 21.4905 896.459 21.8352V23.2614C896.459 23.6932 896.538 24.0663 896.697 24.3807C896.86 24.6951 897.089 24.9375 897.385 25.108C897.68 25.2784 898.031 25.3636 898.436 25.3636C898.705 25.3636 898.951 25.3258 899.175 25.25C899.398 25.1742 899.589 25.0606 899.749 24.9091C899.908 24.7576 900.029 24.572 900.112 24.3523L902.351 24.5C902.237 25.0379 902.004 25.5076 901.652 25.9091C901.304 26.3068 900.853 26.6174 900.3 26.8409C899.75 27.0606 899.116 27.1705 898.396 27.1705ZM903.982 27V18.2727H906.328V19.7955H906.419C906.578 19.2538 906.845 18.8447 907.22 18.5682C907.595 18.2879 908.027 18.1477 908.516 18.1477C908.637 18.1477 908.768 18.1553 908.908 18.1705C909.048 18.1856 909.171 18.2064 909.277 18.233V20.3807C909.163 20.3466 909.006 20.3163 908.805 20.2898C908.605 20.2633 908.421 20.25 908.254 20.25C907.898 20.25 907.58 20.3277 907.3 20.483C907.023 20.6345 906.804 20.8466 906.641 21.1193C906.482 21.392 906.402 21.7064 906.402 22.0625V27H903.982Z" fill="black"/>
<rect x="343.5" y="45.5" width="227" height="225" rx="9.5" stroke="black"/>
<path d="M425.278 234V222.364H429.426C430.328 222.364 431.076 222.519 431.67 222.83C432.269 223.14 432.716 223.57 433.011 224.119C433.307 224.665 433.455 225.295 433.455 226.011C433.455 226.723 433.305 227.35 433.006 227.892C432.71 228.43 432.263 228.848 431.665 229.148C431.07 229.447 430.322 229.597 429.42 229.597H426.278V228.085H429.261C429.83 228.085 430.292 228.004 430.648 227.841C431.008 227.678 431.271 227.441 431.438 227.131C431.604 226.82 431.688 226.447 431.688 226.011C431.688 225.572 431.602 225.191 431.432 224.869C431.265 224.547 431.002 224.301 430.642 224.131C430.286 223.956 429.818 223.869 429.239 223.869H427.034V234H425.278ZM431.023 228.75L433.898 234H431.898L429.08 228.75H431.023ZM440.983 230.381V225.273H442.688V234H441.017V232.489H440.926C440.725 232.955 440.403 233.343 439.96 233.653C439.521 233.96 438.973 234.114 438.318 234.114C437.758 234.114 437.261 233.991 436.83 233.744C436.402 233.494 436.064 233.125 435.818 232.636C435.576 232.148 435.455 231.544 435.455 230.824V225.273H437.153V230.619C437.153 231.214 437.318 231.687 437.648 232.04C437.977 232.392 438.405 232.568 438.932 232.568C439.25 232.568 439.566 232.489 439.881 232.33C440.199 232.17 440.462 231.93 440.67 231.608C440.883 231.286 440.987 230.877 440.983 230.381ZM446.669 228.818V234H444.97V225.273H446.601V226.693H446.709C446.91 226.231 447.224 225.86 447.652 225.58C448.084 225.299 448.627 225.159 449.283 225.159C449.877 225.159 450.398 225.284 450.845 225.534C451.292 225.78 451.639 226.148 451.885 226.636C452.131 227.125 452.254 227.729 452.254 228.449V234H450.555V228.653C450.555 228.021 450.391 227.527 450.061 227.17C449.732 226.811 449.279 226.631 448.703 226.631C448.309 226.631 447.959 226.716 447.652 226.886C447.349 227.057 447.108 227.307 446.93 227.636C446.756 227.962 446.669 228.356 446.669 228.818ZM458.607 225.273V226.636H453.839V225.273H458.607ZM455.118 223.182H456.817V231.438C456.817 231.767 456.866 232.015 456.964 232.182C457.063 232.345 457.19 232.456 457.345 232.517C457.504 232.574 457.677 232.602 457.862 232.602C457.999 232.602 458.118 232.593 458.22 232.574C458.322 232.555 458.402 232.54 458.459 232.528L458.766 233.932C458.667 233.97 458.527 234.008 458.345 234.045C458.163 234.087 457.936 234.11 457.663 234.114C457.216 234.121 456.8 234.042 456.413 233.875C456.027 233.708 455.714 233.451 455.476 233.102C455.237 232.754 455.118 232.316 455.118 231.79V223.182ZM460.486 234V225.273H462.185V234H460.486ZM461.344 223.926C461.048 223.926 460.795 223.828 460.582 223.631C460.374 223.43 460.27 223.191 460.27 222.915C460.27 222.634 460.374 222.396 460.582 222.199C460.795 221.998 461.048 221.898 461.344 221.898C461.639 221.898 461.891 221.998 462.099 222.199C462.312 222.396 462.418 222.634 462.418 222.915C462.418 223.191 462.312 223.43 462.099 223.631C461.891 223.828 461.639 223.926 461.344 223.926ZM464.47 234V225.273H466.101V226.693H466.209C466.391 226.212 466.688 225.837 467.101 225.568C467.514 225.295 468.008 225.159 468.584 225.159C469.167 225.159 469.656 225.295 470.05 225.568C470.447 225.841 470.741 226.216 470.93 226.693H471.021C471.23 226.227 471.561 225.856 472.016 225.58C472.47 225.299 473.012 225.159 473.641 225.159C474.432 225.159 475.078 225.407 475.578 225.903C476.082 226.4 476.334 227.148 476.334 228.148V234H474.635V228.307C474.635 227.716 474.474 227.288 474.152 227.023C473.83 226.758 473.446 226.625 472.999 226.625C472.446 226.625 472.016 226.795 471.709 227.136C471.402 227.473 471.249 227.907 471.249 228.438V234H469.555V228.199C469.555 227.725 469.408 227.345 469.112 227.057C468.817 226.769 468.432 226.625 467.959 226.625C467.637 226.625 467.339 226.71 467.067 226.881C466.798 227.047 466.58 227.28 466.413 227.58C466.25 227.879 466.169 228.225 466.169 228.619V234H464.47ZM482.372 234.176C481.512 234.176 480.772 233.992 480.151 233.625C479.533 233.254 479.056 232.733 478.719 232.062C478.385 231.388 478.219 230.598 478.219 229.693C478.219 228.799 478.385 228.011 478.719 227.33C479.056 226.648 479.526 226.116 480.128 225.733C480.734 225.35 481.442 225.159 482.253 225.159C482.745 225.159 483.223 225.241 483.685 225.403C484.147 225.566 484.562 225.822 484.929 226.17C485.296 226.519 485.586 226.972 485.798 227.528C486.01 228.081 486.116 228.754 486.116 229.545V230.148H479.179V228.875H484.452C484.452 228.428 484.361 228.032 484.179 227.688C483.997 227.339 483.741 227.064 483.412 226.864C483.086 226.663 482.704 226.562 482.264 226.562C481.787 226.562 481.37 226.68 481.014 226.915C480.662 227.146 480.389 227.449 480.196 227.824C480.007 228.195 479.912 228.598 479.912 229.034V230.028C479.912 230.612 480.014 231.108 480.219 231.517C480.427 231.926 480.717 232.239 481.088 232.455C481.459 232.667 481.893 232.773 482.389 232.773C482.711 232.773 483.005 232.727 483.27 232.636C483.535 232.542 483.764 232.402 483.957 232.216C484.151 232.03 484.298 231.801 484.401 231.528L486.009 231.818C485.88 232.292 485.649 232.706 485.315 233.062C484.986 233.415 484.571 233.689 484.071 233.886C483.575 234.08 483.009 234.176 482.372 234.176Z" fill="black"/>
<path d="M421.278 62.4375H418.79C418.744 62.1155 418.652 61.8295 418.511 61.5795C418.371 61.3258 418.191 61.1098 417.972 60.9318C417.752 60.7538 417.498 60.6174 417.21 60.5227C416.926 60.428 416.617 60.3807 416.284 60.3807C415.682 60.3807 415.157 60.5303 414.71 60.8295C414.263 61.125 413.917 61.5568 413.67 62.125C413.424 62.6894 413.301 63.375 413.301 64.1818C413.301 65.0114 413.424 65.7083 413.67 66.2727C413.92 66.8371 414.269 67.2633 414.716 67.5511C415.163 67.839 415.68 67.983 416.267 67.983C416.597 67.983 416.902 67.9394 417.182 67.8523C417.466 67.7652 417.718 67.6383 417.938 67.4716C418.157 67.3011 418.339 67.0947 418.483 66.8523C418.631 66.6098 418.733 66.3333 418.79 66.0227L421.278 66.0341C421.214 66.5682 421.053 67.0833 420.795 67.5795C420.542 68.072 420.199 68.5133 419.767 68.9034C419.339 69.2898 418.828 69.5966 418.233 69.8239C417.642 70.0473 416.973 70.1591 416.227 70.1591C415.189 70.1591 414.261 69.9242 413.443 69.4545C412.629 68.9848 411.985 68.3049 411.511 67.4148C411.042 66.5246 410.807 65.447 410.807 64.1818C410.807 62.9129 411.045 61.8333 411.523 60.9432C412 60.053 412.648 59.375 413.466 58.9091C414.284 58.4394 415.205 58.2045 416.227 58.2045C416.902 58.2045 417.527 58.2992 418.102 58.4886C418.682 58.678 419.195 58.9545 419.642 59.3182C420.089 59.678 420.453 60.1193 420.733 60.642C421.017 61.1648 421.199 61.7633 421.278 62.4375ZM426.94 70.1705C426.058 70.1705 425.295 69.983 424.651 69.608C424.01 69.2292 423.516 68.7027 423.168 68.0284C422.819 67.3504 422.645 66.5644 422.645 65.6705C422.645 64.7689 422.819 63.9811 423.168 63.3068C423.516 62.6288 424.01 62.1023 424.651 61.7273C425.295 61.3485 426.058 61.1591 426.94 61.1591C427.823 61.1591 428.584 61.3485 429.224 61.7273C429.868 62.1023 430.365 62.6288 430.713 63.3068C431.062 63.9811 431.236 64.7689 431.236 65.6705C431.236 66.5644 431.062 67.3504 430.713 68.0284C430.365 68.7027 429.868 69.2292 429.224 69.608C428.584 69.983 427.823 70.1705 426.94 70.1705ZM426.952 68.2955C427.353 68.2955 427.688 68.1818 427.957 67.9545C428.226 67.7235 428.429 67.4091 428.565 67.0114C428.705 66.6136 428.776 66.161 428.776 65.6534C428.776 65.1458 428.705 64.6932 428.565 64.2955C428.429 63.8977 428.226 63.5833 427.957 63.3523C427.688 63.1212 427.353 63.0057 426.952 63.0057C426.546 63.0057 426.205 63.1212 425.929 63.3523C425.656 63.5833 425.45 63.8977 425.31 64.2955C425.173 64.6932 425.105 65.1458 425.105 65.6534C425.105 66.161 425.173 66.6136 425.31 67.0114C425.45 67.4091 425.656 67.7235 425.929 67.9545C426.205 68.1818 426.546 68.2955 426.952 68.2955ZM432.81 70V61.2727H435.116V62.8125H435.219C435.401 62.3011 435.704 61.8977 436.128 61.6023C436.552 61.3068 437.06 61.1591 437.651 61.1591C438.249 61.1591 438.759 61.3087 439.179 61.608C439.599 61.9034 439.88 62.3049 440.02 62.8125H440.111C440.289 62.3125 440.611 61.9129 441.077 61.6136C441.546 61.3106 442.101 61.1591 442.741 61.1591C443.556 61.1591 444.217 61.4186 444.724 61.9375C445.236 62.4527 445.491 63.1837 445.491 64.1307V70H443.077V64.608C443.077 64.1231 442.948 63.7595 442.69 63.517C442.433 63.2746 442.111 63.1534 441.724 63.1534C441.285 63.1534 440.942 63.2936 440.696 63.5739C440.45 63.8504 440.327 64.2159 440.327 64.6705V70H437.98V64.5568C437.98 64.1288 437.857 63.7879 437.611 63.5341C437.368 63.2803 437.048 63.1534 436.651 63.1534C436.382 63.1534 436.139 63.2216 435.923 63.358C435.711 63.4905 435.543 63.678 435.418 63.9205C435.293 64.1591 435.23 64.4394 435.23 64.7614V70H432.81ZM447.403 73.2727V61.2727H449.79V62.7386H449.898C450.004 62.5038 450.157 62.2652 450.358 62.0227C450.563 61.7765 450.828 61.572 451.153 61.4091C451.483 61.2424 451.892 61.1591 452.381 61.1591C453.017 61.1591 453.604 61.3258 454.142 61.6591C454.68 61.9886 455.11 62.4867 455.432 63.1534C455.754 63.8163 455.915 64.6477 455.915 65.6477C455.915 66.6212 455.758 67.4432 455.443 68.1136C455.133 68.7803 454.708 69.286 454.17 69.6307C453.636 69.9716 453.038 70.142 452.375 70.142C451.905 70.142 451.506 70.0644 451.176 69.9091C450.85 69.7538 450.583 69.5587 450.375 69.3239C450.167 69.0852 450.008 68.8447 449.898 68.6023H449.824V73.2727H447.403ZM449.773 65.6364C449.773 66.1553 449.845 66.608 449.989 66.9943C450.133 67.3807 450.341 67.6818 450.614 67.8977C450.886 68.1098 451.218 68.2159 451.608 68.2159C452.002 68.2159 452.335 68.108 452.608 67.892C452.881 67.6723 453.087 67.3693 453.227 66.983C453.371 66.5928 453.443 66.1439 453.443 65.6364C453.443 65.1326 453.373 64.6894 453.233 64.3068C453.093 63.9242 452.886 63.625 452.614 63.4091C452.341 63.1932 452.006 63.0852 451.608 63.0852C451.214 63.0852 450.881 63.1894 450.608 63.3977C450.339 63.6061 450.133 63.9015 449.989 64.2841C449.845 64.6667 449.773 65.1174 449.773 65.6364ZM461.472 70.1705C460.589 70.1705 459.826 69.983 459.182 69.608C458.542 69.2292 458.047 68.7027 457.699 68.0284C457.35 67.3504 457.176 66.5644 457.176 65.6705C457.176 64.7689 457.35 63.9811 457.699 63.3068C458.047 62.6288 458.542 62.1023 459.182 61.7273C459.826 61.3485 460.589 61.1591 461.472 61.1591C462.354 61.1591 463.116 61.3485 463.756 61.7273C464.4 62.1023 464.896 62.6288 465.244 63.3068C465.593 63.9811 465.767 64.7689 465.767 65.6705C465.767 66.5644 465.593 67.3504 465.244 68.0284C464.896 68.7027 464.4 69.2292 463.756 69.608C463.116 69.983 462.354 70.1705 461.472 70.1705ZM461.483 68.2955C461.884 68.2955 462.22 68.1818 462.489 67.9545C462.758 67.7235 462.96 67.4091 463.097 67.0114C463.237 66.6136 463.307 66.161 463.307 65.6534C463.307 65.1458 463.237 64.6932 463.097 64.2955C462.96 63.8977 462.758 63.5833 462.489 63.3523C462.22 63.1212 461.884 63.0057 461.483 63.0057C461.078 63.0057 460.737 63.1212 460.46 63.3523C460.188 63.5833 459.981 63.8977 459.841 64.2955C459.705 64.6932 459.636 65.1458 459.636 65.6534C459.636 66.161 459.705 66.6136 459.841 67.0114C459.981 67.4091 460.188 67.7235 460.46 67.9545C460.737 68.1818 461.078 68.2955 461.483 68.2955ZM469.761 64.9545V70H467.341V61.2727H469.648V62.8125H469.75C469.943 62.3049 470.267 61.9034 470.722 61.608C471.176 61.3087 471.727 61.1591 472.375 61.1591C472.981 61.1591 473.509 61.2917 473.96 61.5568C474.411 61.822 474.761 62.2008 475.011 62.6932C475.261 63.1818 475.386 63.7652 475.386 64.4432V70H472.966V64.875C472.97 64.3409 472.833 63.9242 472.557 63.625C472.28 63.322 471.9 63.1705 471.415 63.1705C471.089 63.1705 470.801 63.2405 470.551 63.3807C470.305 63.5208 470.112 63.7254 469.972 63.9943C469.835 64.2595 469.765 64.5795 469.761 64.9545ZM481.271 70.1705C480.374 70.1705 479.601 69.9886 478.953 69.625C478.309 69.2576 477.813 68.7386 477.464 68.0682C477.116 67.3939 476.942 66.5966 476.942 65.6761C476.942 64.7784 477.116 63.9905 477.464 63.3125C477.813 62.6345 478.304 62.1061 478.936 61.7273C479.572 61.3485 480.319 61.1591 481.175 61.1591C481.75 61.1591 482.286 61.2519 482.783 61.4375C483.283 61.6193 483.718 61.8939 484.089 62.2614C484.464 62.6288 484.756 63.0909 484.964 63.6477C485.173 64.2008 485.277 64.8485 485.277 65.5909V66.2557H477.908V64.7557H482.999C482.999 64.4072 482.923 64.0985 482.771 63.8295C482.62 63.5606 482.41 63.3504 482.141 63.1989C481.875 63.0436 481.567 62.9659 481.214 62.9659C480.847 62.9659 480.521 63.0511 480.237 63.2216C479.957 63.3883 479.737 63.6136 479.578 63.8977C479.419 64.178 479.338 64.4905 479.334 64.8352V66.2614C479.334 66.6932 479.413 67.0663 479.572 67.3807C479.735 67.6951 479.964 67.9375 480.26 68.108C480.555 68.2784 480.906 68.3636 481.311 68.3636C481.58 68.3636 481.826 68.3258 482.05 68.25C482.273 68.1742 482.464 68.0606 482.624 67.9091C482.783 67.7576 482.904 67.572 482.987 67.3523L485.226 67.5C485.112 68.0379 484.879 68.5076 484.527 68.9091C484.179 69.3068 483.728 69.6174 483.175 69.8409C482.625 70.0606 481.991 70.1705 481.271 70.1705ZM489.277 64.9545V70H486.857V61.2727H489.163V62.8125H489.266C489.459 62.3049 489.783 61.9034 490.237 61.608C490.692 61.3087 491.243 61.1591 491.891 61.1591C492.497 61.1591 493.025 61.2917 493.476 61.5568C493.927 61.822 494.277 62.2008 494.527 62.6932C494.777 63.1818 494.902 63.7652 494.902 64.4432V70H492.482V64.875C492.485 64.3409 492.349 63.9242 492.072 63.625C491.796 63.322 491.415 63.1705 490.93 63.1705C490.605 63.1705 490.317 63.2405 490.067 63.3807C489.821 63.5208 489.627 63.7254 489.487 63.9943C489.351 64.2595 489.281 64.5795 489.277 64.9545ZM501.452 61.2727V63.0909H496.196V61.2727H501.452ZM497.389 59.1818H499.81V67.3182C499.81 67.5417 499.844 67.7159 499.912 67.8409C499.98 67.9621 500.075 68.0473 500.196 68.0966C500.321 68.1458 500.465 68.1705 500.628 68.1705C500.741 68.1705 500.855 68.161 500.969 68.142C501.082 68.1193 501.17 68.1023 501.23 68.0909L501.611 69.892C501.49 69.9299 501.319 69.9735 501.099 70.0227C500.88 70.0758 500.613 70.108 500.298 70.1193C499.715 70.142 499.204 70.0644 498.764 69.8864C498.329 69.7083 497.99 69.4318 497.747 69.0568C497.505 68.6818 497.385 68.2083 497.389 67.6364V59.1818Z" fill="black"/>
<rect x="439.5" y="108.5" width="35" height="87" rx="4.5" stroke="black"/>
<rect x="0.5" y="71.5" width="179" height="174" rx="9.5" stroke="black"/>
<rect x="30.5" y="127.5" width="23.2609" height="27.3043" rx="4.5" stroke="black"/>
<rect x="62.1739" y="127.5" width="23.2609" height="27.3043" rx="4.5" stroke="black"/>
<rect x="93.8478" y="127.5" width="23.2609" height="27.3043" rx="4.5" stroke="black"/>
<rect x="125.522" y="127.5" width="23.2609" height="27.3043" rx="4.5" stroke="black"/>
<rect x="30.5" y="161.196" width="23.2609" height="27.3043" rx="4.5" stroke="black"/>
<rect x="62.1739" y="161.196" width="23.2609" height="27.3043" rx="4.5" stroke="black"/>
<rect x="93.8478" y="161.196" width="23.2609" height="27.3043" rx="4.5" stroke="black"/>
<rect x="125.522" y="161.196" width="23.2609" height="27.3043" rx="4.5" stroke="black"/>
<path d="M49.2784 220V208.364H56.5739V209.875H51.0341V213.42H56.1932V214.926H51.0341V218.489H56.642V220H49.2784ZM60.1236 211.273L62.0497 214.67L63.9929 211.273H65.8509L63.1293 215.636L65.8736 220H64.0156L62.0497 216.739L60.0895 220H58.2259L60.9418 215.636L58.2599 211.273H60.1236ZM71.669 211.273V212.636H66.902V211.273H71.669ZM68.1804 209.182H69.8793V217.438C69.8793 217.767 69.9285 218.015 70.027 218.182C70.1255 218.345 70.2524 218.456 70.4077 218.517C70.5668 218.574 70.7391 218.602 70.9247 218.602C71.0611 218.602 71.1804 218.593 71.2827 218.574C71.3849 218.555 71.4645 218.54 71.5213 218.528L71.8281 219.932C71.7296 219.97 71.5895 220.008 71.4077 220.045C71.2259 220.087 70.9986 220.11 70.7259 220.114C70.2789 220.121 69.8622 220.042 69.4759 219.875C69.0895 219.708 68.777 219.451 68.5384 219.102C68.2997 218.754 68.1804 218.316 68.1804 217.79V209.182ZM77.2159 220.176C76.3561 220.176 75.6155 219.992 74.9943 219.625C74.3769 219.254 73.8996 218.733 73.5625 218.062C73.2292 217.388 73.0625 216.598 73.0625 215.693C73.0625 214.799 73.2292 214.011 73.5625 213.33C73.8996 212.648 74.3693 212.116 74.9716 211.733C75.5777 211.35 76.286 211.159 77.0966 211.159C77.589 211.159 78.0663 211.241 78.5284 211.403C78.9905 211.566 79.4053 211.822 79.7727 212.17C80.1402 212.519 80.4299 212.972 80.642 213.528C80.8542 214.081 80.9602 214.754 80.9602 215.545V216.148H74.0227V214.875H79.2955C79.2955 214.428 79.2045 214.032 79.0227 213.688C78.8409 213.339 78.5852 213.064 78.2557 212.864C77.9299 212.663 77.5473 212.562 77.108 212.562C76.6307 212.562 76.214 212.68 75.858 212.915C75.5057 213.146 75.233 213.449 75.0398 213.824C74.8504 214.195 74.7557 214.598 74.7557 215.034V216.028C74.7557 216.612 74.858 217.108 75.0625 217.517C75.2708 217.926 75.5606 218.239 75.9318 218.455C76.303 218.667 76.7367 218.773 77.233 218.773C77.5549 218.773 77.8485 218.727 78.1136 218.636C78.3788 218.542 78.608 218.402 78.8011 218.216C78.9943 218.03 79.142 217.801 79.2443 217.528L80.8523 217.818C80.7235 218.292 80.4924 218.706 80.1591 219.062C79.8295 219.415 79.4148 219.689 78.9148 219.886C78.4186 220.08 77.8523 220.176 77.2159 220.176ZM84.544 214.818V220H82.8452V211.273H84.4759V212.693H84.5838C84.7846 212.231 85.099 211.86 85.527 211.58C85.9588 211.299 86.5024 211.159 87.1577 211.159C87.7524 211.159 88.2732 211.284 88.7202 211.534C89.1671 211.78 89.5137 212.148 89.7599 212.636C90.0062 213.125 90.1293 213.729 90.1293 214.449V220H88.4304V214.653C88.4304 214.021 88.2656 213.527 87.9361 213.17C87.6065 212.811 87.1539 212.631 86.5781 212.631C86.1842 212.631 85.8338 212.716 85.527 212.886C85.224 213.057 84.9834 213.307 84.8054 213.636C84.6312 213.962 84.544 214.356 84.544 214.818ZM98.9474 213.403L97.4077 213.676C97.3433 213.479 97.241 213.292 97.1009 213.114C96.9645 212.936 96.7789 212.79 96.544 212.676C96.3092 212.562 96.0156 212.506 95.6634 212.506C95.1823 212.506 94.7808 212.614 94.4588 212.83C94.1368 213.042 93.9759 213.316 93.9759 213.653C93.9759 213.945 94.0838 214.18 94.2997 214.358C94.5156 214.536 94.8641 214.682 95.3452 214.795L96.7315 215.114C97.5346 215.299 98.133 215.585 98.527 215.972C98.9209 216.358 99.1179 216.86 99.1179 217.477C99.1179 218 98.9664 218.466 98.6634 218.875C98.3641 219.28 97.9455 219.598 97.4077 219.83C96.8736 220.061 96.2543 220.176 95.5497 220.176C94.5724 220.176 93.7751 219.968 93.1577 219.551C92.5402 219.131 92.1615 218.534 92.0213 217.761L93.6634 217.511C93.7656 217.939 93.9759 218.263 94.294 218.483C94.6122 218.699 95.027 218.807 95.5384 218.807C96.0952 218.807 96.5402 218.691 96.8736 218.46C97.2069 218.225 97.3736 217.939 97.3736 217.602C97.3736 217.33 97.2713 217.1 97.0668 216.915C96.866 216.729 96.5573 216.589 96.1406 216.494L94.6634 216.17C93.849 215.985 93.2467 215.689 92.8565 215.284C92.4702 214.879 92.277 214.366 92.277 213.744C92.277 213.229 92.4209 212.778 92.7088 212.392C92.9967 212.006 93.3944 211.705 93.902 211.489C94.4096 211.269 94.991 211.159 95.6463 211.159C96.5895 211.159 97.3319 211.364 97.8736 211.773C98.4152 212.178 98.7732 212.722 98.9474 213.403ZM100.986 220V211.273H102.685V220H100.986ZM101.844 209.926C101.548 209.926 101.295 209.828 101.082 209.631C100.874 209.43 100.77 209.191 100.77 208.915C100.77 208.634 100.874 208.396 101.082 208.199C101.295 207.998 101.548 207.898 101.844 207.898C102.139 207.898 102.391 207.998 102.599 208.199C102.812 208.396 102.918 208.634 102.918 208.915C102.918 209.191 102.812 209.43 102.599 209.631C102.391 209.828 102.139 209.926 101.844 209.926ZM108.646 220.176C107.828 220.176 107.114 219.989 106.504 219.614C105.894 219.239 105.421 218.714 105.084 218.04C104.747 217.366 104.578 216.578 104.578 215.676C104.578 214.771 104.747 213.979 105.084 213.301C105.421 212.623 105.894 212.097 106.504 211.722C107.114 211.347 107.828 211.159 108.646 211.159C109.464 211.159 110.179 211.347 110.788 211.722C111.398 212.097 111.872 212.623 112.209 213.301C112.546 213.979 112.714 214.771 112.714 215.676C112.714 216.578 112.546 217.366 112.209 218.04C111.872 218.714 111.398 219.239 110.788 219.614C110.179 219.989 109.464 220.176 108.646 220.176ZM108.652 218.75C109.182 218.75 109.622 218.61 109.97 218.33C110.319 218.049 110.576 217.676 110.743 217.21C110.913 216.744 110.999 216.231 110.999 215.67C110.999 215.114 110.913 214.602 110.743 214.136C110.576 213.667 110.319 213.29 109.97 213.006C109.622 212.722 109.182 212.58 108.652 212.58C108.118 212.58 107.675 212.722 107.322 213.006C106.974 213.29 106.714 213.667 106.544 214.136C106.377 214.602 106.294 215.114 106.294 215.67C106.294 216.231 106.377 216.744 106.544 217.21C106.714 217.676 106.974 218.049 107.322 218.33C107.675 218.61 108.118 218.75 108.652 218.75ZM116.31 214.818V220H114.611V211.273H116.241V212.693H116.349C116.55 212.231 116.865 211.86 117.293 211.58C117.724 211.299 118.268 211.159 118.923 211.159C119.518 211.159 120.039 211.284 120.486 211.534C120.933 211.78 121.279 212.148 121.526 212.636C121.772 213.125 121.895 213.729 121.895 214.449V220H120.196V214.653C120.196 214.021 120.031 213.527 119.702 213.17C119.372 212.811 118.92 212.631 118.344 212.631C117.95 212.631 117.599 212.716 117.293 212.886C116.99 213.057 116.749 213.307 116.571 213.636C116.397 213.962 116.31 214.356 116.31 214.818ZM130.713 213.403L129.173 213.676C129.109 213.479 129.007 213.292 128.866 213.114C128.73 212.936 128.545 212.79 128.31 212.676C128.075 212.562 127.781 212.506 127.429 212.506C126.948 212.506 126.546 212.614 126.224 212.83C125.902 213.042 125.741 213.316 125.741 213.653C125.741 213.945 125.849 214.18 126.065 214.358C126.281 214.536 126.63 214.682 127.111 214.795L128.497 215.114C129.3 215.299 129.899 215.585 130.293 215.972C130.687 216.358 130.884 216.86 130.884 217.477C130.884 218 130.732 218.466 130.429 218.875C130.13 219.28 129.711 219.598 129.173 219.83C128.639 220.061 128.02 220.176 127.315 220.176C126.338 220.176 125.541 219.968 124.923 219.551C124.306 219.131 123.927 218.534 123.787 217.761L125.429 217.511C125.531 217.939 125.741 218.263 126.06 218.483C126.378 218.699 126.793 218.807 127.304 218.807C127.861 218.807 128.306 218.691 128.639 218.46C128.973 218.225 129.139 217.939 129.139 217.602C129.139 217.33 129.037 217.1 128.832 216.915C128.632 216.729 128.323 216.589 127.906 216.494L126.429 216.17C125.615 215.985 125.012 215.689 124.622 215.284C124.236 214.879 124.043 214.366 124.043 213.744C124.043 213.229 124.187 212.778 124.474 212.392C124.762 212.006 125.16 211.705 125.668 211.489C126.175 211.269 126.757 211.159 127.412 211.159C128.355 211.159 129.098 211.364 129.639 211.773C130.181 212.178 130.539 212.722 130.713 213.403Z" fill="black"/>
<path d="M58.0114 95V83.3636H62.6023C63.4811 83.3636 64.2311 83.5208 64.8523 83.8352C65.4773 84.1458 65.9527 84.5871 66.2784 85.1591C66.608 85.7273 66.7727 86.3958 66.7727 87.1648C66.7727 87.9375 66.6061 88.6023 66.2727 89.1591C65.9394 89.7121 65.4564 90.1364 64.8239 90.4318C64.1951 90.7273 63.4337 90.875 62.5398 90.875H59.4659V88.8977H62.142C62.6117 88.8977 63.0019 88.8333 63.3125 88.7045C63.6231 88.5758 63.8542 88.3826 64.0057 88.125C64.161 87.8674 64.2386 87.5473 64.2386 87.1648C64.2386 86.7784 64.161 86.4527 64.0057 86.1875C63.8542 85.9223 63.6212 85.7216 63.3068 85.5852C62.9962 85.4451 62.6042 85.375 62.1307 85.375H60.4716V95H58.0114ZM64.2955 89.7045L67.1875 95H64.4716L61.642 89.7045H64.2955ZM74.0625 91.2841V86.2727H76.483V95H74.1591V93.4148H74.0682C73.8712 93.9261 73.5436 94.3371 73.0852 94.6477C72.6307 94.9583 72.0758 95.1136 71.4205 95.1136C70.8371 95.1136 70.3239 94.9811 69.8807 94.7159C69.4375 94.4508 69.0909 94.0739 68.8409 93.5852C68.5947 93.0966 68.4697 92.5114 68.4659 91.8295V86.2727H70.8864V91.3977C70.8902 91.9129 71.0284 92.3201 71.3011 92.6193C71.5739 92.9186 71.9394 93.0682 72.3977 93.0682C72.6894 93.0682 72.9621 93.0019 73.2159 92.8693C73.4697 92.733 73.6742 92.5322 73.8295 92.267C73.9886 92.0019 74.0663 91.6742 74.0625 91.2841ZM80.8395 89.9545V95H78.419V86.2727H80.7259V87.8125H80.8281C81.0213 87.3049 81.3452 86.9034 81.7997 86.608C82.2543 86.3087 82.8054 86.1591 83.4531 86.1591C84.0592 86.1591 84.5876 86.2917 85.0384 86.5568C85.4891 86.822 85.8395 87.2008 86.0895 87.6932C86.3395 88.1818 86.4645 88.7652 86.4645 89.4432V95H84.044V89.875C84.0478 89.3409 83.9115 88.9242 83.6349 88.625C83.3584 88.322 82.9777 88.1705 82.4929 88.1705C82.1671 88.1705 81.8793 88.2405 81.6293 88.3807C81.383 88.5208 81.1899 88.7254 81.0497 88.9943C80.9134 89.2595 80.8433 89.5795 80.8395 89.9545ZM93.0142 86.2727V88.0909H87.7585V86.2727H93.0142ZM88.9517 84.1818H91.3722V92.3182C91.3722 92.5417 91.4063 92.7159 91.4744 92.8409C91.5426 92.9621 91.6373 93.0473 91.7585 93.0966C91.8835 93.1458 92.0275 93.1705 92.1903 93.1705C92.304 93.1705 92.4176 93.161 92.5312 93.142C92.6449 93.1193 92.732 93.1023 92.7926 93.0909L93.1733 94.892C93.0521 94.9299 92.8816 94.9735 92.6619 95.0227C92.4422 95.0758 92.1752 95.108 91.8608 95.1193C91.2775 95.142 90.7661 95.0644 90.3267 94.8864C89.8911 94.7083 89.5521 94.4318 89.3097 94.0568C89.0672 93.6818 88.9479 93.2083 88.9517 92.6364V84.1818ZM94.5909 95V86.2727H97.0114V95H94.5909ZM95.8068 85.1477C95.447 85.1477 95.1383 85.0284 94.8807 84.7898C94.6269 84.5473 94.5 84.2576 94.5 83.9205C94.5 83.5871 94.6269 83.3011 94.8807 83.0625C95.1383 82.8201 95.447 82.6989 95.8068 82.6989C96.1667 82.6989 96.4735 82.8201 96.7273 83.0625C96.9848 83.3011 97.1136 83.5871 97.1136 83.9205C97.1136 84.2576 96.9848 84.5473 96.7273 84.7898C96.4735 85.0284 96.1667 85.1477 95.8068 85.1477ZM98.9503 95V86.2727H101.257V87.8125H101.359C101.541 87.3011 101.844 86.8977 102.268 86.6023C102.693 86.3068 103.2 86.1591 103.791 86.1591C104.39 86.1591 104.899 86.3087 105.32 86.608C105.74 86.9034 106.02 87.3049 106.161 87.8125H106.251C106.429 87.3125 106.751 86.9129 107.217 86.6136C107.687 86.3106 108.242 86.1591 108.882 86.1591C109.696 86.1591 110.357 86.4186 110.865 86.9375C111.376 87.4527 111.632 88.1837 111.632 89.1307V95H109.217V89.608C109.217 89.1231 109.089 88.7595 108.831 88.517C108.573 88.2746 108.251 88.1534 107.865 88.1534C107.426 88.1534 107.083 88.2936 106.837 88.5739C106.59 88.8504 106.467 89.2159 106.467 89.6705V95H104.121V89.5568C104.121 89.1288 103.998 88.7879 103.751 88.5341C103.509 88.2803 103.189 88.1534 102.791 88.1534C102.522 88.1534 102.28 88.2216 102.064 88.358C101.852 88.4905 101.683 88.678 101.558 88.9205C101.433 89.1591 101.371 89.4394 101.371 89.7614V95H98.9503ZM117.521 95.1705C116.624 95.1705 115.851 94.9886 115.203 94.625C114.559 94.2576 114.063 93.7386 113.714 93.0682C113.366 92.3939 113.192 91.5966 113.192 90.6761C113.192 89.7784 113.366 88.9905 113.714 88.3125C114.063 87.6345 114.554 87.1061 115.186 86.7273C115.822 86.3485 116.569 86.1591 117.425 86.1591C118 86.1591 118.536 86.2519 119.033 86.4375C119.533 86.6193 119.968 86.8939 120.339 87.2614C120.714 87.6288 121.006 88.0909 121.214 88.6477C121.423 89.2008 121.527 89.8485 121.527 90.5909V91.2557H114.158V89.7557H119.249C119.249 89.4072 119.173 89.0985 119.021 88.8295C118.87 88.5606 118.66 88.3504 118.391 88.1989C118.125 88.0436 117.817 87.9659 117.464 87.9659C117.097 87.9659 116.771 88.0511 116.487 88.2216C116.207 88.3883 115.987 88.6136 115.828 88.8977C115.669 89.178 115.588 89.4905 115.584 89.8352V91.2614C115.584 91.6932 115.663 92.0663 115.822 92.3807C115.985 92.6951 116.214 92.9375 116.51 93.108C116.805 93.2784 117.156 93.3636 117.561 93.3636C117.83 93.3636 118.076 93.3258 118.3 93.25C118.523 93.1742 118.714 93.0606 118.874 92.9091C119.033 92.7576 119.154 92.572 119.237 92.3523L121.476 92.5C121.362 93.0379 121.129 93.5076 120.777 93.9091C120.429 94.3068 119.978 94.6174 119.425 94.8409C118.875 95.0606 118.241 95.1705 117.521 95.1705Z" fill="black"/>
<path d="M299 158L269 140.679V175.321L299 158ZM224 161H272V155H224V161Z" fill="#CBCBCB"/>
<path d="M690 158L660 140.679V175.321L690 158ZM615 161H663V155H615V161Z" fill="#CBCBCB"/>
</svg>
