<svg width="177" height="231" viewBox="0 0 177 231" fill="none" xmlns="http://www.w3.org/2000/svg">
<rect x="64.5" y="28.5" width="112" height="190" rx="9.5" stroke="black" stroke-dasharray="2 2"/>
<circle cx="93.5" cy="75.5" r="10.5" fill="black"/>
<circle cx="144.5" cy="75.5" r="10.5" fill="black"/>
<line x1="42" y1="75.5" x2="147" y2="75.5" stroke="black"/>
<circle cx="42.5" cy="75.5" r="10.5" fill="#D9D9D9"/>
<path d="M88.0903 49L89.4185 41H92.2153C92.7726 41 93.2166 41.0964 93.5474 41.2891C93.8781 41.4792 94.1047 41.7357 94.2271 42.0586C94.3494 42.3789 94.3768 42.7344 94.3091 43.125C94.2518 43.4687 94.1437 43.7526 93.9849 43.9766C93.8286 44.2005 93.6411 44.3776 93.4224 44.5078C93.2062 44.638 92.981 44.7344 92.7466 44.7969L92.731 44.875C92.9705 44.8906 93.201 44.9766 93.4224 45.1328C93.6437 45.2891 93.8143 45.513 93.9341 45.8047C94.0539 46.0964 94.0799 46.4531 94.0122 46.875C93.9445 47.276 93.7922 47.6367 93.5552 47.957C93.3182 48.2773 92.9875 48.5312 92.563 48.7187C92.1385 48.9062 91.6112 49 90.981 49H88.0903ZM89.1997 48.1406H91.1216C91.7544 48.1406 92.2244 48.0182 92.5317 47.7734C92.8416 47.526 93.0278 47.2266 93.0903 46.875C93.132 46.6042 93.1021 46.3542 93.0005 46.125C92.9015 45.8932 92.7362 45.7083 92.5044 45.5703C92.2752 45.4297 91.9862 45.3594 91.6372 45.3594H89.6685L89.1997 48.1406ZM89.8091 44.5156H91.606C91.8976 44.5156 92.1711 44.4583 92.4263 44.3437C92.6815 44.2292 92.895 44.0677 93.0669 43.8594C93.2388 43.651 93.3455 43.4062 93.3872 43.125C93.4497 42.7734 93.3794 42.4753 93.1763 42.2305C92.9731 41.9831 92.606 41.8594 92.0747 41.8594H90.2466L89.8091 44.5156ZM97.5962 49.125C97.0441 49.125 96.5819 48.9935 96.2095 48.7305C95.8371 48.4674 95.5741 48.099 95.4204 47.625C95.2694 47.151 95.2446 46.599 95.3462 45.9687C95.4451 45.3542 95.6418 44.819 95.936 44.3633C96.2329 43.9049 96.6014 43.5508 97.0415 43.3008C97.4842 43.0482 97.9712 42.9219 98.5024 42.9219C99.0545 42.9219 99.5155 43.0547 99.8853 43.3203C100.258 43.5833 100.521 43.9531 100.674 44.4297C100.828 44.9036 100.854 45.4583 100.752 46.0937C100.653 46.7031 100.454 47.2357 100.155 47.6914C99.8579 48.1445 99.4894 48.4974 99.0493 48.75C98.6118 49 98.1274 49.125 97.5962 49.125ZM97.6118 48.2969C98.0337 48.2969 98.3996 48.1888 98.7095 47.9727C99.022 47.7565 99.2746 47.4714 99.4673 47.1172C99.6626 46.763 99.7941 46.3802 99.8618 45.9687C99.9243 45.5781 99.9217 45.2148 99.854 44.8789C99.7863 44.5404 99.6418 44.2682 99.4204 44.0625C99.1991 43.8542 98.8879 43.75 98.4868 43.75C98.0649 43.75 97.6965 43.8594 97.3813 44.0781C97.0688 44.2969 96.8162 44.5846 96.6235 44.9414C96.4308 45.2982 96.3019 45.6823 96.2368 46.0937C96.1743 46.4844 96.1756 46.8477 96.2407 47.1836C96.3084 47.5169 96.453 47.7865 96.6743 47.9922C96.8983 48.1953 97.2108 48.2969 97.6118 48.2969ZM105.871 46.5469L106.464 43H107.386L106.386 49H105.464L105.636 47.9844H105.574C105.386 48.2891 105.125 48.5482 104.789 48.7617C104.453 48.9727 104.058 49.0781 103.605 49.0781C103.23 49.0781 102.91 48.9961 102.644 48.832C102.381 48.6654 102.194 48.4154 102.082 48.082C101.972 47.7461 101.959 47.3229 102.042 46.8125L102.683 43H103.605L102.98 46.75C102.91 47.1875 102.976 47.5365 103.179 47.7969C103.382 48.0573 103.675 48.1875 104.058 48.1875C104.287 48.1875 104.529 48.1289 104.785 48.0117C105.042 47.8945 105.272 47.7148 105.472 47.4727C105.675 47.2305 105.808 46.9219 105.871 46.5469ZM109.59 45.3906L108.997 49H108.075L109.075 43H109.965L109.809 43.9375H109.887C110.075 43.6328 110.329 43.388 110.649 43.2031C110.969 43.0156 111.356 42.9219 111.809 42.9219C112.21 42.9219 112.549 43.0052 112.825 43.1719C113.103 43.3359 113.3 43.5859 113.415 43.9219C113.532 44.2552 113.549 44.6771 113.465 45.1875L112.825 49H111.903L112.528 45.25C112.606 44.7812 112.545 44.4141 112.344 44.1484C112.146 43.8828 111.833 43.75 111.403 43.75C111.106 43.75 110.831 43.8138 110.579 43.9414C110.329 44.069 110.116 44.2552 109.942 44.5C109.77 44.7448 109.653 45.0417 109.59 45.3906ZM116.767 49.125C116.264 49.125 115.843 48.9987 115.501 48.7461C115.16 48.4909 114.919 48.1315 114.779 47.668C114.641 47.2018 114.624 46.651 114.728 46.0156C114.835 45.3854 115.034 44.8385 115.326 44.375C115.62 43.9115 115.981 43.5534 116.408 43.3008C116.835 43.0482 117.301 42.9219 117.806 42.9219C118.197 42.9219 118.495 42.987 118.701 43.1172C118.909 43.2448 119.06 43.3906 119.154 43.5547C119.248 43.7161 119.319 43.849 119.369 43.9531H119.447L119.939 41H120.861L119.533 49H118.642L118.798 48.0781H118.689C118.603 48.1875 118.483 48.3255 118.33 48.4922C118.176 48.6562 117.973 48.8034 117.72 48.9336C117.47 49.0612 117.153 49.125 116.767 49.125ZM116.994 48.2969C117.363 48.2969 117.694 48.2005 117.986 48.0078C118.28 47.8125 118.525 47.543 118.72 47.1992C118.916 46.8529 119.051 46.4531 119.126 46C119.202 45.5521 119.199 45.1602 119.119 44.8242C119.038 44.4857 118.883 44.2227 118.654 44.0352C118.425 43.8451 118.121 43.75 117.744 43.75C117.356 43.75 117.018 43.8503 116.732 44.0508C116.445 44.2487 116.212 44.5182 116.033 44.8594C115.853 45.1979 115.728 45.5781 115.658 46C115.587 46.4271 115.586 46.8151 115.654 47.1641C115.722 47.5104 115.865 47.7865 116.083 47.9922C116.305 48.1953 116.608 48.2969 116.994 48.2969ZM124.435 49L125.435 43H126.326L126.169 43.9062H126.232C126.388 43.6094 126.626 43.3685 126.947 43.1836C127.267 42.9987 127.607 42.9062 127.966 42.9062C128.037 42.9062 128.121 42.9076 128.22 42.9102C128.319 42.9102 128.396 42.9141 128.451 42.9219L128.294 43.8594C128.263 43.8516 128.193 43.8398 128.083 43.8242C127.974 43.806 127.857 43.7969 127.732 43.7969C127.44 43.7969 127.171 43.8581 126.923 43.9805C126.676 44.1003 126.469 44.2669 126.302 44.4805C126.136 44.6914 126.029 44.9323 125.982 45.2031L125.357 49H124.435ZM132.737 46.5469L133.331 43H134.252L133.252 49H132.331L132.502 47.9844H132.44C132.252 48.2891 131.991 48.5482 131.655 48.7617C131.319 48.9727 130.924 49.0781 130.471 49.0781C130.096 49.0781 129.776 48.9961 129.51 48.832C129.247 48.6654 129.06 48.4154 128.948 48.082C128.838 47.7461 128.825 47.3229 128.909 46.8125L129.549 43H130.471L129.846 46.75C129.776 47.1875 129.842 47.5365 130.045 47.7969C130.249 48.0573 130.542 48.1875 130.924 48.1875C131.153 48.1875 131.396 48.1289 131.651 48.0117C131.909 47.8945 132.138 47.7148 132.338 47.4727C132.542 47.2305 132.674 46.9219 132.737 46.5469ZM137.191 41L135.863 49H134.941L136.269 41H137.191ZM140.051 49.125C139.476 49.125 139 48.9974 138.625 48.7422C138.25 48.4844 137.989 48.125 137.84 47.6641C137.692 47.2005 137.668 46.6615 137.77 46.0469C137.872 45.4323 138.073 44.8906 138.375 44.4219C138.678 43.9505 139.054 43.5833 139.504 43.3203C139.955 43.0547 140.45 42.9219 140.989 42.9219C141.301 42.9219 141.602 42.974 141.891 43.0781C142.18 43.1823 142.43 43.3516 142.641 43.5859C142.852 43.8177 142.999 44.125 143.083 44.5078C143.166 44.8906 143.161 45.362 143.067 45.9219L143.004 46.3125H138.379L138.504 45.5156H142.192C142.252 45.1771 142.236 44.875 142.145 44.6094C142.056 44.3437 141.902 44.1341 141.68 43.9805C141.461 43.8268 141.184 43.75 140.848 43.75C140.502 43.75 140.179 43.8437 139.879 44.0312C139.58 44.2161 139.33 44.4505 139.129 44.7344C138.929 45.0156 138.804 45.3021 138.754 45.5937L138.645 46.2812C138.567 46.7786 138.579 47.1745 138.68 47.4687C138.784 47.763 138.965 47.9753 139.223 48.1055C139.481 48.2331 139.804 48.2969 140.192 48.2969C140.439 48.2969 140.667 48.263 140.875 48.1953C141.084 48.125 141.27 48.0208 141.434 47.8828C141.598 47.7422 141.736 47.5677 141.848 47.3594L142.692 47.6094C142.549 47.9115 142.347 48.1771 142.086 48.4062C141.829 48.6328 141.527 48.8099 141.18 48.9375C140.836 49.0625 140.46 49.125 140.051 49.125ZM149.006 44.3437L148.131 44.5781C148.1 44.4375 148.045 44.3021 147.967 44.1719C147.892 44.0391 147.775 43.931 147.616 43.8477C147.459 43.7617 147.246 43.7187 146.975 43.7187C146.608 43.7187 146.289 43.8034 146.018 43.9727C145.747 44.1393 145.592 44.3516 145.553 44.6094C145.514 44.8359 145.566 45.0169 145.709 45.1523C145.853 45.2878 146.092 45.3984 146.428 45.4844L147.288 45.7031C147.803 45.8359 148.17 46.0352 148.389 46.3008C148.611 46.5638 148.686 46.9062 148.616 47.3281C148.558 47.6719 148.409 47.9792 148.167 48.25C147.924 48.5208 147.614 48.7344 147.237 48.8906C146.859 49.0469 146.439 49.125 145.975 49.125C145.358 49.125 144.871 48.9922 144.514 48.7266C144.157 48.4583 143.967 48.0703 143.944 47.5625L144.866 47.3437C144.889 47.6641 145.004 47.9062 145.209 48.0703C145.418 48.2318 145.709 48.3125 146.084 48.3125C146.514 48.3125 146.872 48.2214 147.159 48.0391C147.445 47.8542 147.608 47.6328 147.647 47.375C147.686 47.1641 147.644 46.9883 147.522 46.8477C147.402 46.707 147.194 46.6016 146.897 46.5312L145.944 46.2969C145.413 46.1641 145.04 45.9609 144.827 45.6875C144.616 45.4141 144.545 45.0703 144.616 44.6562C144.673 44.3177 144.819 44.0182 145.053 43.7578C145.29 43.4974 145.587 43.293 145.944 43.1445C146.303 42.9961 146.694 42.9219 147.116 42.9219C147.709 42.9219 148.153 43.0521 148.448 43.3125C148.742 43.5703 148.928 43.9141 149.006 44.3437Z" fill="black"/>
<path d="M7.04688 39H8.01563L7.14063 44.2969C7.04948 44.8437 6.83984 45.332 6.51172 45.7617C6.18359 46.1888 5.76563 46.526 5.25781 46.7734C4.75 47.0182 4.18229 47.1406 3.55469 47.1406C2.92708 47.1406 2.40104 47.0182 1.97656 46.7734C1.55208 46.526 1.2474 46.1888 1.0625 45.7617C0.877604 45.332 0.830729 44.8437 0.921875 44.2969L1.79688 39H2.76563L1.89844 44.2188C1.83594 44.6094 1.86589 44.957 1.98828 45.2617C2.11068 45.5638 2.31641 45.8021 2.60547 45.9766C2.89714 46.1484 3.26563 46.2344 3.71094 46.2344C4.15625 46.2344 4.55339 46.1484 4.90234 45.9766C5.2513 45.8021 5.53516 45.5638 5.75391 45.2617C5.97526 44.957 6.11719 44.6094 6.17969 44.2188L7.04688 39ZM10.0127 43.3906L9.41895 47H8.49707L9.49707 41H10.3877L10.2314 41.9375H10.3096C10.4971 41.6328 10.751 41.388 11.0713 41.2031C11.3916 41.0156 11.7783 40.9219 12.2314 40.9219C12.6325 40.9219 12.971 41.0052 13.2471 41.1719C13.5257 41.3359 13.7223 41.5859 13.8369 41.9219C13.9541 42.2552 13.971 42.6771 13.8877 43.1875L13.2471 47H12.3252L12.9502 43.25C13.0283 42.7812 12.9671 42.4141 12.7666 42.1484C12.5687 41.8828 12.2549 41.75 11.8252 41.75C11.5283 41.75 11.2536 41.8138 11.001 41.9414C10.751 42.069 10.5387 42.2552 10.3643 42.5C10.1924 42.7448 10.0752 43.0417 10.0127 43.3906ZM15.0566 47L16.3848 39H17.3066L16.8223 41.9531H16.9004C16.9837 41.849 17.0996 41.7161 17.248 41.5547C17.3965 41.3906 17.5957 41.2448 17.8457 41.1172C18.0957 40.987 18.416 40.9219 18.8066 40.9219C19.3118 40.9219 19.735 41.0482 20.0762 41.3008C20.4199 41.5534 20.6608 41.9115 20.7988 42.375C20.9395 42.8385 20.9577 43.3854 20.8535 44.0156C20.7493 44.651 20.5501 45.2018 20.2559 45.668C19.9642 46.1315 19.6048 46.4909 19.1777 46.7461C18.7533 46.9987 18.291 47.125 17.791 47.125C17.4056 47.125 17.1074 47.0612 16.8965 46.9336C16.6882 46.8034 16.5345 46.6562 16.4355 46.4922C16.3392 46.3255 16.265 46.1875 16.2129 46.0781H16.1035L15.9473 47H15.0566ZM16.4629 44C16.39 44.4531 16.3913 44.8529 16.4668 45.1992C16.5423 45.543 16.6921 45.8125 16.916 46.0078C17.14 46.2005 17.4368 46.2969 17.8066 46.2969C18.1921 46.2969 18.5306 46.1953 18.8223 45.9922C19.1139 45.7865 19.3535 45.5104 19.541 45.1641C19.7285 44.8151 19.8587 44.4271 19.9316 44C19.9993 43.5781 19.9967 43.1979 19.9238 42.8594C19.8535 42.5182 19.7051 42.2487 19.4785 42.0508C19.2546 41.8503 18.9473 41.75 18.5566 41.75C18.1816 41.75 17.8496 41.8451 17.5605 42.0352C17.2741 42.2227 17.0371 42.4857 16.8496 42.8242C16.6647 43.1602 16.5358 43.5521 16.4629 44ZM24.2402 47.125C23.6882 47.125 23.2259 46.9935 22.8535 46.7305C22.4811 46.4674 22.2181 46.099 22.0645 45.625C21.9134 45.151 21.8887 44.599 21.9902 43.9687C22.0892 43.3542 22.2858 42.819 22.5801 42.3633C22.877 41.9049 23.2454 41.5508 23.6855 41.3008C24.1283 41.0482 24.6152 40.9219 25.1465 40.9219C25.6986 40.9219 26.1595 41.0547 26.5293 41.3203C26.9017 41.5833 27.1647 41.9531 27.3184 42.4297C27.472 42.9036 27.498 43.4583 27.3965 44.0937C27.2975 44.7031 27.0983 45.2357 26.7988 45.6914C26.502 46.1445 26.1335 46.4974 25.6934 46.75C25.2559 47 24.7715 47.125 24.2402 47.125ZM24.2559 46.2969C24.6777 46.2969 25.0436 46.1888 25.3535 45.9727C25.666 45.7565 25.9186 45.4714 26.1113 45.1172C26.3066 44.763 26.4382 44.3802 26.5059 43.9687C26.5684 43.5781 26.5658 43.2148 26.498 42.8789C26.4303 42.5404 26.2858 42.2682 26.0645 42.0625C25.8431 41.8542 25.5319 41.75 25.1309 41.75C24.709 41.75 24.3405 41.8594 24.0254 42.0781C23.7129 42.2969 23.4603 42.5846 23.2676 42.9414C23.0749 43.2982 22.946 43.6823 22.8809 44.0937C22.8184 44.4844 22.8197 44.8477 22.8848 45.1836C22.9525 45.5169 23.097 45.7865 23.3184 45.9922C23.5423 46.1953 23.8548 46.2969 24.2559 46.2969ZM32.5146 44.5469L33.1084 41H34.0303L33.0303 47H32.1084L32.2803 45.9844H32.2178C32.0303 46.2891 31.7686 46.5482 31.4326 46.7617C31.0967 46.9727 30.7021 47.0781 30.249 47.0781C29.874 47.0781 29.5537 46.9961 29.2881 46.832C29.0251 46.6654 28.8376 46.4154 28.7256 46.082C28.6162 45.7461 28.6032 45.3229 28.6865 44.8125L29.3271 41H30.249L29.624 44.75C29.5537 45.1875 29.6201 45.5365 29.8232 45.7969C30.0264 46.0573 30.3193 46.1875 30.7021 46.1875C30.9313 46.1875 31.1735 46.1289 31.4287 46.0117C31.6865 45.8945 31.9157 45.7148 32.1162 45.4727C32.3193 45.2305 32.4521 44.9219 32.5146 44.5469ZM36.2344 43.3906L35.6406 47H34.7188L35.7188 41H36.6094L36.4531 41.9375H36.5313C36.7188 41.6328 36.9727 41.388 37.293 41.2031C37.6133 41.0156 38 40.9219 38.4531 40.9219C38.8542 40.9219 39.1927 41.0052 39.4688 41.1719C39.7474 41.3359 39.944 41.5859 40.0586 41.9219C40.1758 42.2552 40.1927 42.6771 40.1094 43.1875L39.4688 47H38.5469L39.1719 43.25C39.25 42.7812 39.1888 42.4141 38.9883 42.1484C38.7904 41.8828 38.4766 41.75 38.0469 41.75C37.75 41.75 37.4753 41.8138 37.2227 41.9414C36.9727 42.069 36.7604 42.2552 36.5859 42.5C36.4141 42.7448 36.2969 43.0417 36.2344 43.3906ZM43.4111 47.125C42.9085 47.125 42.4867 46.9987 42.1455 46.7461C41.8044 46.4909 41.5635 46.1315 41.4229 45.668C41.2848 45.2018 41.2679 44.651 41.3721 44.0156C41.4788 43.3854 41.6781 42.8385 41.9697 42.375C42.264 41.9115 42.6247 41.5534 43.0518 41.3008C43.4788 41.0482 43.945 40.9219 44.4502 40.9219C44.8408 40.9219 45.139 40.987 45.3447 41.1172C45.5531 41.2448 45.7041 41.3906 45.7979 41.5547C45.8916 41.7161 45.9632 41.849 46.0127 41.9531H46.0908L46.583 39H47.5049L46.1768 47H45.2861L45.4424 46.0781H45.333C45.2471 46.1875 45.1273 46.3255 44.9736 46.4922C44.82 46.6562 44.6169 46.8034 44.3643 46.9336C44.1143 47.0612 43.7965 47.125 43.4111 47.125ZM43.6377 46.2969C44.0075 46.2969 44.3382 46.2005 44.6299 46.0078C44.9242 45.8125 45.1689 45.543 45.3643 45.1992C45.5596 44.8529 45.695 44.4531 45.7705 44C45.846 43.5521 45.8434 43.1602 45.7627 42.8242C45.682 42.4857 45.527 42.2227 45.2979 42.0352C45.0687 41.8451 44.7653 41.75 44.3877 41.75C43.9997 41.75 43.6624 41.8503 43.376 42.0508C43.0895 42.2487 42.8564 42.5182 42.6768 42.8594C42.4971 43.1979 42.3721 43.5781 42.3018 44C42.2314 44.4271 42.2301 44.8151 42.2979 45.1641C42.3656 45.5104 42.5088 45.7865 42.7275 45.9922C42.9489 46.1953 43.2523 46.2969 43.6377 46.2969ZM0.34375 60L1.34375 54H2.23438L2.07812 54.9062H2.14063C2.29688 54.6094 2.53516 54.3685 2.85547 54.1836C3.17578 53.9987 3.51563 53.9062 3.875 53.9062C3.94531 53.9062 4.02995 53.9076 4.12891 53.9102C4.22786 53.9102 4.30469 53.9141 4.35938 53.9219L4.20313 54.8594C4.17188 54.8516 4.10156 54.8398 3.99219 54.8242C3.88281 54.806 3.76563 54.7969 3.64062 54.7969C3.34896 54.7969 3.07943 54.8581 2.83203 54.9805C2.58464 55.1003 2.3776 55.2669 2.21094 55.4805C2.04427 55.6914 1.9375 55.9323 1.89062 56.2031L1.26563 60H0.34375ZM8.64551 57.5469L9.23926 54H10.1611L9.16113 60H8.23926L8.41113 58.9844H8.34863C8.16113 59.2891 7.89941 59.5482 7.56348 59.7617C7.22754 59.9727 6.83301 60.0781 6.37988 60.0781C6.00488 60.0781 5.68457 59.9961 5.41895 59.832C5.15592 59.6654 4.96842 59.4154 4.85645 59.082C4.74707 58.7461 4.73405 58.3229 4.81738 57.8125L5.45801 54H6.37988L5.75488 57.75C5.68457 58.1875 5.75098 58.5365 5.9541 58.7969C6.15723 59.0573 6.4502 59.1875 6.83301 59.1875C7.06217 59.1875 7.30436 59.1289 7.55957 59.0117C7.81738 58.8945 8.04655 58.7148 8.24707 58.4727C8.4502 58.2305 8.58301 57.9219 8.64551 57.5469ZM13.0996 52L11.7715 60H10.8496L12.1777 52H13.0996ZM15.96 60.125C15.3844 60.125 14.9092 59.9974 14.5342 59.7422C14.1592 59.4844 13.8975 59.125 13.749 58.6641C13.6006 58.2005 13.5771 57.6615 13.6787 57.0469C13.7803 56.4323 13.9821 55.8906 14.2842 55.4219C14.5863 54.9505 14.9626 54.5833 15.4131 54.3203C15.8636 54.0547 16.3584 53.9219 16.8975 53.9219C17.21 53.9219 17.5107 53.974 17.7998 54.0781C18.0889 54.1823 18.3389 54.3516 18.5498 54.5859C18.7607 54.8177 18.9079 55.125 18.9912 55.5078C19.0745 55.8906 19.0693 56.362 18.9756 56.9219L18.9131 57.3125H14.2881L14.4131 56.5156H18.1006C18.1605 56.1771 18.1449 55.875 18.0537 55.6094C17.9652 55.3437 17.8102 55.1341 17.5889 54.9805C17.3701 54.8268 17.0928 54.75 16.7568 54.75C16.4105 54.75 16.0876 54.8437 15.7881 55.0312C15.4886 55.2161 15.2386 55.4505 15.0381 55.7344C14.8376 56.0156 14.7126 56.3021 14.6631 56.5937L14.5537 57.2812C14.4756 57.7786 14.4873 58.1745 14.5889 58.4687C14.693 58.763 14.874 58.9753 15.1318 59.1055C15.3896 59.2331 15.7126 59.2969 16.1006 59.2969C16.348 59.2969 16.5758 59.263 16.7842 59.1953C16.9925 59.125 17.1787 59.0208 17.3428 58.8828C17.5068 58.7422 17.6449 58.5677 17.7568 58.3594L18.6006 58.6094C18.4574 58.9115 18.2555 59.1771 17.9951 59.4062C17.7373 59.6328 17.4352 59.8099 17.0889 59.9375C16.7451 60.0625 16.3688 60.125 15.96 60.125Z" fill="black"/>
<path d="M76.7412 201L78.0693 193H80.7725C81.3975 193 81.891 193.112 82.2529 193.336C82.6175 193.56 82.8636 193.863 82.9912 194.246C83.1214 194.629 83.1475 195.057 83.0693 195.531C82.9912 196 82.8232 196.427 82.5654 196.812C82.3102 197.198 81.9639 197.505 81.5264 197.734C81.0915 197.964 80.5641 198.078 79.9443 198.078H78.0068L78.1475 197.219H80.0537C80.4808 197.219 80.8376 197.145 81.124 196.996C81.4105 196.848 81.6344 196.646 81.7959 196.391C81.9574 196.135 82.0641 195.849 82.1162 195.531C82.1683 195.208 82.1553 194.922 82.0771 194.672C82.0016 194.419 81.8441 194.221 81.6045 194.078C81.3675 193.932 81.0329 193.859 80.6006 193.859H78.8975L77.71 201H76.7412ZM86 201.125C85.4479 201.125 84.9857 200.993 84.6133 200.73C84.2409 200.467 83.9779 200.099 83.8242 199.625C83.6732 199.151 83.6484 198.599 83.75 197.969C83.849 197.354 84.0456 196.819 84.3398 196.363C84.6367 195.905 85.0052 195.551 85.4453 195.301C85.888 195.048 86.375 194.922 86.9062 194.922C87.4583 194.922 87.9193 195.055 88.2891 195.32C88.6615 195.583 88.9245 195.953 89.0781 196.43C89.2318 196.904 89.2578 197.458 89.1563 198.094C89.0573 198.703 88.8581 199.236 88.5586 199.691C88.2617 200.145 87.8932 200.497 87.4531 200.75C87.0156 201 86.5313 201.125 86 201.125ZM86.0156 200.297C86.4375 200.297 86.8034 200.189 87.1133 199.973C87.4258 199.757 87.6784 199.471 87.8711 199.117C88.0664 198.763 88.1979 198.38 88.2656 197.969C88.3281 197.578 88.3255 197.215 88.2578 196.879C88.1901 196.54 88.0456 196.268 87.8242 196.062C87.6029 195.854 87.2917 195.75 86.8906 195.75C86.4688 195.75 86.1003 195.859 85.7852 196.078C85.4727 196.297 85.2201 196.585 85.0273 196.941C84.8346 197.298 84.7057 197.682 84.6406 198.094C84.5781 198.484 84.5794 198.848 84.6445 199.184C84.7122 199.517 84.8568 199.786 85.0781 199.992C85.3021 200.195 85.6146 200.297 86.0156 200.297ZM92.3369 193L91.0088 201H90.0869L91.415 193H92.3369ZM92.6973 201L93.6973 195H94.6191L93.6191 201H92.6973ZM94.4395 193.984C94.2598 193.984 94.1048 193.923 93.9746 193.801C93.847 193.678 93.7832 193.531 93.7832 193.359C93.7832 193.187 93.847 193.04 93.9746 192.918C94.1048 192.796 94.2598 192.734 94.4395 192.734C94.6191 192.734 94.7728 192.796 94.9004 192.918C95.0306 193.04 95.0957 193.187 95.0957 193.359C95.0957 193.531 95.0306 193.678 94.9004 193.801C94.7728 193.923 94.6191 193.984 94.4395 193.984ZM97.7295 201.125C97.1644 201.125 96.7008 200.992 96.3389 200.727C95.9795 200.461 95.7295 200.095 95.5889 199.629C95.4482 199.163 95.4274 198.63 95.5264 198.031C95.6253 197.422 95.8258 196.884 96.1279 196.418C96.43 195.949 96.8063 195.583 97.2568 195.32C97.7074 195.055 98.2035 194.922 98.7451 194.922C99.167 194.922 99.5342 195 99.8467 195.156C100.159 195.312 100.4 195.531 100.569 195.812C100.739 196.094 100.818 196.422 100.808 196.797H99.8857C99.8597 196.523 99.7425 196.281 99.5342 196.07C99.3285 195.857 99.0238 195.75 98.6201 195.75C98.2607 195.75 97.93 195.844 97.6279 196.031C97.3258 196.216 97.0719 196.478 96.8662 196.816C96.6605 197.152 96.5212 197.547 96.4482 198C96.3701 198.464 96.3766 198.867 96.4678 199.211C96.5589 199.555 96.7243 199.822 96.9639 200.012C97.2035 200.202 97.5055 200.297 97.8701 200.297C98.1097 200.297 98.3337 200.255 98.542 200.172C98.7503 200.089 98.9352 199.969 99.0967 199.812C99.2581 199.656 99.3857 199.469 99.4795 199.25H100.401C100.287 199.604 100.103 199.923 99.8506 200.207C99.598 200.488 99.292 200.712 98.9326 200.879C98.5732 201.043 98.1722 201.125 97.7295 201.125ZM101.679 203.25C101.522 203.25 101.384 203.237 101.265 203.211C101.147 203.188 101.067 203.164 101.022 203.141L101.397 202.328C101.611 202.385 101.801 202.402 101.968 202.379C102.137 202.358 102.297 202.276 102.448 202.133C102.602 201.992 102.762 201.771 102.929 201.469L103.187 201L101.983 195H102.944L103.804 199.797H103.866L106.319 195H107.358L103.679 201.867C103.507 202.188 103.318 202.449 103.112 202.652C102.907 202.855 102.684 203.005 102.444 203.102C102.205 203.201 101.95 203.25 101.679 203.25ZM110.794 201L112.122 193H116.919L116.778 193.859H112.95L112.497 196.562H115.966L115.825 197.422H112.356L111.763 201H110.794ZM120.937 198.547L121.53 195H122.452L121.452 201H120.53L120.702 199.984H120.64C120.452 200.289 120.19 200.548 119.854 200.762C119.519 200.973 119.124 201.078 118.671 201.078C118.296 201.078 117.976 200.996 117.71 200.832C117.447 200.665 117.259 200.415 117.147 200.082C117.038 199.746 117.025 199.323 117.108 198.812L117.749 195H118.671L118.046 198.75C117.976 199.187 118.042 199.536 118.245 199.797C118.448 200.057 118.741 200.187 119.124 200.187C119.353 200.187 119.595 200.129 119.851 200.012C120.108 199.895 120.338 199.715 120.538 199.473C120.741 199.23 120.874 198.922 120.937 198.547ZM124.656 197.391L124.063 201H123.141L124.141 195H125.031L124.875 195.937H124.953C125.141 195.633 125.395 195.388 125.715 195.203C126.035 195.016 126.422 194.922 126.875 194.922C127.276 194.922 127.615 195.005 127.891 195.172C128.169 195.336 128.366 195.586 128.48 195.922C128.598 196.255 128.615 196.677 128.531 197.188L127.891 201H126.969L127.594 197.25C127.672 196.781 127.611 196.414 127.41 196.148C127.212 195.883 126.898 195.75 126.469 195.75C126.172 195.75 125.897 195.814 125.645 195.941C125.395 196.069 125.182 196.255 125.008 196.5C124.836 196.745 124.719 197.042 124.656 197.391ZM131.997 201.125C131.432 201.125 130.968 200.992 130.606 200.727C130.247 200.461 129.997 200.095 129.856 199.629C129.716 199.163 129.695 198.63 129.794 198.031C129.893 197.422 130.093 196.884 130.396 196.418C130.698 195.949 131.074 195.583 131.524 195.32C131.975 195.055 132.471 194.922 133.013 194.922C133.435 194.922 133.802 195 134.114 195.156C134.427 195.312 134.668 195.531 134.837 195.812C135.006 196.094 135.086 196.422 135.075 196.797H134.153C134.127 196.523 134.01 196.281 133.802 196.07C133.596 195.857 133.291 195.75 132.888 195.75C132.528 195.75 132.198 195.844 131.896 196.031C131.593 196.216 131.34 196.478 131.134 196.816C130.928 197.152 130.789 197.547 130.716 198C130.638 198.464 130.644 198.867 130.735 199.211C130.826 199.555 130.992 199.822 131.231 200.012C131.471 200.202 131.773 200.297 132.138 200.297C132.377 200.297 132.601 200.255 132.81 200.172C133.018 200.089 133.203 199.969 133.364 199.812C133.526 199.656 133.653 199.469 133.747 199.25H134.669C134.554 199.604 134.371 199.923 134.118 200.207C133.866 200.488 133.56 200.712 133.2 200.879C132.841 201.043 132.44 201.125 131.997 201.125ZM139.329 195L139.204 195.781H136.095L136.22 195H139.329ZM137.36 193.562H138.282L137.329 199.281C137.287 199.542 137.294 199.737 137.349 199.867C137.406 199.995 137.492 200.081 137.606 200.125C137.724 200.167 137.85 200.187 137.985 200.187C138.087 200.187 138.17 200.182 138.235 200.172C138.3 200.159 138.353 200.148 138.392 200.141L138.454 200.969C138.384 200.992 138.289 201.016 138.169 201.039C138.052 201.065 137.907 201.078 137.735 201.078C137.475 201.078 137.23 201.022 137.001 200.91C136.772 200.798 136.596 200.628 136.474 200.398C136.351 200.169 136.319 199.88 136.376 199.531L137.36 193.562ZM139.716 201L140.716 195H141.638L140.638 201H139.716ZM141.458 193.984C141.278 193.984 141.123 193.923 140.993 193.801C140.866 193.678 140.802 193.531 140.802 193.359C140.802 193.187 140.866 193.04 140.993 192.918C141.123 192.796 141.278 192.734 141.458 192.734C141.638 192.734 141.791 192.796 141.919 192.918C142.049 193.04 142.114 193.187 142.114 193.359C142.114 193.531 142.049 193.678 141.919 193.801C141.791 193.923 141.638 193.984 141.458 193.984ZM144.803 201.125C144.251 201.125 143.788 200.993 143.416 200.73C143.044 200.467 142.781 200.099 142.627 199.625C142.476 199.151 142.451 198.599 142.553 197.969C142.652 197.354 142.848 196.819 143.143 196.363C143.439 195.905 143.808 195.551 144.248 195.301C144.691 195.048 145.178 194.922 145.709 194.922C146.261 194.922 146.722 195.055 147.092 195.32C147.464 195.583 147.727 195.953 147.881 196.43C148.035 196.904 148.061 197.458 147.959 198.094C147.86 198.703 147.661 199.236 147.361 199.691C147.064 200.145 146.696 200.497 146.256 200.75C145.818 201 145.334 201.125 144.803 201.125ZM144.818 200.297C145.24 200.297 145.606 200.189 145.916 199.973C146.229 199.757 146.481 199.471 146.674 199.117C146.869 198.763 147.001 198.38 147.068 197.969C147.131 197.578 147.128 197.215 147.061 196.879C146.993 196.54 146.848 196.268 146.627 196.062C146.406 195.854 146.094 195.75 145.693 195.75C145.271 195.75 144.903 195.859 144.588 196.078C144.275 196.297 144.023 196.585 143.83 196.941C143.637 197.298 143.508 197.682 143.443 198.094C143.381 198.484 143.382 198.848 143.447 199.184C143.515 199.517 143.66 199.786 143.881 199.992C144.105 200.195 144.417 200.297 144.818 200.297ZM150.405 197.391L149.812 201H148.89L149.89 195H150.78L150.624 195.937H150.702C150.89 195.633 151.144 195.388 151.464 195.203C151.784 195.016 152.171 194.922 152.624 194.922C153.025 194.922 153.364 195.005 153.64 195.172C153.918 195.336 154.115 195.586 154.229 195.922C154.347 196.255 154.364 196.677 154.28 197.188L153.64 201H152.718L153.343 197.25C153.421 196.781 153.36 196.414 153.159 196.148C152.961 195.883 152.647 195.75 152.218 195.75C151.921 195.75 151.646 195.814 151.394 195.941C151.144 196.069 150.931 196.255 150.757 196.5C150.585 196.745 150.468 197.042 150.405 197.391ZM160.355 196.344L159.48 196.578C159.449 196.437 159.395 196.302 159.316 196.172C159.241 196.039 159.124 195.931 158.965 195.848C158.809 195.762 158.595 195.719 158.324 195.719C157.957 195.719 157.638 195.803 157.367 195.973C157.096 196.139 156.941 196.352 156.902 196.609C156.863 196.836 156.915 197.017 157.059 197.152C157.202 197.288 157.441 197.398 157.777 197.484L158.637 197.703C159.152 197.836 159.52 198.035 159.738 198.301C159.96 198.564 160.035 198.906 159.965 199.328C159.908 199.672 159.758 199.979 159.516 200.25C159.273 200.521 158.964 200.734 158.586 200.891C158.208 201.047 157.788 201.125 157.324 201.125C156.707 201.125 156.22 200.992 155.863 200.727C155.507 200.458 155.316 200.07 155.293 199.562L156.215 199.344C156.238 199.664 156.353 199.906 156.559 200.07C156.767 200.232 157.059 200.312 157.434 200.312C157.863 200.312 158.221 200.221 158.508 200.039C158.794 199.854 158.957 199.633 158.996 199.375C159.035 199.164 158.993 198.988 158.871 198.848C158.751 198.707 158.543 198.602 158.246 198.531L157.293 198.297C156.762 198.164 156.389 197.961 156.176 197.687C155.965 197.414 155.895 197.07 155.965 196.656C156.022 196.318 156.168 196.018 156.402 195.758C156.639 195.497 156.936 195.293 157.293 195.145C157.652 194.996 158.043 194.922 158.465 194.922C159.059 194.922 159.503 195.052 159.797 195.312C160.091 195.57 160.277 195.914 160.355 196.344Z" fill="black"/>
<path d="M79.8519 13L81.4215 3.54545H85.1516C85.8656 3.54545 86.4519 3.68241 86.9105 3.95632C87.3722 4.22715 87.6953 4.60417 87.88 5.08736C88.0677 5.56747 88.1108 6.12145 88.0092 6.74929C87.9046 7.38021 87.6768 7.93572 87.326 8.41584C86.9782 8.89287 86.5258 9.26527 85.9688 9.53303C85.4117 9.80078 84.7685 9.93466 84.0391 9.93466H81.6616L81.9247 8.33274H83.979C84.3668 8.33274 84.6977 8.26657 84.9716 8.13423C85.2486 7.99882 85.4686 7.81262 85.6317 7.57564C85.7949 7.33558 85.901 7.06013 85.9503 6.74929C86.0026 6.43229 85.9857 6.15684 85.8995 5.92294C85.8133 5.68904 85.6548 5.50746 85.424 5.3782C85.1963 5.24586 84.89 5.17969 84.5053 5.17969H83.1573L81.8509 13H79.8519ZM91.3308 13.1385C90.6075 13.1385 90.0089 12.9846 89.535 12.6768C89.061 12.366 88.7271 11.9351 88.5332 11.3842C88.3424 10.8303 88.307 10.1855 88.427 9.44993C88.544 8.7236 88.7871 8.08807 89.1564 7.54332C89.5257 6.99858 89.9951 6.5754 90.5645 6.27379C91.1338 5.96911 91.7755 5.81676 92.4895 5.81676C93.2097 5.81676 93.8068 5.97218 94.2807 6.28303C94.7547 6.59079 95.0886 7.02166 95.2825 7.57564C95.4764 8.12962 95.5133 8.77438 95.3933 9.50994C95.2733 10.2332 95.027 10.8672 94.6547 11.4119C94.2823 11.9567 93.8129 12.3814 93.2466 12.6861C92.6803 12.9877 92.0417 13.1385 91.3308 13.1385ZM91.5247 11.6151C91.8571 11.6151 92.151 11.5212 92.4064 11.3335C92.665 11.1426 92.8788 10.8841 93.0481 10.5579C93.2205 10.2286 93.3405 9.85618 93.4082 9.4407C93.4759 9.03137 93.4805 8.66821 93.4221 8.35121C93.3636 8.03113 93.2405 7.77876 93.0527 7.5941C92.8681 7.40945 92.6142 7.31712 92.291 7.31712C91.9586 7.31712 91.6632 7.41252 91.4047 7.60334C91.1461 7.79107 90.9322 8.0496 90.763 8.37891C90.5937 8.70821 90.4752 9.08215 90.4075 9.50071C90.3429 9.90696 90.3382 10.2701 90.3936 10.5902C90.449 10.9072 90.5706 11.158 90.7583 11.3427C90.9461 11.5243 91.2015 11.6151 91.5247 11.6151ZM99.6266 3.54545L98.057 13H96.0904L97.66 3.54545H99.6266ZM99.6324 13L100.814 5.90909H102.781L101.599 13H99.6324ZM102.001 4.98579C101.708 4.98579 101.467 4.88885 101.276 4.69496C101.088 4.49799 101.011 4.26409 101.045 3.99325C101.079 3.71626 101.211 3.48236 101.442 3.29155C101.673 3.09766 101.934 3.00071 102.227 3.00071C102.519 3.00071 102.758 3.09766 102.942 3.29155C103.127 3.48236 103.204 3.71626 103.173 3.99325C103.142 4.26409 103.012 4.49799 102.781 4.69496C102.553 4.88885 102.293 4.98579 102.001 4.98579ZM106.36 13.1385C105.63 13.1385 105.03 12.9846 104.559 12.6768C104.092 12.366 103.764 11.9351 103.576 11.3842C103.391 10.8333 103.359 10.1993 103.479 9.48224C103.596 8.75592 103.841 8.11884 104.213 7.57102C104.585 7.02012 105.058 6.59079 105.63 6.28303C106.206 5.97218 106.852 5.81676 107.569 5.81676C108.188 5.81676 108.711 5.9291 109.139 6.15376C109.567 6.37843 109.881 6.69389 110.081 7.10014C110.281 7.50639 110.348 7.98343 110.284 8.53125H108.433C108.436 8.1804 108.345 7.89571 108.16 7.6772C107.975 7.45869 107.705 7.34943 107.348 7.34943C107.04 7.34943 106.757 7.43253 106.498 7.59872C106.243 7.76184 106.026 8.00036 105.847 8.31428C105.672 8.6282 105.549 9.00829 105.478 9.45455C105.404 9.90696 105.403 10.2917 105.473 10.6087C105.544 10.9257 105.68 11.1673 105.88 11.3335C106.08 11.4996 106.332 11.5827 106.637 11.5827C106.864 11.5827 107.075 11.5366 107.269 11.4442C107.466 11.3519 107.638 11.218 107.786 11.0426C107.934 10.8641 108.048 10.6502 108.128 10.4009H109.984C109.857 10.9457 109.628 11.4227 109.296 11.832C108.967 12.2414 108.553 12.5614 108.054 12.7923C107.555 13.0231 106.991 13.1385 106.36 13.1385ZM111.584 15.6591C111.332 15.6591 111.101 15.6391 110.892 15.5991C110.683 15.5621 110.51 15.5144 110.375 15.456L111.067 13.9879C111.286 14.0587 111.484 14.0956 111.663 14.0987C111.844 14.1018 112.011 14.0556 112.161 13.9602C112.312 13.8648 112.451 13.7079 112.577 13.4893L112.752 13.1893L111.423 5.90909H113.417L114.017 11.1257H114.091L116.441 5.90909H118.597L114.539 13.7663C114.339 14.151 114.102 14.485 113.828 14.7681C113.557 15.0513 113.236 15.2698 112.863 15.4237C112.494 15.5806 112.068 15.6591 111.584 15.6591ZM127.704 6.29226C127.719 5.90755 127.607 5.61056 127.367 5.40128C127.13 5.192 126.771 5.08736 126.291 5.08736C125.965 5.08736 125.682 5.13352 125.442 5.22585C125.202 5.3151 125.01 5.43975 124.865 5.59979C124.723 5.75675 124.636 5.93833 124.602 6.14453C124.568 6.3138 124.579 6.46153 124.634 6.58771C124.693 6.7139 124.783 6.82315 124.906 6.91548C125.033 7.00473 125.182 7.08321 125.354 7.15092C125.527 7.21555 125.71 7.27095 125.904 7.31712L126.716 7.52024C127.113 7.61257 127.47 7.73568 127.787 7.88956C128.107 8.04344 128.375 8.23272 128.59 8.45739C128.809 8.68205 128.963 8.94673 129.052 9.25142C129.141 9.55611 129.154 9.90542 129.089 10.2994C128.99 10.878 128.761 11.3796 128.401 11.8043C128.041 12.226 127.569 12.5537 126.984 12.7876C126.399 13.0185 125.722 13.1339 124.953 13.1339C124.189 13.1339 123.545 13.0169 123.018 12.783C122.492 12.5491 122.109 12.2029 121.869 11.7443C121.632 11.2827 121.561 10.7118 121.656 10.0316H123.591C123.557 10.3486 123.603 10.6133 123.729 10.8256C123.858 11.0349 124.051 11.1934 124.306 11.3011C124.562 11.4058 124.862 11.4581 125.206 11.4581C125.548 11.4581 125.851 11.4089 126.116 11.3104C126.384 11.2119 126.601 11.0749 126.767 10.8995C126.933 10.7241 127.035 10.5225 127.072 10.2947C127.108 10.0824 127.076 9.90388 126.975 9.75923C126.873 9.61458 126.71 9.49148 126.485 9.38991C126.264 9.28527 125.988 9.19294 125.659 9.11293L124.671 8.8544C123.908 8.66051 123.331 8.35736 122.94 7.94496C122.549 7.53255 122.409 6.97704 122.52 6.27841C122.618 5.70597 122.857 5.20585 123.235 4.77805C123.617 4.34718 124.097 4.01326 124.676 3.77628C125.257 3.53622 125.893 3.41619 126.582 3.41619C127.284 3.41619 127.876 3.53776 128.36 3.78089C128.843 4.02095 129.195 4.35642 129.417 4.78729C129.638 5.21816 129.706 5.71982 129.62 6.29226H127.704ZM133.134 13.1385C132.405 13.1385 131.805 12.9846 131.334 12.6768C130.866 12.366 130.538 11.9351 130.35 11.3842C130.166 10.8333 130.133 10.1993 130.253 9.48224C130.37 8.75592 130.615 8.11884 130.987 7.57102C131.36 7.02012 131.832 6.59079 132.405 6.28303C132.98 5.97218 133.627 5.81676 134.344 5.81676C134.962 5.81676 135.485 5.9291 135.913 6.15376C136.341 6.37843 136.655 6.69389 136.855 7.10014C137.055 7.50639 137.123 7.98343 137.058 8.53125H135.207C135.21 8.1804 135.119 7.89571 134.935 7.6772C134.75 7.45869 134.479 7.34943 134.122 7.34943C133.814 7.34943 133.531 7.43253 133.273 7.59872C133.017 7.76184 132.8 8.00036 132.622 8.31428C132.446 8.6282 132.323 9.00829 132.252 9.45455C132.179 9.90696 132.177 10.2917 132.248 10.6087C132.319 10.9257 132.454 11.1673 132.654 11.3335C132.854 11.4996 133.106 11.5827 133.411 11.5827C133.639 11.5827 133.85 11.5366 134.044 11.4442C134.241 11.3519 134.413 11.218 134.561 11.0426C134.708 10.8641 134.822 10.6502 134.902 10.4009H136.758C136.632 10.9457 136.403 11.4227 136.07 11.832C135.741 12.2414 135.327 12.5614 134.828 12.7923C134.33 13.0231 133.765 13.1385 133.134 13.1385ZM140.792 13.1385C140.068 13.1385 139.47 12.9846 138.996 12.6768C138.522 12.366 138.188 11.9351 137.994 11.3842C137.803 10.8303 137.768 10.1855 137.888 9.44993C138.005 8.7236 138.248 8.08807 138.617 7.54332C138.987 6.99858 139.456 6.5754 140.025 6.27379C140.595 5.96911 141.236 5.81676 141.95 5.81676C142.671 5.81676 143.268 5.97218 143.742 6.28303C144.216 6.59079 144.55 7.02166 144.743 7.57564C144.937 8.12962 144.974 8.77438 144.854 9.50994C144.734 10.2332 144.488 10.8672 144.116 11.4119C143.743 11.9567 143.274 12.3814 142.708 12.6861C142.141 12.9877 141.503 13.1385 140.792 13.1385ZM140.986 11.6151C141.318 11.6151 141.612 11.5212 141.867 11.3335C142.126 11.1426 142.34 10.8841 142.509 10.5579C142.681 10.2286 142.801 9.85618 142.869 9.4407C142.937 9.03137 142.941 8.66821 142.883 8.35121C142.825 8.03113 142.701 7.77876 142.514 7.5941C142.329 7.40945 142.075 7.31712 141.752 7.31712C141.42 7.31712 141.124 7.41252 140.866 7.60334C140.607 7.79107 140.393 8.0496 140.224 8.37891C140.055 8.70821 139.936 9.08215 139.868 9.50071C139.804 9.90696 139.799 10.2701 139.855 10.5902C139.91 10.9072 140.032 11.158 140.219 11.3427C140.407 11.5243 140.662 11.6151 140.986 11.6151ZM145.122 15.6591L146.756 5.90909H148.695L148.497 7.10014H148.584C148.701 6.90933 148.857 6.71544 149.051 6.51847C149.248 6.31842 149.492 6.15223 149.785 6.01989C150.077 5.88447 150.42 5.81676 150.814 5.81676C151.334 5.81676 151.788 5.95218 152.176 6.22301C152.564 6.49077 152.844 6.89548 153.016 7.43714C153.192 7.97573 153.212 8.65128 153.076 9.46378C152.947 10.2547 152.708 10.9226 152.361 11.4673C152.016 12.009 151.602 12.4199 151.119 12.6999C150.639 12.9769 150.129 13.1154 149.591 13.1154C149.209 13.1154 148.895 13.0523 148.649 12.9261C148.406 12.8 148.217 12.6415 148.081 12.4506C147.946 12.2567 147.85 12.0613 147.795 11.8643H147.721L147.093 15.6591H145.122ZM148.09 9.45455C148.023 9.87618 148.02 10.244 148.081 10.5579C148.146 10.8718 148.275 11.1165 148.469 11.2919C148.663 11.4643 148.918 11.5504 149.235 11.5504C149.555 11.5504 149.84 11.4627 150.089 11.2873C150.339 11.1088 150.546 10.8626 150.713 10.5487C150.879 10.2317 150.997 9.86695 151.068 9.45455C151.133 9.04522 151.134 8.68513 151.073 8.37429C151.011 8.06345 150.885 7.82031 150.694 7.64489C150.503 7.46946 150.245 7.38175 149.919 7.38175C149.602 7.38175 149.317 7.46638 149.064 7.63565C148.815 7.80492 148.607 8.04498 148.441 8.35582C148.275 8.66667 148.158 9.03291 148.09 9.45455ZM157.004 13.1385C156.277 13.1385 155.676 12.9908 155.199 12.6953C154.722 12.3968 154.386 11.9751 154.192 11.4304C154.001 10.8826 153.969 10.2347 154.095 9.48686C154.218 8.75746 154.466 8.11731 154.839 7.56641C155.214 7.01551 155.685 6.58617 156.251 6.27841C156.817 5.97064 157.448 5.81676 158.144 5.81676C158.612 5.81676 159.035 5.89216 159.413 6.04297C159.795 6.1907 160.112 6.41536 160.364 6.71697C160.617 7.01551 160.789 7.38944 160.881 7.83878C160.977 8.28812 160.975 8.81439 160.877 9.41761L160.789 9.95774H154.806L154.995 8.73899H159.132C159.178 8.45585 159.16 8.20502 159.076 7.98651C158.993 7.76799 158.855 7.59718 158.661 7.47408C158.467 7.34789 158.229 7.2848 157.945 7.2848C157.656 7.2848 157.385 7.35559 157.133 7.49716C156.881 7.63873 156.668 7.82493 156.496 8.05575C156.327 8.2835 156.217 8.53125 156.168 8.79901L155.951 10.0085C155.89 10.3809 155.902 10.6902 155.988 10.9364C156.077 11.1826 156.231 11.3673 156.45 11.4904C156.668 11.6104 156.945 11.6705 157.281 11.6705C157.499 11.6705 157.704 11.6397 157.895 11.5781C158.089 11.5166 158.261 11.4258 158.412 11.3058C158.562 11.1826 158.686 11.0303 158.781 10.8487L160.577 10.9688C160.411 11.4058 160.158 11.7874 159.82 12.1136C159.481 12.4368 159.073 12.6892 158.596 12.8707C158.122 13.0492 157.591 13.1385 157.004 13.1385Z" fill="black"/>
<rect x="76" y="144" width="34.4192" height="36.766" rx="10" fill="#D9D9D9"/>
<path d="M88.8409 159.273L88.6591 160.409H83.9545L84.1364 159.273H88.8409ZM84.0909 168L85.75 158.068C85.8258 157.568 86.0076 157.152 86.2955 156.818C86.5871 156.485 86.9337 156.235 87.3352 156.068C87.7405 155.902 88.1515 155.818 88.5682 155.818C88.8977 155.818 89.161 155.845 89.358 155.898C89.5587 155.951 89.7045 156 89.7955 156.045L89.2273 157.205C89.1591 157.182 89.0682 157.153 88.9545 157.119C88.8447 157.085 88.6932 157.068 88.5 157.068C88.0568 157.068 87.7197 157.18 87.4886 157.403C87.2576 157.627 87.1023 157.955 87.0227 158.386L85.4318 168H84.0909ZM90.5611 163.091C90.7997 161.659 91.2031 160.343 91.7713 159.142C92.3433 157.937 93.0611 156.83 93.9247 155.818H95.1065C94.7732 156.193 94.4418 156.655 94.1122 157.205C93.7865 157.75 93.4796 158.35 93.1918 159.006C92.9077 159.657 92.6577 160.331 92.4418 161.028C92.2259 161.725 92.0611 162.413 91.9474 163.091C91.7959 163.992 91.7296 164.907 91.7486 165.835C91.7713 166.763 91.8641 167.625 92.027 168.42C92.1937 169.216 92.4171 169.864 92.6974 170.364H91.5156C90.9929 169.352 90.6425 168.246 90.4645 167.045C90.2902 165.841 90.3224 164.523 90.5611 163.091ZM98.7443 163.091C98.5057 164.523 98.1004 165.841 97.5284 167.045C96.9602 168.246 96.2443 169.352 95.3807 170.364H94.1989C94.536 169.989 94.8674 169.527 95.1932 168.977C95.5189 168.432 95.8239 167.833 96.108 167.182C96.3958 166.527 96.6477 165.85 96.8636 165.153C97.0795 164.453 97.2443 163.765 97.358 163.091C97.5095 162.189 97.5739 161.275 97.5511 160.347C97.5322 159.419 97.4394 158.557 97.2727 157.761C97.1098 156.966 96.8883 156.318 96.608 155.818H97.7898C98.3125 156.83 98.661 157.937 98.8352 159.142C99.0133 160.343 98.983 161.659 98.7443 163.091Z" fill="black"/>
<rect x="129" y="144" width="34.4192" height="36.766" rx="10" fill="#D9D9D9"/>
<path d="M141.841 159.273L141.659 160.409H136.955L137.136 159.273H141.841ZM137.091 168L138.75 158.068C138.826 157.568 139.008 157.152 139.295 156.818C139.587 156.485 139.934 156.235 140.335 156.068C140.741 155.902 141.152 155.818 141.568 155.818C141.898 155.818 142.161 155.845 142.358 155.898C142.559 155.951 142.705 156 142.795 156.045L142.227 157.205C142.159 157.182 142.068 157.153 141.955 157.119C141.845 157.085 141.693 157.068 141.5 157.068C141.057 157.068 140.72 157.18 140.489 157.403C140.258 157.627 140.102 157.955 140.023 158.386L138.432 168H137.091ZM143.561 163.091C143.8 161.659 144.203 160.343 144.771 159.142C145.343 157.937 146.061 156.83 146.925 155.818H148.107C147.773 156.193 147.442 156.655 147.112 157.205C146.786 157.75 146.48 158.35 146.192 159.006C145.908 159.657 145.658 160.331 145.442 161.028C145.226 161.725 145.061 162.413 144.947 163.091C144.796 163.992 144.73 164.907 144.749 165.835C144.771 166.763 144.864 167.625 145.027 168.42C145.194 169.216 145.417 169.864 145.697 170.364H144.516C143.993 169.352 143.643 168.246 143.464 167.045C143.29 165.841 143.322 164.523 143.561 163.091ZM151.744 163.091C151.506 164.523 151.1 165.841 150.528 167.045C149.96 168.246 149.244 169.352 148.381 170.364H147.199C147.536 169.989 147.867 169.527 148.193 168.977C148.519 168.432 148.824 167.833 149.108 167.182C149.396 166.527 149.648 165.85 149.864 165.153C150.08 164.453 150.244 163.765 150.358 163.091C150.509 162.189 150.574 161.275 150.551 160.347C150.532 159.419 150.439 158.557 150.273 157.761C150.11 156.966 149.888 156.318 149.608 155.818H150.79C151.313 156.83 151.661 157.937 151.835 159.142C152.013 160.343 151.983 161.659 151.744 163.091Z" fill="black"/>
<path d="M92.2929 129.707C92.6834 130.098 93.3166 130.098 93.7071 129.707L100.071 123.343C100.462 122.953 100.462 122.319 100.071 121.929C99.6805 121.538 99.0474 121.538 98.6569 121.929L93 127.586L87.3431 121.929C86.9526 121.538 86.3195 121.538 85.9289 121.929C85.5384 122.319 85.5384 122.953 85.9289 123.343L92.2929 129.707ZM92 76L92 129L94 129L94 76L92 76Z" fill="black"/>
<path d="M143.293 129.707C143.683 130.098 144.317 130.098 144.707 129.707L151.071 123.343C151.462 122.953 151.462 122.319 151.071 121.929C150.681 121.538 150.047 121.538 149.657 121.929L144 127.586L138.343 121.929C137.953 121.538 137.319 121.538 136.929 121.929C136.538 122.319 136.538 122.953 136.929 123.343L143.293 129.707ZM143 76L143 129L145 129L145 76L143 76Z" fill="black"/>
</svg>
