<svg width="485" height="205" viewBox="0 0 485 205" fill="none" xmlns="http://www.w3.org/2000/svg">
<rect x="0.5" y="1.5" width="227" height="203" rx="9.5" stroke="black"/>
<path d="M52.0114 34V22.3636H59.7159V24.392H54.4716V27.1648H59.2045V29.1932H54.4716V34H52.0114ZM61.3253 34V25.2727H63.7457V34H61.3253ZM62.5412 24.1477C62.1813 24.1477 61.8726 24.0284 61.6151 23.7898C61.3613 23.5473 61.2344 23.2576 61.2344 22.9205C61.2344 22.5871 61.3613 22.3011 61.6151 22.0625C61.8726 21.8201 62.1813 21.6989 62.5412 21.6989C62.901 21.6989 63.2079 21.8201 63.4616 22.0625C63.7192 22.3011 63.848 22.5871 63.848 22.9205C63.848 23.2576 63.7192 23.5473 63.4616 23.7898C63.2079 24.0284 62.901 24.1477 62.5412 24.1477ZM68.1051 28.9545V34H65.6847V25.2727H67.9915V26.8125H68.0938C68.2869 26.3049 68.6108 25.9034 69.0653 25.608C69.5199 25.3087 70.071 25.1591 70.7188 25.1591C71.3248 25.1591 71.8532 25.2917 72.304 25.5568C72.7547 25.822 73.1051 26.2008 73.3551 26.6932C73.6051 27.1818 73.7301 27.7652 73.7301 28.4432V34H71.3097V28.875C71.3134 28.3409 71.1771 27.9242 70.9006 27.625C70.6241 27.322 70.2434 27.1705 69.7585 27.1705C69.4328 27.1705 69.1449 27.2405 68.8949 27.3807C68.6487 27.5208 68.4555 27.7254 68.3153 27.9943C68.179 28.2595 68.1089 28.5795 68.1051 28.9545ZM75.6378 34V25.2727H78.0582V34H75.6378ZM76.8537 24.1477C76.4938 24.1477 76.1851 24.0284 75.9276 23.7898C75.6738 23.5473 75.5469 23.2576 75.5469 22.9205C75.5469 22.5871 75.6738 22.3011 75.9276 22.0625C76.1851 21.8201 76.4938 21.6989 76.8537 21.6989C77.2135 21.6989 77.5204 21.8201 77.7741 22.0625C78.0317 22.3011 78.1605 22.5871 78.1605 22.9205C78.1605 23.2576 78.0317 23.5473 77.7741 23.7898C77.5204 24.0284 77.2135 24.1477 76.8537 24.1477ZM84.6392 25.2727V27.0909H79.3835V25.2727H84.6392ZM80.5767 23.1818H82.9972V31.3182C82.9972 31.5417 83.0313 31.7159 83.0994 31.8409C83.1676 31.9621 83.2623 32.0473 83.3835 32.0966C83.5085 32.1458 83.6525 32.1705 83.8153 32.1705C83.929 32.1705 84.0426 32.161 84.1562 32.142C84.2699 32.1193 84.357 32.1023 84.4176 32.0909L84.7983 33.892C84.6771 33.9299 84.5066 33.9735 84.2869 34.0227C84.0672 34.0758 83.8002 34.108 83.4858 34.1193C82.9025 34.142 82.3911 34.0644 81.9517 33.8864C81.5161 33.7083 81.1771 33.4318 80.9347 33.0568C80.6922 32.6818 80.5729 32.2083 80.5767 31.6364V23.1818ZM90.0994 34.1705C89.2017 34.1705 88.429 33.9886 87.7812 33.625C87.1373 33.2576 86.6411 32.7386 86.2926 32.0682C85.9441 31.3939 85.7699 30.5966 85.7699 29.6761C85.7699 28.7784 85.9441 27.9905 86.2926 27.3125C86.6411 26.6345 87.1316 26.1061 87.7642 25.7273C88.4006 25.3485 89.1468 25.1591 90.0028 25.1591C90.5786 25.1591 91.1146 25.2519 91.6108 25.4375C92.1108 25.6193 92.5464 25.8939 92.9176 26.2614C93.2926 26.6288 93.5843 27.0909 93.7926 27.6477C94.0009 28.2008 94.1051 28.8485 94.1051 29.5909V30.2557H86.7358V28.7557H91.8267C91.8267 28.4072 91.7509 28.0985 91.5994 27.8295C91.4479 27.5606 91.2377 27.3504 90.9688 27.1989C90.7036 27.0436 90.3949 26.9659 90.0426 26.9659C89.6752 26.9659 89.3494 27.0511 89.0653 27.2216C88.785 27.3883 88.5653 27.6136 88.4062 27.8977C88.2472 28.178 88.1657 28.4905 88.1619 28.8352V30.2614C88.1619 30.6932 88.2415 31.0663 88.4006 31.3807C88.5634 31.6951 88.7926 31.9375 89.0881 32.108C89.3835 32.2784 89.7339 32.3636 90.1392 32.3636C90.4081 32.3636 90.6544 32.3258 90.8778 32.25C91.1013 32.1742 91.2926 32.0606 91.4517 31.9091C91.6108 31.7576 91.732 31.572 91.8153 31.3523L94.054 31.5C93.9403 32.0379 93.7074 32.5076 93.3551 32.9091C93.0066 33.3068 92.5559 33.6174 92.0028 33.8409C91.4536 34.0606 90.8191 34.1705 90.0994 34.1705ZM98.9901 24.392V22.3636H108.547V24.392H104.984V34H102.553V24.392H98.9901ZM109.169 34V25.2727H111.516V26.7955H111.607C111.766 26.2538 112.033 25.8447 112.408 25.5682C112.783 25.2879 113.214 25.1477 113.703 25.1477C113.824 25.1477 113.955 25.1553 114.095 25.1705C114.235 25.1856 114.358 25.2064 114.464 25.233V27.3807C114.351 27.3466 114.194 27.3163 113.993 27.2898C113.792 27.2633 113.608 27.25 113.442 27.25C113.086 27.25 112.768 27.3277 112.487 27.483C112.211 27.6345 111.991 27.8466 111.828 28.1193C111.669 28.392 111.589 28.7064 111.589 29.0625V34H109.169ZM117.955 34.1648C117.398 34.1648 116.902 34.0682 116.466 33.875C116.03 33.678 115.686 33.3883 115.432 33.0057C115.182 32.6193 115.057 32.1383 115.057 31.5625C115.057 31.0777 115.146 30.6705 115.324 30.3409C115.502 30.0114 115.744 29.7462 116.051 29.5455C116.358 29.3447 116.706 29.1932 117.097 29.0909C117.491 28.9886 117.903 28.9167 118.335 28.875C118.843 28.822 119.252 28.7727 119.562 28.7273C119.873 28.678 120.098 28.6061 120.239 28.5114C120.379 28.4167 120.449 28.2765 120.449 28.0909V28.0568C120.449 27.697 120.335 27.4186 120.108 27.2216C119.884 27.0246 119.566 26.9261 119.153 26.9261C118.718 26.9261 118.371 27.0227 118.114 27.2159C117.856 27.4053 117.686 27.6439 117.602 27.9318L115.364 27.75C115.477 27.2197 115.701 26.7614 116.034 26.375C116.367 25.9848 116.797 25.6856 117.324 25.4773C117.854 25.2652 118.468 25.1591 119.165 25.1591C119.65 25.1591 120.114 25.2159 120.557 25.3295C121.004 25.4432 121.4 25.6193 121.744 25.858C122.093 26.0966 122.367 26.4034 122.568 26.7784C122.769 27.1496 122.869 27.5947 122.869 28.1136V34H120.574V32.7898H120.506C120.366 33.0625 120.178 33.303 119.943 33.5114C119.708 33.7159 119.426 33.8769 119.097 33.9943C118.767 34.108 118.386 34.1648 117.955 34.1648ZM118.648 32.4943C119.004 32.4943 119.318 32.4242 119.591 32.2841C119.864 32.1402 120.078 31.947 120.233 31.7045C120.388 31.4621 120.466 31.1875 120.466 30.8807V29.9545C120.39 30.0038 120.286 30.0492 120.153 30.0909C120.025 30.1288 119.879 30.1648 119.716 30.1989C119.553 30.2292 119.39 30.2576 119.227 30.2841C119.064 30.3068 118.917 30.3277 118.784 30.3466C118.5 30.3883 118.252 30.4545 118.04 30.5455C117.828 30.6364 117.663 30.7595 117.545 30.9148C117.428 31.0663 117.369 31.2557 117.369 31.483C117.369 31.8125 117.489 32.0644 117.727 32.2386C117.97 32.4091 118.277 32.4943 118.648 32.4943ZM127.168 28.9545V34H124.747V25.2727H127.054V26.8125H127.156C127.349 26.3049 127.673 25.9034 128.128 25.608C128.582 25.3087 129.134 25.1591 129.781 25.1591C130.387 25.1591 130.916 25.2917 131.366 25.5568C131.817 25.822 132.168 26.2008 132.418 26.6932C132.668 27.1818 132.793 27.7652 132.793 28.4432V34H130.372V28.875C130.376 28.3409 130.24 27.9242 129.963 27.625C129.687 27.322 129.306 27.1705 128.821 27.1705C128.495 27.1705 128.207 27.2405 127.957 27.3807C127.711 27.5208 127.518 27.7254 127.378 27.9943C127.241 28.2595 127.171 28.5795 127.168 28.9545ZM141.962 27.7614L139.746 27.8977C139.708 27.7083 139.626 27.5379 139.501 27.3864C139.376 27.2311 139.212 27.108 139.007 27.017C138.806 26.9223 138.566 26.875 138.286 26.875C137.911 26.875 137.594 26.9545 137.337 27.1136C137.079 27.2689 136.95 27.4773 136.95 27.7386C136.95 27.947 137.034 28.1231 137.2 28.267C137.367 28.411 137.653 28.5265 138.058 28.6136L139.638 28.9318C140.486 29.1061 141.119 29.3864 141.536 29.7727C141.952 30.1591 142.161 30.6667 142.161 31.2955C142.161 31.8674 141.992 32.3693 141.655 32.8011C141.321 33.233 140.863 33.5701 140.28 33.8125C139.7 34.0511 139.032 34.1705 138.274 34.1705C137.119 34.1705 136.198 33.9299 135.513 33.4489C134.831 32.964 134.431 32.3049 134.314 31.4716L136.695 31.3466C136.767 31.6989 136.941 31.9678 137.217 32.1534C137.494 32.3352 137.848 32.4261 138.28 32.4261C138.704 32.4261 139.045 32.3447 139.303 32.1818C139.564 32.0152 139.696 31.8011 139.7 31.5398C139.696 31.3201 139.604 31.1402 139.422 31C139.24 30.8561 138.96 30.7462 138.581 30.6705L137.07 30.3693C136.217 30.1989 135.583 29.9034 135.166 29.483C134.753 29.0625 134.547 28.5265 134.547 27.875C134.547 27.3144 134.698 26.8314 135.001 26.4261C135.308 26.0208 135.738 25.7083 136.291 25.4886C136.848 25.2689 137.5 25.1591 138.246 25.1591C139.348 25.1591 140.215 25.392 140.848 25.858C141.484 26.3239 141.856 26.9583 141.962 27.7614ZM148.378 25.2727V27.0909H142.991V25.2727H148.378ZM144.224 34V24.642C144.224 24.0095 144.348 23.4848 144.594 23.0682C144.844 22.6515 145.185 22.339 145.616 22.1307C146.048 21.9223 146.539 21.8182 147.088 21.8182C147.459 21.8182 147.798 21.8466 148.105 21.9034C148.416 21.9602 148.647 22.0114 148.798 22.0568L148.366 23.875C148.272 23.8447 148.154 23.8163 148.014 23.7898C147.878 23.7633 147.738 23.75 147.594 23.75C147.238 23.75 146.99 23.8333 146.849 24C146.709 24.1629 146.639 24.392 146.639 24.6875V34H144.224ZM153.521 34.1705C152.624 34.1705 151.851 33.9886 151.203 33.625C150.559 33.2576 150.063 32.7386 149.714 32.0682C149.366 31.3939 149.192 30.5966 149.192 29.6761C149.192 28.7784 149.366 27.9905 149.714 27.3125C150.063 26.6345 150.554 26.1061 151.186 25.7273C151.822 25.3485 152.569 25.1591 153.425 25.1591C154 25.1591 154.536 25.2519 155.033 25.4375C155.533 25.6193 155.968 25.8939 156.339 26.2614C156.714 26.6288 157.006 27.0909 157.214 27.6477C157.423 28.2008 157.527 28.8485 157.527 29.5909V30.2557H150.158V28.7557H155.249C155.249 28.4072 155.173 28.0985 155.021 27.8295C154.87 27.5606 154.66 27.3504 154.391 27.1989C154.125 27.0436 153.817 26.9659 153.464 26.9659C153.097 26.9659 152.771 27.0511 152.487 27.2216C152.207 27.3883 151.987 27.6136 151.828 27.8977C151.669 28.178 151.588 28.4905 151.584 28.8352V30.2614C151.584 30.6932 151.663 31.0663 151.822 31.3807C151.985 31.6951 152.214 31.9375 152.51 32.108C152.805 32.2784 153.156 32.3636 153.561 32.3636C153.83 32.3636 154.076 32.3258 154.3 32.25C154.523 32.1742 154.714 32.0606 154.874 31.9091C155.033 31.7576 155.154 31.572 155.237 31.3523L157.476 31.5C157.362 32.0379 157.129 32.5076 156.777 32.9091C156.429 33.3068 155.978 33.6174 155.425 33.8409C154.875 34.0606 154.241 34.1705 153.521 34.1705ZM159.107 34V25.2727H161.453V26.7955H161.544C161.703 26.2538 161.97 25.8447 162.345 25.5682C162.72 25.2879 163.152 25.1477 163.641 25.1477C163.762 25.1477 163.893 25.1553 164.033 25.1705C164.173 25.1856 164.296 25.2064 164.402 25.233V27.3807C164.288 27.3466 164.131 27.3163 163.93 27.2898C163.73 27.2633 163.546 27.25 163.379 27.25C163.023 27.25 162.705 27.3277 162.425 27.483C162.148 27.6345 161.929 27.8466 161.766 28.1193C161.607 28.392 161.527 28.7064 161.527 29.0625V34H159.107ZM172.915 27.7614L170.699 27.8977C170.661 27.7083 170.58 27.5379 170.455 27.3864C170.33 27.2311 170.165 27.108 169.96 27.017C169.759 26.9223 169.519 26.875 169.239 26.875C168.864 26.875 168.547 26.9545 168.29 27.1136C168.032 27.2689 167.903 27.4773 167.903 27.7386C167.903 27.947 167.987 28.1231 168.153 28.267C168.32 28.411 168.606 28.5265 169.011 28.6136L170.591 28.9318C171.439 29.1061 172.072 29.3864 172.489 29.7727C172.905 30.1591 173.114 30.6667 173.114 31.2955C173.114 31.8674 172.945 32.3693 172.608 32.8011C172.275 33.233 171.816 33.5701 171.233 33.8125C170.653 34.0511 169.985 34.1705 169.227 34.1705C168.072 34.1705 167.152 33.9299 166.466 33.4489C165.784 32.964 165.384 32.3049 165.267 31.4716L167.648 31.3466C167.72 31.6989 167.894 31.9678 168.17 32.1534C168.447 32.3352 168.801 32.4261 169.233 32.4261C169.657 32.4261 169.998 32.3447 170.256 32.1818C170.517 32.0152 170.65 31.8011 170.653 31.5398C170.65 31.3201 170.557 31.1402 170.375 31C170.193 30.8561 169.913 30.7462 169.534 30.6705L168.023 30.3693C167.17 30.1989 166.536 29.9034 166.119 29.483C165.706 29.0625 165.5 28.5265 165.5 27.875C165.5 27.3144 165.652 26.8314 165.955 26.4261C166.261 26.0208 166.691 25.7083 167.244 25.4886C167.801 25.2689 168.453 25.1591 169.199 25.1591C170.301 25.1591 171.169 25.392 171.801 25.858C172.438 26.3239 172.809 26.9583 172.915 27.7614Z" fill="black"/>
<rect x="96" y="57" width="26.6557" height="24.1639" fill="white" stroke="black" stroke-width="2"/>
<rect x="105.344" y="70.0819" width="26.6557" height="24.1639" fill="white" stroke="black" stroke-width="2"/>
<path d="M30.2273 148.182C30.2273 149.409 30.0057 150.47 29.5625 151.364C29.1193 152.258 28.5114 152.947 27.7386 153.432C26.9659 153.917 26.0833 154.159 25.0909 154.159C24.0985 154.159 23.2159 153.917 22.4432 153.432C21.6705 152.947 21.0625 152.258 20.6193 151.364C20.1761 150.47 19.9545 149.409 19.9545 148.182C19.9545 146.955 20.1761 145.894 20.6193 145C21.0625 144.106 21.6705 143.417 22.4432 142.932C23.2159 142.447 24.0985 142.205 25.0909 142.205C26.0833 142.205 26.9659 142.447 27.7386 142.932C28.5114 143.417 29.1193 144.106 29.5625 145C30.0057 145.894 30.2273 146.955 30.2273 148.182ZM28.8636 148.182C28.8636 147.174 28.6951 146.324 28.358 145.631C28.0246 144.938 27.572 144.413 27 144.057C26.4318 143.701 25.7955 143.523 25.0909 143.523C24.3864 143.523 23.7481 143.701 23.1761 144.057C22.608 144.413 22.1553 144.938 21.8182 145.631C21.4848 146.324 21.3182 147.174 21.3182 148.182C21.3182 149.189 21.4848 150.04 21.8182 150.733C22.1553 151.426 22.608 151.951 23.1761 152.307C23.7481 152.663 24.3864 152.841 25.0909 152.841C25.7955 152.841 26.4318 152.663 27 152.307C27.572 151.951 28.0246 151.426 28.358 150.733C28.6951 150.04 28.8636 149.189 28.8636 148.182ZM33.7557 148.75V154H32.4148V145.273H33.7102V146.636H33.8239C34.0284 146.193 34.339 145.837 34.7557 145.568C35.1723 145.295 35.7102 145.159 36.3693 145.159C36.9602 145.159 37.4773 145.28 37.9205 145.523C38.3636 145.761 38.7083 146.125 38.9545 146.614C39.2008 147.098 39.3239 147.712 39.3239 148.455V154H37.983V148.545C37.983 147.86 37.8049 147.326 37.4489 146.943C37.0928 146.557 36.6042 146.364 35.983 146.364C35.5549 146.364 35.1723 146.456 34.8352 146.642C34.5019 146.828 34.2386 147.098 34.0455 147.455C33.8523 147.811 33.7557 148.242 33.7557 148.75ZM45.4332 154.182C44.5923 154.182 43.867 153.996 43.2571 153.625C42.651 153.25 42.1832 152.727 41.8537 152.057C41.5279 151.383 41.3651 150.598 41.3651 149.705C41.3651 148.811 41.5279 148.023 41.8537 147.341C42.1832 146.655 42.6416 146.121 43.2287 145.739C43.8196 145.352 44.509 145.159 45.2969 145.159C45.7514 145.159 46.2003 145.235 46.6435 145.386C47.0866 145.538 47.4901 145.784 47.8537 146.125C48.2173 146.462 48.5071 146.909 48.723 147.466C48.9389 148.023 49.0469 148.708 49.0469 149.523V150.091H42.3196V148.932H47.6832C47.6832 148.439 47.5848 148 47.3878 147.614C47.1946 147.227 46.9181 146.922 46.5582 146.699C46.2022 146.475 45.7817 146.364 45.2969 146.364C44.7628 146.364 44.3007 146.496 43.9105 146.761C43.5241 147.023 43.2268 147.364 43.0185 147.784C42.8101 148.205 42.706 148.655 42.706 149.136V149.909C42.706 150.568 42.8196 151.127 43.0469 151.585C43.2779 152.04 43.598 152.386 44.0071 152.625C44.4162 152.86 44.8916 152.977 45.4332 152.977C45.7855 152.977 46.1037 152.928 46.3878 152.83C46.6757 152.727 46.9238 152.576 47.1321 152.375C47.3404 152.17 47.5014 151.917 47.6151 151.614L48.9105 151.977C48.7741 152.417 48.545 152.803 48.223 153.136C47.901 153.466 47.5033 153.723 47.0298 153.909C46.5563 154.091 46.0241 154.182 45.4332 154.182ZM56.0866 148.386V149.636H50.9957V148.386H56.0866ZM64.6278 147.227L63.4233 147.568C63.3475 147.367 63.2358 147.172 63.0881 146.983C62.9441 146.79 62.7472 146.631 62.4972 146.506C62.2472 146.381 61.9271 146.318 61.5369 146.318C61.0028 146.318 60.5578 146.441 60.2017 146.688C59.8494 146.93 59.6733 147.239 59.6733 147.614C59.6733 147.947 59.7945 148.21 60.0369 148.403C60.2794 148.597 60.6581 148.758 61.1733 148.886L62.4688 149.205C63.2491 149.394 63.8305 149.684 64.2131 150.074C64.5956 150.46 64.7869 150.958 64.7869 151.568C64.7869 152.068 64.643 152.515 64.3551 152.909C64.071 153.303 63.6733 153.614 63.1619 153.841C62.6506 154.068 62.0559 154.182 61.3778 154.182C60.4877 154.182 59.7509 153.989 59.1676 153.602C58.5843 153.216 58.215 152.652 58.0597 151.909L59.3324 151.591C59.4536 152.061 59.6828 152.413 60.0199 152.648C60.3608 152.883 60.8059 153 61.3551 153C61.9801 153 62.4763 152.867 62.8438 152.602C63.215 152.333 63.4006 152.011 63.4006 151.636C63.4006 151.333 63.2945 151.08 63.0824 150.875C62.8703 150.667 62.5445 150.511 62.1051 150.409L60.6506 150.068C59.8513 149.879 59.2642 149.585 58.8892 149.188C58.518 148.786 58.3324 148.284 58.3324 147.682C58.3324 147.189 58.4706 146.754 58.7472 146.375C59.0275 145.996 59.4081 145.699 59.8892 145.483C60.3741 145.267 60.9233 145.159 61.5369 145.159C62.4006 145.159 63.0786 145.348 63.571 145.727C64.0672 146.106 64.4195 146.606 64.6278 147.227ZM68.1463 148.75V154H66.8054V142.364H68.1463V146.636H68.2599C68.4645 146.186 68.7713 145.828 69.1804 145.562C69.5933 145.294 70.1425 145.159 70.8281 145.159C71.4228 145.159 71.9437 145.278 72.3906 145.517C72.8376 145.752 73.1842 146.114 73.4304 146.602C73.6804 147.087 73.8054 147.705 73.8054 148.455V154H72.4645V148.545C72.4645 147.852 72.2846 147.316 71.9247 146.938C71.5687 146.555 71.0743 146.364 70.4418 146.364C70.0024 146.364 69.6084 146.456 69.2599 146.642C68.9152 146.828 68.6425 147.098 68.4418 147.455C68.2448 147.811 68.1463 148.242 68.1463 148.75ZM79.804 154.182C79.0161 154.182 78.3248 153.994 77.7301 153.619C77.1392 153.244 76.6771 152.72 76.3438 152.045C76.0142 151.371 75.8494 150.583 75.8494 149.682C75.8494 148.773 76.0142 147.979 76.3438 147.301C76.6771 146.623 77.1392 146.097 77.7301 145.722C78.3248 145.347 79.0161 145.159 79.804 145.159C80.5919 145.159 81.2813 145.347 81.8722 145.722C82.4669 146.097 82.929 146.623 83.2585 147.301C83.5919 147.979 83.7585 148.773 83.7585 149.682C83.7585 150.583 83.5919 151.371 83.2585 152.045C82.929 152.72 82.4669 153.244 81.8722 153.619C81.2813 153.994 80.5919 154.182 79.804 154.182ZM79.804 152.977C80.4025 152.977 80.8949 152.824 81.2812 152.517C81.6676 152.21 81.9536 151.807 82.1392 151.307C82.3248 150.807 82.4176 150.265 82.4176 149.682C82.4176 149.098 82.3248 148.555 82.1392 148.051C81.9536 147.547 81.6676 147.14 81.2812 146.83C80.8949 146.519 80.4025 146.364 79.804 146.364C79.2055 146.364 78.7131 146.519 78.3267 146.83C77.9403 147.14 77.6544 147.547 77.4688 148.051C77.2831 148.555 77.1903 149.098 77.1903 149.682C77.1903 150.265 77.2831 150.807 77.4688 151.307C77.6544 151.807 77.9403 152.21 78.3267 152.517C78.7131 152.824 79.2055 152.977 79.804 152.977ZM89.6009 145.273V146.409H85.0781V145.273H89.6009ZM86.3963 143.182H87.7372V151.5C87.7372 151.879 87.7921 152.163 87.902 152.352C88.0156 152.538 88.1596 152.663 88.3338 152.727C88.5118 152.788 88.6993 152.818 88.8963 152.818C89.044 152.818 89.1652 152.811 89.2599 152.795C89.3546 152.777 89.4304 152.761 89.4872 152.75L89.7599 153.955C89.669 153.989 89.5421 154.023 89.3793 154.057C89.2164 154.095 89.0099 154.114 88.7599 154.114C88.3812 154.114 88.0099 154.032 87.6463 153.869C87.2865 153.706 86.9872 153.458 86.7486 153.125C86.5137 152.792 86.3963 152.371 86.3963 151.864V143.182ZM98.6861 154.205C98.133 154.205 97.6312 154.1 97.1804 153.892C96.7296 153.68 96.3717 153.375 96.1065 152.977C95.8414 152.576 95.7088 152.091 95.7088 151.523C95.7088 151.023 95.8073 150.617 96.0043 150.307C96.2012 149.992 96.4645 149.746 96.794 149.568C97.1236 149.39 97.4872 149.258 97.8849 149.17C98.2865 149.08 98.6899 149.008 99.0952 148.955C99.6255 148.886 100.055 148.835 100.385 148.801C100.718 148.763 100.961 148.701 101.112 148.614C101.268 148.527 101.345 148.375 101.345 148.159V148.114C101.345 147.553 101.192 147.117 100.885 146.807C100.582 146.496 100.122 146.341 99.5043 146.341C98.8641 146.341 98.3622 146.481 97.9986 146.761C97.6349 147.042 97.3793 147.341 97.2315 147.659L95.9588 147.205C96.1861 146.674 96.4891 146.261 96.8679 145.966C97.2505 145.667 97.6671 145.458 98.1179 145.341C98.5724 145.22 99.0194 145.159 99.4588 145.159C99.7391 145.159 100.061 145.193 100.425 145.261C100.792 145.326 101.146 145.46 101.487 145.665C101.832 145.869 102.118 146.178 102.345 146.591C102.572 147.004 102.686 147.557 102.686 148.25V154H101.345V152.818H101.277C101.186 153.008 101.035 153.21 100.822 153.426C100.61 153.642 100.328 153.826 99.9759 153.977C99.6236 154.129 99.1937 154.205 98.6861 154.205ZM98.8906 153C99.4209 153 99.8679 152.896 100.232 152.688C100.599 152.479 100.875 152.21 101.061 151.881C101.25 151.551 101.345 151.205 101.345 150.841V149.614C101.288 149.682 101.163 149.744 100.97 149.801C100.781 149.854 100.561 149.902 100.311 149.943C100.065 149.981 99.8243 150.015 99.5895 150.045C99.3584 150.072 99.1709 150.095 99.027 150.114C98.6785 150.159 98.3527 150.233 98.0497 150.335C97.7505 150.434 97.508 150.583 97.3224 150.784C97.1406 150.981 97.0497 151.25 97.0497 151.591C97.0497 152.057 97.2221 152.409 97.5668 152.648C97.9152 152.883 98.3565 153 98.8906 153ZM108.679 154.182C107.861 154.182 107.156 153.989 106.565 153.602C105.974 153.216 105.52 152.684 105.202 152.006C104.884 151.328 104.724 150.553 104.724 149.682C104.724 148.795 104.887 148.013 105.213 147.335C105.543 146.653 106.001 146.121 106.588 145.739C107.179 145.352 107.868 145.159 108.656 145.159C109.27 145.159 109.823 145.273 110.315 145.5C110.808 145.727 111.211 146.045 111.526 146.455C111.84 146.864 112.035 147.341 112.111 147.886H110.77C110.668 147.489 110.44 147.136 110.088 146.83C109.74 146.519 109.27 146.364 108.679 146.364C108.156 146.364 107.698 146.5 107.304 146.773C106.914 147.042 106.609 147.422 106.389 147.915C106.173 148.403 106.065 148.977 106.065 149.636C106.065 150.311 106.171 150.898 106.384 151.398C106.599 151.898 106.902 152.286 107.293 152.562C107.687 152.839 108.149 152.977 108.679 152.977C109.027 152.977 109.344 152.917 109.628 152.795C109.912 152.674 110.152 152.5 110.349 152.273C110.546 152.045 110.687 151.773 110.77 151.455H112.111C112.035 151.97 111.848 152.434 111.548 152.847C111.253 153.256 110.861 153.581 110.372 153.824C109.887 154.062 109.323 154.182 108.679 154.182ZM117.616 154.182C116.798 154.182 116.094 153.989 115.503 153.602C114.912 153.216 114.457 152.684 114.139 152.006C113.821 151.328 113.662 150.553 113.662 149.682C113.662 148.795 113.825 148.013 114.151 147.335C114.48 146.653 114.938 146.121 115.526 145.739C116.116 145.352 116.806 145.159 117.594 145.159C118.207 145.159 118.76 145.273 119.253 145.5C119.745 145.727 120.149 146.045 120.463 146.455C120.777 146.864 120.973 147.341 121.048 147.886H119.707C119.605 147.489 119.378 147.136 119.026 146.83C118.677 146.519 118.207 146.364 117.616 146.364C117.094 146.364 116.635 146.5 116.241 146.773C115.851 147.042 115.546 147.422 115.327 147.915C115.111 148.403 115.003 148.977 115.003 149.636C115.003 150.311 115.109 150.898 115.321 151.398C115.537 151.898 115.84 152.286 116.23 152.562C116.624 152.839 117.086 152.977 117.616 152.977C117.965 152.977 118.281 152.917 118.565 152.795C118.849 152.674 119.09 152.5 119.287 152.273C119.484 152.045 119.624 151.773 119.707 151.455H121.048C120.973 151.97 120.785 152.434 120.486 152.847C120.19 153.256 119.798 153.581 119.31 153.824C118.825 154.062 118.26 154.182 117.616 154.182ZM126.668 154.182C125.827 154.182 125.101 153.996 124.491 153.625C123.885 153.25 123.418 152.727 123.088 152.057C122.762 151.383 122.599 150.598 122.599 149.705C122.599 148.811 122.762 148.023 123.088 147.341C123.418 146.655 123.876 146.121 124.463 145.739C125.054 145.352 125.743 145.159 126.531 145.159C126.986 145.159 127.435 145.235 127.878 145.386C128.321 145.538 128.724 145.784 129.088 146.125C129.452 146.462 129.741 146.909 129.957 147.466C130.173 148.023 130.281 148.708 130.281 149.523V150.091H123.554V148.932H128.918C128.918 148.439 128.819 148 128.622 147.614C128.429 147.227 128.152 146.922 127.793 146.699C127.437 146.475 127.016 146.364 126.531 146.364C125.997 146.364 125.535 146.496 125.145 146.761C124.759 147.023 124.461 147.364 124.253 147.784C124.045 148.205 123.94 148.655 123.94 149.136V149.909C123.94 150.568 124.054 151.127 124.281 151.585C124.512 152.04 124.832 152.386 125.241 152.625C125.651 152.86 126.126 152.977 126.668 152.977C127.02 152.977 127.338 152.928 127.622 152.83C127.91 152.727 128.158 152.576 128.366 152.375C128.575 152.17 128.736 151.917 128.849 151.614L130.145 151.977C130.009 152.417 129.779 152.803 129.457 153.136C129.135 153.466 128.738 153.723 128.264 153.909C127.791 154.091 127.259 154.182 126.668 154.182ZM138.503 147.227L137.298 147.568C137.223 147.367 137.111 147.172 136.963 146.983C136.819 146.79 136.622 146.631 136.372 146.506C136.122 146.381 135.802 146.318 135.412 146.318C134.878 146.318 134.433 146.441 134.077 146.688C133.724 146.93 133.548 147.239 133.548 147.614C133.548 147.947 133.67 148.21 133.912 148.403C134.154 148.597 134.533 148.758 135.048 148.886L136.344 149.205C137.124 149.394 137.705 149.684 138.088 150.074C138.471 150.46 138.662 150.958 138.662 151.568C138.662 152.068 138.518 152.515 138.23 152.909C137.946 153.303 137.548 153.614 137.037 153.841C136.526 154.068 135.931 154.182 135.253 154.182C134.363 154.182 133.626 153.989 133.043 153.602C132.459 153.216 132.09 152.652 131.935 151.909L133.207 151.591C133.329 152.061 133.558 152.413 133.895 152.648C134.236 152.883 134.681 153 135.23 153C135.855 153 136.351 152.867 136.719 152.602C137.09 152.333 137.276 152.011 137.276 151.636C137.276 151.333 137.17 151.08 136.957 150.875C136.745 150.667 136.42 150.511 135.98 150.409L134.526 150.068C133.726 149.879 133.139 149.585 132.764 149.188C132.393 148.786 132.207 148.284 132.207 147.682C132.207 147.189 132.346 146.754 132.622 146.375C132.902 145.996 133.283 145.699 133.764 145.483C134.249 145.267 134.798 145.159 135.412 145.159C136.276 145.159 136.954 145.348 137.446 145.727C137.942 146.106 138.295 146.606 138.503 147.227ZM146.862 147.227L145.658 147.568C145.582 147.367 145.47 147.172 145.322 146.983C145.179 146.79 144.982 146.631 144.732 146.506C144.482 146.381 144.161 146.318 143.771 146.318C143.237 146.318 142.792 146.441 142.436 146.688C142.084 146.93 141.908 147.239 141.908 147.614C141.908 147.947 142.029 148.21 142.271 148.403C142.514 148.597 142.893 148.758 143.408 148.886L144.703 149.205C145.483 149.394 146.065 149.684 146.447 150.074C146.83 150.46 147.021 150.958 147.021 151.568C147.021 152.068 146.877 152.515 146.589 152.909C146.305 153.303 145.908 153.614 145.396 153.841C144.885 154.068 144.29 154.182 143.612 154.182C142.722 154.182 141.985 153.989 141.402 153.602C140.819 153.216 140.449 152.652 140.294 151.909L141.567 151.591C141.688 152.061 141.917 152.413 142.254 152.648C142.595 152.883 143.04 153 143.589 153C144.214 153 144.711 152.867 145.078 152.602C145.449 152.333 145.635 152.011 145.635 151.636C145.635 151.333 145.529 151.08 145.317 150.875C145.105 150.667 144.779 150.511 144.339 150.409L142.885 150.068C142.086 149.879 141.499 149.585 141.124 149.188C140.752 148.786 140.567 148.284 140.567 147.682C140.567 147.189 140.705 146.754 140.982 146.375C141.262 145.996 141.643 145.699 142.124 145.483C142.608 145.267 143.158 145.159 143.771 145.159C144.635 145.159 145.313 145.348 145.805 145.727C146.302 146.106 146.654 146.606 146.862 147.227ZM29.7727 165H28.3636C28.2803 164.595 28.1345 164.239 27.9261 163.932C27.7216 163.625 27.4716 163.367 27.1761 163.159C26.8845 162.947 26.5606 162.788 26.2045 162.682C25.8485 162.576 25.4773 162.523 25.0909 162.523C24.3864 162.523 23.7481 162.701 23.1761 163.057C22.608 163.413 22.1553 163.938 21.8182 164.631C21.4848 165.324 21.3182 166.174 21.3182 167.182C21.3182 168.189 21.4848 169.04 21.8182 169.733C22.1553 170.426 22.608 170.951 23.1761 171.307C23.7481 171.663 24.3864 171.841 25.0909 171.841C25.4773 171.841 25.8485 171.788 26.2045 171.682C26.5606 171.576 26.8845 171.419 27.1761 171.21C27.4716 170.998 27.7216 170.739 27.9261 170.432C28.1345 170.121 28.2803 169.765 28.3636 169.364H29.7727C29.6667 169.958 29.4735 170.491 29.1932 170.96C28.9129 171.43 28.5644 171.83 28.1477 172.159C27.7311 172.485 27.2633 172.733 26.7443 172.903C26.2292 173.074 25.678 173.159 25.0909 173.159C24.0985 173.159 23.2159 172.917 22.4432 172.432C21.6705 171.947 21.0625 171.258 20.6193 170.364C20.1761 169.47 19.9545 168.409 19.9545 167.182C19.9545 165.955 20.1761 164.894 20.6193 164C21.0625 163.106 21.6705 162.417 22.4432 161.932C23.2159 161.447 24.0985 161.205 25.0909 161.205C25.678 161.205 26.2292 161.29 26.7443 161.46C27.2633 161.631 27.7311 161.881 28.1477 162.21C28.5644 162.536 28.9129 162.934 29.1932 163.403C29.4735 163.869 29.6667 164.402 29.7727 165ZM35.4134 173.182C34.6255 173.182 33.9342 172.994 33.3395 172.619C32.7486 172.244 32.2865 171.72 31.9531 171.045C31.6236 170.371 31.4588 169.583 31.4588 168.682C31.4588 167.773 31.6236 166.979 31.9531 166.301C32.2865 165.623 32.7486 165.097 33.3395 164.722C33.9342 164.347 34.6255 164.159 35.4134 164.159C36.2012 164.159 36.8906 164.347 37.4815 164.722C38.0762 165.097 38.5384 165.623 38.8679 166.301C39.2012 166.979 39.3679 167.773 39.3679 168.682C39.3679 169.583 39.2012 170.371 38.8679 171.045C38.5384 171.72 38.0762 172.244 37.4815 172.619C36.8906 172.994 36.2012 173.182 35.4134 173.182ZM35.4134 171.977C36.0118 171.977 36.5043 171.824 36.8906 171.517C37.277 171.21 37.563 170.807 37.7486 170.307C37.9342 169.807 38.027 169.265 38.027 168.682C38.027 168.098 37.9342 167.555 37.7486 167.051C37.563 166.547 37.277 166.14 36.8906 165.83C36.5043 165.519 36.0118 165.364 35.4134 165.364C34.8149 165.364 34.3224 165.519 33.9361 165.83C33.5497 166.14 33.2637 166.547 33.0781 167.051C32.8925 167.555 32.7997 168.098 32.7997 168.682C32.7997 169.265 32.8925 169.807 33.0781 170.307C33.2637 170.807 33.5497 171.21 33.9361 171.517C34.3224 171.824 34.8149 171.977 35.4134 171.977ZM41.4148 173V164.273H42.7102V165.636H42.8239C43.0057 165.17 43.2992 164.809 43.7045 164.551C44.1098 164.29 44.5966 164.159 45.1648 164.159C45.7405 164.159 46.2197 164.29 46.6023 164.551C46.9886 164.809 47.2898 165.17 47.5057 165.636H47.5966C47.8201 165.186 48.1553 164.828 48.6023 164.562C49.0492 164.294 49.5852 164.159 50.2102 164.159C50.9905 164.159 51.6288 164.403 52.125 164.892C52.6212 165.377 52.8693 166.133 52.8693 167.159V173H51.5284V167.159C51.5284 166.515 51.3523 166.055 51 165.778C50.6477 165.502 50.233 165.364 49.7557 165.364C49.142 165.364 48.6667 165.549 48.3295 165.92C47.9924 166.288 47.8239 166.754 47.8239 167.318V173H46.4602V167.023C46.4602 166.527 46.2992 166.127 45.9773 165.824C45.6553 165.517 45.2405 165.364 44.733 165.364C44.3845 165.364 44.0587 165.456 43.7557 165.642C43.4564 165.828 43.214 166.085 43.0284 166.415C42.8466 166.741 42.7557 167.117 42.7557 167.545V173H41.4148ZM55.321 176.273V164.273H56.6165V165.659H56.7756C56.8741 165.508 57.0104 165.314 57.1847 165.08C57.3627 164.841 57.6165 164.629 57.946 164.443C58.2794 164.254 58.7301 164.159 59.2983 164.159C60.0331 164.159 60.6809 164.343 61.2415 164.71C61.8021 165.078 62.2396 165.598 62.554 166.273C62.8684 166.947 63.0256 167.742 63.0256 168.659C63.0256 169.583 62.8684 170.384 62.554 171.062C62.2396 171.737 61.804 172.259 61.2472 172.631C60.6903 172.998 60.0483 173.182 59.321 173.182C58.7604 173.182 58.3116 173.089 57.9744 172.903C57.6373 172.714 57.3778 172.5 57.196 172.261C57.0142 172.019 56.8741 171.818 56.7756 171.659H56.6619V176.273H55.321ZM56.6392 168.636C56.6392 169.295 56.7358 169.877 56.929 170.381C57.1222 170.881 57.4044 171.273 57.7756 171.557C58.1468 171.837 58.6013 171.977 59.1392 171.977C59.6998 171.977 60.1676 171.83 60.5426 171.534C60.9214 171.235 61.2055 170.833 61.3949 170.33C61.5881 169.822 61.6847 169.258 61.6847 168.636C61.6847 168.023 61.59 167.47 61.4006 166.977C61.215 166.481 60.9328 166.089 60.554 165.801C60.179 165.509 59.7074 165.364 59.1392 165.364C58.5938 165.364 58.1354 165.502 57.7642 165.778C57.393 166.051 57.1127 166.434 56.9233 166.926C56.7339 167.415 56.6392 167.985 56.6392 168.636ZM66.4119 161.364V173H65.071V161.364H66.4119ZM72.527 173.182C71.6861 173.182 70.9607 172.996 70.3509 172.625C69.7448 172.25 69.277 171.727 68.9474 171.057C68.6217 170.383 68.4588 169.598 68.4588 168.705C68.4588 167.811 68.6217 167.023 68.9474 166.341C69.277 165.655 69.7353 165.121 70.3224 164.739C70.9134 164.352 71.6027 164.159 72.3906 164.159C72.8452 164.159 73.294 164.235 73.7372 164.386C74.1804 164.538 74.5838 164.784 74.9474 165.125C75.3111 165.462 75.6009 165.909 75.8168 166.466C76.0327 167.023 76.1406 167.708 76.1406 168.523V169.091H69.4134V167.932H74.777C74.777 167.439 74.6785 167 74.4815 166.614C74.2884 166.227 74.0118 165.922 73.652 165.699C73.2959 165.475 72.8755 165.364 72.3906 165.364C71.8565 165.364 71.3944 165.496 71.0043 165.761C70.6179 166.023 70.3205 166.364 70.1122 166.784C69.9039 167.205 69.7997 167.655 69.7997 168.136V168.909C69.7997 169.568 69.9134 170.127 70.1406 170.585C70.3717 171.04 70.6918 171.386 71.1009 171.625C71.5099 171.86 71.9853 171.977 72.527 171.977C72.8793 171.977 73.1974 171.928 73.4815 171.83C73.7694 171.727 74.0175 171.576 74.2259 171.375C74.4342 171.17 74.5952 170.917 74.7088 170.614L76.0043 170.977C75.8679 171.417 75.6387 171.803 75.3168 172.136C74.9948 172.466 74.5971 172.723 74.1236 172.909C73.6501 173.091 73.1179 173.182 72.527 173.182ZM81.9759 164.273V165.409H77.4531V164.273H81.9759ZM78.7713 162.182H80.1122V170.5C80.1122 170.879 80.1671 171.163 80.277 171.352C80.3906 171.538 80.5346 171.663 80.7088 171.727C80.8868 171.788 81.0743 171.818 81.2713 171.818C81.419 171.818 81.5402 171.811 81.6349 171.795C81.7296 171.777 81.8054 171.761 81.8622 171.75L82.1349 172.955C82.044 172.989 81.9171 173.023 81.7543 173.057C81.5914 173.095 81.3849 173.114 81.1349 173.114C80.7562 173.114 80.3849 173.032 80.0213 172.869C79.6615 172.706 79.3622 172.458 79.1236 172.125C78.8887 171.792 78.7713 171.371 78.7713 170.864V162.182ZM87.5582 173.182C86.7173 173.182 85.992 172.996 85.3821 172.625C84.776 172.25 84.3082 171.727 83.9787 171.057C83.6529 170.383 83.4901 169.598 83.4901 168.705C83.4901 167.811 83.6529 167.023 83.9787 166.341C84.3082 165.655 84.7666 165.121 85.3537 164.739C85.9446 164.352 86.634 164.159 87.4219 164.159C87.8764 164.159 88.3253 164.235 88.7685 164.386C89.2116 164.538 89.6151 164.784 89.9787 165.125C90.3423 165.462 90.6321 165.909 90.848 166.466C91.0639 167.023 91.1719 167.708 91.1719 168.523V169.091H84.4446V167.932H89.8082C89.8082 167.439 89.7098 167 89.5128 166.614C89.3196 166.227 89.0431 165.922 88.6832 165.699C88.3272 165.475 87.9067 165.364 87.4219 165.364C86.8878 165.364 86.4257 165.496 86.0355 165.761C85.6491 166.023 85.3518 166.364 85.1435 166.784C84.9351 167.205 84.831 167.655 84.831 168.136V168.909C84.831 169.568 84.9446 170.127 85.1719 170.585C85.4029 171.04 85.723 171.386 86.1321 171.625C86.5412 171.86 87.0166 171.977 87.5582 171.977C87.9105 171.977 88.2287 171.928 88.5128 171.83C88.8007 171.727 89.0488 171.576 89.2571 171.375C89.4654 171.17 89.6264 170.917 89.7401 170.614L91.0355 170.977C90.8991 171.417 90.67 171.803 90.348 172.136C90.026 172.466 89.6283 172.723 89.1548 172.909C88.6813 173.091 88.1491 173.182 87.5582 173.182ZM99.3935 166.227L98.1889 166.568C98.1132 166.367 98.0014 166.172 97.8537 165.983C97.7098 165.79 97.5128 165.631 97.2628 165.506C97.0128 165.381 96.6927 165.318 96.3026 165.318C95.7685 165.318 95.3234 165.441 94.9673 165.688C94.6151 165.93 94.4389 166.239 94.4389 166.614C94.4389 166.947 94.5601 167.21 94.8026 167.403C95.045 167.597 95.4238 167.758 95.9389 167.886L97.2344 168.205C98.0147 168.394 98.5961 168.684 98.9787 169.074C99.3613 169.46 99.5526 169.958 99.5526 170.568C99.5526 171.068 99.4086 171.515 99.1207 171.909C98.8366 172.303 98.4389 172.614 97.9276 172.841C97.4162 173.068 96.8215 173.182 96.1435 173.182C95.2533 173.182 94.5166 172.989 93.9332 172.602C93.3499 172.216 92.9806 171.652 92.8253 170.909L94.098 170.591C94.2192 171.061 94.4484 171.413 94.7855 171.648C95.1264 171.883 95.5715 172 96.1207 172C96.7457 172 97.242 171.867 97.6094 171.602C97.9806 171.333 98.1662 171.011 98.1662 170.636C98.1662 170.333 98.0601 170.08 97.848 169.875C97.6359 169.667 97.3101 169.511 96.8707 169.409L95.4162 169.068C94.617 168.879 94.0298 168.585 93.6548 168.188C93.2836 167.786 93.098 167.284 93.098 166.682C93.098 166.189 93.2363 165.754 93.5128 165.375C93.7931 164.996 94.1738 164.699 94.6548 164.483C95.1397 164.267 95.6889 164.159 96.3026 164.159C97.1662 164.159 97.8442 164.348 98.3366 164.727C98.8329 165.106 99.1851 165.606 99.3935 166.227ZM108.639 173.205C108.086 173.205 107.584 173.1 107.134 172.892C106.683 172.68 106.325 172.375 106.06 171.977C105.795 171.576 105.662 171.091 105.662 170.523C105.662 170.023 105.76 169.617 105.957 169.307C106.154 168.992 106.418 168.746 106.747 168.568C107.077 168.39 107.44 168.258 107.838 168.17C108.24 168.08 108.643 168.008 109.048 167.955C109.579 167.886 110.009 167.835 110.338 167.801C110.671 167.763 110.914 167.701 111.065 167.614C111.221 167.527 111.298 167.375 111.298 167.159V167.114C111.298 166.553 111.145 166.117 110.838 165.807C110.535 165.496 110.075 165.341 109.457 165.341C108.817 165.341 108.315 165.481 107.952 165.761C107.588 166.042 107.332 166.341 107.185 166.659L105.912 166.205C106.139 165.674 106.442 165.261 106.821 164.966C107.204 164.667 107.62 164.458 108.071 164.341C108.526 164.22 108.973 164.159 109.412 164.159C109.692 164.159 110.014 164.193 110.378 164.261C110.745 164.326 111.099 164.46 111.44 164.665C111.785 164.869 112.071 165.178 112.298 165.591C112.526 166.004 112.639 166.557 112.639 167.25V173H111.298V171.818H111.23C111.139 172.008 110.988 172.21 110.776 172.426C110.563 172.642 110.281 172.826 109.929 172.977C109.577 173.129 109.147 173.205 108.639 173.205ZM108.844 172C109.374 172 109.821 171.896 110.185 171.688C110.552 171.479 110.829 171.21 111.014 170.881C111.204 170.551 111.298 170.205 111.298 169.841V168.614C111.241 168.682 111.116 168.744 110.923 168.801C110.734 168.854 110.514 168.902 110.264 168.943C110.018 168.981 109.777 169.015 109.543 169.045C109.312 169.072 109.124 169.095 108.98 169.114C108.632 169.159 108.306 169.233 108.003 169.335C107.704 169.434 107.461 169.583 107.276 169.784C107.094 169.981 107.003 170.25 107.003 170.591C107.003 171.057 107.175 171.409 107.52 171.648C107.868 171.883 108.31 172 108.844 172ZM118.973 164.273V165.409H114.268V164.273H118.973ZM115.678 173V163.068C115.678 162.568 115.795 162.152 116.03 161.818C116.265 161.485 116.57 161.235 116.945 161.068C117.32 160.902 117.715 160.818 118.132 160.818C118.462 160.818 118.731 160.845 118.939 160.898C119.147 160.951 119.303 161 119.405 161.045L119.018 162.205C118.95 162.182 118.856 162.153 118.734 162.119C118.617 162.085 118.462 162.068 118.268 162.068C117.825 162.068 117.505 162.18 117.308 162.403C117.115 162.627 117.018 162.955 117.018 163.386V173H115.678ZM124.648 164.273V165.409H120.125V164.273H124.648ZM121.443 162.182H122.784V170.5C122.784 170.879 122.839 171.163 122.949 171.352C123.063 171.538 123.206 171.663 123.381 171.727C123.559 171.788 123.746 171.818 123.943 171.818C124.091 171.818 124.212 171.811 124.307 171.795C124.402 171.777 124.477 171.761 124.534 171.75L124.807 172.955C124.716 172.989 124.589 173.023 124.426 173.057C124.263 173.095 124.057 173.114 123.807 173.114C123.428 173.114 123.057 173.032 122.693 172.869C122.333 172.706 122.034 172.458 121.795 172.125C121.561 171.792 121.443 171.371 121.443 170.864V162.182ZM130.23 173.182C129.389 173.182 128.664 172.996 128.054 172.625C127.448 172.25 126.98 171.727 126.651 171.057C126.325 170.383 126.162 169.598 126.162 168.705C126.162 167.811 126.325 167.023 126.651 166.341C126.98 165.655 127.438 165.121 128.026 164.739C128.616 164.352 129.306 164.159 130.094 164.159C130.548 164.159 130.997 164.235 131.44 164.386C131.884 164.538 132.287 164.784 132.651 165.125C133.014 165.462 133.304 165.909 133.52 166.466C133.736 167.023 133.844 167.708 133.844 168.523V169.091H127.116V167.932H132.48C132.48 167.439 132.382 167 132.185 166.614C131.991 166.227 131.715 165.922 131.355 165.699C130.999 165.475 130.579 165.364 130.094 165.364C129.56 165.364 129.098 165.496 128.707 165.761C128.321 166.023 128.024 166.364 127.815 166.784C127.607 167.205 127.503 167.655 127.503 168.136V168.909C127.503 169.568 127.616 170.127 127.844 170.585C128.075 171.04 128.395 171.386 128.804 171.625C129.213 171.86 129.688 171.977 130.23 171.977C130.582 171.977 130.901 171.928 131.185 171.83C131.473 171.727 131.721 171.576 131.929 171.375C132.137 171.17 132.298 170.917 132.412 170.614L133.707 170.977C133.571 171.417 133.342 171.803 133.02 172.136C132.698 172.466 132.3 172.723 131.827 172.909C131.353 173.091 130.821 173.182 130.23 173.182ZM135.884 173V164.273H137.179V165.591H137.27C137.429 165.159 137.717 164.809 138.134 164.54C138.55 164.271 139.02 164.136 139.543 164.136C139.641 164.136 139.764 164.138 139.912 164.142C140.06 164.146 140.171 164.152 140.247 164.159V165.523C140.202 165.511 140.098 165.494 139.935 165.472C139.776 165.445 139.607 165.432 139.429 165.432C139.005 165.432 138.626 165.521 138.293 165.699C137.963 165.873 137.702 166.116 137.509 166.426C137.319 166.733 137.224 167.083 137.224 167.477V173H135.884ZM150.132 164.273V165.409H145.609V164.273H150.132ZM146.928 162.182H148.268V170.5C148.268 170.879 148.323 171.163 148.433 171.352C148.547 171.538 148.691 171.663 148.865 171.727C149.043 171.788 149.231 171.818 149.428 171.818C149.575 171.818 149.696 171.811 149.791 171.795C149.886 171.777 149.962 171.761 150.018 171.75L150.291 172.955C150.2 172.989 150.073 173.023 149.911 173.057C149.748 173.095 149.541 173.114 149.291 173.114C148.912 173.114 148.541 173.032 148.178 172.869C147.818 172.706 147.518 172.458 147.28 172.125C147.045 171.792 146.928 171.371 146.928 170.864V162.182ZM152.149 173V164.273H153.445V165.591H153.536C153.695 165.159 153.982 164.809 154.399 164.54C154.816 164.271 155.286 164.136 155.808 164.136C155.907 164.136 156.03 164.138 156.178 164.142C156.325 164.146 156.437 164.152 156.513 164.159V165.523C156.467 165.511 156.363 165.494 156.2 165.472C156.041 165.445 155.873 165.432 155.695 165.432C155.27 165.432 154.892 165.521 154.558 165.699C154.229 165.873 153.967 166.116 153.774 166.426C153.585 166.733 153.49 167.083 153.49 167.477V173H152.149ZM160.67 173.205C160.117 173.205 159.616 173.1 159.165 172.892C158.714 172.68 158.356 172.375 158.091 171.977C157.826 171.576 157.693 171.091 157.693 170.523C157.693 170.023 157.792 169.617 157.989 169.307C158.186 168.992 158.449 168.746 158.778 168.568C159.108 168.39 159.472 168.258 159.869 168.17C160.271 168.08 160.674 168.008 161.08 167.955C161.61 167.886 162.04 167.835 162.369 167.801C162.703 167.763 162.945 167.701 163.097 167.614C163.252 167.527 163.33 167.375 163.33 167.159V167.114C163.33 166.553 163.176 166.117 162.869 165.807C162.566 165.496 162.106 165.341 161.489 165.341C160.848 165.341 160.347 165.481 159.983 165.761C159.619 166.042 159.364 166.341 159.216 166.659L157.943 166.205C158.17 165.674 158.473 165.261 158.852 164.966C159.235 164.667 159.652 164.458 160.102 164.341C160.557 164.22 161.004 164.159 161.443 164.159C161.723 164.159 162.045 164.193 162.409 164.261C162.777 164.326 163.131 164.46 163.472 164.665C163.816 164.869 164.102 165.178 164.33 165.591C164.557 166.004 164.67 166.557 164.67 167.25V173H163.33V171.818H163.261C163.17 172.008 163.019 172.21 162.807 172.426C162.595 172.642 162.313 172.826 161.96 172.977C161.608 173.129 161.178 173.205 160.67 173.205ZM160.875 172C161.405 172 161.852 171.896 162.216 171.688C162.583 171.479 162.86 171.21 163.045 170.881C163.235 170.551 163.33 170.205 163.33 169.841V168.614C163.273 168.682 163.148 168.744 162.955 168.801C162.765 168.854 162.545 168.902 162.295 168.943C162.049 168.981 161.809 169.015 161.574 169.045C161.343 169.072 161.155 169.095 161.011 169.114C160.663 169.159 160.337 169.233 160.034 169.335C159.735 169.434 159.492 169.583 159.307 169.784C159.125 169.981 159.034 170.25 159.034 170.591C159.034 171.057 159.206 171.409 159.551 171.648C159.9 171.883 160.341 172 160.875 172ZM168.459 167.75V173H167.118V164.273H168.413V165.636H168.527C168.732 165.193 169.042 164.837 169.459 164.568C169.875 164.295 170.413 164.159 171.072 164.159C171.663 164.159 172.18 164.28 172.624 164.523C173.067 164.761 173.411 165.125 173.658 165.614C173.904 166.098 174.027 166.712 174.027 167.455V173H172.686V167.545C172.686 166.86 172.508 166.326 172.152 165.943C171.796 165.557 171.307 165.364 170.686 165.364C170.258 165.364 169.875 165.456 169.538 165.642C169.205 165.828 168.942 166.098 168.749 166.455C168.555 166.811 168.459 167.242 168.459 167.75ZM182.659 166.227L181.455 166.568C181.379 166.367 181.267 166.172 181.119 165.983C180.975 165.79 180.778 165.631 180.528 165.506C180.278 165.381 179.958 165.318 179.568 165.318C179.034 165.318 178.589 165.441 178.233 165.688C177.881 165.93 177.705 166.239 177.705 166.614C177.705 166.947 177.826 167.21 178.068 167.403C178.311 167.597 178.689 167.758 179.205 167.886L180.5 168.205C181.28 168.394 181.862 168.684 182.244 169.074C182.627 169.46 182.818 169.958 182.818 170.568C182.818 171.068 182.674 171.515 182.386 171.909C182.102 172.303 181.705 172.614 181.193 172.841C180.682 173.068 180.087 173.182 179.409 173.182C178.519 173.182 177.782 172.989 177.199 172.602C176.616 172.216 176.246 171.652 176.091 170.909L177.364 170.591C177.485 171.061 177.714 171.413 178.051 171.648C178.392 171.883 178.837 172 179.386 172C180.011 172 180.508 171.867 180.875 171.602C181.246 171.333 181.432 171.011 181.432 170.636C181.432 170.333 181.326 170.08 181.114 169.875C180.902 169.667 180.576 169.511 180.136 169.409L178.682 169.068C177.883 168.879 177.295 168.585 176.92 168.188C176.549 167.786 176.364 167.284 176.364 166.682C176.364 166.189 176.502 165.754 176.778 165.375C177.059 164.996 177.439 164.699 177.92 164.483C178.405 164.267 178.955 164.159 179.568 164.159C180.432 164.159 181.11 164.348 181.602 164.727C182.098 165.106 182.451 165.606 182.659 166.227ZM188.723 164.273V165.409H184.018V164.273H188.723ZM185.428 173V163.068C185.428 162.568 185.545 162.152 185.78 161.818C186.015 161.485 186.32 161.235 186.695 161.068C187.07 160.902 187.465 160.818 187.882 160.818C188.212 160.818 188.481 160.845 188.689 160.898C188.897 160.951 189.053 161 189.155 161.045L188.768 162.205C188.7 162.182 188.606 162.153 188.484 162.119C188.367 162.085 188.212 162.068 188.018 162.068C187.575 162.068 187.255 162.18 187.058 162.403C186.865 162.627 186.768 162.955 186.768 163.386V173H185.428ZM193.902 173.182C193.061 173.182 192.336 172.996 191.726 172.625C191.12 172.25 190.652 171.727 190.322 171.057C189.997 170.383 189.834 169.598 189.834 168.705C189.834 167.811 189.997 167.023 190.322 166.341C190.652 165.655 191.11 165.121 191.697 164.739C192.288 164.352 192.978 164.159 193.766 164.159C194.22 164.159 194.669 164.235 195.112 164.386C195.555 164.538 195.959 164.784 196.322 165.125C196.686 165.462 196.976 165.909 197.192 166.466C197.408 167.023 197.516 167.708 197.516 168.523V169.091H190.788V167.932H196.152C196.152 167.439 196.054 167 195.857 166.614C195.663 166.227 195.387 165.922 195.027 165.699C194.671 165.475 194.25 165.364 193.766 165.364C193.232 165.364 192.769 165.496 192.379 165.761C191.993 166.023 191.696 166.364 191.487 166.784C191.279 167.205 191.175 167.655 191.175 168.136V168.909C191.175 169.568 191.288 170.127 191.516 170.585C191.747 171.04 192.067 171.386 192.476 171.625C192.885 171.86 193.36 171.977 193.902 171.977C194.254 171.977 194.572 171.928 194.857 171.83C195.144 171.727 195.393 171.576 195.601 171.375C195.809 171.17 195.97 170.917 196.084 170.614L197.379 170.977C197.243 171.417 197.014 171.803 196.692 172.136C196.37 172.466 195.972 172.723 195.499 172.909C195.025 173.091 194.493 173.182 193.902 173.182ZM199.555 173V164.273H200.851V165.591H200.942C201.101 165.159 201.389 164.809 201.805 164.54C202.222 164.271 202.692 164.136 203.214 164.136C203.313 164.136 203.436 164.138 203.584 164.142C203.732 164.146 203.843 164.152 203.919 164.159V165.523C203.874 165.511 203.769 165.494 203.607 165.472C203.447 165.445 203.279 165.432 203.101 165.432C202.677 165.432 202.298 165.521 201.964 165.699C201.635 165.873 201.374 166.116 201.18 166.426C200.991 166.733 200.896 167.083 200.896 167.477V173H199.555Z" fill="black"/>
<rect x="257.5" y="0.5" width="227" height="204" rx="9.5" stroke="black"/>
<path d="M294.744 22.3636V34H292.619L287.557 26.6761H287.472V34H285.011V22.3636H287.17L292.193 29.6818H292.295V22.3636H294.744ZM300.675 34.1705C299.792 34.1705 299.029 33.983 298.385 33.608C297.745 33.2292 297.25 32.7027 296.902 32.0284C296.554 31.3504 296.379 30.5644 296.379 29.6705C296.379 28.7689 296.554 27.9811 296.902 27.3068C297.25 26.6288 297.745 26.1023 298.385 25.7273C299.029 25.3485 299.792 25.1591 300.675 25.1591C301.557 25.1591 302.319 25.3485 302.959 25.7273C303.603 26.1023 304.099 26.6288 304.447 27.3068C304.796 27.9811 304.97 28.7689 304.97 29.6705C304.97 30.5644 304.796 31.3504 304.447 32.0284C304.099 32.7027 303.603 33.2292 302.959 33.608C302.319 33.983 301.557 34.1705 300.675 34.1705ZM300.686 32.2955C301.088 32.2955 301.423 32.1818 301.692 31.9545C301.961 31.7235 302.163 31.4091 302.3 31.0114C302.44 30.6136 302.51 30.161 302.51 29.6534C302.51 29.1458 302.44 28.6932 302.3 28.2955C302.163 27.8977 301.961 27.5833 301.692 27.3523C301.423 27.1212 301.088 27.0057 300.686 27.0057C300.281 27.0057 299.94 27.1212 299.663 27.3523C299.391 27.5833 299.184 27.8977 299.044 28.2955C298.908 28.6932 298.839 29.1458 298.839 29.6534C298.839 30.161 298.908 30.6136 299.044 31.0114C299.184 31.4091 299.391 31.7235 299.663 31.9545C299.94 32.1818 300.281 32.2955 300.686 32.2955ZM308.964 28.9545V34H306.544V25.2727H308.851V26.8125H308.953C309.146 26.3049 309.47 25.9034 309.925 25.608C310.379 25.3087 310.93 25.1591 311.578 25.1591C312.184 25.1591 312.713 25.2917 313.163 25.5568C313.614 25.822 313.964 26.2008 314.214 26.6932C314.464 27.1818 314.589 27.7652 314.589 28.4432V34H312.169V28.875C312.173 28.3409 312.036 27.9242 311.76 27.625C311.483 27.322 311.103 27.1705 310.618 27.1705C310.292 27.1705 310.004 27.2405 309.754 27.3807C309.508 27.5208 309.315 27.7254 309.175 27.9943C309.038 28.2595 308.968 28.5795 308.964 28.9545ZM321.935 28.2614V30.1818H316.628V28.2614H321.935ZM324.043 34V22.3636H331.747V24.392H326.503V27.1648H331.236V29.1932H326.503V34H324.043ZM333.357 34V25.2727H335.777V34H333.357ZM334.572 24.1477C334.213 24.1477 333.904 24.0284 333.646 23.7898C333.393 23.5473 333.266 23.2576 333.266 22.9205C333.266 22.5871 333.393 22.3011 333.646 22.0625C333.904 21.8201 334.213 21.6989 334.572 21.6989C334.932 21.6989 335.239 21.8201 335.493 22.0625C335.75 22.3011 335.879 22.5871 335.879 22.9205C335.879 23.2576 335.75 23.5473 335.493 23.7898C335.239 24.0284 334.932 24.1477 334.572 24.1477ZM340.136 28.9545V34H337.716V25.2727H340.023V26.8125H340.125C340.318 26.3049 340.642 25.9034 341.097 25.608C341.551 25.3087 342.102 25.1591 342.75 25.1591C343.356 25.1591 343.884 25.2917 344.335 25.5568C344.786 25.822 345.136 26.2008 345.386 26.6932C345.636 27.1818 345.761 27.7652 345.761 28.4432V34H343.341V28.875C343.345 28.3409 343.208 27.9242 342.932 27.625C342.655 27.322 342.275 27.1705 341.79 27.1705C341.464 27.1705 341.176 27.2405 340.926 27.3807C340.68 27.5208 340.487 27.7254 340.347 27.9943C340.21 28.2595 340.14 28.5795 340.136 28.9545ZM347.669 34V25.2727H350.089V34H347.669ZM348.885 24.1477C348.525 24.1477 348.216 24.0284 347.959 23.7898C347.705 23.5473 347.578 23.2576 347.578 22.9205C347.578 22.5871 347.705 22.3011 347.959 22.0625C348.216 21.8201 348.525 21.6989 348.885 21.6989C349.245 21.6989 349.552 21.8201 349.805 22.0625C350.063 22.3011 350.192 22.5871 350.192 22.9205C350.192 23.2576 350.063 23.5473 349.805 23.7898C349.552 24.0284 349.245 24.1477 348.885 24.1477ZM356.67 25.2727V27.0909H351.415V25.2727H356.67ZM352.608 23.1818H355.028V31.3182C355.028 31.5417 355.063 31.7159 355.131 31.8409C355.199 31.9621 355.294 32.0473 355.415 32.0966C355.54 32.1458 355.684 32.1705 355.847 32.1705C355.96 32.1705 356.074 32.161 356.188 32.142C356.301 32.1193 356.388 32.1023 356.449 32.0909L356.83 33.892C356.708 33.9299 356.538 33.9735 356.318 34.0227C356.098 34.0758 355.831 34.108 355.517 34.1193C354.934 34.142 354.422 34.0644 353.983 33.8864C353.547 33.7083 353.208 33.4318 352.966 33.0568C352.723 32.6818 352.604 32.2083 352.608 31.6364V23.1818ZM362.131 34.1705C361.233 34.1705 360.46 33.9886 359.812 33.625C359.169 33.2576 358.672 32.7386 358.324 32.0682C357.975 31.3939 357.801 30.5966 357.801 29.6761C357.801 28.7784 357.975 27.9905 358.324 27.3125C358.672 26.6345 359.163 26.1061 359.795 25.7273C360.432 25.3485 361.178 25.1591 362.034 25.1591C362.61 25.1591 363.146 25.2519 363.642 25.4375C364.142 25.6193 364.578 25.8939 364.949 26.2614C365.324 26.6288 365.616 27.0909 365.824 27.6477C366.032 28.2008 366.136 28.8485 366.136 29.5909V30.2557H358.767V28.7557H363.858C363.858 28.4072 363.782 28.0985 363.631 27.8295C363.479 27.5606 363.269 27.3504 363 27.1989C362.735 27.0436 362.426 26.9659 362.074 26.9659C361.706 26.9659 361.381 27.0511 361.097 27.2216C360.816 27.3883 360.597 27.6136 360.438 27.8977C360.278 28.178 360.197 28.4905 360.193 28.8352V30.2614C360.193 30.6932 360.273 31.0663 360.432 31.3807C360.595 31.6951 360.824 31.9375 361.119 32.108C361.415 32.2784 361.765 32.3636 362.17 32.3636C362.439 32.3636 362.686 32.3258 362.909 32.25C363.133 32.1742 363.324 32.0606 363.483 31.9091C363.642 31.7576 363.763 31.572 363.847 31.3523L366.085 31.5C365.972 32.0379 365.739 32.5076 365.386 32.9091C365.038 33.3068 364.587 33.6174 364.034 33.8409C363.485 34.0606 362.85 34.1705 362.131 34.1705ZM371.021 24.392V22.3636H380.578V24.392H377.016V34H374.584V24.392H371.021ZM381.2 34V25.2727H383.547V26.7955H383.638C383.797 26.2538 384.064 25.8447 384.439 25.5682C384.814 25.2879 385.246 25.1477 385.734 25.1477C385.856 25.1477 385.986 25.1553 386.126 25.1705C386.267 25.1856 386.39 25.2064 386.496 25.233V27.3807C386.382 27.3466 386.225 27.3163 386.024 27.2898C385.823 27.2633 385.64 27.25 385.473 27.25C385.117 27.25 384.799 27.3277 384.518 27.483C384.242 27.6345 384.022 27.8466 383.859 28.1193C383.7 28.392 383.621 28.7064 383.621 29.0625V34H381.2ZM389.986 34.1648C389.429 34.1648 388.933 34.0682 388.497 33.875C388.062 33.678 387.717 33.3883 387.463 33.0057C387.213 32.6193 387.088 32.1383 387.088 31.5625C387.088 31.0777 387.177 30.6705 387.355 30.3409C387.533 30.0114 387.776 29.7462 388.082 29.5455C388.389 29.3447 388.738 29.1932 389.128 29.0909C389.522 28.9886 389.935 28.9167 390.366 28.875C390.874 28.822 391.283 28.7727 391.594 28.7273C391.904 28.678 392.13 28.6061 392.27 28.5114C392.41 28.4167 392.48 28.2765 392.48 28.0909V28.0568C392.48 27.697 392.366 27.4186 392.139 27.2216C391.916 27.0246 391.598 26.9261 391.185 26.9261C390.749 26.9261 390.402 27.0227 390.145 27.2159C389.887 27.4053 389.717 27.6439 389.634 27.9318L387.395 27.75C387.509 27.2197 387.732 26.7614 388.065 26.375C388.399 25.9848 388.829 25.6856 389.355 25.4773C389.885 25.2652 390.499 25.1591 391.196 25.1591C391.681 25.1591 392.145 25.2159 392.588 25.3295C393.035 25.4432 393.431 25.6193 393.776 25.858C394.124 26.0966 394.399 26.4034 394.599 26.7784C394.8 27.1496 394.901 27.5947 394.901 28.1136V34H392.605V32.7898H392.537C392.397 33.0625 392.209 33.303 391.974 33.5114C391.74 33.7159 391.457 33.8769 391.128 33.9943C390.798 34.108 390.418 34.1648 389.986 34.1648ZM390.679 32.4943C391.035 32.4943 391.349 32.4242 391.622 32.2841C391.895 32.1402 392.109 31.947 392.264 31.7045C392.42 31.4621 392.497 31.1875 392.497 30.8807V29.9545C392.421 30.0038 392.317 30.0492 392.185 30.0909C392.056 30.1288 391.91 30.1648 391.747 30.1989C391.584 30.2292 391.421 30.2576 391.259 30.2841C391.096 30.3068 390.948 30.3277 390.815 30.3466C390.531 30.3883 390.283 30.4545 390.071 30.5455C389.859 30.6364 389.694 30.7595 389.577 30.9148C389.459 31.0663 389.401 31.2557 389.401 31.483C389.401 31.8125 389.52 32.0644 389.759 32.2386C390.001 32.4091 390.308 32.4943 390.679 32.4943ZM399.199 28.9545V34H396.778V25.2727H399.085V26.8125H399.188C399.381 26.3049 399.705 25.9034 400.159 25.608C400.614 25.3087 401.165 25.1591 401.812 25.1591C402.419 25.1591 402.947 25.2917 403.398 25.5568C403.848 25.822 404.199 26.2008 404.449 26.6932C404.699 27.1818 404.824 27.7652 404.824 28.4432V34H402.403V28.875C402.407 28.3409 402.271 27.9242 401.994 27.625C401.718 27.322 401.337 27.1705 400.852 27.1705C400.527 27.1705 400.239 27.2405 399.989 27.3807C399.742 27.5208 399.549 27.7254 399.409 27.9943C399.273 28.2595 399.203 28.5795 399.199 28.9545ZM413.993 27.7614L411.777 27.8977C411.739 27.7083 411.658 27.5379 411.533 27.3864C411.408 27.2311 411.243 27.108 411.038 27.017C410.838 26.9223 410.597 26.875 410.317 26.875C409.942 26.875 409.625 26.9545 409.368 27.1136C409.11 27.2689 408.982 27.4773 408.982 27.7386C408.982 27.947 409.065 28.1231 409.232 28.267C409.398 28.411 409.684 28.5265 410.089 28.6136L411.669 28.9318C412.518 29.1061 413.15 29.3864 413.567 29.7727C413.983 30.1591 414.192 30.6667 414.192 31.2955C414.192 31.8674 414.023 32.3693 413.686 32.8011C413.353 33.233 412.894 33.5701 412.311 33.8125C411.732 34.0511 411.063 34.1705 410.305 34.1705C409.15 34.1705 408.23 33.9299 407.544 33.4489C406.862 32.964 406.463 32.3049 406.345 31.4716L408.726 31.3466C408.798 31.6989 408.972 31.9678 409.249 32.1534C409.525 32.3352 409.879 32.4261 410.311 32.4261C410.735 32.4261 411.076 32.3447 411.334 32.1818C411.595 32.0152 411.728 31.8011 411.732 31.5398C411.728 31.3201 411.635 31.1402 411.453 31C411.271 30.8561 410.991 30.7462 410.612 30.6705L409.101 30.3693C408.249 30.1989 407.614 29.9034 407.197 29.483C406.785 29.0625 406.578 28.5265 406.578 27.875C406.578 27.3144 406.73 26.8314 407.033 26.4261C407.339 26.0208 407.769 25.7083 408.322 25.4886C408.879 25.2689 409.531 25.1591 410.277 25.1591C411.379 25.1591 412.247 25.392 412.879 25.858C413.516 26.3239 413.887 26.9583 413.993 27.7614ZM420.409 25.2727V27.0909H415.023V25.2727H420.409ZM416.256 34V24.642C416.256 24.0095 416.379 23.4848 416.625 23.0682C416.875 22.6515 417.216 22.339 417.648 22.1307C418.08 21.9223 418.57 21.8182 419.119 21.8182C419.491 21.8182 419.83 21.8466 420.136 21.9034C420.447 21.9602 420.678 22.0114 420.83 22.0568L420.398 23.875C420.303 23.8447 420.186 23.8163 420.045 23.7898C419.909 23.7633 419.769 23.75 419.625 23.75C419.269 23.75 419.021 23.8333 418.881 24C418.741 24.1629 418.67 24.392 418.67 24.6875V34H416.256ZM425.553 34.1705C424.655 34.1705 423.882 33.9886 423.234 33.625C422.59 33.2576 422.094 32.7386 421.746 32.0682C421.397 31.3939 421.223 30.5966 421.223 29.6761C421.223 28.7784 421.397 27.9905 421.746 27.3125C422.094 26.6345 422.585 26.1061 423.217 25.7273C423.854 25.3485 424.6 25.1591 425.456 25.1591C426.032 25.1591 426.568 25.2519 427.064 25.4375C427.564 25.6193 428 25.8939 428.371 26.2614C428.746 26.6288 429.037 27.0909 429.246 27.6477C429.454 28.2008 429.558 28.8485 429.558 29.5909V30.2557H422.189V28.7557H427.28C427.28 28.4072 427.204 28.0985 427.053 27.8295C426.901 27.5606 426.691 27.3504 426.422 27.1989C426.157 27.0436 425.848 26.9659 425.496 26.9659C425.128 26.9659 424.803 27.0511 424.518 27.2216C424.238 27.3883 424.018 27.6136 423.859 27.8977C423.7 28.178 423.619 28.4905 423.615 28.8352V30.2614C423.615 30.6932 423.695 31.0663 423.854 31.3807C424.017 31.6951 424.246 31.9375 424.541 32.108C424.837 32.2784 425.187 32.3636 425.592 32.3636C425.861 32.3636 426.107 32.3258 426.331 32.25C426.554 32.1742 426.746 32.0606 426.905 31.9091C427.064 31.7576 427.185 31.572 427.268 31.3523L429.507 31.5C429.393 32.0379 429.161 32.5076 428.808 32.9091C428.46 33.3068 428.009 33.6174 427.456 33.8409C426.907 34.0606 426.272 34.1705 425.553 34.1705ZM431.138 34V25.2727H433.484V26.7955H433.575C433.734 26.2538 434.001 25.8447 434.376 25.5682C434.751 25.2879 435.183 25.1477 435.672 25.1477C435.793 25.1477 435.924 25.1553 436.064 25.1705C436.204 25.1856 436.327 25.2064 436.433 25.233V27.3807C436.32 27.3466 436.162 27.3163 435.962 27.2898C435.761 27.2633 435.577 27.25 435.411 27.25C435.054 27.25 434.736 27.3277 434.456 27.483C434.179 27.6345 433.96 27.8466 433.797 28.1193C433.638 28.392 433.558 28.7064 433.558 29.0625V34H431.138ZM444.946 27.7614L442.73 27.8977C442.692 27.7083 442.611 27.5379 442.486 27.3864C442.361 27.2311 442.196 27.108 441.991 27.017C441.791 26.9223 441.55 26.875 441.27 26.875C440.895 26.875 440.579 26.9545 440.321 27.1136C440.063 27.2689 439.935 27.4773 439.935 27.7386C439.935 27.947 440.018 28.1231 440.185 28.267C440.351 28.411 440.637 28.5265 441.043 28.6136L442.622 28.9318C443.471 29.1061 444.103 29.3864 444.52 29.7727C444.937 30.1591 445.145 30.6667 445.145 31.2955C445.145 31.8674 444.976 32.3693 444.639 32.8011C444.306 33.233 443.848 33.5701 443.264 33.8125C442.685 34.0511 442.016 34.1705 441.259 34.1705C440.103 34.1705 439.183 33.9299 438.497 33.4489C437.815 32.964 437.416 32.3049 437.298 31.4716L439.679 31.3466C439.751 31.6989 439.925 31.9678 440.202 32.1534C440.478 32.3352 440.832 32.4261 441.264 32.4261C441.688 32.4261 442.029 32.3447 442.287 32.1818C442.548 32.0152 442.681 31.8011 442.685 31.5398C442.681 31.3201 442.588 31.1402 442.406 31C442.224 30.8561 441.944 30.7462 441.565 30.6705L440.054 30.3693C439.202 30.1989 438.567 29.9034 438.151 29.483C437.738 29.0625 437.531 28.5265 437.531 27.875C437.531 27.3144 437.683 26.8314 437.986 26.4261C438.293 26.0208 438.723 25.7083 439.276 25.4886C439.832 25.2689 440.484 25.1591 441.23 25.1591C442.332 25.1591 443.2 25.392 443.832 25.858C444.469 26.3239 444.84 26.9583 444.946 27.7614Z" fill="black"/>
<path d="M395.263 70.4797C397.537 70.4797 399.38 68.9714 399.38 67.1109C399.38 65.2504 397.537 63.7422 395.263 63.7422C392.99 63.7422 391.147 65.2504 391.147 67.1109C391.147 68.9714 392.99 70.4797 395.263 70.4797Z" fill="black"/>
<path d="M395.263 85.7509C397.537 85.7509 399.38 84.2427 399.38 82.3822C399.38 80.5217 397.537 79.0134 395.263 79.0134C392.99 79.0134 391.147 80.5217 391.147 82.3822C391.147 84.2427 392.99 85.7509 395.263 85.7509Z" fill="black"/>
<path d="M395.263 101.022C397.537 101.022 399.38 99.5138 399.38 97.6533C399.38 95.7928 397.537 94.2845 395.263 94.2845C392.99 94.2845 391.147 95.7928 391.147 97.6533C391.147 99.5138 392.99 101.022 395.263 101.022Z" fill="black"/>
<path d="M435.3 86.5948C438.143 86.5948 440.447 84.7095 440.447 82.3839C440.447 80.0583 438.143 78.173 435.3 78.173C432.458 78.173 430.154 80.0583 430.154 82.3839C430.154 84.7095 432.458 86.5948 435.3 86.5948Z" fill="black"/>
<path d="M403.347 84.4043H412.051C412.394 83.9177 412.767 83.4456 413.167 82.99L413.688 82.375C413.142 81.7601 412.622 81.1246 412.101 80.3252H403.347C403.537 80.8524 403.653 81.3956 403.694 81.9446V82.8055C403.655 83.3479 403.539 83.8846 403.347 84.4043Z" fill="black"/>
<path d="M419.689 76.1845L419.119 75.3441L418.424 74.4012L417.333 72.6178C414.209 67.4933 410.985 65.136 404.488 65.136H403.347C403.581 65.8019 403.698 66.4923 403.694 67.1858C403.699 67.8794 403.582 68.5698 403.347 69.2356H404.488C408.505 69.2356 410.266 70.281 412.696 73.9092L413.291 74.7907L413.886 75.7746C417.482 81.7191 420.086 83.9739 426.112 84.4658C425.915 83.7947 425.815 83.1066 425.814 82.416C425.817 81.7229 425.934 81.0333 426.161 80.3662H426.31C423.384 80.1407 421.698 79.0953 419.689 76.1845Z" fill="black"/>
<path d="M415.126 87.1921L414.531 88.1145L413.589 89.6724L412.994 90.5948L412.423 91.4352C410.142 94.7355 408.356 95.6989 404.488 95.6989H403.347C403.541 96.2252 403.658 96.7689 403.694 97.3182V98.0767C403.655 98.6258 403.539 99.1693 403.347 99.696H405.133C411.109 99.5525 414.333 97.1747 417.531 92.2347L418.871 90.0414L419.391 89.2419L419.838 88.5655C420.197 88.0534 420.594 87.5605 421.028 87.0896C419.489 86.614 418.063 85.9204 416.812 85.0398C416.181 85.7183 415.617 86.4381 415.126 87.1921Z" fill="black"/>
<path d="M322.568 78.7432L321.258 82.3417H323.909L322.568 78.7432Z" fill="white"/>
<path d="M333.125 80.7236C333.387 80.6234 333.588 80.4616 333.734 80.2458C333.88 80.03 333.957 79.7758 333.957 79.4906C333.957 79.1362 333.857 78.8434 333.649 78.6199C333.441 78.3887 333.179 78.25 332.863 78.1884C332.632 78.1421 332.162 78.119 331.453 78.119H330.505V80.87H331.576C332.347 80.8777 332.863 80.8237 333.125 80.7236Z" fill="white"/>
<path d="M355.903 73.5803C356.751 73.5803 357.445 72.8868 357.445 72.0391C357.445 71.1915 356.751 70.498 355.903 70.498H350.533V66.1211C350.533 63.1467 348.113 60.7271 345.138 60.7271H342.996V55.5411C342.996 54.6935 342.303 54 341.455 54C340.608 54 339.914 54.6935 339.914 55.5411V60.7271H336.331V55.5411C336.331 54.6935 335.637 54 334.79 54C333.942 54 333.249 54.6935 333.249 55.5411V60.7271H329.665V55.5411C329.665 54.6935 328.972 54 328.124 54C327.277 54 326.583 54.6935 326.583 55.5411V60.7271H323V55.5411C323 54.6935 322.306 54 321.459 54C320.611 54 319.918 54.6935 319.918 55.5411V60.7271H313.306C310.332 60.7271 307.912 63.1467 307.912 66.1211V70.498H302.541C301.694 70.498 301 71.1915 301 72.0391C301 72.8868 301.694 73.5803 302.541 73.5803H307.912V77.1635H302.541C301.694 77.1635 301 77.857 301 78.7046C301 79.5522 301.694 80.2458 302.541 80.2458H307.912V83.8289H302.541C301.694 83.8289 301 84.5225 301 85.3701C301 86.2177 301.694 86.9112 302.541 86.9112H307.912V90.4944H302.541C301.694 90.4944 301 91.1879 301 92.0356C301 92.8832 301.694 93.5767 302.541 93.5767H307.912V97.9536C307.912 100.928 310.332 103.348 313.306 103.348H315.679V108.934C315.679 109.782 316.373 110.475 317.221 110.475C318.068 110.475 318.762 109.782 318.762 108.934V103.348H322.345V108.934C322.345 109.782 323.038 110.475 323.886 110.475C324.734 110.475 325.427 109.782 325.427 108.934V103.348H329.01V108.934C329.01 109.782 329.704 110.475 330.552 110.475C331.399 110.475 332.093 109.782 332.093 108.934V103.348H335.676V108.934C335.676 109.782 336.369 110.475 337.217 110.475C338.065 110.475 338.758 109.782 338.758 108.934V103.348H345.138C348.113 103.348 350.533 100.928 350.533 97.9536V93.5767H355.903C356.751 93.5767 357.445 92.8832 357.445 92.0356C357.445 91.1879 356.751 90.4944 355.903 90.4944H350.533V86.9112H355.903C356.751 86.9112 357.445 86.2177 357.445 85.3701C357.445 84.5225 356.751 83.8289 355.903 83.8289H350.533V80.2458H355.903C356.751 80.2458 357.445 79.5522 357.445 78.7046C357.445 77.857 356.751 77.1635 355.903 77.1635H350.533V73.5803H355.903ZM347.45 97.9459C347.45 99.2173 346.41 100.258 345.138 100.258H313.306C312.035 100.258 310.994 99.2173 310.994 97.9459V66.1211C310.994 64.8497 312.035 63.8094 313.306 63.8094H345.138C346.41 63.8094 347.45 64.8497 347.45 66.1211V97.9459Z" fill="black"/>
<path d="M320.657 83.9753H324.533L325.381 86.1792H327.508L323.624 76.4854H321.551L317.775 86.1792H319.856L320.657 83.9753ZM322.568 78.7431L323.901 82.3417H321.258L322.568 78.7431ZM330.505 82.5267H331.784C332.671 82.5267 333.349 82.4804 333.819 82.3879C334.166 82.3109 334.505 82.1568 334.836 81.9256C335.167 81.6944 335.445 81.3785 335.66 80.9701C335.876 80.5617 335.984 80.0608 335.984 79.4675C335.984 78.6969 335.799 78.065 335.422 77.5796C335.044 77.0941 334.582 76.7782 334.027 76.6318C333.665 76.5316 332.886 76.4854 331.7 76.4854H328.548V86.1792H330.505V82.5267ZM330.505 78.1267H331.453C332.162 78.1267 332.624 78.1498 332.863 78.196C333.179 78.25 333.441 78.3964 333.649 78.6275C333.857 78.8587 333.957 79.1515 333.957 79.4983C333.957 79.7834 333.88 80.0377 333.734 80.2535C333.588 80.4692 333.38 80.631 333.125 80.7312C332.863 80.8314 332.347 80.8853 331.576 80.8853H330.505V78.1267ZM337.525 76.4854H339.482V86.1792H337.525V76.4854Z" fill="black"/>
<path d="M295.227 148.182C295.227 149.409 295.006 150.47 294.562 151.364C294.119 152.258 293.511 152.947 292.739 153.432C291.966 153.917 291.083 154.159 290.091 154.159C289.098 154.159 288.216 153.917 287.443 153.432C286.67 152.947 286.063 152.258 285.619 151.364C285.176 150.47 284.955 149.409 284.955 148.182C284.955 146.955 285.176 145.894 285.619 145C286.063 144.106 286.67 143.417 287.443 142.932C288.216 142.447 289.098 142.205 290.091 142.205C291.083 142.205 291.966 142.447 292.739 142.932C293.511 143.417 294.119 144.106 294.562 145C295.006 145.894 295.227 146.955 295.227 148.182ZM293.864 148.182C293.864 147.174 293.695 146.324 293.358 145.631C293.025 144.938 292.572 144.413 292 144.057C291.432 143.701 290.795 143.523 290.091 143.523C289.386 143.523 288.748 143.701 288.176 144.057C287.608 144.413 287.155 144.938 286.818 145.631C286.485 146.324 286.318 147.174 286.318 148.182C286.318 149.189 286.485 150.04 286.818 150.733C287.155 151.426 287.608 151.951 288.176 152.307C288.748 152.663 289.386 152.841 290.091 152.841C290.795 152.841 291.432 152.663 292 152.307C292.572 151.951 293.025 151.426 293.358 150.733C293.695 150.04 293.864 149.189 293.864 148.182ZM298.756 148.75V154H297.415V145.273H298.71V146.636H298.824C299.028 146.193 299.339 145.837 299.756 145.568C300.172 145.295 300.71 145.159 301.369 145.159C301.96 145.159 302.477 145.28 302.92 145.523C303.364 145.761 303.708 146.125 303.955 146.614C304.201 147.098 304.324 147.712 304.324 148.455V154H302.983V148.545C302.983 147.86 302.805 147.326 302.449 146.943C302.093 146.557 301.604 146.364 300.983 146.364C300.555 146.364 300.172 146.456 299.835 146.642C299.502 146.828 299.239 147.098 299.045 147.455C298.852 147.811 298.756 148.242 298.756 148.75ZM310.297 157.455C309.649 157.455 309.092 157.371 308.626 157.205C308.161 157.042 307.772 156.826 307.462 156.557C307.155 156.292 306.911 156.008 306.729 155.705L307.797 154.955C307.918 155.114 308.071 155.295 308.257 155.5C308.443 155.708 308.696 155.888 309.018 156.04C309.344 156.195 309.77 156.273 310.297 156.273C311.001 156.273 311.583 156.102 312.041 155.761C312.5 155.42 312.729 154.886 312.729 154.159V152.386H312.615C312.517 152.545 312.376 152.742 312.195 152.977C312.017 153.208 311.759 153.415 311.422 153.597C311.089 153.775 310.638 153.864 310.07 153.864C309.365 153.864 308.732 153.697 308.172 153.364C307.615 153.03 307.174 152.545 306.848 151.909C306.526 151.273 306.365 150.5 306.365 149.591C306.365 148.697 306.522 147.919 306.837 147.256C307.151 146.589 307.589 146.074 308.149 145.71C308.71 145.343 309.357 145.159 310.092 145.159C310.661 145.159 311.111 145.254 311.445 145.443C311.782 145.629 312.039 145.841 312.217 146.08C312.399 146.314 312.539 146.508 312.638 146.659H312.774V145.273H314.07V154.25C314.07 155 313.899 155.61 313.558 156.08C313.221 156.553 312.767 156.9 312.195 157.119C311.626 157.343 310.994 157.455 310.297 157.455ZM310.251 152.659C310.789 152.659 311.244 152.536 311.615 152.29C311.986 152.044 312.268 151.689 312.462 151.227C312.655 150.765 312.751 150.212 312.751 149.568C312.751 148.939 312.657 148.384 312.467 147.903C312.278 147.422 311.998 147.045 311.626 146.773C311.255 146.5 310.797 146.364 310.251 146.364C309.683 146.364 309.21 146.508 308.831 146.795C308.456 147.083 308.174 147.47 307.984 147.955C307.799 148.439 307.706 148.977 307.706 149.568C307.706 150.174 307.801 150.71 307.99 151.176C308.183 151.638 308.467 152.002 308.842 152.267C309.221 152.528 309.691 152.659 310.251 152.659ZM320.07 154.182C319.282 154.182 318.59 153.994 317.996 153.619C317.405 153.244 316.943 152.72 316.609 152.045C316.28 151.371 316.115 150.583 316.115 149.682C316.115 148.773 316.28 147.979 316.609 147.301C316.943 146.623 317.405 146.097 317.996 145.722C318.59 145.347 319.282 145.159 320.07 145.159C320.857 145.159 321.547 145.347 322.138 145.722C322.732 146.097 323.195 146.623 323.524 147.301C323.857 147.979 324.024 148.773 324.024 149.682C324.024 150.583 323.857 151.371 323.524 152.045C323.195 152.72 322.732 153.244 322.138 153.619C321.547 153.994 320.857 154.182 320.07 154.182ZM320.07 152.977C320.668 152.977 321.161 152.824 321.547 152.517C321.933 152.21 322.219 151.807 322.405 151.307C322.59 150.807 322.683 150.265 322.683 149.682C322.683 149.098 322.59 148.555 322.405 148.051C322.219 147.547 321.933 147.14 321.547 146.83C321.161 146.519 320.668 146.364 320.07 146.364C319.471 146.364 318.979 146.519 318.592 146.83C318.206 147.14 317.92 147.547 317.734 148.051C317.549 148.555 317.456 149.098 317.456 149.682C317.456 150.265 317.549 150.807 317.734 151.307C317.92 151.807 318.206 152.21 318.592 152.517C318.979 152.824 319.471 152.977 320.07 152.977ZM326.071 154V145.273H327.412V154H326.071ZM326.753 143.818C326.491 143.818 326.266 143.729 326.077 143.551C325.891 143.373 325.798 143.159 325.798 142.909C325.798 142.659 325.891 142.445 326.077 142.267C326.266 142.089 326.491 142 326.753 142C327.014 142 327.238 142.089 327.423 142.267C327.613 142.445 327.707 142.659 327.707 142.909C327.707 143.159 327.613 143.373 327.423 143.551C327.238 143.729 327.014 143.818 326.753 143.818ZM331.209 148.75V154H329.868V145.273H331.163V146.636H331.277C331.482 146.193 331.792 145.837 332.209 145.568C332.625 145.295 333.163 145.159 333.822 145.159C334.413 145.159 334.93 145.28 335.374 145.523C335.817 145.761 336.161 146.125 336.408 146.614C336.654 147.098 336.777 147.712 336.777 148.455V154H335.436V148.545C335.436 147.86 335.258 147.326 334.902 146.943C334.546 146.557 334.057 146.364 333.436 146.364C333.008 146.364 332.625 146.456 332.288 146.642C331.955 146.828 331.692 147.098 331.499 147.455C331.305 147.811 331.209 148.242 331.209 148.75ZM342.75 157.455C342.102 157.455 341.545 157.371 341.08 157.205C340.614 157.042 340.225 156.826 339.915 156.557C339.608 156.292 339.364 156.008 339.182 155.705L340.25 154.955C340.371 155.114 340.525 155.295 340.71 155.5C340.896 155.708 341.15 155.888 341.472 156.04C341.797 156.195 342.223 156.273 342.75 156.273C343.455 156.273 344.036 156.102 344.494 155.761C344.953 155.42 345.182 154.886 345.182 154.159V152.386H345.068C344.97 152.545 344.83 152.742 344.648 152.977C344.47 153.208 344.212 153.415 343.875 153.597C343.542 153.775 343.091 153.864 342.523 153.864C341.818 153.864 341.186 153.697 340.625 153.364C340.068 153.03 339.627 152.545 339.301 151.909C338.979 151.273 338.818 150.5 338.818 149.591C338.818 148.697 338.975 147.919 339.29 147.256C339.604 146.589 340.042 146.074 340.602 145.71C341.163 145.343 341.811 145.159 342.545 145.159C343.114 145.159 343.564 145.254 343.898 145.443C344.235 145.629 344.492 145.841 344.67 146.08C344.852 146.314 344.992 146.508 345.091 146.659H345.227V145.273H346.523V154.25C346.523 155 346.352 155.61 346.011 156.08C345.674 156.553 345.22 156.9 344.648 157.119C344.08 157.343 343.447 157.455 342.75 157.455ZM342.705 152.659C343.242 152.659 343.697 152.536 344.068 152.29C344.439 152.044 344.722 151.689 344.915 151.227C345.108 150.765 345.205 150.212 345.205 149.568C345.205 148.939 345.11 148.384 344.92 147.903C344.731 147.422 344.451 147.045 344.08 146.773C343.708 146.5 343.25 146.364 342.705 146.364C342.136 146.364 341.663 146.508 341.284 146.795C340.909 147.083 340.627 147.47 340.438 147.955C340.252 148.439 340.159 148.977 340.159 149.568C340.159 150.174 340.254 150.71 340.443 151.176C340.636 151.638 340.92 152.002 341.295 152.267C341.674 152.528 342.144 152.659 342.705 152.659ZM356.045 154.205C355.492 154.205 354.991 154.1 354.54 153.892C354.089 153.68 353.731 153.375 353.466 152.977C353.201 152.576 353.068 152.091 353.068 151.523C353.068 151.023 353.167 150.617 353.364 150.307C353.561 149.992 353.824 149.746 354.153 149.568C354.483 149.39 354.847 149.258 355.244 149.17C355.646 149.08 356.049 149.008 356.455 148.955C356.985 148.886 357.415 148.835 357.744 148.801C358.078 148.763 358.32 148.701 358.472 148.614C358.627 148.527 358.705 148.375 358.705 148.159V148.114C358.705 147.553 358.551 147.117 358.244 146.807C357.941 146.496 357.481 146.341 356.864 146.341C356.223 146.341 355.722 146.481 355.358 146.761C354.994 147.042 354.739 147.341 354.591 147.659L353.318 147.205C353.545 146.674 353.848 146.261 354.227 145.966C354.61 145.667 355.027 145.458 355.477 145.341C355.932 145.22 356.379 145.159 356.818 145.159C357.098 145.159 357.42 145.193 357.784 145.261C358.152 145.326 358.506 145.46 358.847 145.665C359.191 145.869 359.477 146.178 359.705 146.591C359.932 147.004 360.045 147.557 360.045 148.25V154H358.705V152.818H358.636C358.545 153.008 358.394 153.21 358.182 153.426C357.97 153.642 357.688 153.826 357.335 153.977C356.983 154.129 356.553 154.205 356.045 154.205ZM356.25 153C356.78 153 357.227 152.896 357.591 152.688C357.958 152.479 358.235 152.21 358.42 151.881C358.61 151.551 358.705 151.205 358.705 150.841V149.614C358.648 149.682 358.523 149.744 358.33 149.801C358.14 149.854 357.92 149.902 357.67 149.943C357.424 149.981 357.184 150.015 356.949 150.045C356.718 150.072 356.53 150.095 356.386 150.114C356.038 150.159 355.712 150.233 355.409 150.335C355.11 150.434 354.867 150.583 354.682 150.784C354.5 150.981 354.409 151.25 354.409 151.591C354.409 152.057 354.581 152.409 354.926 152.648C355.275 152.883 355.716 153 356.25 153ZM366.038 154.182C365.22 154.182 364.516 153.989 363.925 153.602C363.334 153.216 362.879 152.684 362.561 152.006C362.243 151.328 362.084 150.553 362.084 149.682C362.084 148.795 362.247 148.013 362.572 147.335C362.902 146.653 363.36 146.121 363.947 145.739C364.538 145.352 365.228 145.159 366.016 145.159C366.629 145.159 367.182 145.273 367.675 145.5C368.167 145.727 368.571 146.045 368.885 146.455C369.199 146.864 369.394 147.341 369.47 147.886H368.129C368.027 147.489 367.8 147.136 367.447 146.83C367.099 146.519 366.629 146.364 366.038 146.364C365.516 146.364 365.057 146.5 364.663 146.773C364.273 147.042 363.968 147.422 363.749 147.915C363.533 148.403 363.425 148.977 363.425 149.636C363.425 150.311 363.531 150.898 363.743 151.398C363.959 151.898 364.262 152.286 364.652 152.562C365.046 152.839 365.508 152.977 366.038 152.977C366.387 152.977 366.703 152.917 366.987 152.795C367.271 152.674 367.512 152.5 367.709 152.273C367.906 152.045 368.046 151.773 368.129 151.455H369.47C369.394 151.97 369.207 152.434 368.908 152.847C368.612 153.256 368.22 153.581 367.732 153.824C367.247 154.062 366.682 154.182 366.038 154.182ZM374.976 154.182C374.158 154.182 373.453 153.989 372.862 153.602C372.271 153.216 371.817 152.684 371.499 152.006C371.18 151.328 371.021 150.553 371.021 149.682C371.021 148.795 371.184 148.013 371.51 147.335C371.839 146.653 372.298 146.121 372.885 145.739C373.476 145.352 374.165 145.159 374.953 145.159C375.567 145.159 376.12 145.273 376.612 145.5C377.105 145.727 377.508 146.045 377.822 146.455C378.137 146.864 378.332 147.341 378.408 147.886H377.067C376.964 147.489 376.737 147.136 376.385 146.83C376.036 146.519 375.567 146.364 374.976 146.364C374.453 146.364 373.995 146.5 373.601 146.773C373.211 147.042 372.906 147.422 372.686 147.915C372.47 148.403 372.362 148.977 372.362 149.636C372.362 150.311 372.468 150.898 372.68 151.398C372.896 151.898 373.199 152.286 373.589 152.562C373.983 152.839 374.446 152.977 374.976 152.977C375.324 152.977 375.641 152.917 375.925 152.795C376.209 152.674 376.449 152.5 376.646 152.273C376.843 152.045 376.983 151.773 377.067 151.455H378.408C378.332 151.97 378.144 152.434 377.845 152.847C377.55 153.256 377.158 153.581 376.669 153.824C376.184 154.062 375.62 154.182 374.976 154.182ZM384.027 154.182C383.186 154.182 382.461 153.996 381.851 153.625C381.245 153.25 380.777 152.727 380.447 152.057C380.122 151.383 379.959 150.598 379.959 149.705C379.959 148.811 380.122 148.023 380.447 147.341C380.777 146.655 381.235 146.121 381.822 145.739C382.413 145.352 383.103 145.159 383.891 145.159C384.345 145.159 384.794 145.235 385.237 145.386C385.68 145.538 386.084 145.784 386.447 146.125C386.811 146.462 387.101 146.909 387.317 147.466C387.533 148.023 387.641 148.708 387.641 149.523V150.091H380.913V148.932H386.277C386.277 148.439 386.179 148 385.982 147.614C385.788 147.227 385.512 146.922 385.152 146.699C384.796 146.475 384.375 146.364 383.891 146.364C383.357 146.364 382.894 146.496 382.504 146.761C382.118 147.023 381.821 147.364 381.612 147.784C381.404 148.205 381.3 148.655 381.3 149.136V149.909C381.3 150.568 381.413 151.127 381.641 151.585C381.872 152.04 382.192 152.386 382.601 152.625C383.01 152.86 383.485 152.977 384.027 152.977C384.379 152.977 384.697 152.928 384.982 152.83C385.269 152.727 385.518 152.576 385.726 152.375C385.934 152.17 386.095 151.917 386.209 151.614L387.504 151.977C387.368 152.417 387.139 152.803 386.817 153.136C386.495 153.466 386.097 153.723 385.624 153.909C385.15 154.091 384.618 154.182 384.027 154.182ZM395.862 147.227L394.658 147.568C394.582 147.367 394.47 147.172 394.322 146.983C394.179 146.79 393.982 146.631 393.732 146.506C393.482 146.381 393.161 146.318 392.771 146.318C392.237 146.318 391.792 146.441 391.436 146.688C391.084 146.93 390.908 147.239 390.908 147.614C390.908 147.947 391.029 148.21 391.271 148.403C391.514 148.597 391.893 148.758 392.408 148.886L393.703 149.205C394.483 149.394 395.065 149.684 395.447 150.074C395.83 150.46 396.021 150.958 396.021 151.568C396.021 152.068 395.877 152.515 395.589 152.909C395.305 153.303 394.908 153.614 394.396 153.841C393.885 154.068 393.29 154.182 392.612 154.182C391.722 154.182 390.985 153.989 390.402 153.602C389.819 153.216 389.449 152.652 389.294 151.909L390.567 151.591C390.688 152.061 390.917 152.413 391.254 152.648C391.595 152.883 392.04 153 392.589 153C393.214 153 393.711 152.867 394.078 152.602C394.449 152.333 394.635 152.011 394.635 151.636C394.635 151.333 394.529 151.08 394.317 150.875C394.105 150.667 393.779 150.511 393.339 150.409L391.885 150.068C391.086 149.879 390.499 149.585 390.124 149.188C389.752 148.786 389.567 148.284 389.567 147.682C389.567 147.189 389.705 146.754 389.982 146.375C390.262 145.996 390.643 145.699 391.124 145.483C391.608 145.267 392.158 145.159 392.771 145.159C393.635 145.159 394.313 145.348 394.805 145.727C395.302 146.106 395.654 146.606 395.862 147.227ZM404.222 147.227L403.017 147.568C402.941 147.367 402.83 147.172 402.682 146.983C402.538 146.79 402.341 146.631 402.091 146.506C401.841 146.381 401.521 146.318 401.131 146.318C400.597 146.318 400.152 146.441 399.795 146.688C399.443 146.93 399.267 147.239 399.267 147.614C399.267 147.947 399.388 148.21 399.631 148.403C399.873 148.597 400.252 148.758 400.767 148.886L402.062 149.205C402.843 149.394 403.424 149.684 403.807 150.074C404.189 150.46 404.381 150.958 404.381 151.568C404.381 152.068 404.237 152.515 403.949 152.909C403.665 153.303 403.267 153.614 402.756 153.841C402.244 154.068 401.65 154.182 400.972 154.182C400.081 154.182 399.345 153.989 398.761 153.602C398.178 153.216 397.809 152.652 397.653 151.909L398.926 151.591C399.047 152.061 399.277 152.413 399.614 152.648C399.955 152.883 400.4 153 400.949 153C401.574 153 402.07 152.867 402.438 152.602C402.809 152.333 402.994 152.011 402.994 151.636C402.994 151.333 402.888 151.08 402.676 150.875C402.464 150.667 402.138 150.511 401.699 150.409L400.244 150.068C399.445 149.879 398.858 149.585 398.483 149.188C398.112 148.786 397.926 148.284 397.926 147.682C397.926 147.189 398.064 146.754 398.341 146.375C398.621 145.996 399.002 145.699 399.483 145.483C399.968 145.267 400.517 145.159 401.131 145.159C401.994 145.159 402.672 145.348 403.165 145.727C403.661 146.106 404.013 146.606 404.222 147.227ZM294.636 161.364V173H293.273L286.932 163.864H286.818V173H285.409V161.364H286.773L293.136 170.523H293.25V161.364H294.636ZM300.82 173.182C300.032 173.182 299.34 172.994 298.746 172.619C298.155 172.244 297.693 171.72 297.359 171.045C297.03 170.371 296.865 169.583 296.865 168.682C296.865 167.773 297.03 166.979 297.359 166.301C297.693 165.623 298.155 165.097 298.746 164.722C299.34 164.347 300.032 164.159 300.82 164.159C301.607 164.159 302.297 164.347 302.888 164.722C303.482 165.097 303.945 165.623 304.274 166.301C304.607 166.979 304.774 167.773 304.774 168.682C304.774 169.583 304.607 170.371 304.274 171.045C303.945 171.72 303.482 172.244 302.888 172.619C302.297 172.994 301.607 173.182 300.82 173.182ZM300.82 171.977C301.418 171.977 301.911 171.824 302.297 171.517C302.683 171.21 302.969 170.807 303.155 170.307C303.34 169.807 303.433 169.265 303.433 168.682C303.433 168.098 303.34 167.555 303.155 167.051C302.969 166.547 302.683 166.14 302.297 165.83C301.911 165.519 301.418 165.364 300.82 165.364C300.221 165.364 299.729 165.519 299.342 165.83C298.956 166.14 298.67 166.547 298.484 167.051C298.299 167.555 298.206 168.098 298.206 168.682C298.206 169.265 298.299 169.807 298.484 170.307C298.67 170.807 298.956 171.21 299.342 171.517C299.729 171.824 300.221 171.977 300.82 171.977ZM314.866 173.182C314.048 173.182 313.344 172.989 312.753 172.602C312.162 172.216 311.707 171.684 311.389 171.006C311.071 170.328 310.912 169.553 310.912 168.682C310.912 167.795 311.075 167.013 311.401 166.335C311.73 165.653 312.188 165.121 312.776 164.739C313.366 164.352 314.056 164.159 314.844 164.159C315.457 164.159 316.01 164.273 316.503 164.5C316.995 164.727 317.399 165.045 317.713 165.455C318.027 165.864 318.223 166.341 318.298 166.886H316.957C316.855 166.489 316.628 166.136 316.276 165.83C315.927 165.519 315.457 165.364 314.866 165.364C314.344 165.364 313.885 165.5 313.491 165.773C313.101 166.042 312.796 166.422 312.577 166.915C312.361 167.403 312.253 167.977 312.253 168.636C312.253 169.311 312.359 169.898 312.571 170.398C312.787 170.898 313.09 171.286 313.48 171.562C313.874 171.839 314.336 171.977 314.866 171.977C315.215 171.977 315.531 171.917 315.815 171.795C316.099 171.674 316.34 171.5 316.537 171.273C316.734 171.045 316.874 170.773 316.957 170.455H318.298C318.223 170.97 318.035 171.434 317.736 171.847C317.44 172.256 317.048 172.581 316.56 172.824C316.075 173.062 315.51 173.182 314.866 173.182ZM323.804 173.182C323.016 173.182 322.325 172.994 321.73 172.619C321.139 172.244 320.677 171.72 320.344 171.045C320.014 170.371 319.849 169.583 319.849 168.682C319.849 167.773 320.014 166.979 320.344 166.301C320.677 165.623 321.139 165.097 321.73 164.722C322.325 164.347 323.016 164.159 323.804 164.159C324.592 164.159 325.281 164.347 325.872 164.722C326.467 165.097 326.929 165.623 327.259 166.301C327.592 166.979 327.759 167.773 327.759 168.682C327.759 169.583 327.592 170.371 327.259 171.045C326.929 171.72 326.467 172.244 325.872 172.619C325.281 172.994 324.592 173.182 323.804 173.182ZM323.804 171.977C324.402 171.977 324.895 171.824 325.281 171.517C325.668 171.21 325.954 170.807 326.139 170.307C326.325 169.807 326.418 169.265 326.418 168.682C326.418 168.098 326.325 167.555 326.139 167.051C325.954 166.547 325.668 166.14 325.281 165.83C324.895 165.519 324.402 165.364 323.804 165.364C323.205 165.364 322.713 165.519 322.327 165.83C321.94 166.14 321.654 166.547 321.469 167.051C321.283 167.555 321.19 168.098 321.19 168.682C321.19 169.265 321.283 169.807 321.469 170.307C321.654 170.807 321.94 171.21 322.327 171.517C322.713 171.824 323.205 171.977 323.804 171.977ZM329.805 173V164.273H331.101V165.636H331.214C331.396 165.17 331.69 164.809 332.095 164.551C332.5 164.29 332.987 164.159 333.555 164.159C334.131 164.159 334.61 164.29 334.993 164.551C335.379 164.809 335.68 165.17 335.896 165.636H335.987C336.211 165.186 336.546 164.828 336.993 164.562C337.44 164.294 337.976 164.159 338.601 164.159C339.381 164.159 340.019 164.403 340.516 164.892C341.012 165.377 341.26 166.133 341.26 167.159V173H339.919V167.159C339.919 166.515 339.743 166.055 339.391 165.778C339.038 165.502 338.624 165.364 338.146 165.364C337.533 165.364 337.057 165.549 336.72 165.92C336.383 166.288 336.214 166.754 336.214 167.318V173H334.851V167.023C334.851 166.527 334.69 166.127 334.368 165.824C334.046 165.517 333.631 165.364 333.124 165.364C332.775 165.364 332.449 165.456 332.146 165.642C331.847 165.828 331.605 166.085 331.419 166.415C331.237 166.741 331.146 167.117 331.146 167.545V173H329.805ZM343.712 176.273V164.273H345.007V165.659H345.166C345.265 165.508 345.401 165.314 345.575 165.08C345.753 164.841 346.007 164.629 346.337 164.443C346.67 164.254 347.121 164.159 347.689 164.159C348.424 164.159 349.071 164.343 349.632 164.71C350.193 165.078 350.63 165.598 350.945 166.273C351.259 166.947 351.416 167.742 351.416 168.659C351.416 169.583 351.259 170.384 350.945 171.062C350.63 171.737 350.195 172.259 349.638 172.631C349.081 172.998 348.439 173.182 347.712 173.182C347.151 173.182 346.702 173.089 346.365 172.903C346.028 172.714 345.768 172.5 345.587 172.261C345.405 172.019 345.265 171.818 345.166 171.659H345.053V176.273H343.712ZM345.03 168.636C345.03 169.295 345.126 169.877 345.32 170.381C345.513 170.881 345.795 171.273 346.166 171.557C346.537 171.837 346.992 171.977 347.53 171.977C348.09 171.977 348.558 171.83 348.933 171.534C349.312 171.235 349.596 170.833 349.786 170.33C349.979 169.822 350.075 169.258 350.075 168.636C350.075 168.023 349.981 167.47 349.791 166.977C349.606 166.481 349.323 166.089 348.945 165.801C348.57 165.509 348.098 165.364 347.53 165.364C346.984 165.364 346.526 165.502 346.155 165.778C345.784 166.051 345.503 166.434 345.314 166.926C345.125 167.415 345.03 167.985 345.03 168.636ZM354.803 161.364V173H353.462V161.364H354.803ZM360.918 173.182C360.077 173.182 359.351 172.996 358.741 172.625C358.135 172.25 357.668 171.727 357.338 171.057C357.012 170.383 356.849 169.598 356.849 168.705C356.849 167.811 357.012 167.023 357.338 166.341C357.668 165.655 358.126 165.121 358.713 164.739C359.304 164.352 359.993 164.159 360.781 164.159C361.236 164.159 361.685 164.235 362.128 164.386C362.571 164.538 362.974 164.784 363.338 165.125C363.702 165.462 363.991 165.909 364.207 166.466C364.423 167.023 364.531 167.708 364.531 168.523V169.091H357.804V167.932H363.168C363.168 167.439 363.069 167 362.872 166.614C362.679 166.227 362.402 165.922 362.043 165.699C361.687 165.475 361.266 165.364 360.781 165.364C360.247 165.364 359.785 165.496 359.395 165.761C359.009 166.023 358.711 166.364 358.503 166.784C358.295 167.205 358.19 167.655 358.19 168.136V168.909C358.19 169.568 358.304 170.127 358.531 170.585C358.762 171.04 359.082 171.386 359.491 171.625C359.901 171.86 360.376 171.977 360.918 171.977C361.27 171.977 361.588 171.928 361.872 171.83C362.16 171.727 362.408 171.576 362.616 171.375C362.825 171.17 362.986 170.917 363.099 170.614L364.395 170.977C364.259 171.417 364.029 171.803 363.707 172.136C363.385 172.466 362.988 172.723 362.514 172.909C362.041 173.091 361.509 173.182 360.918 173.182ZM370.366 164.273V165.409H365.844V164.273H370.366ZM367.162 162.182H368.503V170.5C368.503 170.879 368.558 171.163 368.668 171.352C368.781 171.538 368.925 171.663 369.099 171.727C369.277 171.788 369.465 171.818 369.662 171.818C369.81 171.818 369.931 171.811 370.026 171.795C370.12 171.777 370.196 171.761 370.253 171.75L370.526 172.955C370.435 172.989 370.308 173.023 370.145 173.057C369.982 173.095 369.776 173.114 369.526 173.114C369.147 173.114 368.776 173.032 368.412 172.869C368.052 172.706 367.753 172.458 367.514 172.125C367.279 171.792 367.162 171.371 367.162 170.864V162.182ZM372.384 173V164.273H373.724V173H372.384ZM373.065 162.818C372.804 162.818 372.579 162.729 372.389 162.551C372.204 162.373 372.111 162.159 372.111 161.909C372.111 161.659 372.204 161.445 372.389 161.267C372.579 161.089 372.804 161 373.065 161C373.327 161 373.55 161.089 373.736 161.267C373.925 161.445 374.02 161.659 374.02 161.909C374.02 162.159 373.925 162.373 373.736 162.551C373.55 162.729 373.327 162.818 373.065 162.818ZM379.726 173.182C378.938 173.182 378.247 172.994 377.652 172.619C377.061 172.244 376.599 171.72 376.266 171.045C375.936 170.371 375.771 169.583 375.771 168.682C375.771 167.773 375.936 166.979 376.266 166.301C376.599 165.623 377.061 165.097 377.652 164.722C378.247 164.347 378.938 164.159 379.726 164.159C380.514 164.159 381.203 164.347 381.794 164.722C382.389 165.097 382.851 165.623 383.18 166.301C383.514 166.979 383.68 167.773 383.68 168.682C383.68 169.583 383.514 170.371 383.18 171.045C382.851 171.72 382.389 172.244 381.794 172.619C381.203 172.994 380.514 173.182 379.726 173.182ZM379.726 171.977C380.324 171.977 380.817 171.824 381.203 171.517C381.589 171.21 381.875 170.807 382.061 170.307C382.247 169.807 382.339 169.265 382.339 168.682C382.339 168.098 382.247 167.555 382.061 167.051C381.875 166.547 381.589 166.14 381.203 165.83C380.817 165.519 380.324 165.364 379.726 165.364C379.127 165.364 378.635 165.519 378.249 165.83C377.862 166.14 377.576 166.547 377.391 167.051C377.205 167.555 377.112 168.098 377.112 168.682C377.112 169.265 377.205 169.807 377.391 170.307C377.576 170.807 377.862 171.21 378.249 171.517C378.635 171.824 379.127 171.977 379.726 171.977ZM387.068 167.75V173H385.727V164.273H387.023V165.636H387.136C387.341 165.193 387.652 164.837 388.068 164.568C388.485 164.295 389.023 164.159 389.682 164.159C390.273 164.159 390.79 164.28 391.233 164.523C391.676 164.761 392.021 165.125 392.267 165.614C392.513 166.098 392.636 166.712 392.636 167.455V173H391.295V167.545C391.295 166.86 391.117 166.326 390.761 165.943C390.405 165.557 389.917 165.364 389.295 165.364C388.867 165.364 388.485 165.456 388.148 165.642C387.814 165.828 387.551 166.098 387.358 166.455C387.165 166.811 387.068 167.242 387.068 167.75ZM403.382 164.273V165.409H398.859V164.273H403.382ZM400.178 162.182H401.518V170.5C401.518 170.879 401.573 171.163 401.683 171.352C401.797 171.538 401.941 171.663 402.115 171.727C402.293 171.788 402.481 171.818 402.678 171.818C402.825 171.818 402.946 171.811 403.041 171.795C403.136 171.777 403.212 171.761 403.268 171.75L403.541 172.955C403.45 172.989 403.323 173.023 403.161 173.057C402.998 173.095 402.791 173.114 402.541 173.114C402.162 173.114 401.791 173.032 401.428 172.869C401.068 172.706 400.768 172.458 400.53 172.125C400.295 171.792 400.178 171.371 400.178 170.864V162.182ZM405.399 173V164.273H406.74V173H405.399ZM406.081 162.818C405.82 162.818 405.594 162.729 405.405 162.551C405.219 162.373 405.126 162.159 405.126 161.909C405.126 161.659 405.219 161.445 405.405 161.267C405.594 161.089 405.82 161 406.081 161C406.342 161 406.566 161.089 406.751 161.267C406.941 161.445 407.036 161.659 407.036 161.909C407.036 162.159 406.941 162.373 406.751 162.551C406.566 162.729 406.342 162.818 406.081 162.818ZM409.196 173V164.273H410.491V165.636H410.605C410.787 165.17 411.08 164.809 411.486 164.551C411.891 164.29 412.378 164.159 412.946 164.159C413.522 164.159 414.001 164.29 414.384 164.551C414.77 164.809 415.071 165.17 415.287 165.636H415.378C415.601 165.186 415.937 164.828 416.384 164.562C416.83 164.294 417.366 164.159 417.991 164.159C418.772 164.159 419.41 164.403 419.906 164.892C420.402 165.377 420.651 166.133 420.651 167.159V173H419.31V167.159C419.31 166.515 419.134 166.055 418.781 165.778C418.429 165.502 418.014 165.364 417.537 165.364C416.923 165.364 416.448 165.549 416.111 165.92C415.774 166.288 415.605 166.754 415.605 167.318V173H414.241V167.023C414.241 166.527 414.08 166.127 413.759 165.824C413.437 165.517 413.022 165.364 412.514 165.364C412.166 165.364 411.84 165.456 411.537 165.642C411.238 165.828 410.995 166.085 410.81 166.415C410.628 166.741 410.537 167.117 410.537 167.545V173H409.196ZM426.761 173.182C425.92 173.182 425.195 172.996 424.585 172.625C423.979 172.25 423.511 171.727 423.182 171.057C422.856 170.383 422.693 169.598 422.693 168.705C422.693 167.811 422.856 167.023 423.182 166.341C423.511 165.655 423.97 165.121 424.557 164.739C425.148 164.352 425.837 164.159 426.625 164.159C427.08 164.159 427.528 164.235 427.972 164.386C428.415 164.538 428.818 164.784 429.182 165.125C429.545 165.462 429.835 165.909 430.051 166.466C430.267 167.023 430.375 167.708 430.375 168.523V169.091H423.648V167.932H429.011C429.011 167.439 428.913 167 428.716 166.614C428.523 166.227 428.246 165.922 427.886 165.699C427.53 165.475 427.11 165.364 426.625 165.364C426.091 165.364 425.629 165.496 425.239 165.761C424.852 166.023 424.555 166.364 424.347 166.784C424.138 167.205 424.034 167.655 424.034 168.136V168.909C424.034 169.568 424.148 170.127 424.375 170.585C424.606 171.04 424.926 171.386 425.335 171.625C425.744 171.86 426.22 171.977 426.761 171.977C427.114 171.977 427.432 171.928 427.716 171.83C428.004 171.727 428.252 171.576 428.46 171.375C428.669 171.17 428.83 170.917 428.943 170.614L430.239 170.977C430.102 171.417 429.873 171.803 429.551 172.136C429.229 172.466 428.831 172.723 428.358 172.909C427.884 173.091 427.352 173.182 426.761 173.182Z" fill="black"/>
</svg>
